<svg xmlns="http://www.w3.org/2000/svg" xmlns:xlink="http://www.w3.org/1999/xlink" width="62.504" height="62.504" viewBox="0 0 62.504 62.504">
  <defs>
    <clipPath id="clip-path">
      <rect id="Rectangle_406566" data-name="Rectangle 406566" width="25.199" height="33.588" fill="#12263f"/>
    </clipPath>
  </defs>
  <g id="Group_1072055" data-name="Group 1072055" transform="translate(-279.529 -1198.772)">
    <g id="Group_1072053" data-name="Group 1072053" transform="translate(279.529 1198.772)">
      <circle id="Ellipse_4742" data-name="Ellipse 4742" cx="31.252" cy="31.252" r="31.252" transform="translate(0)" fill="#ff9292"/>
    </g>
    <g id="Group_1112059" data-name="Group 1112059" transform="translate(298.182 1212.972)">
      <g id="Group_1112058" data-name="Group 1112058" clip-path="url(#clip-path)">
        <path id="Path_886550" data-name="Path 886550" d="M8.352,16.693c.086-1.356.154-2.672.255-3.986A16.456,16.456,0,0,1,11.7,4.223,17.906,17.906,0,0,1,15.556.231a.752.752,0,0,1,.856-.152.764.764,0,0,1,.4.744,9.68,9.68,0,0,0,1.7,5.26c.781,1.187,1.625,2.333,2.46,3.484A22.835,22.835,0,0,1,24.2,15.3a15.883,15.883,0,0,1,.915,7.036A12.207,12.207,0,0,1,21.067,30.3a12.233,12.233,0,0,1-9,3.276,12.172,12.172,0,0,1-7.756-3.119A12.464,12.464,0,0,1,.249,23.442a15.443,15.443,0,0,1-.078-5.065A12.412,12.412,0,0,1,1.561,13.8a6.875,6.875,0,0,1,2.031-2.346c.673-.473,1.183-.277,1.347.528a8.273,8.273,0,0,0,1.335,3.25,3.491,3.491,0,0,0,2.078,1.46m.506,8.623a5.212,5.212,0,0,0,.913,5.7,3.915,3.915,0,0,0,2.92,1.171,4.365,4.365,0,0,0,4.094-4.8,7.655,7.655,0,0,0-1.418-3.857c-.521-.753-1-1.538-1.472-2.321a6.672,6.672,0,0,1-.363-.836,6.092,6.092,0,0,0-1.449,2.972c-.125.883-.161,1.779-.21,2.671-.038.691-.353.967-1.044.864a2.3,2.3,0,0,1-1.5-.885c-.169-.212-.31-.447-.468-.677" transform="translate(-0.001 0)" fill="#12263f"/>
      </g>
    </g>
  </g>
</svg>
