<svg xmlns="http://www.w3.org/2000/svg" xmlns:xlink="http://www.w3.org/1999/xlink" width="85" height="85" viewBox="0 0 85 85">
  <defs>
    <clipPath id="clip-path">
      <rect id="Rectangle_404010" data-name="Rectangle 404010" width="68.541" height="68.541" transform="translate(0 -0.297)" fill="#fff" stroke="#707070" stroke-width="1"/>
    </clipPath>
    <clipPath id="clip-path-2">
      <rect id="Rectangle_406574" data-name="Rectangle 406574" width="65.85" height="64.036" fill="#fff"/>
    </clipPath>
  </defs>
  <g id="Group_1112775" data-name="Group 1112775" transform="translate(-600.34 -1574.297)">
    <rect id="Rectangle_404009" data-name="Rectangle 404009" width="85" height="85" transform="translate(600.34 1574.297)" fill="#005865"/>
    <g id="Mask_Group_1098861" data-name="Mask Group 1098861" transform="translate(608.711 1582.297)" clip-path="url(#clip-path)">
      <g id="Group_1112091" data-name="Group 1112091" transform="translate(1 2.704)">
        <g id="Group_1112090" data-name="Group 1112090" clip-path="url(#clip-path-2)">
          <path id="Path_886586" data-name="Path 886586" d="M180.992,212.318v-2.276c-.683,0-1.351.006-2.02,0a1.7,1.7,0,0,1-1.936-1.886q-.023-2.364,0-4.728a1.659,1.659,0,0,1,1.89-1.849q9.424-.006,18.849,0a1.665,1.665,0,0,1,1.874,1.867q.016,2.364,0,4.728a1.688,1.688,0,0,1-1.89,1.866c-.671.009-1.342,0-2.059,0v2.21c.56,0,1.093,0,1.626,0a3.97,3.97,0,0,1,4.252,4.269c.007,1.846,0,3.693,0,5.539a3.282,3.282,0,0,1-.011.4.922.922,0,0,1-.968.922.878.878,0,0,1-.947-.859c-.051-.44-.047-.887-.069-1.369h-3.622c.255,1.329.612,2.666.742,4.025a7.462,7.462,0,0,1-.993,4.085h3.91c0-.55-.015-1.085,0-1.619.026-.718.4-1.142.981-1.138s.967.438.969,1.147c.008,2.972.012,5.944,0,8.916a1.736,1.736,0,0,1-1.682,1.77c-.224.02-.45.013-.675.013-7.251,0-14.5-.021-21.754.019a2.09,2.09,0,0,1-2.389-2.412c.059-6.484.02-12.969.025-19.454a3.942,3.942,0,0,1,3.193-4.168,16.974,16.974,0,0,1,2.7-.024m-1.948-8.779v4.517c.2.012.356.028.51.028,2.544,0,5.088,0,7.633,0,.818,0,1.274.366,1.27.98s-.45.962-1.281.971c-.878.01-1.756,0-2.634,0-1.613,0-1.6,0-1.584,1.6,0,.471.145.623.619.615,1.508-.026,3.017-.009,4.525-.009,1.666,0,3.332.011,5-.015.2,0,.565-.189.579-.319a17.585,17.585,0,0,0,.028-1.829c-.446-.026-.8-.024-1.155-.072a.886.886,0,0,1-.848-.958.877.877,0,0,1,.871-.938c.695-.049,1.395-.025,2.093-.027.983,0,1.967,0,2.983,0v-4.547Zm9.331,15.231a6.459,6.459,0,1,0,6.417,6.488,6.511,6.511,0,0,0-6.417-6.488m11.206,17.591v-5.006a1.384,1.384,0,0,0-.29-.072c-1.6,0-3.2-.019-4.8.009a1.274,1.274,0,0,0-.7.324,8.4,8.4,0,0,1-10.926-.013,1.5,1.5,0,0,0-.842-.313c-1.08-.036-2.162-.015-3.243-.015h-1.654v5.086Zm-22.487-17.2c1.8,0,3.53.011,5.256-.015.19,0,.395-.193.563-.332a8.076,8.076,0,0,1,9.835-.664,5.847,5.847,0,0,0,3.874,1.027c.807-.047,1.62-.005,2.43-.011.17,0,.339-.035.564-.06,0-.963.022-1.882-.005-2.8a1.994,1.994,0,0,0-2.182-2.119c-1.62-.008-3.24,0-4.86,0q-6.683,0-13.366,0a1.935,1.935,0,0,0-2.095,1.765c-.062,1.029-.014,2.064-.014,3.21m3.862,10.127a8.726,8.726,0,0,1-.013-8.1h-3.821v8.1Z" transform="translate(-151.418 -174.339)" fill="#fff"/>
          <path id="Path_886587" data-name="Path 886587" d="M13.767,34.064c-1.7,1.81-2.35,1.849-4.157.024-.186.176-.377.351-.561.534Q5.465,38.2,1.879,41.784c-.2.2-.441.481-.687.509a1.338,1.338,0,0,1-1.013-.241,1.4,1.4,0,0,1-.15-1.028c.036-.228.3-.432.494-.62,2.557-2.537,5.119-5.07,7.718-7.641-.52-.767-1.43-1.2-1.374-2.226s.958-1.419,1.465-2.137A1.591,1.591,0,0,0,8.2,28.18a1.664,1.664,0,0,1,.1-2.553q3.979-4,7.971-7.986,3.176-3.179,6.353-6.355c.142-.142.277-.292.484-.51-.334-.345-.663-.672-.978-1.011a1.613,1.613,0,0,1,0-2.4c.667-.7,1.348-1.391,2.048-2.06a1.666,1.666,0,0,1,2.612.031C27.837,6.355,28.861,7.4,29.859,8.4L33,5.248a12.526,12.526,0,0,1-1.142-.925,1.645,1.645,0,0,1-.022-2.457c.417-.442.845-.876,1.29-1.29A1.632,1.632,0,0,1,35.592.552Q38.727,3.627,41.8,6.766a1.581,1.581,0,0,1-.011,2.256c-.457.5-.933.98-1.431,1.435a1.624,1.624,0,0,1-2.411-.029c-.374-.35-.7-.756-1-1.093l-3.1,3.094c.968.953,1.983,1.939,2.983,2.94a1.746,1.746,0,0,1,.013,2.852q-.852.868-1.721,1.719a1.737,1.737,0,0,1-2.855-.028,8.8,8.8,0,0,1-.658-.847c-.33.31-.526.485-.711.67Q23.872,26.757,16.839,33.77a2.637,2.637,0,0,1-1.416.777,4.824,4.824,0,0,1-1.656-.482m1.539-1.649,1.89-1.786a8.136,8.136,0,0,1-.975-.771.942.942,0,0,1,.015-1.387.909.909,0,0,1,1.335.026,10.1,10.1,0,0,1,.812.992l1.307-1.308a8.762,8.762,0,0,1-.949-.754.968.968,0,1,1,1.36-1.37,6.253,6.253,0,0,1,.637.816l1.325-1.107c-.311-.3-.586-.532-.827-.8a.967.967,0,0,1-.064-1.443.944.944,0,0,1,1.438.08,5.588,5.588,0,0,1,.614.846L25.49,22.23l-5.443-5.458L9.854,26.949l5.452,5.466M25.522,6.936,23.65,8.72a6.152,6.152,0,0,1,.688.517c1.138,1.121,2.272,2.246,3.389,3.388.66.676.5,1.609-.323,1.722a1.536,1.536,0,0,1-1.063-.385c-.634-.552-1.19-1.2-1.671-1.692l-2.986,2.942,5.36,5.439L30,17.692a3.033,3.033,0,0,1-.172-.282.9.9,0,0,1,.179-1.167.919.919,0,0,1,1.236-.05,4.965,4.965,0,0,1,.593.548c.617.61,1.23,1.224,1.745,1.737l1.777-1.726-9.84-9.816m7.961-3.842L39.226,8.8l.885-.845L34.355,2.171l-.872.922m-1.151,7.694,2.937-2.941-.887-.867L31.431,9.912l.9.875M12.484,32.567l-.563-.689-.905.8.657.619.812-.732M9.867,29.883l-.913.718.61.666.884-.87-.582-.514" transform="translate(0 0)" fill="#fff"/>
          <path id="Path_886588" data-name="Path 886588" d="M313.183,115.463c1.508,0,3.02-.06,4.525.015a3.884,3.884,0,0,1,3.628,3.906,3.83,3.83,0,0,1-3.6,3.926q-4.588.139-9.182,0a3.794,3.794,0,0,1-3.543-3.958,3.9,3.9,0,0,1,3.576-3.883c.18-.014.359-.041.539-.041q2.027-.005,4.054,0c0,.014,0,.027,0,.041m1.006,5.943c1.213,0,2.382.063,3.54-.02a2.018,2.018,0,0,0,.054-3.959c-1.176-.1-2.367-.024-3.594-.024Zm-2.049,0v-4.014c-1.209,0-2.377-.064-3.533.02a2.019,2.019,0,0,0,0,3.974c1.157.085,2.325.02,3.536.02" transform="translate(-263.801 -99.826)" fill="#fff"/>
          <path id="Path_886589" data-name="Path 886589" d="M19.654,413.7c-1.328,0-2.656.011-3.983,0a4.035,4.035,0,0,1-4.14-4,3.992,3.992,0,0,1,4.09-3.976q4.084-.05,8.169,0a3.989,3.989,0,1,1-.018,7.974c-1.373.017-2.746,0-4.118,0m-.926-5.962c-1.272,0-2.484-.086-3.678.028a1.992,1.992,0,0,0-.025,3.88c1.216.111,2.45.027,3.7.027Zm1.972-.059v4.056c1.1,0,2.173.031,3.245-.009a2,2,0,0,0,1.989-1.906,1.97,1.97,0,0,0-1.825-2.122c-1.11-.092-2.234-.02-3.408-.02" transform="translate(-9.973 -350.881)" fill="#fff"/>
          <path id="Path_886590" data-name="Path 886590" d="M394.841,155.765a3.706,3.706,0,0,1,3.139,2.256,3.813,3.813,0,0,1-.439,4.13,5.308,5.308,0,0,1-.532.609c-1.858,1.866-3.712,3.735-5.583,5.587a3.889,3.889,0,0,1-4.326,1.034,3.807,3.807,0,0,1-2.583-3.4,3.986,3.986,0,0,1,1.276-3.28c.63-.643,1.273-1.273,1.909-1.91l3.722-3.726a4.312,4.312,0,0,1,3.418-1.3m-1.306,7.5c.825-.771,1.738-1.509,2.507-2.375a1.9,1.9,0,0,0-.223-2.626,1.932,1.932,0,0,0-2.636-.144c-.847.762-1.6,1.626-2.368,2.416l2.72,2.729m-4.248-1.194c-.78.754-1.624,1.495-2.376,2.32a1.97,1.97,0,0,0,.11,2.694,1.923,1.923,0,0,0,2.63.2c.863-.768,1.606-1.67,2.385-2.5l-2.749-2.721" transform="translate(-332.545 -134.718)" fill="#fff"/>
          <path id="Path_886591" data-name="Path 886591" d="M398.489,277.057A5.067,5.067,0,1,1,388.356,277a5.067,5.067,0,1,1,10.133.062m-7.884-1.282a2.993,2.993,0,0,0,.753,3.584,2.8,2.8,0,0,0,3.271.448l-4.025-4.032m5.657,2.5a3,3,0,0,0-.76-3.594,2.854,2.854,0,0,0-3.321-.423l4.081,4.017" transform="translate(-335.883 -235.193)" fill="#fff"/>
          <path id="Path_886592" data-name="Path 886592" d="M33.166,297.932A3.308,3.308,0,0,1,34,295.813a15.119,15.119,0,0,1,1.48-1.472,3.617,3.617,0,0,1,5.369,4.711,5.291,5.291,0,0,1-3.567,2.654,3.669,3.669,0,0,1-4.118-3.774m3.707,1.871c.095-.014.334.026.44-.075a12.9,12.9,0,0,0,2.02-2.078,1.461,1.461,0,0,0-.574-1.89,1.62,1.62,0,0,0-1.955.01,8.655,8.655,0,0,0-1.369,1.39,1.685,1.685,0,0,0,1.437,2.644" transform="translate(-28.685 -253.837)" fill="#fff"/>
          <path id="Path_886593" data-name="Path 886593" d="M99.485,344.334a3.8,3.8,0,0,1-3.618-1.441,3.615,3.615,0,0,1,2.446-5.777,6.057,6.057,0,0,1,3.375.307,3.628,3.628,0,0,1-1.365,6.909c-.291.017-.584,0-.838,0m-.067-1.8.038-.133c.247,0,.5.014.742,0a1.79,1.79,0,0,0,1.651-1.659,1.737,1.737,0,0,0-1.646-1.72,13.6,13.6,0,0,0-1.55,0,1.707,1.707,0,0,0-1.514,1.243,1.534,1.534,0,0,0,.657,1.766,8.257,8.257,0,0,0,1.622.5" transform="translate(-82.251 -291.483)" fill="#fff"/>
          <path id="Path_886594" data-name="Path 886594" d="M246.272,360.172c-.965,0-1.931.007-2.9,0-.857-.008-1.275-.326-1.289-.953s.4-.994,1.24-1q3-.021,5.995,0c.572,0,1.087.158,1.175.85.083.659-.33,1.079-1.126,1.1-1.032.023-2.065.005-3.1.007" transform="translate(-209.377 -309.808)" fill="#fff"/>
          <path id="Path_886595" data-name="Path 886595" d="M252.39,383.6c-.7,0-1.4.012-2.094,0-.714-.015-1.141-.4-1.134-.977s.425-.933,1.159-.937q2.094-.014,4.189,0c.74,0,1.153.347,1.165.929.013.606-.422.975-1.191.987-.7.011-1.4,0-2.094,0" transform="translate(-215.497 -330.103)" fill="#fff"/>
        </g>
      </g>
    </g>
  </g>
</svg>
