<svg xmlns="http://www.w3.org/2000/svg" xmlns:xlink="http://www.w3.org/1999/xlink" width="99" height="99" viewBox="0 0 99 99">
  <defs>
    <clipPath id="clip-path">
      <rect id="Rectangle_401223" data-name="Rectangle 401223" width="99" height="99" transform="translate(0)" fill="#f3a744"/>
    </clipPath>
    <clipPath id="clip-path-2">
      <rect id="Rectangle_401223-2" data-name="Rectangle 401223" width="88.539" height="88.539" fill="#f3f9ff"/>
    </clipPath>
    <clipPath id="clip-path-3">
      <rect id="Rectangle_406586" data-name="Rectangle 406586" width="59.67" height="66" fill="none"/>
    </clipPath>
  </defs>
  <g id="Group_1109772" data-name="Group 1109772" transform="translate(-619.921 -5755.871)">
    <g id="Group_1100724" data-name="Group 1100724" transform="translate(619.921 5755.871)">
      <g id="Group_1099654" data-name="Group 1099654" transform="translate(0 0)">
        <g id="Mask_Group_1099652" data-name="Mask Group 1099652" clip-path="url(#clip-path)">
          <path id="Path_873521" data-name="Path 873521" d="M99,77.066A22,22,0,0,1,77.066,99H21.934A22,22,0,0,1,0,77.066V21.933A22,22,0,0,1,21.934,0H77.066A22,22,0,0,1,99,21.934Z" transform="translate(0)" fill="#005865"/>
        </g>
      </g>
      <g id="Group_1099659" data-name="Group 1099659" transform="translate(4.77 5.723)">
        <g id="Group_1099652" data-name="Group 1099652" transform="translate(0 0)" clip-path="url(#clip-path-2)">
          <path id="Path_873521-2" data-name="Path 873521" d="M88.539,68.922A19.674,19.674,0,0,1,68.923,88.539H19.616A19.674,19.674,0,0,1,0,68.922V19.616A19.674,19.674,0,0,1,19.616,0H68.923A19.674,19.674,0,0,1,88.539,19.616Z" fill="#f3f9ff"/>
        </g>
      </g>
    </g>
    <g id="Group_1100725" data-name="Group 1100725" transform="translate(636.343 5771.293)">
      <rect id="Rectangle_401104" data-name="Rectangle 401104" width="68" height="69" transform="translate(-0.422 0.438)" fill="none"/>
      <g id="Group_1112107" data-name="Group 1112107" transform="translate(3.579 2.438)">
        <g id="Group_1112106" data-name="Group 1112106" clip-path="url(#clip-path-3)">
          <path id="Path_886660" data-name="Path 886660" d="M93.973,35.863V91.051a2.033,2.033,0,0,1-1.751,2.224H53.593a2.039,2.039,0,0,1-1.752-2.224V35.863a2.029,2.029,0,0,1,1.751-2.222H92.222a2.019,2.019,0,0,1,1.751,2.208v.014" transform="translate(-42.03 -27.274)" fill="#f38111"/>
          <path id="Path_886661" data-name="Path 886661" d="M108.073,19.238h23.315a1.577,1.577,0,0,1,1.361,1.727V72.772a1.577,1.577,0,0,1-1.361,1.727H108.073a1.577,1.577,0,0,1-1.361-1.727V20.965a1.577,1.577,0,0,1,1.361-1.727" transform="translate(-86.517 -15.597)" fill="#fba040"/>
          <path id="Path_886662" data-name="Path 886662" d="M33.834,0H80.3a1.536,1.536,0,0,1,1.536,1.536v8.5A1.535,1.535,0,0,1,80.3,11.57H33.836A1.536,1.536,0,0,1,32.3,10.034v-8.5A1.534,1.534,0,0,1,33.834,0" transform="translate(-26.187)" fill="#e35a0b"/>
          <path id="Path_886663" data-name="Path 886663" d="M165.62,119.523V145H141.965a2.034,2.034,0,0,1-1.753-2.222V121.745a2.035,2.035,0,0,1,1.753-2.222Z" transform="translate(-113.677 -96.903)" fill="#fff"/>
          <path id="Path_886664" data-name="Path 886664" d="M184.2,146.721v3.27H164.42a1.681,1.681,0,0,1,0-3.27Z" transform="translate(-132.259 -118.954)" fill="#6d6d6d"/>
          <path id="Path_886665" data-name="Path 886665" d="M184.2,180.042v3.27H164.42a1.681,1.681,0,0,1,0-3.27Z" transform="translate(-132.259 -145.969)" fill="#6d6d6d"/>
          <path id="Path_886666" data-name="Path 886666" d="M184.222,213.419v3.257H164.44a1.675,1.675,0,0,1,0-3.257Z" transform="translate(-132.279 -173.029)" fill="#6d6d6d"/>
          <path id="Path_886667" data-name="Path 886667" d="M48.122,14.989a1.022,1.022,0,0,1-2.045,0V8.273a1.022,1.022,0,0,1,2.045,0Z" transform="translate(-37.357 -5.879)" fill="#bb470d"/>
          <path id="Path_886668" data-name="Path 886668" d="M70.607,14.989a1.022,1.022,0,0,1-2.045,0V8.273a1.022,1.022,0,0,1,2.045,0Z" transform="translate(-55.586 -5.879)" fill="#bb470d"/>
          <path id="Path_886669" data-name="Path 886669" d="M93.079,14.982a1.023,1.023,0,1,1-2.046,0V8.266a1.023,1.023,0,1,1,2.046,0Z" transform="translate(-73.805 -5.872)" fill="#bb470d"/>
          <path id="Path_886670" data-name="Path 886670" d="M115.549,14.989a1.022,1.022,0,0,1-2.045,0V8.273a1.022,1.022,0,0,1,2.045,0Z" transform="translate(-92.023 -5.879)" fill="#bb470d"/>
          <path id="Path_886671" data-name="Path 886671" d="M138.028,14.982a1.023,1.023,0,1,1-2.046,0V8.266a1.023,1.023,0,1,1,2.046,0Z" transform="translate(-110.247 -5.872)" fill="#bb470d"/>
          <path id="Path_886672" data-name="Path 886672" d="M160.512,14.989a1.022,1.022,0,0,1-2.045,0V8.273a1.022,1.022,0,0,1,2.045,0Z" transform="translate(-128.477 -5.879)" fill="#bb470d"/>
          <path id="Path_886673" data-name="Path 886673" d="M182.982,14.989a1.022,1.022,0,0,1-2.045,0V8.273a1.022,1.022,0,0,1,2.045,0Z" transform="translate(-146.694 -5.879)" fill="#bb470d"/>
          <path id="Path_886674" data-name="Path 886674" d="M205.433,14.968a1.027,1.027,0,1,1-2.053,0V8.252a1.027,1.027,0,1,1,2.053,0Z" transform="translate(-164.89 -5.858)" fill="#bb470d"/>
          <path id="Path_886675" data-name="Path 886675" d="M227.946,14.989a1.022,1.022,0,0,1-2.045,0V8.273a1.022,1.022,0,0,1,2.045,0Z" transform="translate(-183.149 -5.879)" fill="#bb470d"/>
          <path id="Path_886676" data-name="Path 886676" d="M250.395,14.989a1.022,1.022,0,0,1-2.045,0V8.273a1.022,1.022,0,0,1,2.045,0Z" transform="translate(-201.349 -5.879)" fill="#bb470d"/>
          <path id="Path_886677" data-name="Path 886677" d="M272.9,14.989a1.022,1.022,0,0,1-2.045,0V8.273a1.022,1.022,0,0,1,2.045,0Z" transform="translate(-219.596 -5.879)" fill="#bb470d"/>
          <path id="Path_886678" data-name="Path 886678" d="M187.057,16.5h14.255a1.536,1.536,0,0,1,1.536,1.536v2.19a1.534,1.534,0,0,1-1.534,1.534H187.059a1.536,1.536,0,0,1-1.536-1.532v-2.19a1.534,1.534,0,0,1,1.53-1.538h0" transform="translate(-150.412 -13.375)" fill="#fff"/>
          <path id="Path_886679" data-name="Path 886679" d="M58.9,141.031,12.055,151.386a4.542,4.542,0,0,1-5.415-3.455l-2.033-9.2a4.542,4.542,0,0,1,3.455-5.415l46.846-10.355a4.542,4.542,0,0,1,5.415,3.455l2.033,9.2a4.542,4.542,0,0,1-3.455,5.415" transform="translate(-3.647 -99.604)" fill="#fff"/>
          <path id="Path_886680" data-name="Path 886680" d="M7.417,148.7a5.4,5.4,0,0,1-5.256-4.232l-2.033-9.2a5.4,5.4,0,0,1,4.1-6.431l46.846-10.355a5.4,5.4,0,0,1,6.431,4.1l2.033,9.2a5.393,5.393,0,0,1-4.1,6.431L8.592,148.571a5.443,5.443,0,0,1-1.175.129m44.824-28.64a3.677,3.677,0,0,0-.8.087L4.6,130.5a3.7,3.7,0,0,0-2.807,4.4l2.033,9.2a3.69,3.69,0,0,0,4.4,2.807L55.07,136.553l.184.832-.184-.832a3.69,3.69,0,0,0,2.807-4.4l-2.033-9.2a3.7,3.7,0,0,0-3.6-2.894" transform="translate(0 -95.958)" fill="#db0216"/>
          <path id="Path_886681" data-name="Path 886681" d="M36.2,186l6.694-1.541.308,1.337-5.081,1.169.953,4.139,4.694-1.08.306,1.329-4.694,1.08,1.295,5.625-1.614.372Z" transform="translate(-29.348 -149.549)" fill="#db0216"/>
          <path id="Path_886682" data-name="Path 886682" d="M88.3,186.331l-.385,4.2-1.665.383,1.366-13.4,1.931-.444,7.106,11.452-1.717.4-2.231-3.6Zm3.793-2.195-2.054-3.294c-.457-.751-.814-1.449-1.162-2.12l-.043.01c-.011.767-.03,1.572-.1,2.388l-.4,3.88Z" transform="translate(-69.925 -143.559)" fill="#db0216"/>
          <path id="Path_886683" data-name="Path 886683" d="M135.686,168.109l1.614-.371,2.549,11.074,5.314-1.223.312,1.355-6.928,1.595Z" transform="translate(-110.007 -135.993)" fill="#db0216"/>
          <path id="Path_886684" data-name="Path 886684" d="M185.052,164.368a5.74,5.74,0,0,0,3.054.145c1.642-.378,2.41-1.458,2.12-2.717-.265-1.153-1.1-1.676-2.917-1.918-2.195-.253-3.7-1.03-4.1-2.769-.445-1.935.832-3.741,3.253-4.3a5.847,5.847,0,0,1,2.88-.031L189.2,154.2a4.84,4.84,0,0,0-2.483-.05c-1.707.393-2.119,1.553-1.924,2.4.266,1.154,1.153,1.549,3.021,1.817,2.3.342,3.594,1.109,4.013,2.932.439,1.907-.58,3.907-3.525,4.585a6.531,6.531,0,0,1-3.362-.08Z" transform="translate(-148.466 -123.735)" fill="#db0216"/>
          <path id="Path_886685" data-name="Path 886685" d="M243.893,145.17c.982,4.265-1.093,7.14-4.261,7.869-3.3.759-6.174-1.266-7.039-5.022-.907-3.938.935-7.088,4.253-7.852,3.394-.781,6.2,1.312,7.047,5m-9.611,2.419c.612,2.66,2.6,4.707,5.137,4.125,2.55-.587,3.443-3.258,2.793-6.082-.569-2.474-2.455-4.76-5.126-4.146s-3.429,3.385-2.8,6.1" transform="translate(-188.388 -113.507)" fill="#db0216"/>
        </g>
      </g>
    </g>
  </g>
</svg>
