<svg xmlns="http://www.w3.org/2000/svg" xmlns:xlink="http://www.w3.org/1999/xlink" width="70" height="70" viewBox="0 0 70 70">
  <defs>
    <clipPath id="clip-path">
      <rect id="Rectangle_406978" data-name="Rectangle 406978" width="35.863" height="35.817" fill="#006543"/>
    </clipPath>
  </defs>
  <g id="Group_1112768" data-name="Group 1112768" transform="translate(-268.711 -957.853)">
    <circle id="Ellipse_5614" data-name="Ellipse 5614" cx="35" cy="35" r="35" transform="translate(268.711 957.853)" fill="#fff"/>
    <g id="Group_1112676" data-name="Group 1112676" transform="translate(285.711 974.853)">
      <g id="Group_1112675" data-name="Group 1112675" clip-path="url(#clip-path)">
        <path id="Path_888137" data-name="Path 888137" d="M0,12.946a13.417,13.417,0,1,1,26.422,3.728c-.071.089-.089.09-.188.038a3.758,3.758,0,0,1-.878-1.21,12.122,12.122,0,1,0-23.918-.228A12.235,12.235,0,0,0,13.117,25.542a3.535,3.535,0,0,0-.265.666c-.054.2.042.595-.213.6A13.5,13.5,0,0,1,.075,14.7C.05,14.454.009,14.052,0,13.841Z" transform="translate(0 0)" fill="#006543"/>
        <path id="Path_888138" data-name="Path 888138" d="M48.554,52.339a3.689,3.689,0,0,0-1.281.359,2.534,2.534,0,0,0-.993,3.441A10.84,10.84,0,1,1,47.4,34.71a10.925,10.925,0,0,1,8.716,9.505A2.58,2.58,0,0,0,51.729,45.6a9.225,9.225,0,0,0,.237,3.325,12.877,12.877,0,0,0,1.618,3.412Zm3.594-11.9a.647.647,0,0,0-.836-.021L42.2,49.5l-.212-.062-2.736-2.705a.635.635,0,0,0-.894.819L41.7,50.923a.727.727,0,0,0,.764.092l9.6-9.556a.756.756,0,0,0,.089-1.024" transform="translate(-31.897 -31.94)" fill="#006543"/>
        <path id="Path_888139" data-name="Path 888139" d="M196.8,170.721a1.313,1.313,0,0,1,1.35.627,9.056,9.056,0,0,1,.346,1.666c.675,2.526,3.025,3.531,4.7,5.291,1.1,1.16,1.642,2.31,3.166,3.094a10.733,10.733,0,0,1,1.555.681V191.9a11.5,11.5,0,0,1-2.5,1.447,8.621,8.621,0,0,1-2.215.394c-3.739.2-7.651-.156-11.408,0a1.273,1.273,0,0,1-.634-2.277c.608-.461,1.111-.1,1.671-.341a.639.639,0,0,0-.008-1.17,19.425,19.425,0,0,0-2.145-.016,1.289,1.289,0,0,1-1.192-1.786c.523-1.364,2.346-.559,3.319-.855a.637.637,0,0,0-.195-1.229c-.834-.128-2.543.207-3.215-.139a1.323,1.323,0,0,1-.249-2.068c.708-.644,2.6-.188,3.539-.336a.644.644,0,0,0,.171-1.206c-.641-.256-1.5.19-2.242-.292a1.274,1.274,0,0,1,.365-2.293c.41-.063,1.244-.066,1.706-.082,1.2-.042,2.915.169,4.023,0a1.356,1.356,0,0,0,.8-.614c.534-.99-.69-2.244-1.093-3.185a8.187,8.187,0,0,1-.635-2.272,10.073,10.073,0,0,1,.034-1.976,1.366,1.366,0,0,1,.989-.874" transform="translate(-174.686 -157.98)" fill="#006543"/>
        <path id="Path_888140" data-name="Path 888140" d="M463.381,308.616c.56-.127.8.257.844.764.272,3.189-.209,6.76,0,9.99a.637.637,0,1,1-1.271.078l0-10.29a.572.572,0,0,1,.427-.541" transform="translate(-428.448 -285.592)" fill="#006543"/>
      </g>
    </g>
  </g>
</svg>
