<svg xmlns="http://www.w3.org/2000/svg" xmlns:xlink="http://www.w3.org/1999/xlink" width="178" height="178" viewBox="0 0 178 178">
  <defs>
    <clipPath id="clip-path">
      <rect id="Rectangle_406986" data-name="Rectangle 406986" width="92.822" height="85.704" fill="none"/>
    </clipPath>
  </defs>
  <g id="Group_1112749" data-name="Group 1112749" transform="translate(-1061.065 -5141.439)">
    <g id="Group_1112744" data-name="Group 1112744">
      <g id="Group_1111766" data-name="Group 1111766" transform="translate(0.28 2001.018)">
        <g id="Group_1109454" data-name="Group 1109454" transform="translate(1060.785 3140.422)">
          <path id="Path_882862" data-name="Path 882862" d="M89,0A89,89,0,1,1,0,89,89,89,0,0,1,89,0Z" transform="translate(0 -0.001)" fill="#005865"/>
          <path id="Path_882863" data-name="Path 882863" d="M78.668,0A78.668,78.668,0,1,1,0,78.668,78.668,78.668,0,0,1,78.668,0Z" transform="translate(10.332 10.331)" fill="#f3f9ff"/>
        </g>
        <g id="Group_1109457" data-name="Group 1109457" transform="translate(1100.463 3180.108)">
          <rect id="Rectangle_401104" data-name="Rectangle 401104" width="97.762" height="99.199" transform="translate(-0.354 -0.439)" fill="none"/>
          <g id="Group_1112683" data-name="Group 1112683" transform="translate(2.604 6.466)">
            <rect id="Rectangle_406982" data-name="Rectangle 406982" width="84.603" height="43.771" transform="translate(4.191 45.879)" fill="#a85120"/>
            <g id="Group_1112682" data-name="Group 1112682" transform="translate(0 0)">
              <g id="Group_1112681" data-name="Group 1112681" clip-path="url(#clip-path)">
                <path id="Path_888157" data-name="Path 888157" d="M27.264,4.436A7.966,7.966,0,1,1,19.207,12.4a8.011,8.011,0,0,1,8.057-7.965" transform="translate(-1.964 -0.453)" fill="#ffd5ab"/>
                <path id="Path_888158" data-name="Path 888158" d="M3.061,8.872A3.044,3.044,0,0,1,6.124,11.9a2.947,2.947,0,0,1-3.063,3.026A2.946,2.946,0,0,1,0,11.9,3.043,3.043,0,0,1,3.061,8.872" transform="translate(0 -0.907)" fill="#fb2b3a"/>
                <path id="Path_888159" data-name="Path 888159" d="M60.215,2.307a3.983,3.983,0,1,1-4.029,3.982,3.966,3.966,0,0,1,4.029-3.982" transform="translate(-5.746 -0.236)" fill="#fb2b3a"/>
                <rect id="Rectangle_406984" data-name="Rectangle 406984" width="10.153" height="7.965" transform="translate(68.649 27.878)" fill="#07cc66"/>
                <path id="Path_888160" data-name="Path 888160" d="M75.312,30.382v7.965H65.16V24.487H75.312Z" transform="translate(-6.663 -2.504)" fill="#ffd400"/>
                <path id="Path_888161" data-name="Path 888161" d="M52.2,33.36v5.895H36.081V33.36H52.2Z" transform="translate(-3.69 -3.411)" fill="#fb2b3a"/>
                <path id="Path_888162" data-name="Path 888162" d="M19.367,38.111H11.309l1.289-6.85a10.083,10.083,0,0,1,9.991-9.081h7.736a10.083,10.083,0,0,1,9.991,9.081l.162.955H33.547v5.895Z" transform="translate(-1.156 -2.268)" fill="#41cee2"/>
                <path id="Path_888163" data-name="Path 888163" d="M49.862,59.977a15.931,15.931,0,1,1-16.114,15.93,16.07,16.07,0,0,1,16.114-15.93" transform="translate(-3.451 -6.133)" fill="#313a52"/>
                <path id="Path_888164" data-name="Path 888164" d="M59.837,73.8v5.576H53.391V85.75H47.912V79.378H41.466V73.8h6.446V67.43h5.479V73.8Z" transform="translate(-4.24 -6.895)" fill="#b8fafd"/>
                <rect id="Rectangle_406985" data-name="Rectangle 406985" width="92.66" height="10.036" transform="translate(0.162 35.843)" fill="#c86d36"/>
              </g>
            </g>
          </g>
        </g>
      </g>
    </g>
    <rect id="Rectangle_407014" data-name="Rectangle 407014" width="27.239" height="15.628" transform="translate(1166.997 5182)" fill="#b8fafd"/>
  </g>
</svg>
