<svg xmlns="http://www.w3.org/2000/svg" xmlns:xlink="http://www.w3.org/1999/xlink" width="70" height="70" viewBox="0 0 70 70">
  <defs>
    <clipPath id="clip-path">
      <rect id="Rectangle_406977" data-name="Rectangle 406977" width="38.256" height="39.159" fill="#006543"/>
    </clipPath>
  </defs>
  <g id="Group_1112767" data-name="Group 1112767" transform="translate(-920 -3452.841)">
    <g id="Group_1109475" data-name="Group 1109475" transform="translate(651 2494.841)">
      <circle id="Ellipse_5614" data-name="Ellipse 5614" cx="35" cy="35" r="35" transform="translate(269 958)" fill="#fff"/>
    </g>
    <g id="Group_1112674" data-name="Group 1112674" transform="translate(935.711 3469)">
      <g id="Group_1112673" data-name="Group 1112673" clip-path="url(#clip-path)">
        <path id="Path_888134" data-name="Path 888134" d="M6.168,56.842v1.677a3.9,3.9,0,0,0,.253.654,1.815,1.815,0,0,0,1.512.845c3.558.306,7.549-.235,11.153,0a1.741,1.741,0,0,0,1.264-.639,5.324,5.324,0,0,0,.323-.583V56.842l4.92.02a1.989,1.989,0,0,1,1.335,1.475v5.847a11.147,11.147,0,0,0-6.555,1.559c-.716.446-1.322,1.044-2.014,1.521H4.217c-1.067.117-.7,1.272-.27,1.272H17.319l-.984,1.781L15.718,71.9H4.043a.65.65,0,0,0-.421,1.022,2.335,2.335,0,0,0,.415.242H15.506a13.878,13.878,0,0,0,0,3.354H3.857c-.295,0-.587,1.05.093,1.176l11.771.015.917,2.075.772,1.267H4.038a.643.643,0,0,0,.179,1.272l14.231,0c.739.463,1.349,1.074,2.107,1.519a11.183,11.183,0,0,0,6.374,1.468v3.944a2.008,2.008,0,0,1-1.946,1.59H1.95A1.918,1.918,0,0,1,0,89.074L.025,58.269a1.9,1.9,0,0,1,1.314-1.406Zm.88,5.911a.6.6,0,0,0,.068,1.164l12.607,0c.837-.079.708-1.128-.09-1.182ZM3.876,85.69c-.523.15-.457,1.157.157,1.164H22.9c.582-.007.684-.932.22-1.136Z" transform="translate(0 -51.689)" fill="#006543"/>
        <path id="Path_888135" data-name="Path 888135" d="M191.848,150.942a9.39,9.39,0,0,1,9.9,8.717,10.726,10.726,0,0,1-.9,4.79c.063.244,2.658,2.6,3.068,3.1a2.987,2.987,0,0,1-4.078,4.35c-.5-.4-3.007-3.163-3.23-3.205a11.634,11.634,0,0,1-3.081.881,9.388,9.388,0,0,1-10.344-10.8,9.512,9.512,0,0,1,8.66-7.84m-.183,3.806c-6.89.778-6.11,11.688,1.243,11.124,7.273-.558,6.49-12-1.243-11.124" transform="translate(-166.479 -137.24)" fill="#006543"/>
        <path id="Path_888136" data-name="Path 888136" d="M84.562,3.149A3.225,3.225,0,0,1,89.731.674,3.449,3.449,0,0,1,91,3.12c.483.165,2.492-.141,2.735.167s.006,2.953.064,3.526l-.163.2-11.632.027c-.2-.068-.224-.2-.249-.385a30.059,30.059,0,0,1,.049-3.314c.073-.15.213-.166.359-.185.358-.046,2.305.073,2.4-.006M86.869,2.1a1.239,1.239,0,0,0,1.819,1.683A1.24,1.24,0,0,0,86.869,2.1" transform="translate(-74.324 -0.001)" fill="#006543"/>
      </g>
    </g>
  </g>
</svg>
