<svg xmlns="http://www.w3.org/2000/svg" xmlns:xlink="http://www.w3.org/1999/xlink" width="178" height="178" viewBox="0 0 178 178">
  <defs>
    <clipPath id="clip-path">
      <rect id="Rectangle_406980" data-name="Rectangle 406980" width="69.29" height="96.184" fill="none"/>
    </clipPath>
  </defs>
  <g id="Group_1112742" data-name="Group 1112742" transform="translate(-355.711 -5141)">
    <g id="Group_1111763" data-name="Group 1111763" transform="translate(355.711 5141)">
      <path id="Path_882862" data-name="Path 882862" d="M89,0A89,89,0,1,1,0,89,89,89,0,0,1,89,0Z" transform="translate(0 -0.001)" fill="#005865"/>
      <path id="Path_882863" data-name="Path 882863" d="M78.668,0A78.668,78.668,0,1,1,0,78.668,78.668,78.668,0,0,1,78.668,0Z" transform="translate(10.332 10.331)" fill="#f3f9ff"/>
    </g>
    <g id="Group_1111764" data-name="Group 1111764" transform="translate(397.785 5182.439)">
      <rect id="Rectangle_401104" data-name="Rectangle 401104" width="94.791" height="96.185" transform="translate(-0.074 -0.439)" fill="none"/>
      <g id="Group_1112678" data-name="Group 1112678" transform="translate(12.358 -0.439)">
        <g id="Group_1112677" data-name="Group 1112677" transform="translate(0 0)" clip-path="url(#clip-path)">
          <path id="Path_888141" data-name="Path 888141" d="M69.29,17.727V89.684a6.179,6.179,0,0,1-6.265,6.193H6.265A6.179,6.179,0,0,1,0,89.684V17.727a6.179,6.179,0,0,1,6.265-6.193H63.024a6.179,6.179,0,0,1,6.265,6.193" transform="translate(0 0.307)" fill="#cfe0e9"/>
          <path id="Path_888142" data-name="Path 888142" d="M52.838,11.841a4.461,4.461,0,0,1-4.423,4.372H20.22a4.463,4.463,0,0,1-3.132-1.276,4.369,4.369,0,0,1-1.29-3.1v-.547A4.458,4.458,0,0,1,20.22,6.922h5.16A9.222,9.222,0,0,1,34.226,0,9.06,9.06,0,0,1,43.07,6.922H48.23a4.458,4.458,0,0,1,4.423,4.371v.547Z" transform="translate(0.42 0)" fill="#fb2b3a"/>
          <rect id="Rectangle_406979" data-name="Rectangle 406979" width="50.676" height="72.139" transform="translate(9.399 24.046)" fill="#bdf9ff"/>
          <path id="Path_888143" data-name="Path 888143" d="M52.646,58.807H20.33c-2.263,0-4.2-1.267-4.2-2.745s1.937-2.745,4.2-2.745H52.646c2.262,0,4.2,1.267,4.2,2.745s-1.941,2.745-4.2,2.745" transform="translate(-2.018 -5.226)" fill="#005865"/>
          <path id="Path_888144" data-name="Path 888144" d="M48.8,85.958H36.519c-2.264,0-4.2-1.266-4.2-2.745s1.938-2.743,4.2-2.743H48.8c2.263,0,4.2,1.266,4.2,2.743-.323,1.479-2.262,2.745-4.2,2.745" transform="translate(0.764 -0.559)" fill="#005865"/>
          <path id="Path_888145" data-name="Path 888145" d="M52.646,65.652H20.33c-2.263,0-4.2-1.266-4.2-2.745s1.937-2.743,4.2-2.743H52.646c2.262,0,4.2,1.266,4.2,2.743s-1.941,2.745-4.2,2.745" transform="translate(-2.018 -4.049)" fill="#005865"/>
          <path id="Path_888146" data-name="Path 888146" d="M52.646,72.318H20.33c-2.263,0-4.2-1.267-4.2-2.745s1.937-2.745,4.2-2.745H52.646c2.262,0,4.2,1.267,4.2,2.745s-1.941,2.745-4.2,2.745" transform="translate(-2.018 -2.904)" fill="#005865"/>
          <path id="Path_888147" data-name="Path 888147" d="M52.646,79.164H20.33c-2.263,0-4.2-1.266-4.2-2.745s1.937-2.743,4.2-2.743H52.646c2.262,0,4.2,1.266,4.2,2.743s-1.941,2.745-4.2,2.745" transform="translate(-2.018 -1.727)" fill="#005865"/>
          <path id="Path_888148" data-name="Path 888148" d="M14.059,33.042h5.1a4.71,4.71,0,0,1,3.511,1.17,3.342,3.342,0,0,1,.955,2.51v.031A3.409,3.409,0,0,1,21.4,40.064l2.572,3.757H20.527l-2.171-3.265H17.046v3.265H14.059Zm4.958,5.174c1.016,0,1.6-.493,1.6-1.278v-.031c0-.847-.616-1.278-1.617-1.278H17.046v2.587Z" transform="translate(0.053 -0.078)" fill="#005865"/>
          <path id="Path_888149" data-name="Path 888149" d="M26.837,39.554l-2.756-4.127h3.157l1.232,2.048L29.7,35.427h3.1l-2.741,4.112,2.8,4.219H29.717l-1.294-2.14-1.309,2.14h-3.08Z" transform="translate(0.319 -0.014)" fill="#005865"/>
        </g>
      </g>
    </g>
  </g>
</svg>
