<svg xmlns="http://www.w3.org/2000/svg" xmlns:xlink="http://www.w3.org/1999/xlink" width="147" height="147" viewBox="0 0 147 147">
  <defs>
    <clipPath id="clip-path">
      <rect id="Rectangle_400938" data-name="Rectangle 400938" width="147" height="147" fill="none"/>
    </clipPath>
    <clipPath id="clip-path-2">
      <rect id="Rectangle_401492" data-name="Rectangle 401492" width="78.518" height="78.519" transform="translate(2.586 3.186)" fill="#b8fafd" stroke="#707070" stroke-width="1"/>
    </clipPath>
    <clipPath id="clip-path-3">
      <rect id="Rectangle_406631" data-name="Rectangle 406631" width="50.751" height="70.748" fill="#b8fafd"/>
    </clipPath>
  </defs>
  <g id="Group_1111852" data-name="Group 1111852" transform="translate(-310 -7635)">
    <g id="Group_1102000" data-name="Group 1102000" transform="translate(448.975 7781.705) rotate(180)">
      <path id="Path_874029" data-name="Path 874029" d="M626.466,575.286l-64.987-36.674V465.259l64.987-36.677,64.987,36.677v73.354Zm-62.05-38.332,62.05,35.019,62.05-35.019V466.916l-62.05-35.022-62.05,35.022Z" transform="translate(-561.479 -428.582)" fill="#2bc897"/>
      <path id="Path_874030" data-name="Path 874030" d="M574.458,477v66.873l59.374,33.436L693.2,543.876V477l-59.373-33.436Z" transform="translate(-568.844 -437.087)" fill="#005865"/>
    </g>
    <g id="Group_1098697" data-name="Group 1098697" transform="translate(341.414 7665.634)" clip-path="url(#clip-path-2)">
      <g id="Group_1112191" data-name="Group 1112191" transform="translate(14.878 7.52)">
        <g id="Group_1112190" data-name="Group 1112190" clip-path="url(#clip-path-3)">
          <path id="Path_886866" data-name="Path 886866" d="M13.7,10.382c-1.835.044-3.226.09-3.449-2.057a33.734,33.734,0,0,1,.173-6.89C10.748.376,11.641.256,12.622.186c8.239-.591,17.174.463,25.487,0,1.414.1,2.17.39,2.357,1.916a36.829,36.829,0,0,1-.053,6.647c-.32,1.791-1.892,1.655-3.379,1.634v4.026L47.97,22.7a9.3,9.3,0,0,1,2.546,6.328c.685,11.232-.361,23.355-.213,34.641a8.551,8.551,0,0,1-6.8,6.681c-11.237-.142-23.146.8-34.338.189-5.528-.3-8.652-3.427-8.956-8.957C-.4,50.352.525,38.373.427,27.1a9.083,9.083,0,0,1,2.251-4.322L13.7,14.408ZM37.033,3.644H13.7V6.931H37.033Zm-3.287,6.738H16.984v5.505c0,.6-2.706,2.1-3.122,2.712H36.869c-.417-.612-3.122-2.108-3.122-2.712ZM47.058,30.267V27.72c0-2.093-4.074-4.689-5.679-5.661-10.825.1-21.726-.25-32.507.178-1.438,1.229-5.2,3.333-5.2,5.483v2.547Zm0,3.451H3.672V57.054H47.058Zm0,26.787H3.672v2.547c0,1.629,2.66,4.069,4.357,4.024l34.352.009c1.811.225,4.677-2.314,4.677-4.033Z" transform="translate(0 0)" fill="#b8fafd"/>
          <path id="Path_886867" data-name="Path 886867" d="M107.865,219.461h3.2a1.9,1.9,0,0,1,1.687,1.436,46.617,46.617,0,0,1-.032,7.45c-.434,1.834-3.467,1.189-4.86,1.3-.162,1.878.737,4.693-1.883,4.937a46.221,46.221,0,0,1-6.422,0c-2.621-.245-1.72-3.061-1.883-4.937-1.887-.161-4.692.735-4.937-1.883a46.192,46.192,0,0,1,0-6.422c.245-2.621,3.061-1.72,4.937-1.883.143-1.7-.673-4.66,1.725-4.931a44.515,44.515,0,0,1,6.887.015,1.867,1.867,0,0,1,1.576,1.711Zm-3.451-1.643h-3.287v3.7a2.218,2.218,0,0,1-1.4,1.4h-3.7V226.2h3.7a2.218,2.218,0,0,1,1.4,1.4v3.7h3.287v-3.7a2.218,2.218,0,0,1,1.4-1.4h3.7v-3.287h-3.7a2.218,2.218,0,0,1-1.4-1.4Z" transform="translate(-77.406 -179.17)" fill="#b8fafd"/>
        </g>
      </g>
    </g>
  </g>
</svg>
