<svg xmlns="http://www.w3.org/2000/svg" xmlns:xlink="http://www.w3.org/1999/xlink" width="178" height="178" viewBox="0 0 178 178">
  <defs>
    <clipPath id="clip-path">
      <rect id="Rectangle_406652" data-name="Rectangle 406652" width="94.416" height="100.574" fill="none"/>
    </clipPath>
  </defs>
  <g id="Group_1111863" data-name="Group 1111863" transform="translate(-703.785 -3140.421)">
    <g id="Group_1109453" data-name="Group 1109453" transform="translate(703.785 3140.422)">
      <path id="Path_882862" data-name="Path 882862" d="M89,0A89,89,0,1,1,0,89,89,89,0,0,1,89,0Z" transform="translate(0 -0.001)" fill="#005865"/>
      <path id="Path_882863" data-name="Path 882863" d="M78.668,0A78.668,78.668,0,1,1,0,78.668,78.668,78.668,0,0,1,78.668,0Z" transform="translate(10.332 10.331)" fill="#f3f9ff"/>
    </g>
    <g id="Group_1109456" data-name="Group 1109456" transform="translate(742.785 3179.421)">
      <rect id="Rectangle_401104" data-name="Rectangle 401104" width="99.117" height="100.574" transform="translate(-0.074 -0.421)" fill="none"/>
      <g id="Group_1112233" data-name="Group 1112233" transform="translate(2.276 -0.421)">
        <g id="Group_1112232" data-name="Group 1112232" clip-path="url(#clip-path)">
          <path id="Path_887103" data-name="Path 887103" d="M232.216.408a47.215,47.215,0,0,1,40.552,40.2c.732,17.767.54,35.676.447,53.489a4.391,4.391,0,0,1-1.347.218c-15.014.636-30.778-.219-45.808-.218V81.582c27.124,0,43.622-29.572,29.3-52.77a34.825,34.825,0,0,0-29.3-16.292V0s5.764.36,6.155.408M260.7,81.79h-6.259V88.05H260.7Z" transform="translate(-178.894)" fill="#4dc2fe"/>
          <path id="Path_887104" data-name="Path 887104" d="M47.167,0V12.519A34.86,34.86,0,0,0,15.416,33.452a34.467,34.467,0,0,0,31.751,48.13V94.1c-15.584,0-31.313.434-46.946.209H.013c-.04-16.445.028-32.9,0-49.343A47.326,47.326,0,0,1,40.169.525c.28-.042.561-.083.843-.117C42.44.24,47.167,0,47.167,0M15.661,81.79v5.946a2.094,2.094,0,0,0,.313.313h5.842a2.094,2.094,0,0,0,.313-.313V81.895c0-.074-.3-.351-.471-.273Z" transform="translate(0)" fill="#7fe8fd"/>
          <path id="Path_887105" data-name="Path 887105" d="M226.061,129.062V122.8A28.216,28.216,0,0,0,254.228,91.82a1.682,1.682,0,0,0-.417-1.149c.372-.929-.281-2.9-.571-3.915a29.29,29.29,0,0,0-2.559-6.1,28.873,28.873,0,0,0-24.621-14.4c0-2.083,0-4.176,0-6.259a34.824,34.824,0,0,1,29.3,16.292c14.325,23.2-2.173,52.771-29.3,52.77" transform="translate(-178.894 -47.481)" fill="#0f104e"/>
          <path id="Path_887106" data-name="Path 887106" d="M273.216,451c-.011,2.153.008,4.316,0,6.469-4.17,0-8.35-.008-12.52,0-2.083,0-4.176,0-6.259,0q-14.183.018-28.376,0V451c15.03,0,30.794.854,45.808.218a4.383,4.383,0,0,0,1.347-.218" transform="translate(-178.894 -356.899)" fill="#4ca5fb"/>
          <rect id="Rectangle_406651" data-name="Rectangle 406651" width="6.259" height="6.259" transform="translate(75.544 81.79)" fill="#4ca5fb"/>
          <path id="Path_887107" data-name="Path 887107" d="M94.853,60c0,2.083,0,4.176,0,6.259a28.8,28.8,0,0,0-17.024,5.834c-.247.19-.605.187-.5.634-.881.12-3.183,2.554-3.863,3.335a24.556,24.556,0,0,0-3.022,4.593A27.781,27.781,0,0,0,84.42,120.717,24.317,24.317,0,0,0,94.853,122.8v6.259A34.467,34.467,0,0,1,63.1,80.933,34.86,34.86,0,0,1,94.853,60" transform="translate(-47.685 -47.481)" fill="#283466"/>
          <path id="Path_887108" data-name="Path 887108" d="M47.21,457.468q-12.514,0-25.038,0c-2.153,0-4.315,0-6.468,0q-7.82-.008-15.65,0c0-2.015.006-4.037,0-6.052l.209-.209C15.9,451.433,31.627,451,47.21,451Z" transform="translate(-0.043 -356.899)" fill="#4dc2fe"/>
          <path id="Path_887109" data-name="Path 887109" d="M75.061,391.308l6-.169c.168-.078.471.2.471.273v5.842a2.093,2.093,0,0,1-.313.313H75.374a2.093,2.093,0,0,1-.313-.313Z" transform="translate(-59.4 -309.518)" fill="#4dc2fe"/>
          <path id="Path_887110" data-name="Path 887110" d="M.061,452.209c0-.069,0-.139,0-.209H.269Z" transform="translate(-0.048 -357.691)" fill="#4ca5fb"/>
          <path id="Path_887111" data-name="Path 887111" d="M226.06,239.132q0-10.949,0-21.908a6.572,6.572,0,0,0,2.352-.464c.6-.23,1.884-1.227,2.238-1.2.2.013,1.838.872,2.4,1.046,4.234,1.325,7.113.531,10.889-1.428,3.283-1.7,8.448-4.614,9.875-8.173a1.682,1.682,0,0,1,.417,1.149,28.216,28.216,0,0,1-28.167,30.983" transform="translate(-178.893 -163.81)" fill="#283366"/>
          <path id="Path_887112" data-name="Path 887112" d="M249.89,104.4,230.9,115.038c-.008-.015-.266.028-.337-.073a5.939,5.939,0,0,0-3.627-2.64,11.091,11.091,0,0,0-1.461-6.051c-.145-.282-.263-.8-.417-1.043.346-.217.208-.791.212-1.145.058-4.692,0-9.4,0-14.087a28.873,28.873,0,0,1,24.621,14.4" transform="translate(-178.102 -71.222)" fill="#283366"/>
          <path id="Path_887113" data-name="Path 887113" d="M268.091,159a29.291,29.291,0,0,1,2.559,6.1c.29,1.013.943,2.986.571,3.915-1.427,3.56-6.592,6.47-9.875,8.173-3.776,1.959-6.654,2.753-10.889,1.428-.559-.175-2.2-1.034-2.4-1.046,1.057-1.864,1.923-3.239,1.646-5.506-.029-.238-.546-2.311-.6-2.422Z" transform="translate(-196.303 -125.825)" fill="#b7c7d7"/>
          <path id="Path_887114" data-name="Path 887114" d="M113.32,169.641c-.056.112-.574,2.185-.6,2.423a13.293,13.293,0,0,0-.023,2.585,12.318,12.318,0,0,0-5.583,6.623c-1.122,3.258-1.079,12.133.208,15.34.353.879.942,1.561,1.2,2.449A27.781,27.781,0,0,1,94.542,159Z" transform="translate(-71.787 -125.825)" fill="#404a80"/>
          <path id="Path_887115" data-name="Path 887115" d="M178.1,238.59q0,10.949,0,21.908a24.317,24.317,0,0,1-10.432-2.086c-.26-.888-.849-1.57-1.2-2.449-1.287-3.207-1.329-12.082-.208-15.34A12.318,12.318,0,0,1,171.845,234a24.576,24.576,0,0,0,1.375,2.277,6.418,6.418,0,0,0,4.885,2.314" transform="translate(-130.937 -185.176)" fill="#e5ebf1"/>
          <path id="Path_887116" data-name="Path 887116" d="M115.946,120.634a12.572,12.572,0,0,1,7.516,1.561c3.031,1.519,7.983,4.368,9.8,7.2.155.241.272.761.417,1.043-.346.216-.209.792-.212,1.145-.016,1.565,0,3.135,0,4.7a6.2,6.2,0,0,0-5.3,2.848c-.071.1-.329.057-.337.073l-18.778-10.641a24.556,24.556,0,0,1,3.022-4.593c.68-.781,2.982-3.215,3.863-3.335" transform="translate(-86.306 -95.388)" fill="#e4eaf0"/>
          <path id="Path_887117" data-name="Path 887117" d="M159.519,90c0,4.69.062,9.395,0,14.087,0,.353.134.928-.212,1.145-1.82-2.835-6.771-5.684-9.8-7.2a12.573,12.573,0,0,0-7.516-1.561c-.1-.447.256-.444.5-.634A28.8,28.8,0,0,1,159.519,90" transform="translate(-112.352 -71.222)" fill="#404a80"/>
          <path id="Path_887118" data-name="Path 887118" d="M227.726,196.207a5.939,5.939,0,0,1,3.627,2.64c.071.1.329.057.337.073.056.111.573,2.184.6,2.422.277,2.268-.589,3.642-1.646,5.506-.354-.023-1.639.975-2.238,1.2a6.573,6.573,0,0,1-2.352.464c0-4.169,0-8.35,0-12.519a6,6,0,0,1,1.669.209" transform="translate(-178.89 -155.104)" fill="#8e9ebe"/>
          <path id="Path_887119" data-name="Path 887119" d="M203.779,174.051a6,6,0,0,0-1.669-.209c0,4.169,0,8.349,0,12.519a6.417,6.417,0,0,1-4.885-2.313,24.565,24.565,0,0,1-1.375-2.277,13.293,13.293,0,0,1,.023-2.585c.029-.238.546-2.311.6-2.423.008-.015.266.028.337-.073a6.2,6.2,0,0,1,5.3-2.848c0-1.562-.02-3.133,0-4.7,0-.353-.133-.928.212-1.145a11.092,11.092,0,0,1,1.461,6.051" transform="translate(-154.943 -132.947)" fill="#b7c7d7"/>
        </g>
      </g>
    </g>
  </g>
</svg>
