<svg xmlns="http://www.w3.org/2000/svg" xmlns:xlink="http://www.w3.org/1999/xlink" width="178" height="178" viewBox="0 0 178 178">
  <defs>
    <clipPath id="clip-path">
      <rect id="Rectangle_406650" data-name="Rectangle 406650" width="96.29" height="91.315" fill="none"/>
    </clipPath>
    <clipPath id="clip-path-2">
      <rect id="Rectangle_406649" data-name="Rectangle 406649" width="96.29" height="91.314" fill="none"/>
    </clipPath>
    <clipPath id="clip-path-3">
      <rect id="Rectangle_406646" data-name="Rectangle 406646" width="9.627" height="9.624" fill="none"/>
    </clipPath>
    <clipPath id="clip-path-4">
      <rect id="Rectangle_406647" data-name="Rectangle 406647" width="6.062" height="6.059" fill="none"/>
    </clipPath>
    <clipPath id="clip-path-5">
      <rect id="Rectangle_406648" data-name="Rectangle 406648" width="6.063" height="6.061" fill="none"/>
    </clipPath>
  </defs>
  <g id="Group_1111864" data-name="Group 1111864" transform="translate(-1060.785 -3140.421)">
    <g id="Group_1109454" data-name="Group 1109454" transform="translate(1060.785 3140.422)">
      <path id="Path_882862" data-name="Path 882862" d="M89,0A89,89,0,1,1,0,89,89,89,0,0,1,89,0Z" transform="translate(0 -0.001)" fill="#005865"/>
      <path id="Path_882863" data-name="Path 882863" d="M78.668,0A78.668,78.668,0,1,1,0,78.668,78.668,78.668,0,0,1,78.668,0Z" transform="translate(10.332 10.331)" fill="#f3f9ff"/>
    </g>
    <g id="Group_1109457" data-name="Group 1109457" transform="translate(1099.785 3179.421)">
      <rect id="Rectangle_401104" data-name="Rectangle 401104" width="99.117" height="100.574" transform="translate(0.216 -0.704)" fill="none"/>
      <g id="Group_1112231" data-name="Group 1112231" transform="translate(1.216 4.296)">
        <g id="Group_1112230" data-name="Group 1112230" clip-path="url(#clip-path)">
          <g id="Group_1112229" data-name="Group 1112229" transform="translate(0 0)">
            <g id="Group_1112228" data-name="Group 1112228" clip-path="url(#clip-path-2)">
              <path id="Path_887043" data-name="Path 887043" d="M20.894,73.546,3.142,55.794a10.731,10.731,0,0,1,0-15.174L40.619,3.142a10.731,10.731,0,0,1,15.174,0L73.546,20.894a10.731,10.731,0,0,1,0,15.174L36.068,73.546a10.729,10.729,0,0,1-15.174,0" transform="translate(0 0)" fill="#d6f6f7"/>
              <path id="Path_887044" data-name="Path 887044" d="M20.894,75.108,3.142,57.356a10.731,10.731,0,0,1,0-15.174L40.619,4.7a10.731,10.731,0,0,1,15.174,0L73.546,22.456a10.731,10.731,0,0,1,0,15.174L36.068,75.108a10.729,10.729,0,0,1-15.174,0" transform="translate(0 0.643)" fill="#33959a"/>
              <path id="Path_887045" data-name="Path 887045" d="M20.894,74.327,3.142,56.575a10.731,10.731,0,0,1,0-15.174L40.619,3.923a10.731,10.731,0,0,1,15.174,0L73.546,21.675a10.731,10.731,0,0,1,0,15.174L36.068,74.327a10.731,10.731,0,0,1-15.174,0" transform="translate(0 0.321)" fill="#0fd8d8"/>
              <path id="Path_887046" data-name="Path 887046" d="M43.977,12.66h0a7.836,7.836,0,0,0-.092-1.313A7.487,7.487,0,0,0,35.919,5.7a7.837,7.837,0,0,0-7.076,6.986A7.714,7.714,0,0,0,28.935,14a7.7,7.7,0,0,0,.093,1.313,7.486,7.486,0,0,0,7.965,5.649,7.837,7.837,0,0,0,7.076-6.986,7.718,7.718,0,0,0-.093-1.313" transform="translate(11.866 2.332)" fill="#13baba"/>
              <path id="Path_887047" data-name="Path 887047" d="M39.577,24.638h0a7.548,7.548,0,0,0,.092,1.313A7.487,7.487,0,0,0,47.636,31.6a7.838,7.838,0,0,0,7.076-6.986,7.722,7.722,0,0,0-.095-1.313,7.691,7.691,0,0,0-.09-1.313,7.488,7.488,0,0,0-7.967-5.649,7.837,7.837,0,0,0-7.076,6.986,7.717,7.717,0,0,0,.093,1.313" transform="translate(16.246 6.712)" fill="#13baba"/>
              <path id="Path_887048" data-name="Path 887048" d="M32.368,24.269h0a7.548,7.548,0,0,0-.093-1.313,7.489,7.489,0,0,0-7.965-5.651,7.837,7.837,0,0,0-7.076,6.986,7.7,7.7,0,0,0,.093,1.313,7.717,7.717,0,0,0,.092,1.314,7.489,7.489,0,0,0,7.965,5.649,7.837,7.837,0,0,0,7.076-6.986,7.714,7.714,0,0,0-.092-1.313" transform="translate(7.088 7.11)" fill="#13baba"/>
              <path id="Path_887049" data-name="Path 887049" d="M43.01,34.911h0a7.549,7.549,0,0,0-.093-1.313,7.489,7.489,0,0,0-7.965-5.651,7.838,7.838,0,0,0-7.076,6.986,7.7,7.7,0,0,0,.093,1.313,7.717,7.717,0,0,0,.092,1.314,7.489,7.489,0,0,0,7.965,5.649A7.837,7.837,0,0,0,43.1,36.224a7.714,7.714,0,0,0-.092-1.313" transform="translate(11.468 11.49)" fill="#13baba"/>
              <path id="Path_887050" data-name="Path 887050" d="M20.759,35.878h0a7.836,7.836,0,0,0-.092-1.313A7.49,7.49,0,0,0,12.7,28.915,7.842,7.842,0,0,0,5.624,35.9a7.844,7.844,0,0,0,.093,1.313,7.574,7.574,0,0,0,.093,1.314,7.487,7.487,0,0,0,7.965,5.649,7.84,7.84,0,0,0,7.076-6.986,8.018,8.018,0,0,0-.093-1.313" transform="translate(2.31 11.888)" fill="#13baba"/>
              <path id="Path_887051" data-name="Path 887051" d="M31.4,46.52h0a7.836,7.836,0,0,0-.092-1.313,7.49,7.49,0,0,0-7.965-5.651,7.842,7.842,0,0,0-7.078,6.986,7.844,7.844,0,0,0,.093,1.313,7.574,7.574,0,0,0,.093,1.314,7.487,7.487,0,0,0,7.965,5.649,7.84,7.84,0,0,0,7.076-6.986A8.018,8.018,0,0,0,31.4,46.52" transform="translate(6.69 16.268)" fill="#13baba"/>
              <path id="Path_887052" data-name="Path 887052" d="M43.1,10.408a7.491,7.491,0,0,0-7.965-5.651,7.84,7.84,0,0,0-7.076,6.986,7.589,7.589,0,0,0,.092,1.314L43.2,11.721a7.836,7.836,0,0,0-.092-1.313" transform="translate(11.545 1.945)" fill="#e8f7f5"/>
              <path id="Path_887053" data-name="Path 887053" d="M43.259,10.995a7.575,7.575,0,0,0-.093-1.313L28.124,11.019a7.531,7.531,0,0,0,.093,1.311,7.488,7.488,0,0,0,7.965,5.651,7.837,7.837,0,0,0,7.076-6.986" transform="translate(11.575 3.985)" fill="#e8f7f5"/>
              <path id="Path_887054" data-name="Path 887054" d="M42.569,10.581,28.546,11.826a6.982,6.982,0,0,0,7.426,5.268,7.307,7.307,0,0,0,6.6-6.513" transform="translate(11.749 4.355)" fill="#33d0d8"/>
              <path id="Path_887055" data-name="Path 887055" d="M35.022,5.124a7.307,7.307,0,0,0-6.6,6.513l14.024-1.246a6.982,6.982,0,0,0-7.426-5.267" transform="translate(11.698 2.097)" fill="#66dce2"/>
              <path id="Path_887056" data-name="Path 887056" d="M42.509,9.714,28.486,10.96a7.1,7.1,0,0,0,.085,1.224l14.024-1.246a7.24,7.24,0,0,0-.086-1.224" transform="translate(11.724 3.998)" fill="#66dce2"/>
              <path id="Path_887057" data-name="Path 887057" d="M42.537,10.071a7.245,7.245,0,0,0-.086-1.224L28.427,10.092a7.09,7.09,0,0,0,.088,1.224h0Z" transform="translate(11.696 3.641)" fill="#33d0d8"/>
              <path id="Path_887058" data-name="Path 887058" d="M53.746,21.05A7.491,7.491,0,0,0,45.78,15.4,7.84,7.84,0,0,0,38.7,22.386,7.588,7.588,0,0,0,38.8,23.7l15.042-1.337a7.836,7.836,0,0,0-.092-1.313" transform="translate(15.925 6.325)" fill="#e8f7f5"/>
              <path id="Path_887059" data-name="Path 887059" d="M53.9,21.637a7.575,7.575,0,0,0-.093-1.313L38.766,21.661a7.531,7.531,0,0,0,.093,1.311,7.488,7.488,0,0,0,7.965,5.651A7.837,7.837,0,0,0,53.9,21.637" transform="translate(15.955 8.364)" fill="#e8f7f5"/>
              <path id="Path_887060" data-name="Path 887060" d="M53.211,21.223,39.188,22.468a6.982,6.982,0,0,0,7.426,5.268,7.307,7.307,0,0,0,6.6-6.513" transform="translate(16.129 8.734)" fill="#33d0d8"/>
              <path id="Path_887061" data-name="Path 887061" d="M45.663,15.765a7.309,7.309,0,0,0-6.6,6.513l14.024-1.246a6.982,6.982,0,0,0-7.426-5.267" transform="translate(16.078 6.477)" fill="#66dce2"/>
              <path id="Path_887062" data-name="Path 887062" d="M53.151,20.356,39.128,21.6a7.1,7.1,0,0,0,.085,1.224L53.237,21.58a7.231,7.231,0,0,0-.086-1.224" transform="translate(16.104 8.378)" fill="#66dce2"/>
              <path id="Path_887063" data-name="Path 887063" d="M53.179,20.711a7.238,7.238,0,0,0-.086-1.222L39.069,20.734a7.115,7.115,0,0,0,.088,1.225Z" transform="translate(16.075 8.021)" fill="#33d0d8"/>
              <path id="Path_887064" data-name="Path 887064" d="M31.495,22.017a7.489,7.489,0,0,0-7.965-5.651,7.84,7.84,0,0,0-7.076,6.986,7.582,7.582,0,0,0,.093,1.314L31.588,23.33a7.835,7.835,0,0,0-.093-1.313" transform="translate(6.767 6.723)" fill="#e8f7f5"/>
              <path id="Path_887065" data-name="Path 887065" d="M31.649,22.6a7.7,7.7,0,0,0-.092-1.313L16.516,22.626a7.69,7.69,0,0,0,.092,1.313,7.488,7.488,0,0,0,7.965,5.651A7.84,7.84,0,0,0,31.649,22.6" transform="translate(6.797 8.762)" fill="#e8f7f5"/>
              <path id="Path_887066" data-name="Path 887066" d="M30.961,22.19,16.937,23.435A6.983,6.983,0,0,0,24.363,28.7a7.309,7.309,0,0,0,6.6-6.513" transform="translate(6.971 9.132)" fill="#33d0d8"/>
              <path id="Path_887067" data-name="Path 887067" d="M23.411,16.733a7.306,7.306,0,0,0-6.6,6.513L30.838,22a6.982,6.982,0,0,0-7.426-5.267" transform="translate(6.921 6.875)" fill="#66dce2"/>
              <path id="Path_887068" data-name="Path 887068" d="M30.9,21.323,16.876,22.568a7.225,7.225,0,0,0,.085,1.224l14.024-1.245a7.087,7.087,0,0,0-.086-1.224" transform="translate(6.946 8.776)" fill="#66dce2"/>
              <path id="Path_887069" data-name="Path 887069" d="M30.927,21.68a7.244,7.244,0,0,0-.086-1.224L16.818,21.7a7.087,7.087,0,0,0,.086,1.224Z" transform="translate(6.918 8.419)" fill="#33d0d8"/>
              <path id="Path_887070" data-name="Path 887070" d="M42.137,32.659a7.489,7.489,0,0,0-7.965-5.651A7.84,7.84,0,0,0,27.1,33.995a7.582,7.582,0,0,0,.093,1.314L42.23,33.972a7.835,7.835,0,0,0-.093-1.313" transform="translate(11.147 11.103)" fill="#e8f7f5"/>
              <path id="Path_887071" data-name="Path 887071" d="M42.29,33.246a7.7,7.7,0,0,0-.092-1.313L27.157,33.268a7.69,7.69,0,0,0,.092,1.313,7.489,7.489,0,0,0,7.965,5.651,7.84,7.84,0,0,0,7.076-6.986" transform="translate(11.177 13.142)" fill="#e8f7f5"/>
              <path id="Path_887072" data-name="Path 887072" d="M41.6,32.832,27.579,34.077a6.982,6.982,0,0,0,7.426,5.268,7.309,7.309,0,0,0,6.6-6.513" transform="translate(11.351 13.512)" fill="#33d0d8"/>
              <path id="Path_887073" data-name="Path 887073" d="M34.053,27.374a7.306,7.306,0,0,0-6.6,6.513L41.48,32.641a6.982,6.982,0,0,0-7.426-5.267" transform="translate(11.3 11.254)" fill="#66dce2"/>
              <path id="Path_887074" data-name="Path 887074" d="M41.541,31.965,27.518,33.21a7.226,7.226,0,0,0,.085,1.224l14.025-1.245a7.233,7.233,0,0,0-.088-1.224" transform="translate(11.326 13.156)" fill="#66dce2"/>
              <path id="Path_887075" data-name="Path 887075" d="M41.569,32.322a6.963,6.963,0,0,0-.086-1.224L27.46,32.343a7.087,7.087,0,0,0,.086,1.224Z" transform="translate(11.297 12.799)" fill="#33d0d8"/>
              <path id="Path_887076" data-name="Path 887076" d="M19.886,33.626a7.49,7.49,0,0,0-7.964-5.651,7.842,7.842,0,0,0-7.078,6.986,7.724,7.724,0,0,0,.093,1.314l15.042-1.337a7.689,7.689,0,0,0-.093-1.313" transform="translate(1.989 11.501)" fill="#e8f7f5"/>
              <path id="Path_887077" data-name="Path 887077" d="M20.041,34.213a7.865,7.865,0,0,0-.093-1.313L4.906,34.235A7.548,7.548,0,0,0,5,35.548,7.486,7.486,0,0,0,12.963,41.2a7.841,7.841,0,0,0,7.078-6.986" transform="translate(2.019 13.54)" fill="#e8f7f5"/>
              <path id="Path_887078" data-name="Path 887078" d="M19.351,33.8,5.328,35.044a6.983,6.983,0,0,0,7.426,5.268,7.307,7.307,0,0,0,6.6-6.513" transform="translate(2.193 13.91)" fill="#33d0d8"/>
              <path id="Path_887079" data-name="Path 887079" d="M11.8,28.342a7.307,7.307,0,0,0-6.6,6.513L19.23,33.609A6.981,6.981,0,0,0,11.8,28.342" transform="translate(2.143 11.653)" fill="#66dce2"/>
              <path id="Path_887080" data-name="Path 887080" d="M19.291,32.932,5.267,34.177A7.223,7.223,0,0,0,5.353,35.4l14.024-1.245a7.389,7.389,0,0,0-.086-1.224" transform="translate(2.168 13.554)" fill="#66dce2"/>
              <path id="Path_887081" data-name="Path 887081" d="M19.319,33.289a7.244,7.244,0,0,0-.086-1.224L5.209,33.31a7.23,7.23,0,0,0,.086,1.224Z" transform="translate(2.14 13.197)" fill="#33d0d8"/>
              <path id="Path_887082" data-name="Path 887082" d="M30.527,44.268a7.49,7.49,0,0,0-7.964-5.651A7.842,7.842,0,0,0,15.485,45.6a7.724,7.724,0,0,0,.093,1.314L30.62,45.581a7.689,7.689,0,0,0-.093-1.313" transform="translate(6.369 15.881)" fill="#e8f7f5"/>
              <path id="Path_887083" data-name="Path 887083" d="M30.683,44.855a7.865,7.865,0,0,0-.093-1.313L15.548,44.877a7.547,7.547,0,0,0,.093,1.313,7.487,7.487,0,0,0,7.964,5.651,7.84,7.84,0,0,0,7.078-6.986" transform="translate(6.399 17.92)" fill="#e8f7f5"/>
              <path id="Path_887084" data-name="Path 887084" d="M29.993,44.441,15.97,45.687a6.981,6.981,0,0,0,7.425,5.267,7.307,7.307,0,0,0,6.6-6.513" transform="translate(6.573 18.29)" fill="#33d0d8"/>
              <path id="Path_887085" data-name="Path 887085" d="M22.445,38.984a7.307,7.307,0,0,0-6.6,6.513l14.024-1.246a6.981,6.981,0,0,0-7.426-5.267" transform="translate(6.522 16.033)" fill="#66dce2"/>
              <path id="Path_887086" data-name="Path 887086" d="M29.933,43.574,15.909,44.819A7.25,7.25,0,0,0,16,46.044L30.019,44.8a7.39,7.39,0,0,0-.086-1.224" transform="translate(6.548 17.933)" fill="#66dce2"/>
              <path id="Path_887087" data-name="Path 887087" d="M29.961,43.931a7.245,7.245,0,0,0-.086-1.224L15.851,43.952a7.23,7.23,0,0,0,.086,1.224Z" transform="translate(6.52 17.577)" fill="#33d0d8"/>
              <path id="Path_887088" data-name="Path 887088" d="M52.276,66.52l.038.037a5.279,5.279,0,0,0,7.464,0l6.394-6.39L62.4,56.4Z" transform="translate(21.515 23.212)" fill="#e13633"/>
              <path id="Path_887089" data-name="Path 887089" d="M59.094,53.729,52.7,60.118a5.277,5.277,0,0,0,0,7.463l.037.038L62.864,57.5Z" transform="translate(21.054 22.113)" fill="#e13633"/>
              <path id="Path_887090" data-name="Path 887090" d="M59.45,59.35l3.769,3.767,6.393-6.389a5.277,5.277,0,0,0,0-7.463l-.037-.037Z" transform="translate(24.468 20.261)" fill="#8cddea"/>
              <path id="Path_887091" data-name="Path 887091" d="M70.675,49.691l-.038-.038a5.28,5.28,0,0,0-7.466,0l-6.393,6.392,3.77,3.767Z" transform="translate(23.368 19.799)" fill="#b3f1ff"/>
              <g id="Group_1112221" data-name="Group 1112221" transform="translate(74.059 76.072)" opacity="0.5">
                <g id="Group_1112220" data-name="Group 1112220">
                  <g id="Group_1112219" data-name="Group 1112219" clip-path="url(#clip-path-3)">
                    <path id="Path_887092" data-name="Path 887092" d="M53.224,63.516a.759.759,0,0,1-.536-1.3L60.8,54.114a.76.76,0,1,1,1.074,1.076l-8.108,8.105a.76.76,0,0,1-.538.222" transform="translate(-52.466 -53.892)" fill="#fff"/>
                  </g>
                </g>
              </g>
              <path id="Path_887093" data-name="Path 887093" d="M43.9,38.526l-.024.024a3.322,3.322,0,0,0,0,4.7L47.9,47.272,50.279,44.9Z" transform="translate(17.659 15.856)" fill="#e13633"/>
              <path id="Path_887094" data-name="Path 887094" d="M52.362,42.817l-4.027-4.024a3.325,3.325,0,0,0-4.7,0l-.023.024,6.375,6.373Z" transform="translate(17.949 15.565)" fill="#e13633"/>
              <path id="Path_887095" data-name="Path 887095" d="M48.82,43.042l-2.374,2.373,4.027,4.024a3.323,3.323,0,0,0,4.7,0l.024-.024Z" transform="translate(19.116 17.714)" fill="#8cddea"/>
              <path id="Path_887096" data-name="Path 887096" d="M54.505,50.107l.024-.024a3.322,3.322,0,0,0,0-4.7L50.5,41.361l-2.376,2.373Z" transform="translate(19.808 17.023)" fill="#b3f1ff"/>
              <g id="Group_1112224" data-name="Group 1112224" transform="translate(64.104 54.551)" opacity="0.5">
                <g id="Group_1112223" data-name="Group 1112223">
                  <g id="Group_1112222" data-name="Group 1112222" clip-path="url(#clip-path-4)">
                    <path id="Path_887097" data-name="Path 887097" d="M51,44.706a.476.476,0,0,1-.337-.141l-5.107-5.1a.478.478,0,0,1,.676-.675l5.106,5.1a.478.478,0,0,1-.337.816" transform="translate(-45.413 -38.646)" fill="#fff"/>
                  </g>
                </g>
              </g>
              <path id="Path_887098" data-name="Path 887098" d="M58.474,41.905l.025.024a3.323,3.323,0,0,0,4.7,0l4.024-4.023-2.373-2.374Z" transform="translate(24.066 14.624)" fill="#e13633"/>
              <path id="Path_887099" data-name="Path 887099" d="M62.768,33.851l-4.027,4.024a3.323,3.323,0,0,0,0,4.7l.024.023,6.377-6.373Z" transform="translate(23.775 13.932)" fill="#e13633"/>
              <path id="Path_887100" data-name="Path 887100" d="M62.992,37.391l2.374,2.374,4.024-4.026a3.322,3.322,0,0,0,0-4.7l-.023-.025Z" transform="translate(25.926 12.765)" fill="#8cddea"/>
              <path id="Path_887101" data-name="Path 887101" d="M70.06,31.308l-.025-.023a3.323,3.323,0,0,0-4.7,0L61.31,35.308l2.373,2.374Z" transform="translate(25.233 12.475)" fill="#b3f1ff"/>
              <g id="Group_1112227" data-name="Group 1112227" transform="translate(82.708 47.929)" opacity="0.5">
                <g id="Group_1112226" data-name="Group 1112226">
                  <g id="Group_1112225" data-name="Group 1112225" clip-path="url(#clip-path-5)">
                    <path id="Path_887102" data-name="Path 887102" d="M59.071,40.015a.478.478,0,0,1-.337-.816l5.107-5.1a.477.477,0,0,1,.675.675l-5.107,5.1a.468.468,0,0,1-.337.141" transform="translate(-58.593 -33.955)" fill="#fff"/>
                  </g>
                </g>
              </g>
            </g>
          </g>
        </g>
      </g>
    </g>
  </g>
</svg>
