<svg xmlns="http://www.w3.org/2000/svg" xmlns:xlink="http://www.w3.org/1999/xlink" width="295" height="357.618" viewBox="0 0 295 357.618">
  <defs>
    <clipPath id="clip-path">
      <rect id="Rectangle_405570" data-name="Rectangle 405570" width="295" height="357.618" transform="translate(1019.711 6399)" fill="#fff" stroke="#707070" stroke-width="1"/>
    </clipPath>
    <clipPath id="clip-path-2">
      <rect id="Rectangle_406686" data-name="Rectangle 406686" width="265.439" height="370.62" fill="none"/>
    </clipPath>
    <clipPath id="clip-path-3">
      <rect id="Rectangle_406663" data-name="Rectangle 406663" width="265.438" height="349.849" fill="none"/>
    </clipPath>
    <clipPath id="clip-path-4">
      <rect id="Rectangle_406662" data-name="Rectangle 406662" width="265.439" height="329.069" fill="none"/>
    </clipPath>
    <clipPath id="clip-path-5">
      <rect id="Rectangle_406661" data-name="Rectangle 406661" width="265.438" height="287.747" fill="#41cee2"/>
    </clipPath>
    <clipPath id="clip-path-6">
      <rect id="Rectangle_406667" data-name="Rectangle 406667" width="265.439" height="370.618" fill="none"/>
    </clipPath>
    <clipPath id="clip-path-7">
      <rect id="Rectangle_406665" data-name="Rectangle 406665" width="251.917" height="29.408" fill="none"/>
    </clipPath>
    <clipPath id="clip-path-9">
      <path id="Path_887188" data-name="Path 887188" d="M686.518,756.189a7.735,7.735,0,0,0-6.757,6.75v1.848a7.732,7.732,0,0,0,7.677,6.81,8.21,8.21,0,0,0,7.676-7.719v-.934a7.734,7.734,0,0,0-7.667-6.811h-.007a7.733,7.733,0,0,0-.924.056" transform="translate(-679.761 -756.133)" fill="none"/>
    </clipPath>
    <linearGradient id="linear-gradient" x1="-14.197" y1="8.296" x2="-14.176" y2="8.296" gradientUnits="objectBoundingBox">
      <stop offset="0" stop-color="#d5d6d7"/>
      <stop offset="0.192" stop-color="#cfd2d3"/>
      <stop offset="0.397" stop-color="#c0c6c7"/>
      <stop offset="0.607" stop-color="#a7b1b3"/>
      <stop offset="0.82" stop-color="#879697"/>
      <stop offset="1" stop-color="#687d7e"/>
    </linearGradient>
    <clipPath id="clip-path-10">
      <path id="Path_887189" data-name="Path 887189" d="M686.518,839.319a7.736,7.736,0,0,0-6.757,6.75v1.848a7.732,7.732,0,0,0,7.677,6.811h0a8.208,8.208,0,0,0,7.676-7.714v-.939a7.734,7.734,0,0,0-7.667-6.811,7.838,7.838,0,0,0-.931.056" transform="translate(-679.761 -839.263)" fill="none"/>
    </clipPath>
    <linearGradient id="linear-gradient-2" x1="-14.197" y1="6.572" x2="-14.176" y2="6.572" xlink:href="#linear-gradient"/>
    <clipPath id="clip-path-11">
      <path id="Path_887190" data-name="Path 887190" d="M686.52,922.456a7.735,7.735,0,0,0-6.759,6.749v1.848a7.732,7.732,0,0,0,7.677,6.813h0a8.21,8.21,0,0,0,7.676-7.722v-.929a7.734,7.734,0,0,0-7.668-6.814,7.833,7.833,0,0,0-.928.055" transform="translate(-679.761 -922.401)" fill="none"/>
    </clipPath>
    <linearGradient id="linear-gradient-3" x1="-14.197" y1="4.848" x2="-14.176" y2="4.848" xlink:href="#linear-gradient"/>
    <clipPath id="clip-path-13">
      <path id="Path_887197" data-name="Path 887197" d="M530.226,756.2a7.735,7.735,0,0,0-6.757,6.752v1.834s0,.008,0,.012a7.732,7.732,0,0,0,7.677,6.811,8.21,8.21,0,0,0,7.677-7.72v-.934a7.734,7.734,0,0,0-7.667-6.811h-.007a7.76,7.76,0,0,0-.924.055" transform="translate(-523.469 -756.141)" fill="none"/>
    </clipPath>
    <linearGradient id="linear-gradient-4" x1="-10.932" y1="8.295" x2="-10.912" y2="8.295" xlink:href="#linear-gradient"/>
    <clipPath id="clip-path-14">
      <path id="Path_887198" data-name="Path 887198" d="M530.226,839.319a7.735,7.735,0,0,0-6.757,6.752V847.9s0,.008,0,.012a7.732,7.732,0,0,0,7.677,6.811h0a8.208,8.208,0,0,0,7.677-7.714v-.939a7.735,7.735,0,0,0-7.667-6.811,7.838,7.838,0,0,0-.931.056" transform="translate(-523.469 -839.263)" fill="none"/>
    </clipPath>
    <linearGradient id="linear-gradient-5" x1="-10.932" y1="6.572" x2="-10.912" y2="6.572" xlink:href="#linear-gradient"/>
    <clipPath id="clip-path-15">
      <path id="Path_887199" data-name="Path 887199" d="M530.228,922.456a7.735,7.735,0,0,0-6.759,6.75v1.846a7.732,7.732,0,0,0,7.677,6.813h0a8.21,8.21,0,0,0,7.677-7.721v-.93a7.734,7.734,0,0,0-7.668-6.814,7.835,7.835,0,0,0-.928.055" transform="translate(-523.469 -922.401)" fill="none"/>
    </clipPath>
    <linearGradient id="linear-gradient-6" x1="-10.932" y1="4.848" x2="-10.912" y2="4.848" xlink:href="#linear-gradient"/>
    <clipPath id="clip-path-17">
      <path id="Path_887206" data-name="Path 887206" d="M608.373,756.189a7.735,7.735,0,0,0-6.755,6.733v1.873a7.733,7.733,0,0,0,7.677,6.8,8.21,8.21,0,0,0,7.676-7.719v-.934a7.734,7.734,0,0,0-7.667-6.811H609.3a7.733,7.733,0,0,0-.924.056" transform="translate(-601.618 -756.133)" fill="none"/>
    </clipPath>
    <linearGradient id="linear-gradient-7" x1="-12.566" y1="8.296" x2="-12.546" y2="8.296" xlink:href="#linear-gradient"/>
    <clipPath id="clip-path-18">
      <path id="Path_887207" data-name="Path 887207" d="M608.373,839.319a7.735,7.735,0,0,0-6.755,6.733v1.872a7.732,7.732,0,0,0,7.676,6.8h0a8.208,8.208,0,0,0,7.676-7.714v-.939a7.734,7.734,0,0,0-7.667-6.811,7.842,7.842,0,0,0-.931.056" transform="translate(-601.618 -839.263)" fill="none"/>
    </clipPath>
    <linearGradient id="linear-gradient-8" x1="-12.566" y1="6.572" x2="-12.546" y2="6.572" xlink:href="#linear-gradient"/>
    <clipPath id="clip-path-19">
      <path id="Path_887208" data-name="Path 887208" d="M608.374,922.456a7.735,7.735,0,0,0-6.757,6.731v1.877a7.732,7.732,0,0,0,7.675,6.8h0a8.21,8.21,0,0,0,7.676-7.721v-.93A7.734,7.734,0,0,0,609.3,922.4a7.833,7.833,0,0,0-.929.055" transform="translate(-601.618 -922.401)" fill="none"/>
    </clipPath>
    <linearGradient id="linear-gradient-9" x1="-12.566" y1="4.848" x2="-12.546" y2="4.848" xlink:href="#linear-gradient"/>
  </defs>
  <g id="Mask_Group_1109099" data-name="Mask Group 1109099" transform="translate(-1019.711 -6399)" clip-path="url(#clip-path)">
    <g id="Group_1112289" data-name="Group 1112289" transform="translate(1034.492 6409.798)">
      <g id="Group_1112288" data-name="Group 1112288" clip-path="url(#clip-path-2)">
        <g id="Group_1112256" data-name="Group 1112256" transform="translate(0 20.771)">
          <g id="Group_1112255" data-name="Group 1112255" clip-path="url(#clip-path-3)">
            <g id="Group_1112254" data-name="Group 1112254" transform="translate(0 14.155)" opacity="0.22">
              <g id="Group_1112253" data-name="Group 1112253">
                <g id="Group_1112252" data-name="Group 1112252" clip-path="url(#clip-path-4)">
                  <g id="Group_1112251" data-name="Group 1112251" transform="translate(0 -0.001)">
                    <g id="Group_1112250" data-name="Group 1112250" clip-path="url(#clip-path-5)">
                      <path id="Path_887148" data-name="Path 887148" d="M265.438,273.441c0,90.87-59.421,164.535-132.719,164.535S0,364.312,0,273.441,59.421,108.906,132.719,108.906c44.2,0,83.353,26.785,107.673,68.319,15.681,26.777,25.047,60.142,25.047,96.217" transform="translate(0 -108.906)" fill="#41cee2"/>
                    </g>
                  </g>
                </g>
              </g>
            </g>
          </g>
        </g>
        <g id="Group_1112263" data-name="Group 1112263" transform="translate(0 0.001)">
          <g id="Group_1112262" data-name="Group 1112262" clip-path="url(#clip-path-6)">
            <g id="Group_1112261" data-name="Group 1112261" transform="translate(6.76 309.569)" opacity="0.22">
              <g id="Group_1112260" data-name="Group 1112260">
                <g id="Group_1112259" data-name="Group 1112259" clip-path="url(#clip-path-7)">
                  <g id="Group_1112258" data-name="Group 1112258" transform="translate(0)">
                    <g id="Group_1112257" data-name="Group 1112257" clip-path="url(#clip-path-7)">
                      <path id="Path_887149" data-name="Path 887149" d="M273,980.045c0,8.123-56.394,14.7-125.959,14.7s-125.958-6.583-125.958-14.7,56.394-14.7,125.958-14.7S273,971.925,273,980.045" transform="translate(-21.081 -965.341)" fill="#6cb8ab"/>
                    </g>
                  </g>
                </g>
              </g>
            </g>
            <path id="Path_887150" data-name="Path 887150" d="M129.293,115.273h-46.5s-35.333,21.492-35.333,61V323.911s.926,22.881,33.472,22.881h50.216c32.55,0,33.479-22.881,33.479-22.881V176.274c0-39.509-35.335-61-35.335-61" transform="translate(-32.24 -78.308)" fill="#2bc897"/>
            <rect id="Rectangle_406666" data-name="Rectangle 406666" width="117.168" height="125.576" transform="translate(15.22 98.521)" fill="#72370d"/>
            <path id="Path_887151" data-name="Path 887151" d="M210.707,445.529H200.058V433.524h-13.45v12.005H175.96v15.156h10.649v12h13.45v-12h10.649Z" transform="translate(-119.532 -294.5)" fill="#fcfcfc"/>
            <path id="Path_887152" data-name="Path 887152" d="M135.428,0h41.12A14.436,14.436,0,0,1,190.984,14.44V26.672a14.439,14.439,0,0,1-14.436,14.439H135.426A14.436,14.436,0,0,1,120.99,26.675V14.442A14.438,14.438,0,0,1,135.428,0" transform="translate(-82.19 -0.004)" fill="#e69037"/>
            <path id="Path_887153" data-name="Path 887153" d="M156.873,9.741v33.43a1.389,1.389,0,1,0,2.764,0V9.741a1.389,1.389,0,1,0-2.764,0" transform="translate(-106.561 -5.58)" fill="#e17320"/>
            <path id="Path_887154" data-name="Path 887154" d="M184.456,9.741v33.43a1.389,1.389,0,1,0,2.764,0V9.741a1.389,1.389,0,1,0-2.764,0" transform="translate(-125.299 -5.58)" fill="#e17320"/>
            <path id="Path_887155" data-name="Path 887155" d="M212.029,9.717v33.43a1.389,1.389,0,1,0,2.762,0V9.717a1.389,1.389,0,1,0-2.762,0" transform="translate(-144.028 -5.557)" fill="#e17320"/>
            <path id="Path_887156" data-name="Path 887156" d="M239.6,9.766V43.2a1.389,1.389,0,1,0,2.766,0V9.766a1.389,1.389,0,1,0-2.766,0" transform="translate(-162.761 -5.606)" fill="#e17320"/>
            <path id="Path_887157" data-name="Path 887157" d="M267.173,9.766V43.2a1.389,1.389,0,1,0,2.764,0V9.766a1.389,1.389,0,1,0-2.766,0" transform="translate(-181.489 -5.606)" fill="#e17320"/>
            <path id="Path_887158" data-name="Path 887158" d="M294.748,9.717v33.43a1.389,1.389,0,0,0,2.762.3,1.423,1.423,0,0,0,0-.3V9.717a1.389,1.389,0,0,0-2.762-.3,1.332,1.332,0,0,0,0,.3" transform="translate(-200.221 -5.557)" fill="#e17320"/>
            <path id="Path_887159" data-name="Path 887159" d="M548.181,291.052c.382,3.975-.949,7.429-2.959,7.676l-57.179,7.012c-2.012.248-3.97-2.8-4.354-6.778L464.244,97.253c-.384-3.975.949-7.429,2.959-7.674l57.179-7.014c2.012-.245,3.97,2.806,4.354,6.78Z" transform="translate(-315.323 -56.079)" fill="#787879"/>
            <path id="Path_887160" data-name="Path 887160" d="M579.2,210.641l-1.456-15.019a.563.563,0,0,1,.463-.635l9.163-1.13a7.408,7.408,0,0,1,7.871,6.914q.007.112.011.223l.014.134a7.892,7.892,0,0,1-6.336,8.892l-9.155,1.13a.527.527,0,0,1-.562-.491v-.018" transform="translate(-392.469 -131.681)" fill="#e69037"/>
            <path id="Path_887161" data-name="Path 887161" d="M545.079,213.635l-1.533-15.8a.167.167,0,0,0-.173-.16h-.005l-9.447,1.157a7.955,7.955,0,0,0-6.387,8.963,7.475,7.475,0,0,0,7.73,7.211c.075,0,.149-.006.224-.011l9.447-1.157a.178.178,0,0,0,.142-.2" transform="translate(-358.304 -134.283)" fill="#fff"/>
            <path id="Path_887162" data-name="Path 887162" d="M588.357,304.988,586.9,289.971a.563.563,0,0,1,.463-.634l9.163-1.129a7.408,7.408,0,0,1,7.871,6.913c0,.075.008.15.011.226l.014.134a7.892,7.892,0,0,1-6.336,8.889l-9.153,1.13a.53.53,0,0,1-.562-.5v-.013" transform="translate(-398.686 -195.774)" fill="#e69037"/>
            <path id="Path_887163" data-name="Path 887163" d="M554.232,307.976l-1.533-15.8a.167.167,0,0,0-.171-.162h-.007l-9.447,1.157a7.955,7.955,0,0,0-6.387,8.964,7.475,7.475,0,0,0,7.73,7.211c.075,0,.149-.006.224-.011l9.447-1.157a.176.176,0,0,0,.141-.2" transform="translate(-364.522 -198.37)" fill="#fff"/>
            <path id="Path_887164" data-name="Path 887164" d="M598.03,404.721,596.574,389.7a.563.563,0,0,1,.463-.634l9.163-1.129a7.408,7.408,0,0,1,7.871,6.913c0,.075.008.15.011.226l.014.134a7.892,7.892,0,0,1-6.336,8.892l-9.153,1.13a.53.53,0,0,1-.562-.5v-.013" transform="translate(-405.257 -263.524)" fill="#e69037"/>
            <path id="Path_887165" data-name="Path 887165" d="M563.905,407.71l-1.533-15.8a.166.166,0,0,0-.171-.162h-.008l-9.447,1.157a7.954,7.954,0,0,0-6.387,8.964,7.475,7.475,0,0,0,7.73,7.211c.075,0,.149-.006.224-.011l9.447-1.157a.178.178,0,0,0,.141-.2" transform="translate(-371.093 -266.121)" fill="#fff"/>
            <path id="Path_887166" data-name="Path 887166" d="M607.754,505.174,606.3,490.155a.563.563,0,0,1,.463-.634l9.163-1.132a7.408,7.408,0,0,1,7.871,6.913c0,.075.008.151.011.226l.014.134a7.9,7.9,0,0,1-6.336,8.892l-9.156,1.129a.527.527,0,0,1-.562-.492v-.018" transform="translate(-411.863 -331.76)" fill="#e69037"/>
            <path id="Path_887167" data-name="Path 887167" d="M573.65,508.166l-1.532-15.8a.167.167,0,0,0-.171-.162h-.008l-9.447,1.157a7.954,7.954,0,0,0-6.387,8.964,7.475,7.475,0,0,0,7.73,7.211c.075,0,.149-.006.224-.011l9.447-1.157a.176.176,0,0,0,.141-.2" transform="translate(-377.713 -334.362)" fill="#fff"/>
            <path id="Path_887168" data-name="Path 887168" d="M617.369,604.02,615.913,589a.563.563,0,0,1,.463-.634l9.163-1.132a7.408,7.408,0,0,1,7.871,6.913q.007.113.011.226l.014.134A7.892,7.892,0,0,1,627.1,603.4l-9.156,1.129a.527.527,0,0,1-.562-.492v-.018" transform="translate(-418.395 -398.907)" fill="#e69037"/>
            <path id="Path_887169" data-name="Path 887169" d="M583.244,607.007l-1.533-15.8a.166.166,0,0,0-.171-.162h-.007l-9.447,1.157a7.954,7.954,0,0,0-6.387,8.963,7.475,7.475,0,0,0,7.73,7.211c.075,0,.149-.006.224-.012l9.447-1.157a.178.178,0,0,0,.141-.2" transform="translate(-384.23 -401.505)" fill="#fff"/>
            <path id="Path_887170" data-name="Path 887170" d="M341.557,343.131l-40.15,167.833,59.16,13.35,20.265-172.321Z" transform="translate(-204.75 -233.095)" fill="#f0f2f0"/>
            <path id="Path_887171" data-name="Path 887171" d="M291.649,872.669l1.037-5.834a1.088,1.088,0,0,1,1.2-.961l.064.009L354.726,879.6a1.218,1.218,0,0,1,.845,1.428l-1.037,5.834a1.086,1.086,0,0,1-1.2.962l-.072-.01L292.494,874.1a1.215,1.215,0,0,1-.843-1.428" transform="translate(-198.103 -588.198)" fill="#f1f1f1"/>
            <path id="Path_887172" data-name="Path 887172" d="M451.635,295.813l4.441-25,23.228,5.24-4.441,25Z" transform="translate(-306.802 -183.966)" fill="#fff"/>
            <path id="Path_887173" data-name="Path 887173" d="M462.608,298.3l4.44-25-1.389-.315-4.44,25Zm3.6.813,4.442-25-1.389-.313-4.44,25Zm-7.2-1.621,4.44-25-1.389-.315-4.44,25Zm22.441-20.941-1.389-.312-4.44,25,1.389.315Zm-11.642,23.381,4.44-25-1.389-.315-4.44,25Zm3.6.813,4.44-25-1.389-.313-4.44,25Z" transform="translate(-310.867 -184.892)" fill="#d9d9d9"/>
            <path id="Path_887174" data-name="Path 887174" d="M357.08,444.41,325.243,580.241l44,9.919L386.292,451Z" transform="translate(-220.942 -301.895)" fill="#cbcbcb"/>
            <path id="Path_887175" data-name="Path 887175" d="M315.541,761.934l5.176-21.478,54.336,12.269-2.611,22.2Z" transform="translate(-214.352 -503.004)" fill="#b40016"/>
            <path id="Path_887176" data-name="Path 887176" d="M416.813,717.856l-.775,4.364,1.639,1.234-.4,2.229-7.593-6.072.382-2.148,9.084-2.315-.4,2.285Zm-1.586.354-3.456.769,2.926,2.211Z" transform="translate(-278.307 -485.811)" fill="#b40016"/>
            <path id="Path_887177" data-name="Path 887177" d="M415.313,679.335l8.334,1.882L423.329,683l-5.9,3.544,5.063,1.144-.382,2.148-8.334-1.882.319-1.8,5.894-3.53-5.063-1.144Z" transform="translate(-281.087 -461.483)" fill="#b40016"/>
            <path id="Path_887178" data-name="Path 887178" d="M421.277,655.692l-.532,3.009-1.572-.354,1.456-8.19,1.569.354-.532,3.01,6.766,1.528-.387,2.174Z" transform="translate(-284.75 -441.662)" fill="#b40016"/>
            <path id="Path_887179" data-name="Path 887179" d="M424.356,641.9l.386-2.175,8.34,1.882-.386,2.175Z" transform="translate(-288.271 -434.579)" fill="#b40016"/>
            <path id="Path_887180" data-name="Path 887180" d="M433.023,609.344a1.9,1.9,0,0,1,1.389-.162,2.027,2.027,0,0,1,1.516,1.338,5.624,5.624,0,0,1,.093,2.933l-.864,4.861-8.334-1.882.815-4.59a4.863,4.863,0,0,1,1.051-2.507,1.744,1.744,0,0,1,1.748-.563,1.98,1.98,0,0,1,1.026.574,2.424,2.424,0,0,1,.586,1.088,2.389,2.389,0,0,1,.979-1.09m-4.371,5.255,1.965.444.384-2.162a2.52,2.52,0,0,0-.035-1.278.88.88,0,0,0-.664-.581.776.776,0,0,0-.806.25,2.415,2.415,0,0,0-.463,1.158Zm5.861-2.665a.9.9,0,0,0-.695-.611q-1.037-.231-1.345,1.5l-.451,2.546,2.06.463.463-2.546a2.776,2.776,0,0,0-.021-1.352" transform="translate(-289.948 -413.513)" fill="#b40016"/>
            <path id="Path_887181" data-name="Path 887181" d="M432.484,596.138l.386-2.175,8.34,1.882-.386,2.175Z" transform="translate(-293.793 -403.489)" fill="#b40016"/>
            <path id="Path_887182" data-name="Path 887182" d="M444.394,568.13a4.276,4.276,0,0,1-1.871,1.491,3.814,3.814,0,0,1-2.315.167,4.131,4.131,0,0,1-2.083-1.157,4.876,4.876,0,0,1-1.215-2.188,6.281,6.281,0,0,1-.092-2.767,5.881,5.881,0,0,1,1.028-2.5,4.321,4.321,0,0,1,1.868-1.493,3.8,3.8,0,0,1,2.329-.171,4.089,4.089,0,0,1,2.083,1.157,4.943,4.943,0,0,1,1.215,2.188,6.247,6.247,0,0,1,.095,2.757,5.952,5.952,0,0,1-1.03,2.514m-.695-4.463a2.843,2.843,0,0,0-.759-1.269,2.7,2.7,0,0,0-1.313-.694,2.544,2.544,0,0,0-1.449.069,2.469,2.469,0,0,0-1.132.841,3.211,3.211,0,0,0-.609,1.426,3.421,3.421,0,0,0,.074,1.581,2.811,2.811,0,0,0,.759,1.266,2.7,2.7,0,0,0,1.313.695,2.464,2.464,0,0,0,2.583-.912,3.208,3.208,0,0,0,.606-1.426,3.4,3.4,0,0,0-.072-1.581" transform="translate(-296.661 -380.009)" fill="#b40016"/>
            <path id="Path_887183" data-name="Path 887183" d="M442.644,535.407l-.532,3.009-1.572-.354,1.456-8.19,1.569.354-.532,3.01,6.766,1.528-.387,2.174Z" transform="translate(-299.265 -359.951)" fill="#b40016"/>
            <path id="Path_887184" data-name="Path 887184" d="M445.716,521.612l.386-2.175,8.34,1.882-.386,2.175Z" transform="translate(-302.781 -352.862)" fill="#b40016"/>
            <path id="Path_887185" data-name="Path 887185" d="M457.59,495.294a4.258,4.258,0,0,1-1.852,1.479,3.856,3.856,0,0,1-2.34.164,4.145,4.145,0,0,1-2.1-1.157,4.861,4.861,0,0,1-1.213-2.171,6.209,6.209,0,0,1-.09-2.736,6,6,0,0,1,.773-2.123,4.21,4.21,0,0,1,1.389-1.41l.9,1.655a3.061,3.061,0,0,0-1.389,2.141,3.6,3.6,0,0,0,.065,1.635,2.8,2.8,0,0,0,.757,1.28,2.7,2.7,0,0,0,1.313.694,2.544,2.544,0,0,0,1.449-.072,2.459,2.459,0,0,0,1.137-.854,3.4,3.4,0,0,0,.616-1.482,3.341,3.341,0,0,0-.57-2.586l1.389-1.139a4.678,4.678,0,0,1,.813,1.915,6.364,6.364,0,0,1-.012,2.3A5.841,5.841,0,0,1,457.6,495.3" transform="translate(-305.611 -331.058)" fill="#b40016"/>
            <path id="Path_887186" data-name="Path 887186" d="M434.744,809.252H280.537V717.58H434.744a5,5,0,0,1,4.681,5.274V803.98a5,5,0,0,1-4.681,5.276" transform="translate(-190.573 -487.464)" fill="#6e6f71"/>
            <path id="Path_887187" data-name="Path 887187" d="M430.42,809.252H276.213V717.58H430.42a5,5,0,0,1,4.678,5.274V803.98a5,5,0,0,1-4.678,5.276" transform="translate(-187.635 -487.464)" fill="#a3a2a3"/>
          </g>
        </g>
        <g id="Group_1112265" data-name="Group 1112265" transform="translate(217.99 242.481)">
          <g id="Group_1112264" data-name="Group 1112264" clip-path="url(#clip-path-9)">
            <rect id="Rectangle_406668" data-name="Rectangle 406668" width="15.355" height="15.464" transform="translate(0 0)" fill="url(#linear-gradient)"/>
          </g>
        </g>
        <g id="Group_1112267" data-name="Group 1112267" transform="translate(217.99 269.14)">
          <g id="Group_1112266" data-name="Group 1112266" clip-path="url(#clip-path-10)">
            <rect id="Rectangle_406669" data-name="Rectangle 406669" width="15.355" height="15.465" transform="translate(0 0)" fill="url(#linear-gradient-2)"/>
          </g>
        </g>
        <g id="Group_1112269" data-name="Group 1112269" transform="translate(217.99 295.801)">
          <g id="Group_1112268" data-name="Group 1112268" clip-path="url(#clip-path-11)">
            <rect id="Rectangle_406670" data-name="Rectangle 406670" width="15.355" height="15.464" fill="url(#linear-gradient-3)"/>
          </g>
        </g>
        <g id="Group_1112271" data-name="Group 1112271" transform="translate(0 0.001)">
          <g id="Group_1112270" data-name="Group 1112270" clip-path="url(#clip-path-6)">
            <path id="Path_887191" data-name="Path 887191" d="M698.393,762.943a7.732,7.732,0,1,0-7.676,8.653,8.209,8.209,0,0,0,7.676-8.653" transform="translate(-463.961 -513.652)" fill="#fff"/>
            <path id="Path_887192" data-name="Path 887192" d="M698.393,846.082a7.732,7.732,0,1,0-7.676,8.653,8.209,8.209,0,0,0,7.676-8.653" transform="translate(-463.961 -570.13)" fill="#fff"/>
            <path id="Path_887193" data-name="Path 887193" d="M698.393,929.22a7.732,7.732,0,1,0-7.676,8.653,8.209,8.209,0,0,0,7.676-8.653" transform="translate(-463.961 -626.607)" fill="#fff"/>
            <path id="Path_887194" data-name="Path 887194" d="M704.94,767.616a3.093,3.093,0,0,0,1.389,0V750.467a3.105,3.105,0,0,0-1.389,0Z" transform="translate(-478.876 -509.751)" fill="#d7d8d9"/>
            <path id="Path_887195" data-name="Path 887195" d="M704.94,850.791a3.1,3.1,0,0,0,1.389,0V833.642a3.1,3.1,0,0,0-1.389,0Z" transform="translate(-478.876 -566.253)" fill="#d7d8d9"/>
            <path id="Path_887196" data-name="Path 887196" d="M704.94,933.892a3.1,3.1,0,0,0,1.389,0V916.743a3.1,3.1,0,0,0-1.389,0Z" transform="translate(-478.876 -622.705)" fill="#d7d8d9"/>
          </g>
        </g>
        <g id="Group_1112273" data-name="Group 1112273" transform="translate(167.869 242.484)">
          <g id="Group_1112272" data-name="Group 1112272" clip-path="url(#clip-path-13)">
            <rect id="Rectangle_406672" data-name="Rectangle 406672" width="15.355" height="15.464" fill="url(#linear-gradient-4)"/>
          </g>
        </g>
        <g id="Group_1112275" data-name="Group 1112275" transform="translate(167.869 269.14)">
          <g id="Group_1112274" data-name="Group 1112274" clip-path="url(#clip-path-14)">
            <rect id="Rectangle_406673" data-name="Rectangle 406673" width="15.355" height="15.465" transform="translate(0 0)" fill="url(#linear-gradient-5)"/>
          </g>
        </g>
        <g id="Group_1112277" data-name="Group 1112277" transform="translate(167.869 295.801)">
          <g id="Group_1112276" data-name="Group 1112276" clip-path="url(#clip-path-15)">
            <rect id="Rectangle_406674" data-name="Rectangle 406674" width="15.355" height="15.464" transform="translate(0)" fill="url(#linear-gradient-6)"/>
          </g>
        </g>
        <g id="Group_1112279" data-name="Group 1112279" transform="translate(0 0.001)">
          <g id="Group_1112278" data-name="Group 1112278" clip-path="url(#clip-path-6)">
            <path id="Path_887200" data-name="Path 887200" d="M542.1,762.943a7.732,7.732,0,1,0-7.676,8.653,8.209,8.209,0,0,0,7.676-8.653" transform="translate(-357.789 -513.652)" fill="#fff"/>
            <path id="Path_887201" data-name="Path 887201" d="M542.1,846.082a7.732,7.732,0,1,0-7.676,8.653,8.209,8.209,0,0,0,7.676-8.653" transform="translate(-357.789 -570.13)" fill="#fff"/>
            <path id="Path_887202" data-name="Path 887202" d="M542.1,929.22a7.732,7.732,0,1,0-7.676,8.653,8.209,8.209,0,0,0,7.676-8.653" transform="translate(-357.789 -626.607)" fill="#fff"/>
            <path id="Path_887203" data-name="Path 887203" d="M548.647,767.616a3.109,3.109,0,0,0,1.389,0V750.467a6.573,6.573,0,0,0-.694-.078,6.866,6.866,0,0,0-.695.078Z" transform="translate(-372.704 -509.751)" fill="#d7d8d9"/>
            <path id="Path_887204" data-name="Path 887204" d="M548.647,850.791a6.728,6.728,0,0,0,.695.078,6.557,6.557,0,0,0,.694-.078V833.642a6.655,6.655,0,0,0-.694-.079,6.78,6.78,0,0,0-.695.079Z" transform="translate(-372.704 -566.253)" fill="#d7d8d9"/>
            <path id="Path_887205" data-name="Path 887205" d="M548.647,933.892a3.109,3.109,0,0,0,1.389,0V916.743a3.107,3.107,0,0,0-1.389,0Z" transform="translate(-372.704 -622.705)" fill="#d7d8d9"/>
          </g>
        </g>
        <g id="Group_1112281" data-name="Group 1112281" transform="translate(192.93 242.481)">
          <g id="Group_1112280" data-name="Group 1112280" clip-path="url(#clip-path-17)">
            <rect id="Rectangle_406676" data-name="Rectangle 406676" width="15.353" height="15.464" fill="url(#linear-gradient-7)"/>
          </g>
        </g>
        <g id="Group_1112283" data-name="Group 1112283" transform="translate(192.93 269.14)">
          <g id="Group_1112282" data-name="Group 1112282" clip-path="url(#clip-path-18)">
            <rect id="Rectangle_406677" data-name="Rectangle 406677" width="15.353" height="15.465" transform="translate(0)" fill="url(#linear-gradient-8)"/>
          </g>
        </g>
        <g id="Group_1112285" data-name="Group 1112285" transform="translate(192.93 295.801)">
          <g id="Group_1112284" data-name="Group 1112284" clip-path="url(#clip-path-19)">
            <rect id="Rectangle_406678" data-name="Rectangle 406678" width="15.353" height="15.464" transform="translate(0)" fill="url(#linear-gradient-9)"/>
          </g>
        </g>
        <g id="Group_1112287" data-name="Group 1112287" transform="translate(0 0.001)">
          <g id="Group_1112286" data-name="Group 1112286" clip-path="url(#clip-path-6)">
            <path id="Path_887209" data-name="Path 887209" d="M620.251,762.943a7.732,7.732,0,1,0-7.676,8.653,8.209,8.209,0,0,0,7.676-8.653" transform="translate(-410.878 -513.652)" fill="#fff"/>
            <path id="Path_887210" data-name="Path 887210" d="M620.251,846.082a7.732,7.732,0,1,0-7.676,8.653,8.209,8.209,0,0,0,7.676-8.653" transform="translate(-410.878 -570.13)" fill="#fff"/>
            <path id="Path_887211" data-name="Path 887211" d="M620.251,929.22a7.732,7.732,0,1,0-7.676,8.653,8.209,8.209,0,0,0,7.676-8.653" transform="translate(-410.878 -626.607)" fill="#fff"/>
            <path id="Path_887212" data-name="Path 887212" d="M626.8,767.616a3.093,3.093,0,0,0,1.389,0V750.467a3.105,3.105,0,0,0-1.389,0Z" transform="translate(-425.792 -509.751)" fill="#d7d8d9"/>
            <path id="Path_887213" data-name="Path 887213" d="M626.8,850.791a3.1,3.1,0,0,0,1.389,0V833.642a3.1,3.1,0,0,0-1.389,0Z" transform="translate(-425.792 -566.253)" fill="#d7d8d9"/>
            <path id="Path_887214" data-name="Path 887214" d="M626.8,933.892a3.1,3.1,0,0,0,1.389,0V916.743a3.1,3.1,0,0,0-1.389,0Z" transform="translate(-425.792 -622.705)" fill="#d7d8d9"/>
            <path id="Path_887215" data-name="Path 887215" d="M212.521,802.33H58.347a5.038,5.038,0,0,1-4.711-5.311V703.565a5.037,5.037,0,0,1,4.711-5.311H212.521Z" transform="translate(-36.43 -474.336)" fill="#e69037"/>
            <rect id="Rectangle_406679" data-name="Rectangle 406679" width="158.888" height="4.135" transform="translate(17.204 308.928)" fill="#fff"/>
            <path id="Path_887216" data-name="Path 887216" d="M82.42,908.4l-.021-9.977-4.34,8.22H76.52l-4.322-8V908.4h-3.2V891.76h2.824l5.521,10.334,5.438-10.334h2.8l.044,16.631Z" transform="translate(-46.868 -605.786)" fill="#fff"/>
            <path id="Path_887217" data-name="Path 887217" d="M143.182,905.312V908.4H131.76V891.76h11.149v3.088h-7.755v3.625H142v2.993h-6.85v3.847Z" transform="translate(-89.506 -605.787)" fill="#fff"/>
            <path id="Path_887218" data-name="Path 887218" d="M175.852,891.756h6.713a8.531,8.531,0,0,1,4.246,1.035,7.223,7.223,0,0,1,2.866,2.91,9.856,9.856,0,0,1,0,8.743,7.224,7.224,0,0,1-2.866,2.91,8.53,8.53,0,0,1-4.246,1.035h-6.713Zm6.533,13.471a4.63,4.63,0,0,0,3.53-1.389,6.043,6.043,0,0,0,0-7.531,4.632,4.632,0,0,0-3.53-1.389h-3.116v10.311Z" transform="translate(-119.459 -605.783)" fill="#fff"/>
            <rect id="Rectangle_406680" data-name="Rectangle 406680" width="3.415" height="16.63" transform="translate(73.804 285.983)" fill="#fff"/>
            <path id="Path_887219" data-name="Path 887219" d="M252.714,906.986a7.758,7.758,0,0,1-2.866-3.065,9.921,9.921,0,0,1,0-8.859,8,8,0,0,1,10.434-3.41,7.116,7.116,0,0,1,2.6,2.185l-2.192,2.28a4.53,4.53,0,0,0-7.831.621,6.618,6.618,0,0,0,0,5.509,4.52,4.52,0,0,0,7.831.593l2.192,2.282a7.007,7.007,0,0,1-2.614,2.211,7.853,7.853,0,0,1-3.472.759,7.7,7.7,0,0,1-4.077-1.1" transform="translate(-169.016 -605.195)" fill="#fff"/>
            <rect id="Rectangle_406681" data-name="Rectangle 406681" width="3.415" height="16.63" transform="translate(96.164 285.983)" fill="#fff"/>
            <path id="Path_887220" data-name="Path 887220" d="M334.962,891.76v16.631h-2.806l-7.355-10.1v10.1h-3.37V891.76h2.824l7.334,10.1v-10.1Z" transform="translate(-218.353 -605.786)" fill="#fff"/>
            <path id="Path_887221" data-name="Path 887221" d="M385.954,905.312V908.4H374.532V891.76h11.149v3.088h-7.767v3.625h6.85v2.993h-6.85v3.847Z" transform="translate(-254.425 -605.787)" fill="#fff"/>
            <rect id="Rectangle_406682" data-name="Rectangle 406682" width="158.888" height="4.135" transform="translate(17.204 273.885)" fill="#fff"/>
            <rect id="Rectangle_406683" data-name="Rectangle 406683" width="158.888" height="4.135" transform="translate(17.204 273.885)" fill="#fff"/>
            <rect id="Rectangle_406684" data-name="Rectangle 406684" width="158.888" height="39.252" transform="translate(17.204 230.114)" fill="#fff"/>
          </g>
        </g>
      </g>
    </g>
  </g>
</svg>
