<svg xmlns="http://www.w3.org/2000/svg" xmlns:xlink="http://www.w3.org/1999/xlink" width="129" height="128" viewBox="0 0 129 128">
  <defs>
    <clipPath id="clip-path">
      <rect id="Rectangle_400938" data-name="Rectangle 400938" width="120" height="120" fill="none"/>
    </clipPath>
    <clipPath id="clip-path-2">
      <rect id="Rectangle_401492" data-name="Rectangle 401492" width="66.543" height="66.543" transform="translate(0 0)" fill="#12263f" stroke="#12263f" stroke-width="0.5"/>
    </clipPath>
    <clipPath id="clip-path-3">
      <rect id="Rectangle_406693" data-name="Rectangle 406693" width="64.543" height="58.234" fill="#12263f" stroke="#12263f" stroke-width="0.5"/>
    </clipPath>
  </defs>
  <g id="Group_1112750" data-name="Group 1112750" transform="translate(-386.711 -1077)">
    <g id="Grupo_108927" data-name="Grupo 108927" transform="translate(-3.289 -3390)">
      <path id="Rectángulo_36179" data-name="Rectángulo 36179" d="M0,0H129V128H0Z" transform="translate(390 4467)" fill="#41cee2"/>
    </g>
    <g id="Group_1108753" data-name="Group 1108753" transform="translate(398.211 1081.957)">
      <circle id="Ellipse_11562" data-name="Ellipse 11562" cx="51.479" cy="51.479" r="51.479" transform="translate(0 8.543)" fill="#defff4"/>
      <g id="Ellipse_11577" data-name="Ellipse 11577" transform="translate(-5.5 3.043)" fill="none" stroke="#defff4" stroke-width="1">
        <circle cx="56.979" cy="56.979" r="56.979" stroke="none"/>
        <circle cx="56.979" cy="56.979" r="56.479" fill="none"/>
      </g>
    </g>
    <g id="Group_1108755" data-name="Group 1108755" transform="translate(419.143 1109.223)">
      <rect id="Rectangle_401104" data-name="Rectangle 401104" width="62" height="63" transform="translate(-0.16 -0.223)" fill="none"/>
      <g id="Mask_Group_1098697" data-name="Mask Group 1098697" transform="translate(-2.432 -0.223)" clip-path="url(#clip-path-2)">
        <g id="Group_1112304" data-name="Group 1112304" transform="translate(1 4)">
          <g id="Group_1112303" data-name="Group 1112303" transform="translate(0 0)" clip-path="url(#clip-path-3)">
            <path id="Path_887237" data-name="Path 887237" d="M32.847,50.659l1.041-.383a47.007,47.007,0,0,1,8.417-2.254,36.02,36.02,0,0,1,10.638-.238,35.235,35.235,0,0,1,9.982,2.775,1.336,1.336,0,0,0,.153.059c.018.006.042,0,.109-.015v-.372q0-17.422,0-34.846a2.175,2.175,0,0,1,.052-.52.6.6,0,0,1,.633-.466.613.613,0,0,1,.62.484,2.218,2.218,0,0,1,.05.488q.006,20.972,0,41.942a1.568,1.568,0,0,1-.082.579.552.552,0,0,1-.71.316c-.956-.23-1.908-.481-2.867-.7a48.761,48.761,0,0,0-7.574-1.224c-2.008-.142-4.021-.311-6.033-.315a49.989,49.989,0,0,0-13.939,1.926,3.9,3.9,0,0,1-2.328-.007,43.359,43.359,0,0,0-6.7-1.407,54.686,54.686,0,0,0-11.536-.364A61.687,61.687,0,0,0,1.148,58.134a1.962,1.962,0,0,1-.453.066.559.559,0,0,1-.636-.523,5.173,5.173,0,0,1-.047-.753q0-20.133,0-40.265c0-.515.016-1.031-.011-1.545a.994.994,0,0,1,.625-1.039A32.4,32.4,0,0,1,6.353,11.9c.316-.089.423-.205.421-.548-.016-3.451-.01-6.9-.01-10.354,0-.829.259-1.07,1.072-.988a41.24,41.24,0,0,1,10.8,2.5A27.56,27.56,0,0,1,31.574,12.651c.232.332.476.657.686,1a.342.342,0,0,0,.524.162,32.3,32.3,0,0,1,6.706-2.133.685.685,0,0,1,.891.491c.1.359-.094.666-.545.79-.927.255-1.874.447-2.787.742-1.278.414-2.53.907-3.8,1.346a.553.553,0,0,0-.42.625c.014,2.41.016,4.821.016,7.231q0,13.017,0,26.032v1.72m-1.376-1.387c.007-.151.012-.205.012-.26q0-16.929,0-33.857a.886.886,0,0,0-.123-.427,25.23,25.23,0,0,0-6.5-7.155,29.714,29.714,0,0,0-8.234-4.358A37.477,37.477,0,0,0,8.494,1.442c-.275-.033-.354.038-.352.324q.024,4.126.022,8.25,0,13.3-.014,26.593c0,.2.029.31.273.339,1.336.16,2.679.29,4,.528a32.005,32.005,0,0,1,9.315,3.157,26.522,26.522,0,0,1,8.776,7.339c.311.4.6.821.957,1.3M6.765,13.21c-.086.017-.128.022-.169.033a39.429,39.429,0,0,0-5,1.864c-.229.095-.23.251-.23.445q.007,17.271.01,34.543v.549c.126-.043.206-.068.284-.1.946-.37,1.875-.794,2.842-1.1a37.088,37.088,0,0,1,9.4-1.892,35.607,35.607,0,0,1,6.525.21,47.328,47.328,0,0,1,9.3,2.233c.22.076.445.133.669.2a1.555,1.555,0,0,0-.253-.409,27.66,27.66,0,0,0-11.611-9.015,35.311,35.311,0,0,0-10.759-2.5c-.788-.069-1-.272-1-1.061q0-11.766,0-23.533V13.21M32.848,56.638a51.912,51.912,0,0,1,15.174-2,54.375,54.375,0,0,1,15.172,2.055c0-.5.009-.951-.009-1.4,0-.076-.112-.178-.2-.215q-.616-.27-1.244-.509a34.41,34.41,0,0,0-10.44-2.123,47.566,47.566,0,0,0-8.035.26,42.548,42.548,0,0,0-6.185,1.171c-1.318.356-2.622.767-3.926,1.17a.479.479,0,0,0-.3.307c-.037.4-.014.805-.014,1.281m-31.484.075c10.065-2.627,20.078-3.1,30.12-.053,0-.487-.012-.892.006-1.3.009-.2-.081-.269-.246-.32-.459-.143-.917-.291-1.373-.443a44.893,44.893,0,0,0-11.061-2.114,40.218,40.218,0,0,0-10.7.572,33.52,33.52,0,0,0-6.505,2.009c-.1.042-.228.168-.233.261-.025.434-.011.871-.011,1.384m31.491-3c.133-.035.226-.054.317-.082.584-.184,1.163-.38,1.75-.553a51.016,51.016,0,0,1,11.243-2.046,39.811,39.811,0,0,1,7.639.235,37.623,37.623,0,0,1,7.378,1.661c.659.225,1.3.489,2,.752,0-.354-.025-.68.006-1,.041-.416-.11-.609-.507-.793a32.265,32.265,0,0,0-11.88-2.9,38.967,38.967,0,0,0-13.056,1.452c-1.52.438-3,1.01-4.5,1.536-.152.053-.366.207-.378.331-.046.453-.018.913-.018,1.408M1.379,53.639c.1-.02.132-.024.161-.033.1-.036.207-.072.308-.112a37.987,37.987,0,0,1,13.471-2.538,45.407,45.407,0,0,1,11.823,1.487c1.449.367,2.88.8,4.342,1.216,0-.4-.012-.829,0-1.252a.339.339,0,0,0-.26-.378,38.766,38.766,0,0,0-8.991-2.589,39.113,39.113,0,0,0-6.439-.549A35.1,35.1,0,0,0,7.508,49.9a33.452,33.452,0,0,0-5.847,2.124c-.113.052-.262.178-.269.278-.03.433-.013.869-.013,1.339" transform="translate(0 0)" fill="#12263f" stroke="#12263f" stroke-width="0.5"/>
            <path id="Path_887238" data-name="Path 887238" d="M78.554,20.576c1.546,1.792,3.071,3.556,4.591,5.324.363.422.728.846,1.059,1.294a2.2,2.2,0,0,1-3.475,2.7q-1.726-2-3.45-4.01c-.678-.787-1.36-1.572-2.066-2.387-.149.114-.288.212-.419.321-.821.692-1.644,1.38-2.452,2.086a.46.46,0,0,0-.091.385,2.247,2.247,0,0,1-.882,2.574,2.214,2.214,0,0,1-2.925-.348c-.886-.97-1.724-1.985-2.582-2.979-.938-1.086-1.869-2.177-2.819-3.254a2.267,2.267,0,0,1-.508-2.46,2.158,2.158,0,0,1,2.925-1.259.622.622,0,0,0,.775-.143q4.36-3.8,8.742-7.573a.414.414,0,0,0,.174-.518,2.2,2.2,0,0,1,1.031-2.564,2.111,2.111,0,0,1,2.681.334c1.066,1.161,2.088,2.364,3.118,3.557.837.97,1.676,1.939,2.485,2.933a2.217,2.217,0,0,1-.9,3.574,1.9,1.9,0,0,1-1.592-.022.586.586,0,0,0-.744.118c-.814.73-1.66,1.424-2.493,2.133-.057.048-.1.108-.177.185m-2.48-8.815a.574.574,0,0,0-.092.03l-8.858,7.637c-.318.274-.314.272-.037.592,1.34,1.548,2.689,3.09,4.01,4.655.228.269.342.223.564.032q4.051-3.5,8.114-6.99c.271-.233.539-.47.824-.719l-4.526-5.236M70.065,27.88a.908.908,0,0,0,.885-.606c.183-.471-.074-.8-.352-1.119q-2.142-2.465-4.287-4.929c-.344-.4-.67-.809-1.025-1.2a.812.812,0,0,0-1.009-.225.865.865,0,0,0-.329,1.412c.579.7,1.2,1.363,1.791,2.052,1.2,1.395,2.385,2.8,3.579,4.194a.95.95,0,0,0,.746.417M82.66,17.007a3.255,3.255,0,0,0,.491-.142.863.863,0,0,0,.286-1.4c-.635-.767-1.3-1.508-1.95-2.264-.732-.856-1.454-1.721-2.189-2.574-.443-.514-.891-1.024-1.356-1.518A.869.869,0,0,0,76.7,9.027a.882.882,0,0,0-.1,1.239c.083.115.177.223.27.33.95,1.089,1.9,2.174,2.849,3.267.8.919,1.573,1.852,2.377,2.763a2.6,2.6,0,0,0,.56.382m-6.437,5.541c.211.241.4.451.582.665q2.475,2.873,4.952,5.741a1.275,1.275,0,0,0,.517.373A.764.764,0,0,0,83.162,29a.813.813,0,0,0-.023-1c-.525-.63-1.079-1.236-1.613-1.859-.747-.871-1.48-1.754-2.23-2.623-.584-.678-1.184-1.343-1.806-2.047l-1.268,1.083" transform="translate(-23.688 -2.823)" fill="#12263f" stroke="#12263f" stroke-width="0.5"/>
            <path id="Path_887239" data-name="Path 887239" d="M76.649,53.888c.257.044.475.066.684.12a2.582,2.582,0,0,1,1.932,2.447c.017.426.016.854.009,1.281a.717.717,0,0,1-.772.787c-.087,0-.176,0-.263,0H61.911c-.744,0-.977-.234-.974-.984a9.438,9.438,0,0,1,.024-1.312,2.592,2.592,0,0,1,2.564-2.295c.057-.368.087-.741.176-1.1A2.27,2.27,0,0,1,65.9,51.1q4.206-.013,8.41,0a2.379,2.379,0,0,1,2.335,2.333c.007.141,0,.282,0,.449m-6.542,3.245v-.01q3.023,0,6.046,0c.5,0,1.007.012,1.511,0,.085,0,.225-.069.244-.134a1.4,1.4,0,0,0-.531-1.482,2.092,2.092,0,0,0-.938-.208c-3.975-.012-7.951-.007-11.926,0-.328,0-.657-.006-.985.013a1.2,1.2,0,0,0-1.211,1.248c0,.088,0,.177-.009.263-.035.244.058.319.309.318,2.5-.009,4.994-.006,7.491-.006m-.033-3.2v0q1.512,0,3.023,0c.624,0,1.248-.01,1.872,0,.214,0,.312-.045.306-.293-.017-.812-.352-1.158-1.165-1.158H66.06c-.744,0-1.083.348-1.123,1.1-.015.275.061.358.34.355,1.6-.012,3.2-.006,4.8-.006" transform="translate(-23.14 -19.406)" fill="#12263f" stroke="#12263f" stroke-width="0.5"/>
            <path id="Path_887240" data-name="Path 887240" d="M28.394,41.6c0,.832,0,1.665,0,2.5a.746.746,0,0,1-.344.759.793.793,0,0,1-.866-.082,16.39,16.39,0,0,0-4.017-1.982c-.538-.175-.673-.367-.676-.945q-.014-2.53,0-5.06c0-.631.382-.909.977-.721a17.072,17.072,0,0,1,4.421,2.118,1.032,1.032,0,0,1,.505.986c-.031.809-.009,1.621-.009,2.431h.01m-1.374,1.371c0-1.128-.007-2.273.006-3.419a.45.45,0,0,0-.264-.47c-.8-.4-1.593-.814-2.392-1.217-.14-.07-.291-.118-.451-.181a.882.882,0,0,0-.045.164c-.007,1.192-.015,2.383-.01,3.575a.328.328,0,0,0,.162.242c.984.438,1.973.863,2.994,1.3" transform="translate(-8.54 -13.674)" fill="#12263f" stroke="#12263f" stroke-width="0.5"/>
            <path id="Path_887241" data-name="Path 887241" d="M23.333,20.294c.523.147,1.209.3,1.866.531a27.36,27.36,0,0,1,6.786,3.388,32.342,32.342,0,0,1,4.052,3.231,5.951,5.951,0,0,1,.448.479.666.666,0,0,1-.937.942c-.624-.534-1.219-1.1-1.853-1.623a28.452,28.452,0,0,0-9.219-5.228c-.5-.162-1.015-.263-1.518-.411a.6.6,0,0,1-.447-.7c.066-.381.31-.6.822-.606" transform="translate(-8.546 -7.708)" fill="#12263f" stroke="#12263f" stroke-width="0.5"/>
            <path id="Path_887242" data-name="Path 887242" d="M23.24,28.523c.682.2,1.372.365,2.044.592a26.249,26.249,0,0,1,6.7,3.339,35.331,35.331,0,0,1,4.2,3.367,2.942,2.942,0,0,1,.29.313.632.632,0,0,1,.009.914.726.726,0,0,1-.961,0c-.393-.332-.772-.681-1.16-1.019a29.93,29.93,0,0,0-7.588-4.89c-1.105-.487-2.289-.793-3.438-1.181-.124-.042-.254-.071-.375-.12a.624.624,0,0,1-.407-.761.731.731,0,0,1,.686-.55" transform="translate(-8.558 -10.833)" fill="#12263f" stroke="#12263f" stroke-width="0.5"/>
            <path id="Path_887243" data-name="Path 887243" d="M31.1,14.877c.185.067.362.12.53.194a19.433,19.433,0,0,1,3.752,2.153,28.925,28.925,0,0,1,3.852,3.216,2.793,2.793,0,0,1,.3.349.6.6,0,0,1-.011.786.7.7,0,0,1-.84.149,1.419,1.419,0,0,1-.31-.238,29.961,29.961,0,0,0-6.074-4.57c-.494-.28-1.019-.507-1.515-.785a.63.63,0,0,1-.022-1.139,1.664,1.664,0,0,1,.339-.116" transform="translate(-11.55 -5.65)" fill="#12263f" stroke="#12263f" stroke-width="0.5"/>
            <path id="Path_887244" data-name="Path 887244" d="M40.881,55.983a6.649,6.649,0,0,1-.7-.471c-.639-.564-1.235-1.181-1.9-1.712-.758-.6-1.572-1.14-2.364-1.7-.115-.082-.245-.145-.355-.233a.624.624,0,0,1-.164-.848.61.61,0,0,1,.814-.272,15.641,15.641,0,0,1,1.4.84,22.545,22.545,0,0,1,3.519,2.989,2.237,2.237,0,0,1,.274.325.548.548,0,0,1,.01.673,3.031,3.031,0,0,1-.534.413" transform="translate(-13.405 -19.247)" fill="#12263f" stroke="#12263f" stroke-width="0.5"/>
            <path id="Path_887245" data-name="Path 887245" d="M36.018,42.41a2.809,2.809,0,0,1,.432.188,22.164,22.164,0,0,1,4.834,3.907.622.622,0,0,1,.081.909.693.693,0,0,1-.951.055,2.87,2.87,0,0,1-.323-.278A24.424,24.424,0,0,0,35.709,43.7a.637.637,0,0,1-.357-.767.72.72,0,0,1,.666-.526" transform="translate(-13.415 -16.107)" fill="#12263f" stroke="#12263f" stroke-width="0.5"/>
            <path id="Path_887246" data-name="Path 887246" d="M23.376,12.091a6.939,6.939,0,0,1,.8.252.594.594,0,0,1,.336.762.613.613,0,0,1-.677.446,4.53,4.53,0,0,1-.886-.213.6.6,0,0,1-.38-.742c.073-.318.332-.516.808-.5" transform="translate(-8.564 -4.592)" fill="#12263f" stroke="#12263f" stroke-width="0.5"/>
          </g>
        </g>
      </g>
    </g>
  </g>
</svg>
