<svg xmlns="http://www.w3.org/2000/svg" xmlns:xlink="http://www.w3.org/1999/xlink" width="147" height="147" viewBox="0 0 147 147">
  <defs>
    <clipPath id="clip-path">
      <rect id="Rectangle_400938" data-name="Rectangle 400938" width="147" height="147" fill="none"/>
    </clipPath>
    <clipPath id="clip-path-2">
      <rect id="Rectangle_401492" data-name="Rectangle 401492" width="78.518" height="78.519" transform="translate(2.586 3.366)" fill="#b8fafd" stroke="#707070" stroke-width="1"/>
    </clipPath>
    <clipPath id="clip-path-3">
      <rect id="Rectangle_406704" data-name="Rectangle 406704" width="78.518" height="76.066" fill="#b8fafd"/>
    </clipPath>
  </defs>
  <g id="Group_1108952" data-name="Group 1108952" transform="translate(-310 -7635)">
    <g id="Group_1102000" data-name="Group 1102000" transform="translate(448.975 7781.705) rotate(180)">
      <path id="Path_874029" data-name="Path 874029" d="M626.466,575.286l-64.987-36.674V465.259l64.987-36.677,64.987,36.677v73.354Zm-62.05-38.332,62.05,35.019,62.05-35.019V466.916l-62.05-35.022-62.05,35.022Z" transform="translate(-561.479 -428.582)" fill="#2bc897"/>
      <path id="Path_874030" data-name="Path 874030" d="M574.458,477v66.873l59.374,33.436L693.2,543.876V477l-59.373-33.436Z" transform="translate(-568.844 -437.087)" fill="#005865"/>
    </g>
    <g id="Group_1098697" data-name="Group 1098697" transform="translate(341.414 7665.634)" clip-path="url(#clip-path-2)">
      <g id="Group_1112310" data-name="Group 1112310" transform="translate(2.586 3.366)">
        <g id="Group_1112309" data-name="Group 1112309" transform="translate(0 0)" clip-path="url(#clip-path-3)">
          <path id="Path_887250" data-name="Path 887250" d="M98.726,41.607a1.818,1.818,0,0,0,1.7,1.682,1.682,1.682,0,1,0-1.7-1.682" transform="translate(-26.752 -10.819)" fill="#b8fafd"/>
          <path id="Path_887251" data-name="Path 887251" d="M98.094,16.671a1.682,1.682,0,1,0,0-3.363,1.818,1.818,0,0,0-1.7,1.681,1.722,1.722,0,0,0,1.7,1.682" transform="translate(-26.12 -3.606)" fill="#b8fafd"/>
          <path id="Path_887252" data-name="Path 887252" d="M62.194,21.108a1.682,1.682,0,1,0,0-3.363,1.819,1.819,0,0,0-1.7,1.682,1.723,1.723,0,0,0,1.7,1.681" transform="translate(-16.392 -4.808)" fill="#b8fafd"/>
          <path id="Path_887253" data-name="Path 887253" d="M62.194,27.851a1.682,1.682,0,1,0-1.7-1.683,1.724,1.724,0,0,0,1.7,1.683" transform="translate(-16.392 -6.635)" fill="#b8fafd"/>
          <path id="Path_887254" data-name="Path 887254" d="M62.194,34.416a1.682,1.682,0,1,0,0-3.363,1.819,1.819,0,0,0-1.7,1.682,1.723,1.723,0,0,0,1.7,1.681" transform="translate(-16.392 -8.415)" fill="#b8fafd"/>
          <path id="Path_887255" data-name="Path 887255" d="M7.89,77.1a1.7,1.7,0,1,0-1.7,1.681A1.723,1.723,0,0,0,7.89,77.1" transform="translate(-1.216 -20.436)" fill="#b8fafd"/>
          <path id="Path_887256" data-name="Path 887256" d="M3.854,16.671a1.682,1.682,0,1,0,0-3.363,1.818,1.818,0,0,0-1.7,1.681,1.722,1.722,0,0,0,1.7,1.682" transform="translate(-0.583 -3.606)" fill="#b8fafd"/>
          <path id="Path_887257" data-name="Path 887257" d="M15.477,54.642a1.7,1.7,0,0,0,3.4,0V53.089h1.57a1.682,1.682,0,1,0,0-3.363H18.88V48.173a1.7,1.7,0,0,0-3.4,0v1.553h-1.57a1.682,1.682,0,1,0,0,3.363h1.57Z" transform="translate(-3.308 -12.598)" fill="#b8fafd"/>
          <path id="Path_887258" data-name="Path 887258" d="M67.717,11.255H62.743V6.468a1.722,1.722,0,0,0-1.7-1.681H56.069V4.01a3.986,3.986,0,0,0-1.177-2.845A4.081,4.081,0,0,0,47.956,4.01v.777H11.969a1.723,1.723,0,0,0-1.7,1.681V22.639H7.127a4.942,4.942,0,0,0-4.973,4.915V30.66a1.721,1.721,0,0,0,1.7,1.681V44.653a1.557,1.557,0,0,0,0,1.248v.67A5.22,5.22,0,0,0,9.09,51.745H10.4v16.17A1.721,1.721,0,0,0,12.1,69.6h4.843v4.787a1.722,1.722,0,0,0,1.7,1.681H67.717a1.929,1.929,0,0,0,1.7-1.681V12.937a1.721,1.721,0,0,0-1.7-1.682M51.358,4.01a.84.84,0,0,1,.786-.776.68.68,0,0,1,.523.26.666.666,0,0,1,.262.516v.777h-1.57ZM5.556,27.554a1.722,1.722,0,0,1,1.7-1.681h4.079a1.619,1.619,0,0,0,1.263,0h9.313a1.723,1.723,0,0,1,1.7,1.681v1.553H18.643v-.129a1.7,1.7,0,0,0-3.4,0v.129H13.8v-.129a1.7,1.7,0,0,0-3.4,0v.129H5.556ZM7.3,46.959h3.1a1.682,1.682,0,1,0,0-3.363H7.258V32.341H21.913V43.6h-3.4a1.682,1.682,0,1,0,0,3.363H21.87a2.017,2.017,0,0,1-1.919,1.553H9.22A2.017,2.017,0,0,1,7.3,46.959m6.5,4.787h6.02a5.542,5.542,0,0,0,5.5-5.174V32.326a1.509,1.509,0,0,0,1.309-1.666V27.554a4.941,4.941,0,0,0-4.972-4.915H13.669V8.15H52.928v6.34a1.723,1.723,0,0,0,1.7,1.681,1.511,1.511,0,0,0,1.439-1.681V8.15H59.6v4.163a1.557,1.557,0,0,0,0,1.248v52.8H19.274a1.611,1.611,0,0,0-1.263,0H13.8ZM66.146,72.832h-45.8V69.6h40.83a1.7,1.7,0,0,0,1.57-1.682v-53.3h3.4Z" transform="translate(-0.584 0)" fill="#b8fafd"/>
          <path id="Path_887259" data-name="Path 887259" d="M46.882,53.058H41.91a1.682,1.682,0,1,0,0,3.363h4.973a1.682,1.682,0,1,0,0-3.363" transform="translate(-10.895 -14.377)" fill="#b8fafd"/>
          <path id="Path_887260" data-name="Path 887260" d="M46.882,59.8H41.91a1.682,1.682,0,1,0,0,3.363h4.973a1.682,1.682,0,1,0,0-3.363" transform="translate(-10.895 -16.204)" fill="#b8fafd"/>
          <path id="Path_887261" data-name="Path 887261" d="M46.882,66.366H41.91a1.682,1.682,0,1,0,0,3.363h4.973a1.682,1.682,0,1,0,0-3.363" transform="translate(-10.895 -17.984)" fill="#b8fafd"/>
          <path id="Path_887262" data-name="Path 887262" d="M46.882,73.109H41.91a1.682,1.682,0,1,0,0,3.363h4.973a1.682,1.682,0,1,0,0-3.363" transform="translate(-10.895 -19.811)" fill="#b8fafd"/>
          <path id="Path_887263" data-name="Path 887263" d="M46.882,79.675H41.91a1.682,1.682,0,1,0,0,3.363h4.973a1.682,1.682,0,1,0,0-3.363" transform="translate(-10.895 -21.59)" fill="#b8fafd"/>
          <path id="Path_887264" data-name="Path 887264" d="M53.851,54.739a1.722,1.722,0,0,0,1.7,1.682H68.639a1.819,1.819,0,0,0,1.7-1.682,1.723,1.723,0,0,0-1.7-1.682H55.552a1.722,1.722,0,0,0-1.7,1.682" transform="translate(-14.592 -14.377)" fill="#b8fafd"/>
          <path id="Path_887265" data-name="Path 887265" d="M68.639,59.8H55.552a1.682,1.682,0,1,0,0,3.363H68.639a1.819,1.819,0,0,0,1.7-1.681,1.723,1.723,0,0,0-1.7-1.682" transform="translate(-14.592 -16.204)" fill="#b8fafd"/>
          <path id="Path_887266" data-name="Path 887266" d="M68.639,66.366H55.552a1.682,1.682,0,1,0,0,3.363H68.639a1.819,1.819,0,0,0,1.7-1.681,1.723,1.723,0,0,0-1.7-1.682" transform="translate(-14.592 -17.984)" fill="#b8fafd"/>
          <path id="Path_887267" data-name="Path 887267" d="M68.639,73.109H55.552a1.682,1.682,0,1,0,0,3.363H68.639a1.819,1.819,0,0,0,1.7-1.681,1.723,1.723,0,0,0-1.7-1.682" transform="translate(-14.592 -19.811)" fill="#b8fafd"/>
          <path id="Path_887268" data-name="Path 887268" d="M68.639,79.675H55.552a1.682,1.682,0,1,0,0,3.363H68.639a1.932,1.932,0,0,0,1.7-1.681,1.723,1.723,0,0,0-1.7-1.682" transform="translate(-14.592 -21.59)" fill="#b8fafd"/>
          <path id="Path_887269" data-name="Path 887269" d="M100.628,88.9a4.011,4.011,0,1,0,0,8.021,4.142,4.142,0,0,0,4.058-4.01,4.055,4.055,0,0,0-4.058-4.011m0,4.658a.776.776,0,1,1,.786-.777.84.84,0,0,1-.786.777" transform="translate(-26.169 -24.09)" fill="#b8fafd"/>
          <path id="Path_887270" data-name="Path 887270" d="M4.056,86.594a4.011,4.011,0,1,0,0,8.021,3.971,3.971,0,0,0,4.056-4.01,4.054,4.054,0,0,0-4.056-4.011m.784,4.011a.838.838,0,0,1-.784.776.776.776,0,1,1,0-1.553c.523,0,.916.26.784.777" transform="translate(0 -23.465)" fill="#b8fafd"/>
          <path id="Path_887271" data-name="Path 887271" d="M39.756,34.239H51.27a1.932,1.932,0,0,0,1.7-1.681,1.723,1.723,0,0,0-1.7-1.682H39.756a1.682,1.682,0,1,0,0,3.363" transform="translate(-10.312 -8.367)" fill="#b8fafd"/>
          <path id="Path_887272" data-name="Path 887272" d="M39.756,27.674H51.27a1.932,1.932,0,0,0,1.7-1.681,1.723,1.723,0,0,0-1.7-1.682H39.756a1.682,1.682,0,1,0,0,3.363" transform="translate(-10.312 -6.588)" fill="#b8fafd"/>
          <path id="Path_887273" data-name="Path 887273" d="M39.756,20.931H51.27a1.932,1.932,0,0,0,1.7-1.681,1.723,1.723,0,0,0-1.7-1.682H39.756a1.682,1.682,0,1,0,0,3.363" transform="translate(-10.312 -4.761)" fill="#b8fafd"/>
        </g>
      </g>
    </g>
  </g>
</svg>
