<svg xmlns="http://www.w3.org/2000/svg" xmlns:xlink="http://www.w3.org/1999/xlink" width="107" height="107" viewBox="0 0 107 107">
  <defs>
    <clipPath id="clip-path">
      <rect id="Rectangle_406737" data-name="Rectangle 406737" width="60.289" height="58.272" fill="#fff"/>
    </clipPath>
  </defs>
  <g id="Group_1112755" data-name="Group 1112755" transform="translate(-285 -5849.522)">
    <g id="Grupo_156312" data-name="Grupo 156312" transform="translate(-3.668 1401.086)">
      <path id="Elipse_5845" data-name="Elipse 5845" d="M53.5,0A53.5,53.5,0,1,1,0,53.5,53.5,53.5,0,0,1,53.5,0Z" transform="translate(288.668 4448.437)" fill="#006543"/>
    </g>
    <g id="Group_1111830" data-name="Group 1111830" transform="translate(-101.527 -168.69)">
      <path id="Path_873216" data-name="Path 873216" d="M0,0H63.184V63.186H0Z" transform="translate(408.527 6040.213)" fill="none"/>
      <g id="Group_1112344" data-name="Group 1112344" transform="translate(410.238 6042.691)">
        <g id="Group_1112343" data-name="Group 1112343" transform="translate(0 0)" clip-path="url(#clip-path)">
          <path id="Path_887417" data-name="Path 887417" d="M93.54,57.847a1.438,1.438,0,1,1,0,2.875,1.572,1.572,0,0,1-1.454-1.548,1.38,1.38,0,0,1,1.454-1.327" transform="translate(-34.704 -21.801)" fill="#fff"/>
          <path id="Path_887418" data-name="Path 887418" d="M80.077,11.179a1.438,1.438,0,1,1-1.454,1.437,1.472,1.472,0,0,1,1.454-1.437" transform="translate(-29.631 -4.213)" fill="#fff"/>
          <path id="Path_887419" data-name="Path 887419" d="M32.867,88.9a1.438,1.438,0,1,1-1.454,1.438A1.472,1.472,0,0,1,32.867,88.9" transform="translate(-11.839 -33.504)" fill="#fff"/>
          <path id="Path_887420" data-name="Path 887420" d="M23.892,2.307a1.472,1.472,0,0,1,1.454,1.437,1.454,1.454,0,0,1-2.908,0,1.555,1.555,0,0,1,1.454-1.437" transform="translate(-8.456 -0.869)" fill="#fff"/>
          <path id="Path_887421" data-name="Path 887421" d="M23.892,53.411a1.438,1.438,0,1,1-1.454,1.438,1.472,1.472,0,0,1,1.454-1.438" transform="translate(-8.456 -20.129)" fill="#fff"/>
          <path id="Path_887422" data-name="Path 887422" d="M1.454,40.1a1.438,1.438,0,1,1,0,2.875,1.438,1.438,0,1,1,0-2.875" transform="translate(0 -15.113)" fill="#fff"/>
          <path id="Path_887423" data-name="Path 887423" d="M41.393,54.216a1.374,1.374,0,0,1-1.007-.443L17.679,31.327a1.639,1.639,0,0,1-.447-1V20.6a1.471,1.471,0,0,1,1.454-1.437h9.843a1.376,1.376,0,0,1,1.007.442L52.243,42.053a1.39,1.39,0,0,1,0,1.99,1.428,1.428,0,0,1-2.013,0L27.858,21.928H19.916v7.851L42.287,51.893a1.391,1.391,0,0,1,0,1.99,1.279,1.279,0,0,1-.895.332" transform="translate(-6.494 -7.222)" fill="#fff"/>
          <path id="Path_887424" data-name="Path 887424" d="M56.665,72.078a4.556,4.556,0,0,1-3.02-1.216,4.246,4.246,0,0,1-1.231-2.985,4.453,4.453,0,0,1,1.231-2.986l9.844-9.73a4.348,4.348,0,0,1,3.02-1.216,4.558,4.558,0,0,1,3.02,1.216,4.248,4.248,0,0,1,1.231,2.985,4.453,4.453,0,0,1-1.231,2.985l-9.843,9.73a4.556,4.556,0,0,1-3.02,1.216m9.843-15.259a1.372,1.372,0,0,0-1.006.442l-9.843,9.73a1.636,1.636,0,0,0-.448,1,1.344,1.344,0,0,0,.448,1,1.424,1.424,0,0,0,1.006.442,1.375,1.375,0,0,0,1.007-.442l9.843-9.731a1.636,1.636,0,0,0,.447-1,1.342,1.342,0,0,0-.447-.995,1.22,1.22,0,0,0-1.007-.442" transform="translate(-19.753 -20.33)" fill="#fff"/>
          <path id="Path_887425" data-name="Path 887425" d="M74.551,84.3a3.491,3.491,0,0,1-2.461-1,3.441,3.441,0,0,1,0-4.865l4.922-4.865a3.539,3.539,0,0,1,4.921,0,3.442,3.442,0,0,1,0,4.865L77.012,83.3a3.493,3.493,0,0,1-2.461,1m4.921-9.067a.447.447,0,0,0-.447.221L74.1,80.317c-.224.221-.224.332-.224.442a.573.573,0,0,0,.224.442c.224.221.336.221.447.221A.448.448,0,0,0,75,81.2l4.921-4.865a.831.831,0,0,0,.224-.442.439.439,0,0,0-.224-.442.448.448,0,0,0-.447-.221" transform="translate(-26.789 -27.351)" fill="#fff"/>
          <path id="Path_887426" data-name="Path 887426" d="M74.424,77.139a1.372,1.372,0,0,1-1.006-.442L68.5,71.832a1.391,1.391,0,0,1,0-1.99,1.43,1.43,0,0,1,2.013,0l4.922,4.865a1.389,1.389,0,0,1,0,1.99,1.373,1.373,0,0,1-1.007.442" transform="translate(-25.656 -26.165)" fill="#fff"/>
          <path id="Path_887427" data-name="Path 887427" d="M13.9,17.308a1.375,1.375,0,0,1-1.007-.442L4.952,9.015a1.39,1.39,0,0,1,0-1.99,1.43,1.43,0,0,1,2.013,0l7.941,7.851a1.39,1.39,0,0,1,0,1.99,2.02,2.02,0,0,1-1.006.442" transform="translate(-1.708 -2.491)" fill="#fff"/>
          <path id="Path_887428" data-name="Path 887428" d="M48.86,65.677a1.375,1.375,0,0,1-1.007-.442,1.39,1.39,0,0,1,0-1.99l3.02-2.986a1.43,1.43,0,0,1,2.013,0,1.391,1.391,0,0,1,0,1.991l-3.02,2.985a1.374,1.374,0,0,1-1.006.442" transform="translate(-17.876 -22.553)" fill="#fff"/>
          <path id="Path_887429" data-name="Path 887429" d="M44.013,60.528a1.376,1.376,0,0,1-1.007-.442,1.391,1.391,0,0,1,0-1.99l3.916-3.87a1.43,1.43,0,0,1,2.013,0,1.391,1.391,0,0,1,0,1.991l-3.915,3.87a1.676,1.676,0,0,1-1.007.442" transform="translate(-16.05 -20.279)" fill="#fff"/>
          <path id="Path_887430" data-name="Path 887430" d="M39.346,56.272a1.438,1.438,0,0,1-1.007-2.432l3.02-2.986a1.43,1.43,0,0,1,2.013,0,1.39,1.39,0,0,1,0,1.99L40.241,55.83a1.022,1.022,0,0,1-.895.442" transform="translate(-14.291 -19.009)" fill="#fff"/>
          <path id="Path_887431" data-name="Path 887431" d="M34.5,50.946a1.375,1.375,0,0,1-1.007-.442,1.39,1.39,0,0,1,0-1.99l3.915-3.87a1.43,1.43,0,0,1,2.013,0,1.391,1.391,0,0,1,0,1.99L35.506,50.5a1.376,1.376,0,0,1-1.007.442" transform="translate(-12.464 -16.668)" fill="#fff"/>
          <path id="Path_887432" data-name="Path 887432" d="M29.833,46.867a1.374,1.374,0,0,1-1.006-.442,1.39,1.39,0,0,1,0-1.99l3.02-2.985a1.43,1.43,0,0,1,2.013,0,1.391,1.391,0,0,1,0,1.99l-3.02,2.985a1.375,1.375,0,0,1-1.007.442" transform="translate(-10.706 -15.465)" fill="#fff"/>
          <path id="Path_887433" data-name="Path 887433" d="M13.225,77.076a4.2,4.2,0,1,1,4.251-4.2,4.224,4.224,0,0,1-4.251,4.2m0-5.528a1.438,1.438,0,1,0,1.454,1.437,1.472,1.472,0,0,0-1.454-1.437" transform="translate(-3.382 -25.88)" fill="#fff"/>
          <path id="Path_887434" data-name="Path 887434" d="M49.8,9.73a4.937,4.937,0,0,1-4.922-4.865,4.922,4.922,0,0,1,9.844,0A4.937,4.937,0,0,1,49.8,9.73m0-6.856a2.112,2.112,0,0,0-2.125,2.1,2.125,2.125,0,0,0,4.25,0,2.045,2.045,0,0,0-2.125-2.1" transform="translate(-16.912 0)" fill="#fff"/>
          <path id="Path_887435" data-name="Path 887435" d="M79.936,42.523A3.428,3.428,0,1,1,83.4,39.095a3.465,3.465,0,0,1-3.467,3.428m0-4.091a.664.664,0,1,0,.671.664.642.642,0,0,0-.671-.664" transform="translate(-28.819 -13.442)" fill="#fff"/>
        </g>
      </g>
    </g>
  </g>
</svg>
