<svg xmlns="http://www.w3.org/2000/svg" xmlns:xlink="http://www.w3.org/1999/xlink" width="85" height="85" viewBox="0 0 85 85">
  <defs>
    <clipPath id="clip-path">
      <rect id="Rectangle_404010" data-name="Rectangle 404010" width="68.541" height="68.541" transform="translate(0 -0.297)" fill="#fff" stroke="#707070" stroke-width="1"/>
    </clipPath>
    <clipPath id="clip-path-2">
      <rect id="Rectangle_406750" data-name="Rectangle 406750" width="47.021" height="66.203" fill="#fff"/>
    </clipPath>
  </defs>
  <g id="Group_1112778" data-name="Group 1112778" transform="translate(-600.34 -4222.297)">
    <rect id="Rectangle_404009" data-name="Rectangle 404009" width="85" height="85" transform="translate(600.34 4222.297)" fill="#005865"/>
    <g id="Mask_Group_1098861" data-name="Mask Group 1098861" transform="translate(608.711 4230.297)" clip-path="url(#clip-path)">
      <g id="Group_1112371" data-name="Group 1112371" transform="translate(10.479 0.703)">
        <g id="Group_1112370" data-name="Group 1112370" clip-path="url(#clip-path-2)">
          <path id="Path_887646" data-name="Path 887646" d="M36.732,8.27h9.354a1.122,1.122,0,0,1,.921,1.148v55.7a1.065,1.065,0,0,1-.6,1.046L.716,66.2l-.633-.611L.013,9.418A1.122,1.122,0,0,1,.934,8.27h9.354V6.029c0-.184.52-.7.777-.743,1.262-.23,3.14.182,4.475-.025.583-.738.891-1.623,1.5-2.352a8.646,8.646,0,0,1,12.935,0c.612.729.919,1.614,1.5,2.352,1.335.207,3.213-.2,4.475.025.257.047.777.559.777.743ZM16.688,7.319c-1.159.2-2.855-.146-4.079,0l-.211.2V11.19l.211.2h21.8l.211-.2V7.523l-.211-.2H30.332c-.753,0-1.159-1.813-1.559-2.433a6.3,6.3,0,0,0-10.526,0c-.462.717-.7,2.288-1.559,2.433M2.341,10.307l-.211.2V64.023l.211.2H44.679l.211-.2V10.511l-.211-.2H36.943l-.211.2v2.173c0,.311-.805.876-1.189.754l-24.2,0a1.256,1.256,0,0,1-1.052-.75V10.511l-.211-.2Z" transform="translate(0 -0.001)" fill="#fff"/>
          <path id="Path_887647" data-name="Path 887647" d="M84.815,116.713c10.994-1.08,18.8,9.982,13.028,19.235-5.332,8.544-18.4,8.107-23.1-.76-4.068-7.665,1.131-17.6,10.073-18.475m.563,2.038a10.676,10.676,0,0,0-8.436,15.941c4.2,7.172,15.1,7.122,19.227-.089,4.357-7.613-1.857-16.657-10.791-15.853" transform="translate(-63.022 -100.798)" fill="#fff"/>
          <path id="Path_887648" data-name="Path 887648" d="M75.7,335.151a1.888,1.888,0,0,1,1.008-.317l28.986,0a1.024,1.024,0,0,1,.14,2.043l-29.548,0a1.036,1.036,0,0,1-.586-1.735" transform="translate(-64.813 -289.357)" fill="#fff"/>
          <path id="Path_887649" data-name="Path 887649" d="M76.182,380.9l29.512-.032a1.032,1.032,0,0,1,.486,1.969l-29.75.074a1.021,1.021,0,0,1-.248-2.011" transform="translate(-64.809 -329.136)" fill="#fff"/>
          <path id="Path_887650" data-name="Path 887650" d="M76.231,427.1l30,.042a1.032,1.032,0,0,1-.486,1.969H76.479a1.024,1.024,0,0,1-.248-2.011" transform="translate(-64.858 -369.094)" fill="#fff"/>
          <path id="Path_887651" data-name="Path 887651" d="M36.849,334.431c1.116-.24,3.874-.2,3.03,1.569-.288.6-2.84.577-3.379.339-.78-.344-.543-1.716.348-1.908" transform="translate(-30.962 -288.918)" fill="#fff"/>
          <path id="Path_887652" data-name="Path 887652" d="M36.821,380.719a10.319,10.319,0,0,1,2.569.042,1.057,1.057,0,0,1-.211,1.963,12.235,12.235,0,0,1-2.6-.068,1.03,1.03,0,0,1,.237-1.938" transform="translate(-30.934 -328.96)" fill="#fff"/>
          <path id="Path_887653" data-name="Path 887653" d="M36.705,426.723a11.777,11.777,0,0,1,2.711.043,1.015,1.015,0,0,1,.055,1.813,6.323,6.323,0,0,1-2.828.051,1.027,1.027,0,0,1,.063-1.906" transform="translate(-30.96 -368.716)" fill="#fff"/>
          <path id="Path_887654" data-name="Path 887654" d="M148.442,24.036a3.151,3.151,0,0,1,3.257,2.218,3.012,3.012,0,0,1-5.454,2.278,2.909,2.909,0,0,1,2.2-4.5m.982,2.31c-.644-.622-2.1.162-1.383,1.132s2.208-.335,1.383-1.132" transform="translate(-125.244 -20.76)" fill="#fff"/>
          <path id="Path_887655" data-name="Path 887655" d="M117.2,152.842h4.009c.521,0,.74.883.779,1.285a32.494,32.494,0,0,1-.018,5.154c-.038.258-.375,1.031-.62,1.031h-3.938l-.211.2v3.667c0,.383-.655.718-1.046.755-1.9.18-4.115-.147-6.053-.012-.244.024-.777-.616-.777-.743v-3.667l-.211-.2h-3.939c-.245,0-.582-.773-.62-1.031a32.5,32.5,0,0,1-.018-5.154c.039-.4.258-1.285.779-1.285h4.009v-3.871c0-.448.786-.718,1.189-.753a39.812,39.812,0,0,1,5.766.015c.315.048.923.456.923.739Zm2.532,2.037h-3.868a2.988,2.988,0,0,1-.774-.611v-3.8l-.211-.2h-3.235l-.211.2v3.8a2.989,2.989,0,0,1-.774.611H106.79v3.4h3.868a2.989,2.989,0,0,1,.774.611v3.8l.211.2h3.235l.211-.2v-3.8a2.988,2.988,0,0,1,.774-.611h3.868Z" transform="translate(-89.75 -128.003)" fill="#fff"/>
        </g>
      </g>
    </g>
  </g>
</svg>
