<svg xmlns="http://www.w3.org/2000/svg" xmlns:xlink="http://www.w3.org/1999/xlink" width="139.001" height="139.131" viewBox="0 0 139.001 139.131">
  <defs>
    <clipPath id="clip-path">
      <rect id="Rectangle_400938" data-name="Rectangle 400938" width="132.745" height="132.745" fill="none"/>
    </clipPath>
    <clipPath id="clip-path-2">
      <path id="Path_873460" data-name="Path 873460" d="M0,1.637A1.69,1.69,0,0,0,1.74,3.273,1.69,1.69,0,0,0,3.48,1.637,1.69,1.69,0,0,0,1.74,0,1.69,1.69,0,0,0,0,1.637" transform="translate(0)" fill="#005865"/>
    </clipPath>
    <clipPath id="clip-path-3">
      <path id="Path_873466" data-name="Path 873466" d="M0,1.637A1.69,1.69,0,0,0,1.741,3.273,1.69,1.69,0,0,0,3.48,1.637,1.69,1.69,0,0,0,1.741,0,1.69,1.69,0,0,0,0,1.637" fill="#005865"/>
    </clipPath>
    <clipPath id="clip-path-4">
      <path id="Path_873467" data-name="Path 873467" d="M0,1.637A1.69,1.69,0,0,0,1.741,3.273a1.69,1.69,0,0,0,1.74-1.636A1.69,1.69,0,0,0,1.741,0,1.69,1.69,0,0,0,0,1.637" transform="translate(0 0)" fill="#005865"/>
    </clipPath>
    <clipPath id="clip-path-6">
      <path id="Path_873469" data-name="Path 873469" d="M0,1.637A1.69,1.69,0,0,0,1.741,3.273,1.69,1.69,0,0,0,3.48,1.637,1.69,1.69,0,0,0,1.741,0,1.69,1.69,0,0,0,0,1.637" transform="translate(0 0)" fill="#005865"/>
    </clipPath>
    <clipPath id="clip-path-8">
      <path id="Path_873472" data-name="Path 873472" d="M0,1.637A1.69,1.69,0,0,0,1.741,3.273,1.69,1.69,0,0,0,3.481,1.637,1.69,1.69,0,0,0,1.741,0,1.69,1.69,0,0,0,0,1.637" transform="translate(0 0)" fill="#005865"/>
    </clipPath>
    <clipPath id="clip-path-9">
      <path id="Path_873473" data-name="Path 873473" d="M0,1.637A1.69,1.69,0,0,0,1.741,3.273,1.689,1.689,0,0,0,3.48,1.637,1.69,1.69,0,0,0,1.741,0,1.69,1.69,0,0,0,0,1.637" transform="translate(0 0)" fill="#005865"/>
    </clipPath>
    <clipPath id="clip-path-22">
      <rect id="Rectangle_401492" data-name="Rectangle 401492" width="67.685" height="67.685" transform="translate(-0.361 -0.321)" fill="#005865" stroke="#707070" stroke-width="1"/>
    </clipPath>
    <clipPath id="clip-path-23">
      <rect id="Rectangle_406748" data-name="Rectangle 406748" width="46.833" height="62.679" fill="#005865"/>
    </clipPath>
  </defs>
  <g id="Group_1108868" data-name="Group 1108868" transform="translate(23055.133 3812.152)">
    <g id="Group_1100237" data-name="Group 1100237" transform="translate(-23050.26 -3789.812)">
      <g id="Group_1099505" data-name="Group 1099505" transform="translate(2.265 10.547)">
        <g id="Group_1099504" data-name="Group 1099504" transform="translate(0)" clip-path="url(#clip-path-2)">
          <rect id="Rectangle_401140" data-name="Rectangle 401140" width="3.48" height="3.273" transform="translate(0)" fill="#005865"/>
        </g>
      </g>
      <g id="Group_1099517" data-name="Group 1099517" transform="translate(46.428 10.547)">
        <g id="Group_1099516" data-name="Group 1099516" transform="translate(0)" clip-path="url(#clip-path-3)">
          <rect id="Rectangle_401146" data-name="Rectangle 401146" width="3.48" height="3.273" transform="translate(0 0)" fill="#005865"/>
        </g>
      </g>
      <g id="Group_1099519" data-name="Group 1099519" transform="translate(37.83 10.547)">
        <g id="Group_1099518" data-name="Group 1099518" transform="translate(0 0)" clip-path="url(#clip-path-4)">
          <rect id="Rectangle_401147" data-name="Rectangle 401147" width="3.481" height="3.273" transform="translate(0 0)" fill="#005865"/>
        </g>
      </g>
      <g id="Group_1099521" data-name="Group 1099521" transform="translate(29.232 10.547)">
        <g id="Group_1099520" data-name="Group 1099520" transform="translate(0 0)" clip-path="url(#clip-path-4)">
          <rect id="Rectangle_401148" data-name="Rectangle 401148" width="3.481" height="3.273" transform="translate(0 0)" fill="#005865"/>
        </g>
      </g>
      <g id="Group_1099523" data-name="Group 1099523" transform="translate(20.635 10.547)">
        <g id="Group_1099522" data-name="Group 1099522" transform="translate(0 0)" clip-path="url(#clip-path-6)">
          <rect id="Rectangle_401149" data-name="Rectangle 401149" width="3.48" height="3.273" transform="translate(0 0)" fill="#005865"/>
        </g>
      </g>
      <g id="Group_1099525" data-name="Group 1099525" transform="translate(42.988)">
        <g id="Group_1099524" data-name="Group 1099524" clip-path="url(#clip-path-4)">
          <rect id="Rectangle_401150" data-name="Rectangle 401150" width="3.481" height="3.273" transform="translate(0 0)" fill="#005865"/>
        </g>
      </g>
      <g id="Group_1099529" data-name="Group 1099529" transform="translate(34.39)">
        <g id="Group_1099528" data-name="Group 1099528" transform="translate(0)" clip-path="url(#clip-path-8)">
          <rect id="Rectangle_401152" data-name="Rectangle 401152" width="3.481" height="3.273" transform="translate(0 0)" fill="#005865"/>
        </g>
      </g>
      <g id="Group_1099531" data-name="Group 1099531" transform="translate(17.195)">
        <g id="Group_1099530" data-name="Group 1099530" transform="translate(0)" clip-path="url(#clip-path-9)">
          <rect id="Rectangle_401153" data-name="Rectangle 401153" width="3.48" height="3.273" transform="translate(0 0)" fill="#005865"/>
        </g>
      </g>
      <g id="Group_1099533" data-name="Group 1099533" transform="translate(8.597)">
        <g id="Group_1099532" data-name="Group 1099532" clip-path="url(#clip-path-6)">
          <rect id="Rectangle_401154" data-name="Rectangle 401154" width="3.48" height="3.273" transform="translate(0 0)" fill="#005865"/>
        </g>
      </g>
      <g id="Group_1099535" data-name="Group 1099535" transform="translate(0)">
        <g id="Group_1099534" data-name="Group 1099534" transform="translate(0)" clip-path="url(#clip-path-6)">
          <rect id="Rectangle_401155" data-name="Rectangle 401155" width="3.48" height="3.273" transform="translate(0 0)" fill="#005865"/>
        </g>
      </g>
    </g>
    <g id="Group_1100238" data-name="Group 1100238" transform="translate(-22971.867 -3710.335)">
      <g id="Group_1099505-2" data-name="Group 1099505" transform="translate(2.265 10.547)">
        <g id="Group_1099504-2" data-name="Group 1099504" transform="translate(0)" clip-path="url(#clip-path-2)">
          <rect id="Rectangle_401140-2" data-name="Rectangle 401140" width="3.48" height="3.273" transform="translate(0)" fill="#005865"/>
        </g>
      </g>
      <g id="Group_1099517-2" data-name="Group 1099517" transform="translate(46.428 10.547)">
        <g id="Group_1099516-2" data-name="Group 1099516" transform="translate(0)" clip-path="url(#clip-path-3)">
          <rect id="Rectangle_401146-2" data-name="Rectangle 401146" width="3.48" height="3.273" transform="translate(0 0)" fill="#005865"/>
        </g>
      </g>
      <g id="Group_1099519-2" data-name="Group 1099519" transform="translate(37.83 10.547)">
        <g id="Group_1099518-2" data-name="Group 1099518" transform="translate(0 0)" clip-path="url(#clip-path-4)">
          <rect id="Rectangle_401147-2" data-name="Rectangle 401147" width="3.481" height="3.273" transform="translate(0 0)" fill="#005865"/>
        </g>
      </g>
      <g id="Group_1099521-2" data-name="Group 1099521" transform="translate(29.232 10.547)">
        <g id="Group_1099520-2" data-name="Group 1099520" transform="translate(0 0)" clip-path="url(#clip-path-4)">
          <rect id="Rectangle_401148-2" data-name="Rectangle 401148" width="3.481" height="3.273" transform="translate(0 0)" fill="#005865"/>
        </g>
      </g>
      <g id="Group_1099523-2" data-name="Group 1099523" transform="translate(20.635 10.547)">
        <g id="Group_1099522-2" data-name="Group 1099522" transform="translate(0 0)" clip-path="url(#clip-path-6)">
          <rect id="Rectangle_401149-2" data-name="Rectangle 401149" width="3.48" height="3.273" transform="translate(0 0)" fill="#005865"/>
        </g>
      </g>
      <g id="Group_1099525-2" data-name="Group 1099525" transform="translate(42.988)">
        <g id="Group_1099524-2" data-name="Group 1099524" clip-path="url(#clip-path-4)">
          <rect id="Rectangle_401150-2" data-name="Rectangle 401150" width="3.481" height="3.273" transform="translate(0 0)" fill="#005865"/>
        </g>
      </g>
      <g id="Group_1099529-2" data-name="Group 1099529" transform="translate(34.39)">
        <g id="Group_1099528-2" data-name="Group 1099528" transform="translate(0)" clip-path="url(#clip-path-8)">
          <rect id="Rectangle_401152-2" data-name="Rectangle 401152" width="3.481" height="3.273" transform="translate(0 0)" fill="#005865"/>
        </g>
      </g>
      <g id="Group_1099531-2" data-name="Group 1099531" transform="translate(17.195)">
        <g id="Group_1099530-2" data-name="Group 1099530" transform="translate(0)" clip-path="url(#clip-path-9)">
          <rect id="Rectangle_401153-2" data-name="Rectangle 401153" width="3.48" height="3.273" transform="translate(0 0)" fill="#005865"/>
        </g>
      </g>
      <g id="Group_1099533-2" data-name="Group 1099533" transform="translate(8.597)">
        <g id="Group_1099532-2" data-name="Group 1099532" clip-path="url(#clip-path-6)">
          <rect id="Rectangle_401154-2" data-name="Rectangle 401154" width="3.48" height="3.273" transform="translate(0 0)" fill="#005865"/>
        </g>
      </g>
      <g id="Group_1099535-2" data-name="Group 1099535" transform="translate(0)">
        <g id="Group_1099534-2" data-name="Group 1099534" transform="translate(0)" clip-path="url(#clip-path-6)">
          <rect id="Rectangle_401155-2" data-name="Rectangle 401155" width="3.48" height="3.273" transform="translate(0 0)" fill="#005865"/>
        </g>
      </g>
    </g>
    <path id="Path_873784" data-name="Path 873784" d="M95.309,21.036A21.023,21.023,0,0,0,74.274,0l-53,.131A21.275,21.275,0,0,0,.132,21.271L0,74.273A21.022,21.022,0,0,0,21.036,95.307l53-.131A21.275,21.275,0,0,0,95.178,74.038Z" transform="translate(-22983.523 -3673.019) rotate(-135)" fill="#2bc897"/>
    <ellipse id="Ellipse_11579" data-name="Ellipse 11579" cx="54.393" cy="54.091" rx="54.393" ry="54.091" transform="translate(-23038.395 -3795.057)" fill="#befed9"/>
    <g id="Mask_Group_1098697" data-name="Mask Group 1098697" transform="translate(-23017.424 -3774.097)" clip-path="url(#clip-path-22)">
      <g id="Group_1112365" data-name="Group 1112365" transform="translate(10.639 2.679)">
        <g id="Group_1112364" data-name="Group 1112364" clip-path="url(#clip-path-23)">
          <path id="Path_887587" data-name="Path 887587" d="M.064,59.334c0-.193,0-.385,0-.578q0-22.274,0-44.548c0-.332.028-.665,0-.995-.11-1.4-.032-2.8-.056-4.194,0-.267-.018-.536,0-.8C.13,6.344,0,4.469.082,2.6A2.58,2.58,0,0,1,.912.85,2.883,2.883,0,0,1,2.4.044,4.032,4.032,0,0,1,3.153,0q20.137,0,40.274,0a9.38,9.38,0,0,1,1.093.074,1.846,1.846,0,0,1,.689.246,2.938,2.938,0,0,1,1.361,1.489,2.568,2.568,0,0,1,.179.831c.075,1.651-.015,3.3.038,4.954.048,1.48.055,2.959.04,4.438-.106,10.593-.018,21.185-.043,31.778-.012,5.287,0,10.574,0,15.861a2.973,2.973,0,0,1-.456,1.657,2.9,2.9,0,0,1-1.84,1.28,3.273,3.273,0,0,1-.738.071H2.9A2.909,2.909,0,0,1,.165,60.56a3.944,3.944,0,0,1-.1-1.09.2.2,0,0,0,0-.136M1.636,7.03c-.078.036-.071.072,0,.109.035.109.126.055.189.055q21.43,0,42.86,0c.134,0,.269-.007.4,0,.108.007.139-.032.139-.136q-.008-1.734-.011-3.467c0-.251.009-.5,0-.754a1.214,1.214,0,0,0-.316-.825,1.237,1.237,0,0,0-.731-.41A7.209,7.209,0,0,0,43.154,1.6q-9.553,0-19.106,0-10.228,0-20.457,0a6.628,6.628,0,0,0-.915.009A1.23,1.23,0,0,0,1.648,2.713C1.61,4.152,1.637,5.591,1.636,7.03M45.214,36.82q0-11.012,0-22.024c0-.364,0-.728,0-1.092,0-.117-.037-.148-.148-.143-.187.009-.375.007-.563.007H6.021q-2.123,0-4.246-.009c-.121,0-.156.031-.149.155.013.229.007.46.007.69q0,18.148,0,36.3,0,4.583,0,9.166a1.119,1.119,0,0,0,.244.737,1.22,1.22,0,0,0,.836.477c.359.035.718,0,1.077,0q12.239,0,24.478,0,7.808,0,15.617.009a1.3,1.3,0,0,0,1.325-1.271c0-.2,0-.4,0-.594q0-11.2,0-22.41M23.427,8.794H6.123c-1.426,0-2.852.005-4.278,0-.148,0-.177.047-.17.181.011.213,0,.428,0,.642q0,1.1,0,2.2c0,.077-.005.12.107.141a2.729,2.729,0,0,0,.508.016q20.891,0,41.782,0,.482,0,.964-.023c.119-.006.133-.046.132-.149,0-.883,0-1.766,0-2.649,0-.362,0-.363-.371-.363H23.427" transform="translate(0 0)" fill="#005865"/>
          <path id="Path_887588" data-name="Path 887588" d="M.2,461.078a.2.2,0,0,1,0,.136c-.051-.044-.074-.09,0-.136" transform="translate(-0.132 -401.744)" fill="#005865"/>
          <path id="Path_887589" data-name="Path 887589" d="M12.336,54.631a.124.124,0,0,1,0,.109c-.071-.036-.078-.072,0-.109" transform="translate(-10.7 -47.601)" fill="#005865"/>
          <path id="Path_887590" data-name="Path 887590" d="M151.37,271.781a6.293,6.293,0,0,1-2.851-.807,5.474,5.474,0,0,1-2.466-4.233,5.346,5.346,0,0,1,5.441-5.664,5.352,5.352,0,0,1-.124,10.7m-.09-1.584a3.842,3.842,0,0,0,1.273-.169,3.93,3.93,0,0,0,1.722-1.161,3.671,3.671,0,0,0,.876-2.109,3.737,3.737,0,0,0-.07-1.074,3.651,3.651,0,0,0-1.022-1.944c-.091-.094-.145-.1-.214.026-.285.5-.577,1-.87,1.494-.636,1.078-1.257,2.165-1.884,3.249q-.412.712-.822,1.424c-.024.041-.08.1.024.126a3.453,3.453,0,0,0,.987.139m.081-7.525a3.639,3.639,0,0,0-.581.033,3.8,3.8,0,0,0-1.57.634,4,4,0,0,0-1.237,1.473,3.619,3.619,0,0,0-.262,2.532,3.931,3.931,0,0,0,.935,1.668c.214.224.231.215.384-.054.491-.866.975-1.738,1.482-2.595.587-.992,1.176-1.983,1.744-2.987q.118-.209.228-.422c.051-.1.023-.168-.092-.182a5.945,5.945,0,0,0-1.031-.1" transform="translate(-127.249 -227.479)" fill="#005865"/>
          <path id="Path_887591" data-name="Path 887591" d="M196.178,147.362a5.36,5.36,0,0,1,5.407,4.83,5.11,5.11,0,0,1-.963,3.6,5.267,5.267,0,0,1-3.888,2.242,5.106,5.106,0,0,1-4.166-1.49,5.191,5.191,0,0,1-1.648-3.819,5.325,5.325,0,0,1,5.257-5.363m.1,1.592a3.481,3.481,0,0,0-1.136.151,3.762,3.762,0,0,0-2.63,3.9,3.818,3.818,0,0,0,.991,2.267c.231.248.231.247.394-.034q1.3-2.251,2.607-4.5.425-.734.846-1.471c.092-.161.089-.18-.1-.211a3.975,3.975,0,0,0-.975-.1m.081,7.507a3.75,3.75,0,0,0,1.308-.256,3.538,3.538,0,0,0,1.642-1.266,3.636,3.636,0,0,0,.705-2.429,3.808,3.808,0,0,0-.366-1.49,3.674,3.674,0,0,0-.73-1.008c-.085-.084-.139-.1-.2.026-.168.337-.394.642-.566.977-.082.159-.2.3-.281.46-.141.282-.3.549-.464.818-.545.915-1.054,1.85-1.6,2.763-.218.363-.417.742-.635,1.106-.066.11-.044.132.053.162a3.805,3.805,0,0,0,1.136.137" transform="translate(-166.352 -128.399)" fill="#005865"/>
          <path id="Path_887592" data-name="Path 887592" d="M228.639,343.952a5.4,5.4,0,0,1,5.572,5.337,5.332,5.332,0,0,1-4.925,5.36,5.151,5.151,0,0,1-4.051-1.425,5.218,5.218,0,0,1-1.725-3.568,5.136,5.136,0,0,1,1.434-3.988,5.225,5.225,0,0,1,3.694-1.717m.158,1.593c-.135,0-.248-.008-.359,0a2.961,2.961,0,0,0-.338.062,3.749,3.749,0,0,0-2.577,1.918,3.158,3.158,0,0,0-.441,1.608c0,.227.022.455.025.683a1.432,1.432,0,0,0,.052.325,3.849,3.849,0,0,0,.97,1.777c.2.209.2.216.338-.031q1.641-2.832,3.279-5.666c.077-.134.149-.271.224-.406.021-.039.049-.091-.01-.1a2.071,2.071,0,0,0-.3-.1,7.214,7.214,0,0,0-.865-.066m-.114,7.535a3.944,3.944,0,0,0,1.1-.106,3.7,3.7,0,0,0,2.76-2.866,3.754,3.754,0,0,0-.03-1.769,3.564,3.564,0,0,0-.945-1.666c-.172-.175-.17-.18-.294.034q-1.556,2.68-3.109,5.362c-.134.231-.263.465-.4.693-.087.143-.083.164.079.2a3.928,3.928,0,0,0,.843.12" transform="translate(-194.734 -299.69)" fill="#005865"/>
          <path id="Path_887593" data-name="Path 887593" d="M57.105,354.866a2.336,2.336,0,0,1,.031-.564,6.5,6.5,0,0,1,.3-1.046,6.855,6.855,0,0,1,.8-1.425,5.135,5.135,0,0,1,.684-.731,4.706,4.706,0,0,1,1.411-.888,5.13,5.13,0,0,1,1.106-.34,5.632,5.632,0,0,1,3.345.436,5.049,5.049,0,0,1,1.865,1.493,4.765,4.765,0,0,1,.665,1.089,5.271,5.271,0,0,1,.452,1.658,6.7,6.7,0,0,1,.017,1.1,4.782,4.782,0,0,1-.3,1.268,5.3,5.3,0,0,1-1.441,2.147,5.494,5.494,0,0,1-2.247,1.233,5.418,5.418,0,0,1-1.924.146,5.168,5.168,0,0,1-1.8-.545,4.094,4.094,0,0,1-.513-.293,5.6,5.6,0,0,1-2.152-2.731,5.275,5.275,0,0,1-.267-1.087c-.032-.21-.028-.422-.058-.631a.6.6,0,0,0,.025-.29m2.824,3.051.27-.456c.832-1.4,1.627-2.831,2.442-4.245q.455-.791.93-1.57c.072-.118.038-.154-.077-.172-.24-.037-.474-.1-.722-.114a3.792,3.792,0,0,0-1.264.1,3.857,3.857,0,0,0-2.2,1.557,3.983,3.983,0,0,0-.616,1.613,2.809,2.809,0,0,0-.016.786,4.115,4.115,0,0,0,.248,1.073,3.591,3.591,0,0,0,1.006,1.429m2.386.944A3.489,3.489,0,0,0,63.9,358.6a3.742,3.742,0,0,0,2.269-4.215,3.521,3.521,0,0,0-.916-1.8c-.272-.29-.267-.291-.468.059q-.959,1.666-1.921,3.329c-.5.865-1,1.731-1.5,2.593-.077.133-.036.159.093.192a4.161,4.161,0,0,0,.853.106" transform="translate(-49.735 -304.776)" fill="#005865"/>
          <path id="Path_887594" data-name="Path 887594" d="M62.105,182.7a5.442,5.442,0,0,1,5.722,4.925,5.335,5.335,0,1,1-5.722-4.925m-2.139,8.156c.036-.057.071-.11.1-.164l2.59-4.477c.313-.541.624-1.082.943-1.619.068-.115.04-.161-.076-.188a4.193,4.193,0,0,0-.434-.1,4.1,4.1,0,0,0-1.459.058,3.823,3.823,0,0,0-2.933,3.642,3.313,3.313,0,0,0,.159,1.069,3.9,3.9,0,0,0,1.107,1.778m2.509.957a3.366,3.366,0,0,0,1.208-.182,3.762,3.762,0,0,0,2.54-4.287,3.679,3.679,0,0,0-1.068-2c-.107-.108-.149-.081-.216.036q-1.153,2.007-2.314,4.009-.613,1.061-1.23,2.119c-.072.124.018.151.093.171a3.342,3.342,0,0,0,.987.129" transform="translate(-49.778 -159.191)" fill="#005865"/>
          <path id="Path_887595" data-name="Path 887595" d="M56.786,389.247a.6.6,0,0,1-.026.29.207.207,0,0,1,.026-.29" transform="translate(-49.415 -339.156)" fill="#005865"/>
        </g>
      </g>
    </g>
  </g>
</svg>
