<svg xmlns="http://www.w3.org/2000/svg" xmlns:xlink="http://www.w3.org/1999/xlink" width="62.504" height="62.504" viewBox="0 0 62.504 62.504">
  <defs>
    <clipPath id="clip-path">
      <rect id="Rectangle_406567" data-name="Rectangle 406567" width="25.307" height="33.182" fill="#12263f"/>
    </clipPath>
  </defs>
  <g id="Group_1112069" data-name="Group 1112069" transform="translate(-279.529 -1198.772)">
    <g id="Group_1072053" data-name="Group 1072053" transform="translate(279.529 1198.772)">
      <circle id="Ellipse_4742" data-name="Ellipse 4742" cx="31.252" cy="31.252" r="31.252" transform="translate(0)" fill="#ff9292"/>
    </g>
    <g id="Group_1112061" data-name="Group 1112061" transform="translate(298.529 1213.772)">
      <g id="Group_1112060" data-name="Group 1112060" clip-path="url(#clip-path)">
        <path id="Path_886551" data-name="Path 886551" d="M.993,125.273a16.744,16.744,0,0,0,5.984,2.042,35.671,35.671,0,0,0,8.364.393,25.263,25.263,0,0,0,6.18-1.051c1-.329,1.958-.817,2.933-1.235.069-.03.135-.066.258-.126v.406c0,1.847-.005,3.694.009,5.541a.945.945,0,0,0,.193.541A2.354,2.354,0,0,1,24.8,135a6.046,6.046,0,0,1-2.189,1.459,19.949,19.949,0,0,1-5.45,1.358,34.472,34.472,0,0,1-8.645,0A18.97,18.97,0,0,1,2.763,136.3a5.625,5.625,0,0,1-1.877-1.321,2.348,2.348,0,0,1-.08-3.215.891.891,0,0,0,.179-.513c.013-1.847.008-3.694.008-5.541v-.441" transform="translate(-0.195 -116.752)" fill="#12263f"/>
        <path id="Path_886552" data-name="Path 886552" d="M.8,300.188c.879.376,1.7.782,2.56,1.087a25.51,25.51,0,0,0,7.367,1.288,33.831,33.831,0,0,0,9.154-.688,14.468,14.468,0,0,0,4.46-1.681,1.058,1.058,0,0,1,.161-.059c.006.145.016.263.016.381,0,1.858,0,3.717.009,5.575a.884.884,0,0,0,.187.509,2.329,2.329,0,0,1,.053,3.03,5.161,5.161,0,0,1-1.877,1.427,16.969,16.969,0,0,1-4.938,1.436,32.892,32.892,0,0,1-6.265.39A26.451,26.451,0,0,1,3.7,311.6a7.434,7.434,0,0,1-2.535-1.347A4.142,4.142,0,0,1,.3,309.22a2.164,2.164,0,0,1,.28-2.561.954.954,0,0,0,.223-.644c-.007-1.824,0-3.649,0-5.473v-.354" transform="translate(0 -279.721)" fill="#12263f"/>
        <path id="Path_886553" data-name="Path 886553" d="M12.793,9.534a31.938,31.938,0,0,1-8.2-1.116A9.277,9.277,0,0,1,1.33,6.863a4.345,4.345,0,0,1-.54-.515A2.325,2.325,0,0,1,.8,3.088a7.017,7.017,0,0,1,3-1.8A19.6,19.6,0,0,1,9,.2c1.579-.126,3.168-.222,4.75-.19A24.882,24.882,0,0,1,21.9,1.342a7.909,7.909,0,0,1,2.328,1.241,4.5,4.5,0,0,1,.516.491,2.336,2.336,0,0,1-.007,3.312,5.951,5.951,0,0,1-2.1,1.419A17.7,17.7,0,0,1,17.4,9.158c-1.529.172-3.068.254-4.6.376m6.3-4.034h0c.271,0,.543.009.813,0a.779.779,0,0,0,.055-1.555c-.575-.026-1.153-.028-1.728,0A.779.779,0,0,0,18.275,5.5c.271.013.542,0,.813,0" transform="translate(-0.119 0)" fill="#12263f"/>
      </g>
    </g>
  </g>
</svg>
