<svg xmlns="http://www.w3.org/2000/svg" xmlns:xlink="http://www.w3.org/1999/xlink" width="99" height="99" viewBox="0 0 99 99">
  <defs>
    <clipPath id="clip-path">
      <rect id="Rectangle_401223" data-name="Rectangle 401223" width="99" height="99" transform="translate(0)" fill="#006543"/>
    </clipPath>
    <clipPath id="clip-path-2">
      <rect id="Rectangle_401223-2" data-name="Rectangle 401223" width="88.539" height="88.539" fill="#f3f9ff"/>
    </clipPath>
    <clipPath id="clip-path-3">
      <rect id="Rectangle_406593" data-name="Rectangle 406593" width="43.25" height="67" fill="none"/>
    </clipPath>
    <clipPath id="clip-path-5">
      <rect id="Rectangle_406587" data-name="Rectangle 406587" width="18.956" height="61.86" fill="none"/>
    </clipPath>
    <clipPath id="clip-path-6">
      <rect id="Rectangle_406589" data-name="Rectangle 406589" width="32.939" height="2.558" fill="none"/>
    </clipPath>
    <clipPath id="clip-path-7">
      <rect id="Rectangle_406590" data-name="Rectangle 406590" width="3.722" height="40.922" fill="none"/>
    </clipPath>
  </defs>
  <g id="Group_1109771" data-name="Group 1109771" transform="translate(-619.921 -5755.871)">
    <g id="Group_1100724" data-name="Group 1100724" transform="translate(619.921 5755.871)">
      <g id="Group_1099654" data-name="Group 1099654" transform="translate(0 0)">
        <g id="Group_1099652" data-name="Group 1099652" clip-path="url(#clip-path)">
          <path id="Path_873521" data-name="Path 873521" d="M99,77.066A22,22,0,0,1,77.066,99H21.934A22,22,0,0,1,0,77.066V21.933A22,22,0,0,1,21.934,0H77.066A22,22,0,0,1,99,21.934Z" transform="translate(0)" fill="#005865"/>
        </g>
      </g>
      <g id="Group_1099659" data-name="Group 1099659" transform="translate(4.77 5.723)">
        <g id="Group_1099652-2" data-name="Group 1099652" transform="translate(0 0)" clip-path="url(#clip-path-2)">
          <path id="Path_873521-2" data-name="Path 873521" d="M88.539,68.922A19.674,19.674,0,0,1,68.923,88.539H19.616A19.674,19.674,0,0,1,0,68.922V19.616A19.674,19.674,0,0,1,19.616,0H68.923A19.674,19.674,0,0,1,88.539,19.616Z" fill="#f3f9ff"/>
        </g>
      </g>
    </g>
    <g id="Group_1100725" data-name="Group 1100725" transform="translate(636.343 5771.293)">
      <rect id="Rectangle_401104" data-name="Rectangle 401104" width="68" height="69" transform="translate(-0.422 0.438)" fill="none"/>
      <g id="Group_1112120" data-name="Group 1112120" transform="translate(10.578 1.438)">
        <g id="Group_1112119" data-name="Group 1112119" clip-path="url(#clip-path-3)">
          <g id="Group_1112118" data-name="Group 1112118" transform="translate(0 0)">
            <g id="Group_1112117" data-name="Group 1112117" clip-path="url(#clip-path-3)">
              <path id="Path_886686" data-name="Path 886686" d="M36.02,12.2c-1.137-1.21,0-6.254,0-6.254H7.092s1.137,5.062,0,6.29C4.493,15.048,0,16.144,0,19.9V59.972c0,4.337,4.053,7.86,9.042,7.86H34.208c5,0,9.042-3.523,9.042-7.86V19.9c0-3.8-4.563-4.87-7.23-7.7" transform="translate(0 -0.964)" fill="#9ecde1"/>
              <path id="Path_886687" data-name="Path 886687" d="M10.846,68.712H32.628c4.321,0,7.828-3.043,7.828-6.8v-29.5H3.017v29.5c0,3.756,3.5,6.8,7.829,6.8" transform="translate(-0.109 -5.252)" fill="#8886f9"/>
              <g id="Group_1112110" data-name="Group 1112110" transform="translate(24.294 5.14)" opacity="0.3" style="mix-blend-mode: overlay;isolation: isolate">
                <g id="Group_1112109" data-name="Group 1112109">
                  <g id="Group_1112108" data-name="Group 1112108" clip-path="url(#clip-path-5)">
                    <path id="Path_886688" data-name="Path 886688" d="M44.158,60.159V20.082c0-3.8-4.563-4.865-7.23-7.7-1.137-1.211,0-6.248,0-6.248H25.2c.207,3.175,1.013,10.106,7.43,13.6,4.607,2.51,3.139,1.378,2.746,18.757-.283,12.61-.139,24.118-.041,29.5,4.893-.1,8.821-3.564,8.821-7.835" transform="translate(-25.202 -6.134)"/>
                  </g>
                </g>
              </g>
              <path id="Path_886689" data-name="Path 886689" d="M36.558,0H7.085A2.026,2.026,0,0,0,5.348,2.222V6.476H38.287V2.222A2.02,2.02,0,0,0,36.558,0" transform="translate(-0.193 0)" fill="#f3a744"/>
              <g id="Group_1112113" data-name="Group 1112113" transform="translate(5.155 3.918)" opacity="0.3" style="mix-blend-mode: overlay;isolation: isolate">
                <g id="Group_1112112" data-name="Group 1112112">
                  <g id="Group_1112111" data-name="Group 1112111" clip-path="url(#clip-path-6)">
                    <rect id="Rectangle_406588" data-name="Rectangle 406588" width="32.939" height="2.558" transform="translate(0 0)"/>
                  </g>
                </g>
              </g>
              <g id="Group_1112116" data-name="Group 1112116" transform="translate(7.016 17.044)" opacity="0.3">
                <g id="Group_1112115" data-name="Group 1112115">
                  <g id="Group_1112114" data-name="Group 1112114" clip-path="url(#clip-path-7)">
                    <path id="Path_886690" data-name="Path 886690" d="M11,59.837a1.69,1.69,0,0,1-1.86,1.426,1.686,1.686,0,0,1-1.861-1.426V21.766A1.682,1.682,0,0,1,9.139,20.34,1.685,1.685,0,0,1,11,21.766Z" transform="translate(-7.278 -20.34)" fill="#fff"/>
                  </g>
                </g>
              </g>
              <rect id="Rectangle_406591" data-name="Rectangle 406591" width="43.25" height="20.638" transform="translate(0 32.619)" fill="#dce1f4"/>
              <path id="Path_886691" data-name="Path 886691" d="M2.211,56.027l4.07-9.869,9.212,1.3L14.207,30.144l13.711,7.82L23.632,19.717,33.7,22.137,36.914,14.5l5.57,3.911-3.856,7.82L30.7,25.861l.642,17.318L17.207,35.73l6.426,19.737L8.852,49.323Z" transform="translate(-0.08 -2.35)" fill="#5d3406"/>
            </g>
          </g>
        </g>
      </g>
    </g>
  </g>
</svg>
