<svg xmlns="http://www.w3.org/2000/svg" xmlns:xlink="http://www.w3.org/1999/xlink" width="129" height="128" viewBox="0 0 129 128">
  <defs>
    <clipPath id="clip-path">
      <rect id="Rectangle_400938" data-name="Rectangle 400938" width="120" height="120" fill="none"/>
    </clipPath>
    <clipPath id="clip-path-2">
      <rect id="Rectangle_401492" data-name="Rectangle 401492" width="66.543" height="66.543" transform="translate(0 0)" fill="#12263f" stroke="#707070" stroke-width="1"/>
    </clipPath>
    <clipPath id="clip-path-3">
      <rect id="Rectangle_406692" data-name="Rectangle 406692" width="60.174" height="60.206" fill="#12263f"/>
    </clipPath>
  </defs>
  <g id="Group_1112754" data-name="Group 1112754" transform="translate(-386.711 -1725)">
    <g id="Grupo_108927" data-name="Grupo 108927" transform="translate(-3.289 -2742)">
      <path id="Rectángulo_36179" data-name="Rectángulo 36179" d="M0,0H129V128H0Z" transform="translate(390 4467)" fill="#41cee2"/>
    </g>
    <g id="Group_1111820" data-name="Group 1111820" transform="translate(398.211 1729.957)">
      <circle id="Ellipse_11562" data-name="Ellipse 11562" cx="51.479" cy="51.479" r="51.479" transform="translate(0 8.543)" fill="#defff4"/>
      <g id="Ellipse_11577" data-name="Ellipse 11577" transform="translate(-5.5 3.043)" fill="none" stroke="#defff4" stroke-width="1">
        <circle cx="56.979" cy="56.979" r="56.979" stroke="none"/>
        <circle cx="56.979" cy="56.979" r="56.479" fill="none"/>
      </g>
    </g>
    <g id="Group_1111821" data-name="Group 1111821" transform="translate(419.143 1757.223)">
      <rect id="Rectangle_401104" data-name="Rectangle 401104" width="62" height="63" transform="translate(-0.16 -0.223)" fill="none"/>
      <g id="Group_1098697" data-name="Group 1098697" transform="translate(-2.432 -0.223)" clip-path="url(#clip-path-2)">
        <g id="Group_1112302" data-name="Group 1112302" transform="translate(3 3)">
          <g id="Group_1112301" data-name="Group 1112301" clip-path="url(#clip-path-3)">
            <path id="Path_887233" data-name="Path 887233" d="M31.258,53.141H34.55v-.31c0-1.176,0-2.352,0-3.528a2.755,2.755,0,0,1,.071-.61,1.141,1.141,0,0,1,1.125-.9,1.119,1.119,0,0,1,1.087.937,3.419,3.419,0,0,1,.064.641c.006,1.243,0,2.487,0,3.775H40.93c.1,0,.2,0,.294,0,.9.063,1.324.472,1.336,1.374.019,1.45.014,2.9,0,4.351a1.226,1.226,0,0,1-1.3,1.325c-.1.006-.2,0-.294,0h-21.9a1.3,1.3,0,0,1-1.483-1.428q-.028-2.1.012-4.2c.02-.99.48-1.416,1.475-1.423,1.274-.009,2.548,0,3.821,0h.347V20.377H12.792c.314,1.058.616,2.077.919,3.095.249.834.51,1.664.748,2.5a1.13,1.13,0,0,1-1.992,1.043,3.172,3.172,0,0,1-.318-.752q-1.1-3.635-2.187-7.275c-.024-.079-.064-.152-.124-.293L2.7,42.892H16.982c-.174-.625-.337-1.235-.515-1.84-.506-1.727-1.02-3.451-1.527-5.177a1.221,1.221,0,0,1,.2-1.269,1.1,1.1,0,0,1,1.878.317,15.252,15.252,0,0,1,.505,1.592c.661,2.21,1.3,4.428,1.988,6.629a5.41,5.41,0,0,1-.032,3.012A9.638,9.638,0,0,1,11.9,53.7,9.809,9.809,0,0,1,.279,46.339a10.621,10.621,0,0,1-.271-1.678,3.651,3.651,0,0,1,.13-1.243Q2.6,35,5.086,26.593,6.671,21.22,8.262,15.849c.15-.506.319-1.007.473-1.511A1.248,1.248,0,0,1,9.978,13.4c.117-.007.235,0,.353,0H25c-.06-.092-.085-.141-.12-.184A6.787,6.787,0,0,1,23.37,8.983a20.374,20.374,0,0,1,.086-3.2A6.674,6.674,0,0,1,36.435,4.661,6.776,6.776,0,0,1,36.8,6.968c-.023.9-.009,1.8-.076,2.7a6.291,6.291,0,0,1-1.316,3.372c-.076.1-.15.2-.268.36h14.7c1.076,0,1.393.239,1.7,1.277q2.355,8,4.712,16.009,1.883,6.386,3.778,12.767a4.678,4.678,0,0,1-.041,2.41,9.643,9.643,0,0,1-7.634,7.831,9.807,9.807,0,0,1-11.625-7.349c-.127-.542-.2-1.1-.282-1.648a4.384,4.384,0,0,1,.317-1.923q1.67-5.653,3.334-11.308,1.606-5.443,3.217-10.884l.059-.205H36.9v.354q0,9.26,0,18.52a2.994,2.994,0,0,1-.123.865,1.051,1.051,0,0,1-1.017.746,1.113,1.113,0,0,1-1.091-.781,2.6,2.6,0,0,1-.112-.72c-.01-1.254,0-2.508,0-3.763v-.35H25.639V53.133h3.267v-.339q0-6.834.005-13.67a2.738,2.738,0,0,1,.126-.806,1.011,1.011,0,0,1,1.006-.713,1.1,1.1,0,0,1,1.052.663,2.636,2.636,0,0,1,.157.856q.014,6.821.006,13.641Zm11.9-10.251h14.3L50.343,18.751l-.071.014L43.158,42.89M11.432,15.769c.02.095.03.171.052.243.154.515.308,1.03.467,1.543.141.456.143.453.632.453Q18.36,18,24.136,18A1.285,1.285,0,0,1,25.6,19.236a2.894,2.894,0,0,1,.015.41q0,6.438,0,12.875V32.9H34.55V19.672c0-.1,0-.2,0-.294a1.251,1.251,0,0,1,.976-1.327A2.978,2.978,0,0,1,36.083,18q3.791,0,7.584,0c1.392,0,2.783,0,4.174,0,.175,0,.252-.039.3-.223.161-.584.353-1.16.53-1.739.027-.086.04-.176.061-.275H31.487c.014.113.021.208.038.3.146.808.3,1.616.441,2.426.389,2.216.765,4.434,1.166,6.648a1.863,1.863,0,0,1-.228,1.348c-.571.97-1.118,1.953-1.684,2.925a1.184,1.184,0,0,1-2.189.03c-.61-1-1.187-2.026-1.782-3.039a1.623,1.623,0,0,1-.211-1.13q.683-3.917,1.375-7.833c.1-.554.2-1.108.3-1.677Zm-9.015,29.5a7.514,7.514,0,0,0,14.848,0Zm40.45,0a7.565,7.565,0,0,0,8.469,6.28,7.462,7.462,0,0,0,6.375-6.28ZM19.917,57.838H40.206V55.5H20.284a.523.523,0,0,0-.2.006c-.065.029-.157.1-.158.153-.01.714-.007,1.428-.007,2.177M27.164,8.259c-.505,0-.887,0-1.27,0-.164,0-.23.064-.216.23.023.273.029.548.05.821a4.359,4.359,0,0,0,8.654.441,14.846,14.846,0,0,0,.083-1.788.383.383,0,0,0-.174-.262c-.631-.394-1.276-.765-1.9-1.166a.357.357,0,0,0-.506.042,6.686,6.686,0,0,1-4.72,1.683m6.748-3.49A4.278,4.278,0,0,0,28.95,2.479c-1.592.382-3.293,2.261-3.132,3.423a18.655,18.655,0,0,0,2.165-.015,4.82,4.82,0,0,0,2.986-1.606,1.137,1.137,0,0,1,1.715-.23l1.228.718m-3.817,21.97c.245-.422.463-.781.66-1.151a.572.572,0,0,0,.034-.333c-.094-.6-.2-1.194-.3-1.79-.116-.666-.235-1.331-.366-2.07a1.83,1.83,0,0,0-.087.233c-.216,1.211-.431,2.421-.639,3.634a.518.518,0,0,0,.038.31c.2.377.42.744.663,1.167" transform="translate(0 0)" fill="#12263f"/>
            <path id="Path_887234" data-name="Path 887234" d="M66.089,83.143a1.173,1.173,0,0,1,1.155-1.161,1.2,1.2,0,0,1,1.137,1.19,1.144,1.144,0,0,1-1.158,1.119,1.16,1.16,0,0,1-1.134-1.148" transform="translate(-31.489 -39.062)" fill="#12263f"/>
            <path id="Path_887235" data-name="Path 887235" d="M26.954,56.7a1.164,1.164,0,0,1,1.122,1.137,1.146,1.146,0,1,1-2.29-.05A1.165,1.165,0,0,1,26.954,56.7" transform="translate(-12.286 -27.016)" fill="#12263f"/>
            <path id="Path_887236" data-name="Path 887236" d="M55.867,21.053a1.8,1.8,0,0,1-1.459-.8,1.05,1.05,0,0,1,.035-1.262,1.106,1.106,0,0,1,1.155-.46,2.235,2.235,0,0,0,.663,0,1.142,1.142,0,0,1,1.219.507,1.128,1.128,0,0,1-.084,1.34,1.9,1.9,0,0,1-1.53.676" transform="translate(-25.831 -8.819)" fill="#12263f"/>
          </g>
        </g>
      </g>
    </g>
  </g>
</svg>
