<svg xmlns="http://www.w3.org/2000/svg" xmlns:xlink="http://www.w3.org/1999/xlink" width="62.504" height="62.504" viewBox="0 0 62.504 62.504">
  <defs>
    <clipPath id="clip-path">
      <rect id="Rectangle_406572" data-name="Rectangle 406572" width="31.973" height="31.988" fill="#12263f"/>
    </clipPath>
  </defs>
  <g id="Group_1112075" data-name="Group 1112075" transform="translate(-279.529 -1198.772)">
    <g id="Group_1072053" data-name="Group 1072053" transform="translate(279.529 1198.772)">
      <circle id="Ellipse_4742" data-name="Ellipse 4742" cx="31.252" cy="31.252" r="31.252" transform="translate(0)" fill="#ff9292"/>
    </g>
    <g id="Group_1112067" data-name="Group 1112067" transform="translate(295.529 1213.772)">
      <g id="Group_1112066" data-name="Group 1112066" clip-path="url(#clip-path)">
        <path id="Path_886578" data-name="Path 886578" d="M15.552.3a.513.513,0,0,1,.909-.042c.138.226.253.423.356.627,4.79,9.523,9.815,19.736,14.6,29.264.768,1.532.92,1.825-.661,1.829-9.819.028-20.47,0-30.289-.016a.31.31,0,0,1-.074-.01.566.566,0,0,1-.325-.806L15.552.3m3.107,13.459c0-1.387.058-2.778-.015-4.161a2.618,2.618,0,0,0-2.59-2.752A2.521,2.521,0,0,0,13.528,9.62q-.088,4.07,0,8.143a2.609,2.609,0,0,0,2.547,2.795,2.737,2.737,0,0,0,2.574-2.82c.066-1.323.013-2.653.012-3.98m-2.677,9.715a2.527,2.527,0,0,0-2.454,2.661,2.616,2.616,0,0,0,2.615,2.716,2.774,2.774,0,0,0,2.5-2.708,2.645,2.645,0,0,0-2.663-2.669" transform="translate(0 0)" fill="#12263f"/>
      </g>
    </g>
  </g>
</svg>
