<svg xmlns="http://www.w3.org/2000/svg" xmlns:xlink="http://www.w3.org/1999/xlink" width="85" height="85" viewBox="0 0 85 85">
  <defs>
    <clipPath id="clip-path">
      <rect id="Rectangle_404010" data-name="Rectangle 404010" width="68.541" height="68.541" transform="translate(0 -0.297)" fill="#fff" stroke="#707070" stroke-width="1"/>
    </clipPath>
    <clipPath id="clip-path-2">
      <rect id="Rectangle_406573" data-name="Rectangle 406573" width="62.986" height="62.944" fill="#fff"/>
    </clipPath>
  </defs>
  <g id="Group_1112774" data-name="Group 1112774" transform="translate(-180.34 -1574.297)">
    <rect id="Rectangle_404009" data-name="Rectangle 404009" width="85" height="85" transform="translate(180.34 1574.297)" fill="#005865"/>
    <g id="Mask_Group_1098861" data-name="Mask Group 1098861" transform="translate(188.711 1582.297)" clip-path="url(#clip-path)">
      <g id="Group_1112089" data-name="Group 1112089" transform="translate(3 2.703)">
        <g id="Group_1112088" data-name="Group 1112088" clip-path="url(#clip-path-2)">
          <path id="Path_886579" data-name="Path 886579" d="M31.495,1.856A29.458,29.458,0,0,0,2.44,25.9C.358,37.485,4.037,47.215,13.157,54.682a27.963,27.963,0,0,0,21.129,6.265A29.028,29.028,0,0,0,56.014,48.09c.1-.141.186-.29.29-.426a.92.92,0,0,1,1.291-.317.89.89,0,0,1,.239,1.341c-.581.851-1.161,1.708-1.813,2.5A30.92,30.92,0,0,1,36.155,62.585a31.463,31.463,0,1,1,26.248-37,30.891,30.891,0,0,1-2.186,18.767,3.735,3.735,0,0,1-.226.462.862.862,0,0,1-1.105.412.876.876,0,0,1-.566-1.093,2.687,2.687,0,0,1,.21-.538A29.577,29.577,0,0,0,38.068,2.628c-2.147-.478-4.364-.637-6.549-.944l-.024.172" transform="translate(0 0)" fill="#fff"/>
          <path id="Path_886580" data-name="Path 886580" d="M146.493,109.848c.134,1.783.264,3.494.392,5.2.07.943.155,1.884.2,2.828.033.665-.288,1.042-.841,1.071-.57.03-.934-.348-.988-1.024-.214-2.675-.43-5.35-.649-8.07-.178-.027-.34-.055-.5-.076a1.5,1.5,0,0,1-1.462-1.45,24.92,24.92,0,0,1,0-3.089,1.493,1.493,0,0,1,1.662-1.437c2.106-.014,4.212-.005,6.319-.006h.753c.022-.234.049-.417.055-.6a2.822,2.822,0,0,1,2.8-2.931,28.669,28.669,0,0,1,2.9,0,2.827,2.827,0,0,1,2.841,2.895c.007.187.025.375.044.64H161c1.977,0,3.954-.005,5.932,0a1.637,1.637,0,0,1,1.875,1.849c.014.666,0,1.332,0,2,0,1.526-.412,1.993-2,2.194-.076.869-.161,1.758-.231,2.648q-.537,6.84-1.067,13.681c-.228,2.935-.441,5.87-.683,8.8a2.455,2.455,0,0,1-2.7,2.351c-3.847.01-7.694,0-11.541,0-.516,0-1.033.018-1.547-.008a2.413,2.413,0,0,1-2.452-2.266c-.335-4.133-.64-8.268-.951-12.4a1.851,1.851,0,0,1,.034-.7.826.826,0,0,1,.954-.591.893.893,0,0,1,.822.92c.14,1.669.262,3.34.394,5.009.193,2.441.4,4.88.573,7.322.044.632.314.852.933.849q6.351-.023,12.7,0c.61,0,.9-.2.945-.835.211-2.848.462-5.694.683-8.541q.6-7.709,1.181-15.42c.019-.254.027-.509.044-.819Zm-2-1.958h22.4v-2.2h-22.4Zm8.845-4.127h4.7c.23-1.149-.143-1.626-1.252-1.634-.709-.006-1.418,0-2.128,0-1.141.007-1.471.4-1.325,1.635" transform="translate(-124.213 -87.309)" fill="#fff"/>
          <path id="Path_886581" data-name="Path 886581" d="M118.135,151.4a23.806,23.806,0,0,0,33.353-33.271c-.26.248-.519.487-.769.736-.838.834-1.667,1.676-2.509,2.505-.543.534-1.047.587-1.468.182s-.372-.953.141-1.471q1.95-1.97,3.919-3.922a.962.962,0,0,1,1.635.1,25.142,25.142,0,0,1,5.442,13.024,24.483,24.483,0,0,1-4.048,17.127c-5.753,8.35-13.778,12.225-23.93,11.444a24.592,24.592,0,0,1-13.5-5.411c-.753-.591-.8-1.093-.135-1.76q1.884-1.9,3.785-3.782c.54-.536,1.119-.6,1.519-.174.379.4.317.955-.2,1.471-1.061,1.061-2.135,2.109-3.239,3.2" transform="translate(-100.873 -100.832)" fill="#fff"/>
          <path id="Path_886582" data-name="Path 886582" d="M85.368,52.193a23.682,23.682,0,0,0-33.1,33.159c.17-.159.341-.311.5-.472q2.3-2.3,4.6-4.607c.137-.137.271-.277.419-.4a.894.894,0,0,1,1.28,0,.91.91,0,0,1,0,1.326c-.069.082-.148.155-.224.231q-2.894,2.9-5.789,5.79c-.745.743-1.2.714-1.845-.1A25.6,25.6,0,0,1,87.131,51.147c.853.673.88,1.114.11,1.889-.591.594-1.179,1.192-1.782,1.774a.983.983,0,0,1-1.433.1.955.955,0,0,1,.136-1.417c.373-.386.753-.766,1.127-1.151a.742.742,0,0,0,.079-.148" transform="translate(-39.795 -39.767)" fill="#fff"/>
          <path id="Path_886583" data-name="Path 886583" d="M203.36,201.217q.223,4.761.448,9.522c.027.568-.108,1.04-.724,1.2-.6.154-1.071-.252-1.111-.989q-.178-3.215-.317-6.433-.285-6.337-.556-12.676a4.694,4.694,0,0,1,0-.579.909.909,0,0,1,1.788-.142,3.3,3.3,0,0,1,.063.7q.211,4.7.419,9.4h-.005" transform="translate(-175.163 -165.878)" fill="#fff"/>
          <path id="Path_886584" data-name="Path 886584" d="M266.832,201.189q.208-4.665.416-9.331c.009-.193,0-.387.026-.579a.934.934,0,0,1,.965-.918.9.9,0,0,1,.867,1c-.047,1.609-.115,3.218-.188,4.827q-.293,6.5-.6,13c-.028.6-.049,1.2-.1,1.8a.889.889,0,0,1-.946.916.91.91,0,0,1-.878-1c.015-.923.074-1.845.116-2.767q.16-3.474.322-6.948h0" transform="translate(-232.051 -165.819)" fill="#fff"/>
          <path id="Path_886585" data-name="Path 886585" d="M238.914,201.171q0,4.61,0,9.219a5.918,5.918,0,0,1-.014.644.918.918,0,0,1-1.83.025,4.717,4.717,0,0,1-.015-.58q0-9.348,0-18.7c0-.086,0-.172,0-.258.015-.738.344-1.155.916-1.164s.933.413.94,1.138c.01,1.031,0,2.063,0,3.095q0,3.288,0,6.576" transform="translate(-206.492 -165.82)" fill="#fff"/>
        </g>
      </g>
    </g>
  </g>
</svg>
