<svg xmlns="http://www.w3.org/2000/svg" xmlns:xlink="http://www.w3.org/1999/xlink" width="147" height="147" viewBox="0 0 147 147">
  <defs>
    <clipPath id="clip-path">
      <rect id="Rectangle_400938" data-name="Rectangle 400938" width="147" height="147" fill="none"/>
    </clipPath>
    <clipPath id="clip-path-2">
      <rect id="Rectangle_401492" data-name="Rectangle 401492" width="78.518" height="78.519" transform="translate(2.586 3.186)" fill="#b8fafd" stroke="#707070" stroke-width="1"/>
    </clipPath>
    <clipPath id="clip-path-3">
      <rect id="Rectangle_406632" data-name="Rectangle 406632" width="69.85" height="68.667" fill="#b8fafd"/>
    </clipPath>
  </defs>
  <g id="Group_1111853" data-name="Group 1111853" transform="translate(-310 -7635)">
    <g id="Group_1102000" data-name="Group 1102000" transform="translate(448.975 7781.705) rotate(180)">
      <path id="Path_874029" data-name="Path 874029" d="M626.466,575.286l-64.987-36.674V465.259l64.987-36.677,64.987,36.677v73.354Zm-62.05-38.332,62.05,35.019,62.05-35.019V466.916l-62.05-35.022-62.05,35.022Z" transform="translate(-561.479 -428.582)" fill="#2bc897"/>
      <path id="Path_874030" data-name="Path 874030" d="M574.458,477v66.873l59.374,33.436L693.2,543.876V477l-59.373-33.436Z" transform="translate(-568.844 -437.087)" fill="#005865"/>
    </g>
    <g id="Mask_Group_1098697" data-name="Mask Group 1098697" transform="translate(341.414 7665.634)" clip-path="url(#clip-path-2)">
      <g id="Group_1112193" data-name="Group 1112193" transform="translate(5.66 8.111)">
        <g id="Group_1112192" data-name="Group 1112192" clip-path="url(#clip-path-3)">
          <path id="Path_886868" data-name="Path 886868" d="M75.123,57.077H72.786v-.85c0-4.328-.007-8.656.009-12.983a1.291,1.291,0,0,0-.588-1.273,7.4,7.4,0,0,1-1.12-1.143,5.816,5.816,0,0,1-9.051.257c-3.5,2.779-5.876,2.808-9.171.093a6.178,6.178,0,0,1-9.053-.043,5.829,5.829,0,0,1-4.593,2,5.724,5.724,0,0,1-4.484-2.061,5.883,5.883,0,0,1-9.07-.142c-.53.458-1.088.888-1.573,1.388a1.215,1.215,0,0,0-.173.769q-.015,6.53-.007,13.06v.9H21.574v-.911c0-4.048-.011-8.1.011-12.143,0-.606-.078-.875-.8-.915a5.338,5.338,0,0,1-4.443-7.673c1.282-2.853,2.64-5.672,3.965-8.506.4-.852.824-1.693,1.188-2.559a1.51,1.51,0,0,1,1.591-1.02c4.225.026,8.45.012,12.675.012h.892V21c-.307,0-.6.009-.9,0-.977-.033-1.365-.431-1.392-1.423-.008-.305,0-.611,0-.917q0-8.439,0-16.878c0-1.463.325-1.783,1.8-1.783H60.523c1.5,0,1.813.314,1.813,1.85q0,8.63,0,17.26c0,1.605-.215,1.823-1.843,1.9a4.463,4.463,0,0,0-.464.071c-.017.2-.044.373-.046.546-.006.53,0,1.061,0,1.707h.945c4.2,0,8.4.018,12.6-.015A1.638,1.638,0,0,1,75.234,24.4c1.674,3.653,3.414,7.275,5.083,10.93a5.356,5.356,0,0,1-3.793,7.688c-.44.088-1.116,0-1.275.253a3.043,3.043,0,0,0-.123,1.478q-.009,5.69,0,11.38ZM59.929,2.43H36.771V18.6H59.929ZM45.8,25.689c-.1,1.408-.2,2.725-.284,4.042-.177,2.661-.383,5.322-.51,7.986a2.86,2.86,0,0,0,2.21,2.924c2.758.7,4.718-.984,4.495-3.52-.276-3.137-.442-6.285-.66-9.427-.047-.673-.115-1.345-.173-2Zm-7.4,0c-.046.055-.072.071-.076.092-.774,3.837-1.569,7.671-2.307,11.515a2.928,2.928,0,0,0,2.081,3.319c2.275.646,4.438-.432,4.58-3.081.162-3.022.391-6.041.586-9.061.06-.925.1-1.851.151-2.784Zm14.9.005c0,.213-.009.384,0,.555.148,2.31.293,4.62.452,6.93.115,1.674.178,3.356.393,5.018.243,1.878,2.039,2.938,4.087,2.533a3.059,3.059,0,0,0,2.407-3.719q-.806-4-1.6-8l-.662-3.314Zm-17.364-.041c-1.591,0-3.113-.017-4.633.022a.792.792,0,0,0-.532.473c-1.2,3.532-2.4,7.065-3.545,10.615a3.005,3.005,0,0,0,2.887,4.011,3.142,3.142,0,0,0,3.392-2.82c.368-1.843.722-3.689,1.087-5.532.441-2.234.887-4.468,1.344-6.769m24.845,0c.1.509.173.907.252,1.3.762,3.816,1.5,7.638,2.3,11.446a3.147,3.147,0,0,0,4.036,2.268A2.974,2.974,0,0,0,69.493,36.8C68.337,33.224,67.128,29.66,65.92,26.1a.721.721,0,0,0-.495-.426c-1.524-.033-3.048-.019-4.653-.019m-32.346,0c-.948,0-1.759-.007-2.571,0-.784.008-1.741-.236-2.3.125s-.751,1.332-1.084,2.044c-1.323,2.832-2.655,5.661-3.951,8.505a3.028,3.028,0,1,0,5.57,2.314c.714-2.039,1.368-4.1,2.052-6.147.746-2.237,1.5-4.473,2.288-6.843m39.962,0a.96.96,0,0,0-.014.242C69.8,30.21,71.2,34.537,72.689,38.836a3.015,3.015,0,1,0,5.582-2.277c-1.583-3.524-3.237-7.015-4.882-10.511a.762.762,0,0,0-.544-.379c-1.473-.031-2.946-.017-4.456-.017m-24.636-2.37h9.178V21.07H43.753Zm-2.479-2.23H39.083V23.3h2.191Zm16.35.005H55.416v2.238h2.208Z" transform="translate(-13.411 -0.001)" fill="#b8fafd"/>
          <path id="Path_886869" data-name="Path 886869" d="M0,314.418v-2.207H2.266c.021-.349.051-.615.051-.882,0-1.578-.007-3.157.007-4.735.009-1.014.436-1.431,1.455-1.432q7.864-.007,15.729,0c1.048,0,1.461.422,1.467,1.5.01,1.8,0,3.608,0,5.463h3.386v-19.7H15.178V302.8H12.8v-.7q0-5.231,0-10.463c0-1.217.382-1.6,1.583-1.6q5.421,0,10.842,0c1.2,0,1.587.39,1.588,1.607q0,9.776,0,19.551v.938H48.85c.016-.278.044-.546.044-.815,0-1.553-.005-3.106.005-4.659.007-1.075.419-1.495,1.469-1.5q7.864-.007,15.729,0c1.017,0,1.444.419,1.453,1.434.014,1.553,0,3.106,0,4.659,0,.275,0,.549,0,.907H69.85v2.257Zm18.552-6.856H4.731v4.574H18.552Zm46.6-.006H51.332v4.576H65.148Z" transform="translate(0 -245.751)" fill="#b8fafd"/>
          <path id="Path_886870" data-name="Path 886870" d="M204.74,304.027q-6.145,0-12.29,0c-1.379,0-1.7-.324-1.7-1.715q0-5.345,0-10.689c0-1.227.359-1.586,1.586-1.586q12.4,0,24.809,0c1.162,0,1.556.392,1.557,1.552q0,5.459,0,10.918c0,1.107-.406,1.516-1.524,1.518q-6.221.009-12.443,0m11.594-11.608H193.117V301.6h23.216Z" transform="translate(-161.629 -245.753)" fill="#b8fafd"/>
          <path id="Path_886871" data-name="Path 886871" d="M139.667,367.4a1.19,1.19,0,0,1-1.154,1.17,1.158,1.158,0,0,1-1.187-1.125,1.184,1.184,0,0,1,1.18-1.218,1.219,1.219,0,0,1,1.161,1.173" transform="translate(-116.358 -310.31)" fill="#b8fafd"/>
          <path id="Path_886872" data-name="Path 886872" d="M186.363,33.445c-.788,0-1.448.011-2.108,0a1.23,1.23,0,0,1-1.388-1.353q-.027-2.174,0-4.349a1.2,1.2,0,0,1,1.341-1.308c.683-.012,1.366,0,2.155,0,0-.72-.007-1.4,0-2.072.012-1,.442-1.429,1.45-1.435q2.06-.012,4.119,0c1.006.006,1.435.437,1.447,1.438.008.657,0,1.314,0,2.069.753,0,1.455-.01,2.157,0a1.2,1.2,0,0,1,1.338,1.31q.03,2.174,0,4.349a1.23,1.23,0,0,1-1.391,1.35c-.66.013-1.321,0-2.105,0,0,.7.007,1.374,0,2.049-.012,1-.442,1.433-1.45,1.443q-2.059.019-4.119,0c-1.007-.009-1.435-.446-1.447-1.446-.008-.655,0-1.31,0-2.046m-1.086-4.7v2.329H186.9c1.51,0,1.8.283,1.8,1.766,0,.551,0,1.1,0,1.657h2.345c0-.688-.006-1.32,0-1.952.012-1.079.389-1.455,1.481-1.47.648-.009,1.3,0,1.937,0V28.747c-.783,0-1.515.02-2.245-.005a1.1,1.1,0,0,1-1.165-1.144c-.024-.38-.005-.763-.009-1.144-.015-1.342.16-1.19-1.166-1.19s-1.163-.156-1.177,1.179c0,.331.007.662,0,.992-.027.9-.417,1.3-1.313,1.313-.681.013-1.362,0-2.108,0" transform="translate(-154.935 -19.419)" fill="#b8fafd"/>
        </g>
      </g>
    </g>
  </g>
</svg>
