<svg xmlns="http://www.w3.org/2000/svg" xmlns:xlink="http://www.w3.org/1999/xlink" width="85" height="85" viewBox="0 0 85 85">
  <defs>
    <clipPath id="clip-path">
      <rect id="Rectangle_404010" data-name="Rectangle 404010" width="68.541" height="68.541" transform="translate(0 -0.297)" fill="#fff" stroke="#707070" stroke-width="1"/>
    </clipPath>
    <clipPath id="clip-path-2">
      <rect id="Rectangle_406752" data-name="Rectangle 406752" width="64.874" height="65.838" fill="#fff"/>
    </clipPath>
  </defs>
  <g id="Group_1112779" data-name="Group 1112779" transform="translate(-1020.34 -4222.297)">
    <rect id="Rectangle_404009" data-name="Rectangle 404009" width="85" height="85" transform="translate(1020.34 4222.297)" fill="#005865"/>
    <g id="Mask_Group_1098861" data-name="Mask Group 1098861" transform="translate(1028.711 4230.297)" clip-path="url(#clip-path)">
      <g id="Group_1112375" data-name="Group 1112375" transform="translate(2 1.703)">
        <g id="Group_1112374" data-name="Group 1112374" clip-path="url(#clip-path-2)">
          <path id="Path_887657" data-name="Path 887657" d="M166.829,141.523a1.481,1.481,0,1,0,1.5,1.481,1.514,1.514,0,0,0-1.5-1.481" transform="translate(-103.453 -88.556)" fill="#fff"/>
          <path id="Path_887658" data-name="Path 887658" d="M153.941,74.411a1.62,1.62,0,0,0,1.5,1.6,1.481,1.481,0,1,0,0-2.962,1.422,1.422,0,0,0-1.5,1.367" transform="translate(-96.326 -45.706)" fill="#fff"/>
          <path id="Path_887659" data-name="Path 887659" d="M120.647,3.457a1.423,1.423,0,0,0,1.5-1.367,1.517,1.517,0,0,0-1.5-1.481,1.423,1.423,0,0,0-1.5,1.367,1.517,1.517,0,0,0,1.5,1.481" transform="translate(-74.556 -0.381)" fill="#fff"/>
          <path id="Path_887660" data-name="Path 887660" d="M105.254,160.393a1.6,1.6,0,0,0-1.5,1.481,1.5,1.5,0,1,0,1.5-1.481" transform="translate(-64.923 -100.364)" fill="#fff"/>
          <path id="Path_887661" data-name="Path 887661" d="M80.665,93.281a1.517,1.517,0,0,0,1.5,1.481,1.422,1.422,0,0,0,1.5-1.367,1.516,1.516,0,0,0-1.5-1.481,1.423,1.423,0,0,0-1.5,1.367" transform="translate(-50.475 -57.514)" fill="#fff"/>
          <path id="Path_887662" data-name="Path 887662" d="M32.287,11.179a1.481,1.481,0,1,0-1.5-1.481,1.6,1.6,0,0,0,1.5,1.481" transform="translate(-19.265 -5.142)" fill="#fff"/>
          <path id="Path_887663" data-name="Path 887663" d="M28.284,109.98a1.423,1.423,0,0,0,1.5-1.367,1.517,1.517,0,0,0-1.5-1.481,1.423,1.423,0,0,0-1.5,1.367,1.517,1.517,0,0,0,1.5,1.481" transform="translate(-16.761 -67.036)" fill="#fff"/>
          <path id="Path_887664" data-name="Path 887664" d="M20.588,57.826a1.481,1.481,0,1,0,1.5,1.481,1.513,1.513,0,0,0-1.5-1.481" transform="translate(-11.946 -36.184)" fill="#fff"/>
          <path id="Path_887665" data-name="Path 887665" d="M65.717,103.785a5.553,5.553,0,0,0-2.3.455L57.42,106.86a16,16,0,0,1-6.453,1.367,15.072,15.072,0,0,1-6.337-1.367l-1.152-.455a17.721,17.721,0,0,0-23.161,8.771l-1.485,3.281c0,.007-.009.014-.013.021s-.006.02-.01.03l-2.41,5.324a1.365,1.365,0,0,0,.691,1.822l11.523,5.013a1.052,1.052,0,0,0,.576.113H30a1.794,1.794,0,0,0,.807-.8l3.341-7.519a3.386,3.386,0,0,1,3.112-2.05,3.092,3.092,0,0,1,1.383.342,18.8,18.8,0,0,0,7.49,1.6,19.348,19.348,0,0,0,7.605-1.6l14.4-6.493a4.974,4.974,0,0,0,2.765-2.733,5.369,5.369,0,0,0,.461-2.278,5.678,5.678,0,0,0-5.646-5.468M28.383,127.478,19.625,123.6l1.191-2.6,8.683,3.942Zm39.639-17.2a3.186,3.186,0,0,1-1.383,1.367l-14.4,6.493a16.006,16.006,0,0,1-6.452,1.367,15.091,15.091,0,0,1-6.338-1.367,6.346,6.346,0,0,0-2.535-.569,6.2,6.2,0,0,0-5.761,3.645l-.458,1.037-8.66-3.891.937-2.043a14.645,14.645,0,0,1,13.368-8.658,15.242,15.242,0,0,1,5.991,1.254l1.152.455a18.791,18.791,0,0,0,7.49,1.6,19.353,19.353,0,0,0,7.605-1.6l5.761-2.62a4.157,4.157,0,0,1,1.153-.228,2.691,2.691,0,0,1,2.765,2.619,3.35,3.35,0,0,1-.23,1.139" transform="translate(-10.177 -64.942)" fill="#fff"/>
          <path id="Path_887666" data-name="Path 887666" d="M135.229,144.873a4.329,4.329,0,1,0,0,8.657,4.427,4.427,0,0,0,4.379-4.328,4.351,4.351,0,0,0-4.379-4.328m0,5.922a1.481,1.481,0,1,1,0-2.961,1.7,1.7,0,0,1,1.5,1.481,1.517,1.517,0,0,1-1.5,1.481" transform="translate(-81.878 -90.652)" fill="#fff"/>
          <path id="Path_887667" data-name="Path 887667" d="M18.968,38.41A3.532,3.532,0,1,0,15.4,34.879a3.569,3.569,0,0,0,3.572,3.531m0-4.328c.46,0,.806.341.691.683a.692.692,0,1,1-.691-.683" transform="translate(-9.634 -19.615)" fill="#fff"/>
          <path id="Path_887668" data-name="Path 887668" d="M146.619,28.136a4.329,4.329,0,1,0-4.379-4.328,4.352,4.352,0,0,0,4.379,4.328m0-5.7a1.444,1.444,0,0,1,1.5,1.481,1.5,1.5,0,1,1-1.5-1.481" transform="translate(-89.005 -12.189)" fill="#fff"/>
          <path id="Path_887669" data-name="Path 887669" d="M7.145,122.228a3.573,3.573,0,1,0-3.573,3.531,3.5,3.5,0,0,0,3.573-3.531m-2.881,0a.739.739,0,0,1-.692.683.684.684,0,1,1,0-1.367c.462,0,.808.228.692.684" transform="translate(0 -74.272)" fill="#fff"/>
          <path id="Path_887670" data-name="Path 887670" d="M96.057,69.035a7.694,7.694,0,0,0,2.305,5.582,8.076,8.076,0,0,0,5.647,2.278,7.824,7.824,0,0,0,7.95-7.86,7.7,7.7,0,0,0-2.3-5.581,7.951,7.951,0,0,0-13.6,5.581m4.38-3.417a5.049,5.049,0,0,1,7.144,0,4.91,4.91,0,0,1,0,7.062,5.084,5.084,0,0,1-3.572,1.481,5.027,5.027,0,0,1-2.442-.636l4.055-3.92a1.431,1.431,0,0,0,0-2.05,1.473,1.473,0,0,0-2.075,0l-4,3.953a4.882,4.882,0,0,1-.611-2.357,4.969,4.969,0,0,1,1.5-3.532" transform="translate(-60.106 -38.28)" fill="#fff"/>
          <path id="Path_887671" data-name="Path 887671" d="M52.634,17.428a1.451,1.451,0,0,0-.273.385L48.026,22.1a6.73,6.73,0,0,0-1.845,4.556,6.234,6.234,0,0,0,1.845,4.556,6.741,6.741,0,0,0,9.218,0l8.642-8.543a6.738,6.738,0,0,0,1.843-4.556,6.236,6.236,0,0,0-1.843-4.556,7.03,7.03,0,0,0-3.524-1.726,7.724,7.724,0,0,0,1.1-3.969,7.951,7.951,0,0,0-15.9,0,7.908,7.908,0,0,0,6.981,7.794l-1.521,1.5a1.46,1.46,0,0,0-.389.27m2.535,11.619a3.646,3.646,0,0,1-5.07,0,3.546,3.546,0,0,1,0-5.011L53.671,20.5l5.071,5.011Zm8.642-13.554a3.546,3.546,0,0,1,0,5.011l-3,2.962-5.069-5.012,3-2.961a3.593,3.593,0,0,1,2.535-1.025,3.235,3.235,0,0,1,2.535,1.025M60.585,7.86a5.074,5.074,0,0,1-3.573,4.782V3.077A5.075,5.075,0,0,1,60.585,7.86m-10.14,0a5.075,5.075,0,0,1,3.572-4.783v9.564A5.074,5.074,0,0,1,50.445,7.86" transform="translate(-28.897)" fill="#fff"/>
        </g>
      </g>
    </g>
  </g>
</svg>
