<svg xmlns="http://www.w3.org/2000/svg" xmlns:xlink="http://www.w3.org/1999/xlink" width="480" height="282.297" viewBox="0 0 480 282.297">
  <defs>
    <clipPath id="clip-path">
      <rect id="Rectangle_406314" data-name="Rectangle 406314" width="480" height="282.297" transform="translate(285 1104.327)" fill="#fff" stroke="#707070" stroke-width="1"/>
    </clipPath>
    <clipPath id="clip-path-2">
      <rect id="Rectangle_406747" data-name="Rectangle 406747" width="480" height="271.013" fill="none"/>
    </clipPath>
    <clipPath id="clip-path-4">
      <rect id="Rectangle_406742" data-name="Rectangle 406742" width="480" height="18.655" fill="none"/>
    </clipPath>
  </defs>
  <g id="Mask_Group_1109131" data-name="Mask Group 1109131" transform="translate(-285 -1104.327)" clip-path="url(#clip-path)">
    <g id="Group_1112363" data-name="Group 1112363" transform="translate(285 1112.242)">
      <g id="Group_1112362" data-name="Group 1112362" clip-path="url(#clip-path-2)">
        <g id="Group_1112359" data-name="Group 1112359">
          <g id="Group_1112358" data-name="Group 1112358" clip-path="url(#clip-path-2)">
            <g id="Group_1112357" data-name="Group 1112357" transform="translate(0 252.358)" opacity="0.19" style="mix-blend-mode: multiply;isolation: isolate">
              <g id="Group_1112356" data-name="Group 1112356">
                <g id="Group_1112355" data-name="Group 1112355" clip-path="url(#clip-path-4)">
                  <path id="Path_887445" data-name="Path 887445" d="M0,282.584c0,5.151,107.452,9.328,240,9.328s240-4.176,240-9.328-107.452-9.328-240-9.328S0,277.432,0,282.584" transform="translate(0 -273.256)" fill="#c4adad"/>
                </g>
              </g>
            </g>
          </g>
        </g>
        <path id="Path_887586" data-name="Path 887586" d="M.892.946,20.377,0l-.892,17.762L0,18.708Z" transform="matrix(0.581, -0.814, 0.814, 0.581, 412.808, 48.413)" fill="#40507f"/>
        <g id="Group_1112361" data-name="Group 1112361">
          <g id="Group_1112360" data-name="Group 1112360" clip-path="url(#clip-path-2)">
            <path id="Path_887446" data-name="Path 887446" d="M505.774,35.614,521.2,47.845a1.289,1.289,0,0,0,1.994-.531l10.008-21.345a1.612,1.612,0,0,0-.415-1.923l-10.5-8.326a1.261,1.261,0,0,0-1.774.188l-14.936,17.44a1.616,1.616,0,0,0,.195,2.265" transform="translate(-84.931 -1.181)" fill="#a37b90"/>
            <path id="Path_887447" data-name="Path 887447" d="M509.9,39.09a.455.455,0,0,1-.334-.15.575.575,0,0,1-.013-.755l16.936-19.559a.448.448,0,0,1,.681-.015.578.578,0,0,1,.012.756L510.249,38.925a.455.455,0,0,1-.347.164" transform="translate(-85.639 -1.412)" fill="#ead8d8"/>
            <path id="Path_887448" data-name="Path 887448" d="M520.468,46.255a.447.447,0,0,1-.221-.058.567.567,0,0,1-.208-.72L531.2,21.342a.46.46,0,0,1,.649-.231.565.565,0,0,1,.208.72L520.9,45.966a.476.476,0,0,1-.428.289" transform="translate(-87.415 -1.61)" fill="#ead8d8"/>
            <path id="Path_887449" data-name="Path 887449" d="M400.455,163.11l26.5,21,76.014-118.19a8.839,8.839,0,0,0-1.722-11.5L486.825,43a6.965,6.965,0,0,0-10.356,1.925Z" transform="translate(-67.321 -3.171)" fill="#5c69a5"/>
            <path id="Path_887450" data-name="Path 887450" d="M423.757,196.944l4.305-6.694a2.45,2.45,0,0,0-.479-3.187l-25.977-20.59a1.93,1.93,0,0,0-2.87.531l-4.306,6.695a2.45,2.45,0,0,0,.479,3.186l25.977,20.591a1.931,1.931,0,0,0,2.871-.532" transform="translate(-66.244 -12.699)" fill="#40507f"/>
            <path id="Path_887451" data-name="Path 887451" d="M470.087,81.451a.45.45,0,0,1-.28-.1.575.575,0,0,1-.112-.746L488,52.149a.453.453,0,0,1,.673-.124.574.574,0,0,1,.112.745l-18.3,28.457a.47.47,0,0,1-.393.224" transform="translate(-78.946 -3.971)" fill="#85a6d6"/>
            <path id="Path_887452" data-name="Path 887452" d="M439.441,152.652l10.914,8.651,38.889-60.467L478.33,92.185a3.738,3.738,0,0,0-5.559,1.03l-34.258,53.266a4.745,4.745,0,0,0,.928,6.171" transform="translate(-73.594 -6.987)" fill="#f4e6e6"/>
            <path id="Path_887453" data-name="Path 887453" d="M187.631,276.576H296.92c3.591,0,6.5-3.232,6.5-7.22V186.231c0-3.987-2.912-7.219-6.5-7.219H187.631c-3.592,0-6.5,3.232-6.5,7.219v83.124c0,3.988,2.912,7.22,6.5,7.22" transform="translate(-30.449 -13.69)" fill="#d3bcbc"/>
            <path id="Path_887454" data-name="Path 887454" d="M293.817,194.09H212.747a2.169,2.169,0,0,1-2.047-2.273V173.125c0-5.294,3.879-9.6,8.648-9.6h67.869c4.768,0,8.648,4.306,8.648,9.6v18.692a2.169,2.169,0,0,1-2.047,2.273m-79.022-4.546h76.975V173.125a4.829,4.829,0,0,0-4.553-5.054H219.348a4.829,4.829,0,0,0-4.553,5.054Z" transform="translate(-35.421 -12.506)" fill="#ead8d8"/>
            <path id="Path_887455" data-name="Path 887455" d="M194.885,276.576H304.174c3.591,0,6.5-3.232,6.5-7.22V186.231c0-3.987-2.912-7.219-6.5-7.219H194.885c-3.592,0-6.5,3.232-6.5,7.219v83.124c0,3.988,2.912,7.22,6.5,7.22" transform="translate(-31.669 -13.69)" fill="#ead8d8"/>
            <path id="Path_887456" data-name="Path 887456" d="M310.564,212.467h-122.3a.629.629,0,0,1,0-1.25h122.3a.629.629,0,0,1,0,1.25" transform="translate(-31.555 -16.153)" fill="#d3bcbc"/>
            <path id="Path_887457" data-name="Path 887457" d="M235.519,241.629c0,13.448,9.82,24.351,21.935,24.351s21.934-10.9,21.934-24.351-9.82-24.351-21.934-24.351-21.935,10.9-21.935,24.351" transform="translate(-39.593 -16.617)" fill="#fff"/>
            <path id="Path_887458" data-name="Path 887458" d="M260.344,256.02h2.081a1.524,1.524,0,0,0,1.438-1.6V230.631a1.524,1.524,0,0,0-1.438-1.6h-2.081a1.524,1.524,0,0,0-1.438,1.6v23.793a1.524,1.524,0,0,0,1.438,1.6" transform="translate(-43.525 -17.516)" fill="#92b4ea"/>
            <path id="Path_887459" data-name="Path 887459" d="M247.276,242.262v2.311a1.524,1.524,0,0,0,1.438,1.6h21.432a1.523,1.523,0,0,0,1.438-1.6v-2.311a1.523,1.523,0,0,0-1.437-1.6H248.714a1.524,1.524,0,0,0-1.438,1.6" transform="translate(-41.57 -18.405)" fill="#92b4ea"/>
            <path id="Path_887460" data-name="Path 887460" d="M491.989,41.092H439.8a4.908,4.908,0,0,0-4.631,5.142V160.4a4.906,4.906,0,0,0,4.631,5.141h52.193a4.905,4.905,0,0,0,4.631-5.141V46.234a4.907,4.907,0,0,0-4.631-5.142" transform="translate(-73.156 -3.143)" fill="#85a6d6"/>
            <path id="Path_887461" data-name="Path 887461" d="M485.777,165.545H433.584a4.907,4.907,0,0,1-4.631-5.141V46.234a4.906,4.906,0,0,1,4.631-5.141h52.193a4.906,4.906,0,0,1,4.631,5.141V160.4a4.906,4.906,0,0,1-4.631,5.141" transform="translate(-72.112 -3.143)" fill="#92b4ea"/>
            <path id="Path_887462" data-name="Path 887462" d="M458.614,156.923c0,6.37-4.651,11.533-10.389,11.533s-10.389-5.163-10.389-11.533,4.651-11.533,10.389-11.533,10.389,5.163,10.389,11.533" transform="translate(-73.605 -11.119)" fill="#c5dbf9"/>
            <path id="Path_887463" data-name="Path 887463" d="M444.649,167.8a.438.438,0,0,1-.205-.052.56.56,0,0,1-.23-.711l8.864-20.841a.46.46,0,0,1,.641-.255.563.563,0,0,1,.23.712l-8.865,20.84a.479.479,0,0,1-.435.307" transform="translate(-74.669 -11.158)" fill="#92b4ea"/>
            <path id="Path_887464" data-name="Path 887464" d="M489.746,156.923c0,6.37-4.651,11.533-10.389,11.533s-10.389-5.163-10.389-11.533,4.651-11.533,10.389-11.533,10.389,5.163,10.389,11.533" transform="translate(-78.839 -11.119)" fill="#c5dbf9"/>
            <path id="Path_887465" data-name="Path 887465" d="M475.78,167.8a.438.438,0,0,1-.206-.052.561.561,0,0,1-.23-.711l8.865-20.841a.46.46,0,0,1,.641-.255.563.563,0,0,1,.23.712l-8.865,20.84a.479.479,0,0,1-.435.307" transform="translate(-79.903 -11.158)" fill="#92b4ea"/>
            <path id="Path_887466" data-name="Path 887466" d="M458.614,123.69c0,6.37-4.651,11.533-10.389,11.533s-10.389-5.163-10.389-11.533,4.651-11.533,10.389-11.533,10.389,5.163,10.389,11.533" transform="translate(-73.605 -8.577)" fill="#c5dbf9"/>
            <path id="Path_887467" data-name="Path 887467" d="M444.649,134.57a.438.438,0,0,1-.205-.052.56.56,0,0,1-.23-.711l8.864-20.841a.459.459,0,0,1,.641-.255.561.561,0,0,1,.23.711l-8.865,20.841a.479.479,0,0,1-.435.307" transform="translate(-74.669 -8.616)" fill="#92b4ea"/>
            <path id="Path_887468" data-name="Path 887468" d="M489.746,123.69c0,6.37-4.651,11.533-10.389,11.533s-10.389-5.163-10.389-11.533,4.651-11.533,10.389-11.533,10.389,5.163,10.389,11.533" transform="translate(-78.839 -8.577)" fill="#c5dbf9"/>
            <path id="Path_887469" data-name="Path 887469" d="M475.78,134.57a.438.438,0,0,1-.206-.052.561.561,0,0,1-.23-.711l8.865-20.841a.459.459,0,0,1,.641-.255.561.561,0,0,1,.23.711l-8.865,20.841a.479.479,0,0,1-.435.307" transform="translate(-79.903 -8.616)" fill="#92b4ea"/>
            <path id="Path_887470" data-name="Path 887470" d="M458.614,90.456c0,6.37-4.651,11.533-10.389,11.533s-10.389-5.163-10.389-11.533,4.651-11.533,10.389-11.533,10.389,5.163,10.389,11.533" transform="translate(-73.605 -6.036)" fill="#c5dbf9"/>
            <path id="Path_887471" data-name="Path 887471" d="M444.649,101.337a.438.438,0,0,1-.205-.052.559.559,0,0,1-.23-.71l8.864-20.842a.46.46,0,0,1,.641-.255.562.562,0,0,1,.23.712l-8.865,20.841a.478.478,0,0,1-.435.306" transform="translate(-74.669 -6.074)" fill="#92b4ea"/>
            <path id="Path_887472" data-name="Path 887472" d="M489.746,90.456c0,6.37-4.651,11.533-10.389,11.533s-10.389-5.163-10.389-11.533,4.651-11.533,10.389-11.533,10.389,5.163,10.389,11.533" transform="translate(-78.839 -6.036)" fill="#c5dbf9"/>
            <path id="Path_887473" data-name="Path 887473" d="M475.78,101.337a.438.438,0,0,1-.206-.052.56.56,0,0,1-.23-.71l8.865-20.842a.46.46,0,0,1,.641-.255.562.562,0,0,1,.23.712l-8.865,20.841a.478.478,0,0,1-.435.306" transform="translate(-79.903 -6.074)" fill="#92b4ea"/>
            <path id="Path_887474" data-name="Path 887474" d="M458.614,57.223c0,6.37-4.651,11.533-10.389,11.533s-10.389-5.163-10.389-11.533,4.651-11.533,10.389-11.533,10.389,5.163,10.389,11.533" transform="translate(-73.605 -3.494)" fill="#c5dbf9"/>
            <path id="Path_887475" data-name="Path 887475" d="M444.649,68.1a.438.438,0,0,1-.205-.052.56.56,0,0,1-.23-.711L453.077,46.5a.46.46,0,0,1,.641-.255.562.562,0,0,1,.23.712L445.084,67.8a.478.478,0,0,1-.435.307" transform="translate(-74.669 -3.533)" fill="#92b4ea"/>
            <path id="Path_887476" data-name="Path 887476" d="M489.746,57.223c0,6.37-4.651,11.533-10.389,11.533s-10.389-5.163-10.389-11.533,4.651-11.533,10.389-11.533,10.389,5.163,10.389,11.533" transform="translate(-78.839 -3.494)" fill="#c5dbf9"/>
            <path id="Path_887477" data-name="Path 887477" d="M475.78,68.1a.438.438,0,0,1-.206-.052.561.561,0,0,1-.23-.711L484.209,46.5a.46.46,0,0,1,.641-.255.562.562,0,0,1,.23.712L476.215,67.8a.478.478,0,0,1-.435.307" transform="translate(-79.903 -3.533)" fill="#92b4ea"/>
            <path id="Path_887478" data-name="Path 887478" d="M385.487,62.315v67.5c0,6.151,4.484,11.138,10.024,11.138h34.848c5.54,0,10.033-4.987,10.033-11.138v-67.5c0-6.151-4.492-11.128-10.033-11.128H395.511c-5.54,0-10.024,4.978-10.024,11.128" transform="translate(-64.805 -3.915)" fill="#005865"/>
            <path id="Path_887479" data-name="Path 887479" d="M398.484,55.919H431.76V45.546c0-10.2-7.449-18.47-16.638-18.47s-16.638,8.27-16.638,18.47Z" transform="translate(-66.99 -2.071)" fill="#005865"/>
            <rect id="Rectangle_406745" data-name="Rectangle 406745" width="14.343" height="15.923" transform="translate(340.961 16.527)" fill="#005865"/>
            <path id="Path_887480" data-name="Path 887480" d="M410.477,19.806h11.754a4.937,4.937,0,0,0,4.66-5.174,4.937,4.937,0,0,0-4.66-5.174H410.477a4.937,4.937,0,0,0-4.66,5.174,4.937,4.937,0,0,0,4.66,5.174" transform="translate(-68.222 -0.723)" fill="#ffb164"/>
            <path id="Path_887481" data-name="Path 887481" d="M398.487,82.958v33.558a3.817,3.817,0,0,0,3.6,4h40.486V78.957H402.091a3.818,3.818,0,0,0-3.6,4" transform="translate(-66.99 -6.038)" fill="#f7e8e8"/>
            <path id="Path_887482" data-name="Path 887482" d="M403.053,45.62a.511.511,0,0,1-.482-.535c0-5.192,5.528-10.2,5.764-10.408a.45.45,0,0,1,.676.081.575.575,0,0,1-.072.752c-.053.048-5.4,4.9-5.4,9.575a.511.511,0,0,1-.482.535" transform="translate(-67.677 -2.643)" fill="#ead8d8"/>
            <path id="Path_887483" data-name="Path 887483" d="M365.536,272.383H503.679c4.372,0,7.789-4.19,7.356-9.02l-13.243-147.5c-.377-4.2-3.556-7.393-7.356-7.393H378.779c-3.8,0-6.979,3.2-7.356,7.393l-13.243,147.5c-.433,4.83,2.983,9.02,7.356,9.02" transform="translate(-60.208 -8.296)" fill="#ffb164"/>
            <path id="Path_887484" data-name="Path 887484" d="M354.2,272.383H492.346c4.372,0,7.789-4.19,7.356-9.02l-13.243-147.5c-.377-4.2-3.557-7.393-7.356-7.393H367.446c-3.8,0-6.979,3.2-7.356,7.393l-13.243,147.5c-.433,4.83,2.983,9.02,7.356,9.02" transform="translate(-58.303 -8.296)" fill="#ffc088"/>
            <path id="Path_887485" data-name="Path 887485" d="M496.583,128.169a1.378,1.378,0,0,1-1.291-1.046l-3.912-13.548a1.545,1.545,0,0,1,.878-1.892,1.334,1.334,0,0,1,1.7.974l3.911,13.548A1.543,1.543,0,0,1,497,128.1a1.229,1.229,0,0,1-.413.072" transform="translate(-82.595 -8.536)" fill="#5c69a5"/>
            <path id="Path_887486" data-name="Path 887486" d="M380.671,128.169a1.23,1.23,0,0,1-.413-.072,1.544,1.544,0,0,1-.878-1.892l3.911-13.548a1.334,1.334,0,0,1,1.7-.974,1.544,1.544,0,0,1,.878,1.892l-3.911,13.548a1.378,1.378,0,0,1-1.291,1.046" transform="translate(-63.767 -8.536)" fill="#5c69a5"/>
            <path id="Path_887487" data-name="Path 887487" d="M439.749,191.665c-36.346,0-57.146-67.85-58.013-70.739a1.548,1.548,0,0,1,.857-1.9,1.331,1.331,0,0,1,1.715.951c.206.687,21.043,68.681,55.441,68.681,9.67,0,17.51-3.637,23.3-10.812,15.36-19.021,11.829-56.848,11.792-57.229a1.475,1.475,0,0,1,1.2-1.66,1.4,1.4,0,0,1,1.5,1.332c.157,1.606,3.69,39.555-12.469,59.565-6.33,7.839-14.85,11.814-25.323,11.814" transform="translate(-64.162 -9.097)" fill="#5c69a5"/>
            <path id="Path_887488" data-name="Path 887488" d="M309.068,249.408l-8.784,16.71-20.258-7.133L290.4,239.962Z" transform="translate(-47.075 -18.352)" fill="#f48462"/>
            <path id="Path_887489" data-name="Path 887489" d="M357.005,267.9l-.554-18.343-19.663-1.092V268.99Z" transform="translate(-56.618 -19.002)" fill="#f48462"/>
            <path id="Path_887490" data-name="Path 887490" d="M324.926,125.884l.908,51.809s.492,25.7,1.341,46.882c.283,7.375,1.462,19.775,1.835,24.786h29.332c.118-22.209,1.441-87.494.576-98.126-1.042-13.081-3.128-25.583-3.128-25.583l-27.08.2Z" transform="translate(-54.624 -9.61)" fill="#005865"/>
            <path id="Path_887491" data-name="Path 887491" d="M307.939,249.88c3.471-6.466,11.56-26.254,14.766-34.471,1.433-3.673-1.791-89.783-1.791-89.783v-.2l-9.355-2.712s-26.615,90.236-33,116.132Z" transform="translate(-46.828 -9.385)" fill="#005865"/>
            <path id="Path_887492" data-name="Path 887492" d="M357.23,140.694c-5.332,0-8.591-7.358-8.626-7.439a.312.312,0,0,1,.124-.4.257.257,0,0,1,.358.138c.037.085,3.748,8.443,9.563,6.916a.266.266,0,0,1,.321.22.3.3,0,0,1-.2.357,6.019,6.019,0,0,1-1.542.2" transform="translate(-58.6 -10.158)" fill="#fff"/>
            <path id="Path_887493" data-name="Path 887493" d="M326.359,225.3a.285.285,0,0,1-.267-.3l1.408-77.871-8.014-5.874a.316.316,0,0,1-.076-.41.25.25,0,0,1,.37-.084l8.137,5.963a.308.308,0,0,1,.121.253l-1.412,78.037a.282.282,0,0,1-.267.29" transform="translate(-53.689 -10.761)" fill="#fff"/>
            <path id="Path_887494" data-name="Path 887494" d="M333.112,69.3s-7.851.366-10.964,6.821-5.465,44.933-5.465,44.933a54.655,54.655,0,0,0,21.409,3.778c12.7-.17,17-3.548,17-3.548l2.443-23.728s-.387-25.742-3.554-27.5-15.612-2.147-20.87-.759" transform="translate(-53.238 -5.236)" fill="#2bc897"/>
            <path id="Path_887495" data-name="Path 887495" d="M275.721,63.776s-1.149-5.657-3.872-8.235-5.944-4.239-5.381-1.945a38.786,38.786,0,0,0,2.449,6.042l-4.941-1.46a40.271,40.271,0,0,0-5.561-2.353,2.361,2.361,0,0,0-3.076,1.218s-2.339-.692-3.358.07-.3,2.395-.3,2.395-3.358.071-2.094,2.927,7.909,7.656,11.13,9.317S271.2,74.494,271.2,74.494s6.518,1.582,4.52-10.718" transform="translate(-41.911 -4.016)" fill="#f48462"/>
            <path id="Path_887496" data-name="Path 887496" d="M259.29,65.568a.263.263,0,0,1-.235-.156.313.313,0,0,1,.11-.4l8.568-5.1a.254.254,0,0,1,.362.121.315.315,0,0,1-.11.4l-8.569,5.1a.238.238,0,0,1-.126.035" transform="translate(-43.545 -4.579)"/>
            <path id="Path_887497" data-name="Path 887497" d="M275.973,67.991a.236.236,0,0,1-.1-.021c-4.449-1.98-3.112-6.913-3.1-6.962a.26.26,0,0,1,.335-.193.3.3,0,0,1,.176.37c-.052.182-1.2,4.461,2.786,6.235a.308.308,0,0,1,.149.385.268.268,0,0,1-.248.187" transform="translate(-45.823 -4.65)"/>
            <path id="Path_887498" data-name="Path 887498" d="M321.876,69.6s-11.666,4.862-21.913,4.314-18.921-10.441-18.921-10.441L270.318,76.749s6.9,21.187,23.218,25.495,29.295-7.236,29.295-7.236Z" transform="translate(-45.443 -4.854)" fill="#2bc897"/>
            <path id="Path_887499" data-name="Path 887499" d="M299.978,80.718a1.859,1.859,0,0,1-.539-.084,1.218,1.218,0,0,1-.948-.95c-.319-1.719,3.11-4.811,3.5-5.157a.246.246,0,0,1,.281-.037.3.3,0,0,1,.152.264c0,.175.037,4.3-1.447,5.579a1.5,1.5,0,0,1-1,.385m1.9-5.318c-1.347,1.278-3.036,3.243-2.865,4.163.016.086.064.345.565.5a1.056,1.056,0,0,0,1.073-.2c.962-.827,1.178-3.288,1.227-4.463" transform="translate(-50.176 -5.695)" fill="#f7b369"/>
            <path id="Path_887500" data-name="Path 887500" d="M318.387,104.06a.3.3,0,0,1-.265-.338l1.68-13.4a.269.269,0,0,1,.3-.252.293.293,0,0,1,.229.334l-1.68,13.4a.278.278,0,0,1-.265.256" transform="translate(-53.479 -6.888)" fill="#f7b369"/>
            <path id="Path_887501" data-name="Path 887501" d="M331.627,284.552c0,1.827.636,3.916,1.938,4.442s11.844,1.622,21.067.847c8.829-.745,10.661-1.373,11.313-2.148.318-.394-.3-2.22-1.015-3.989-.046-.087-.076-.189-.121-.277-.364-.891-.743-1.754-1.015-2.367a10.092,10.092,0,0,0-1-1.681,29.218,29.218,0,0,1-3.332-5.259c-.636-1.812-1.606-5.728-2.256-7.568a3.448,3.448,0,0,0-2.242-2.191s-6.136-5.2-19.461-.146c-1.576.6-1.938,9.657-1.938,10.958v1.3c0,1.213-.863,3.609-1.423,5.6-.151.5-.273.964-.364,1.387a5.506,5.506,0,0,0-.151,1.1" transform="translate(-55.75 -20.037)" fill="#68b6d8"/>
            <path id="Path_887502" data-name="Path 887502" d="M244.427,286.42a.976.976,0,0,1-.689-1.161c.405-2.635,1.832-10,5.484-13.1,4.489-3.811,13.854-5.277,17.271-7.814s7.262-8.7,9.286-7.509,5.816,6.6,11.348,5.874,8.093-2.244,9.572-.694,2.194,23.09,1.548,24.366-8.425.033-9.1.236-2.561-4.94-3.841-4.181-2.852,3.152-4.738,4.243c-1.76,1.017-30.568.64-36.136-.261" transform="translate(-40.973 -19.631)" fill="#68b6d8"/>
            <path id="Path_887503" data-name="Path 887503" d="M271.742,267.072a.264.264,0,0,1-.236-.158c-.183-.384-.854-1.813-1.609-3.625-1.317-2.561-3.274-5.451-5.136-4.858a.889.889,0,0,0-.691.665c-.35,1.757,3.557,5.977,5.091,7.456a.32.32,0,0,1,.027.418.251.251,0,0,1-.377.029c-.589-.567-5.744-5.614-5.263-8.03a1.433,1.433,0,0,1,1.066-1.108c1.465-.464,2.9.753,4.108,2.418-1-2.77-1.759-5.617-1.255-6.862a1.092,1.092,0,0,1,.725-.688,1.443,1.443,0,0,1,1.346.315c2.054,1.688,2.456,9.008,2.471,9.318a.286.286,0,0,1-.25.313c-.166.035-.274-.115-.282-.278,0-.074-.4-7.353-2.256-8.878a.954.954,0,0,0-.9-.213.536.536,0,0,0-.365.355c-.576,1.421.992,5.888,2.449,9.41a34.386,34.386,0,0,1,1.587,3.594.311.311,0,0,1-.135.38.25.25,0,0,1-.113.028" transform="translate(-44.3 -19.324)" fill="#5c69a5"/>
            <path id="Path_887504" data-name="Path 887504" d="M351.678,276.6a.269.269,0,0,1-.249-.188.308.308,0,0,1,.151-.384c1.2-.525,4.4-2.172,4.747-3.476a.648.648,0,0,0-.086-.552.764.764,0,0,0-.561-.35c-1.349-.215-3.971,1.841-4.874,2.646a.247.247,0,0,1-.356-.021.319.319,0,0,1-.02-.394c1.178-1.646,4.126-6.225,3.625-7.647a.523.523,0,0,0-.465-.352c-2.063-.342-3.932,6.751-4.485,9.516a.268.268,0,0,1-.319.225.3.3,0,0,1-.2-.353c.215-1.074,2.194-10.464,5.088-9.975a1.067,1.067,0,0,1,.882.722c.5,1.426-1.378,4.7-2.655,6.681,1.155-.837,2.764-1.807,3.853-1.636a1.285,1.285,0,0,1,.924.59,1.3,1.3,0,0,1,.164,1.068c-.481,1.818-4.6,3.657-5.065,3.861a.242.242,0,0,1-.1.02" transform="translate(-58.6 -20.288)" fill="#5c69a5"/>
            <path id="Path_887505" data-name="Path 887505" d="M336.39,47.644s-4.821-7.655-2.425-10.358,5.638.438,5.638.438a3.121,3.121,0,0,1,3.8-2.771c3.392.616,5.2,4.815,5.2,4.815s3.214-3.1,5.061.393.079,8.83.079,8.83,2.4-.206,1.57,2.837-4.76,5.942-4.76,5.942Z" transform="translate(-56.031 -2.667)"/>
            <path id="Path_887506" data-name="Path 887506" d="M347.962,62.025l-.416,8.179s-1.819,1.624-6.148,1.743c-3.225.089-3.7-1.673-3.7-1.673l.413-2.584.646-4.012,7.879-1.414Z" transform="translate(-56.771 -4.744)" fill="#f48462"/>
            <path id="Path_887507" data-name="Path 887507" d="M346.723,62.283a2.871,2.871,0,0,1-.255.776c-1.856,3.982-6.407,4.581-8.272,4.649l.647-4.012Z" transform="translate(-56.855 -4.763)"/>
            <path id="Path_887508" data-name="Path 887508" d="M337.458,43.286S333.07,53.3,334.3,59.092s5.968,5.1,8.821,4.125a9.305,9.305,0,0,0,4.228-2.835,3.711,3.711,0,0,0,4.447-1.524c1.858-2.632.89-5.8-.583-6.577s-3.3.339-3.3.339l1.507-2.9S344.1,34.4,337.458,43.286" transform="translate(-56.163 -3.098)" fill="#f48462"/>
            <path id="Path_887509" data-name="Path 887509" d="M350.735,58.139A.263.263,0,0,1,350.51,58a.317.317,0,0,1,.082-.409l3.454-2.442a.252.252,0,0,1,.369.091.317.317,0,0,1-.082.41l-3.454,2.442a.248.248,0,0,1-.144.046" transform="translate(-58.917 -4.214)"/>
            <path id="Path_887510" data-name="Path 887510" d="M353.94,58.434a.256.256,0,0,1-.082-.014l-2.155-.761a.3.3,0,0,1-.172-.373.263.263,0,0,1,.335-.193l2.155.761a.305.305,0,0,1,.173.373.271.271,0,0,1-.255.207" transform="translate(-59.094 -4.365)"/>
            <path id="Path_887511" data-name="Path 887511" d="M344.576,48.832a.274.274,0,0,1-.258-.217,1.729,1.729,0,0,0-1.8-1.531.28.28,0,0,1-.294-.263.289.289,0,0,1,.235-.326,2.275,2.275,0,0,1,2.379,1.961.3.3,0,0,1-.186.366.251.251,0,0,1-.072.011" transform="translate(-57.531 -3.555)"/>
            <path id="Path_887512" data-name="Path 887512" d="M336.693,47.573a.259.259,0,0,1-.215-.121.319.319,0,0,1,.057-.415c.3-.244,1.21-.982,1.525-.525a.318.318,0,0,1-.049.416.244.244,0,0,1-.275.033,2.4,2.4,0,0,0-.883.555.249.249,0,0,1-.158.057" transform="translate(-56.557 -3.546)"/>
            <path id="Path_887513" data-name="Path 887513" d="M337.665,55.8a.262.262,0,0,1-.224-.134c-1.051-1.775,1.377-4.3,1.481-4.409a.248.248,0,0,1,.377.017.319.319,0,0,1-.015.419c-.614.633-2.062,2.521-1.4,3.647a.319.319,0,0,1-.077.411.25.25,0,0,1-.147.049" transform="translate(-56.683 -3.914)"/>
            <path id="Path_887514" data-name="Path 887514" d="M336.493,51.728a.23.23,0,0,1-.085-.016.305.305,0,0,1-.169-.375l.557-1.847a.263.263,0,0,1,.338-.187.306.306,0,0,1,.17.376l-.557,1.847a.271.271,0,0,1-.254.2" transform="translate(-56.523 -3.769)"/>
            <path id="Path_887515" data-name="Path 887515" d="M342.091,52.154a.231.231,0,0,1-.086-.016.3.3,0,0,1-.169-.375l.557-1.847a.262.262,0,0,1,.339-.187.306.306,0,0,1,.169.376l-.557,1.847a.271.271,0,0,1-.253.2" transform="translate(-57.464 -3.802)"/>
            <path id="Path_887516" data-name="Path 887516" d="M336.971,45.353a3.071,3.071,0,0,1,2.722-1.493,3.917,3.917,0,0,1,2.838,1.606s-.981,3.385,1.426,5.367,4.366,1.592,4.366,1.592l1.849-.6,1.479-2.857-4.925-6.6-6.585-4.4-3.635,3.269Z" transform="translate(-56.57 -2.903)"/>
            <path id="Path_887517" data-name="Path 887517" d="M339.98,59.685a2.184,2.184,0,0,1-.315-.019.293.293,0,0,1-.223-.338.266.266,0,0,1,.3-.248,2.139,2.139,0,0,0,2.228-1.214.255.255,0,0,1,.362-.12.313.313,0,0,1,.108.4,2.645,2.645,0,0,1-2.463,1.539" transform="translate(-57.063 -4.414)"/>
            <path id="Path_887518" data-name="Path 887518" d="M347.087,76.883c-2.111,0-5.52-3.091-6.391-3.913-.766.549-3.849,2.594-6.146,1.771-.565-.2-.865-.52-.892-.947-.082-1.269,2.689-2.835,3.245-3.135a.246.246,0,0,1,.292.042c3.515,3.361,9.485-.073,9.545-.107a.251.251,0,0,1,.334.078c.078.108,1.9,2.676,1.68,4.561a1.947,1.947,0,0,1-.685,1.326,1.489,1.489,0,0,1-.982.324m-5.757-4.1c1.705,1.557,5.2,4.31,6.418,3.3a1.343,1.343,0,0,0,.477-.926c.159-1.371-1.035-3.315-1.438-3.926a12.979,12.979,0,0,1-5.456,1.553m-4.347-1.508c-1.2.676-2.831,1.866-2.792,2.475.013.211.333.357.522.425,1.807.647,4.293-.778,5.347-1.471a5.8,5.8,0,0,1-3.077-1.429" transform="translate(-56.091 -5.396)" fill="#f7b369"/>
            <path id="Path_887519" data-name="Path 887519" d="M306.106,113.987l7.186-2.493a2.177,2.177,0,0,0,1.256-2.662l-5.487-19.491a1.885,1.885,0,0,0-2.4-1.394l-7.186,2.493a2.175,2.175,0,0,0-1.255,2.661l5.486,19.492a1.885,1.885,0,0,0,2.4,1.394" transform="translate(-50.12 -6.719)"/>
            <path id="Path_887520" data-name="Path 887520" d="M303.914,114.672l7.186-2.493a2.175,2.175,0,0,0,1.256-2.661l-5.487-19.491a1.885,1.885,0,0,0-2.4-1.394l-7.186,2.493a2.175,2.175,0,0,0-1.255,2.661l5.486,19.492a1.885,1.885,0,0,0,2.4,1.394" transform="translate(-49.751 -6.771)" fill="#92b4ea"/>
            <path id="Path_887521" data-name="Path 887521" d="M324.858,101.106s-6.673-2.52-7.948-2.433a28,28,0,0,0-4.493,1.215l.452,2.023s-11.216,1.365-11.211,3.821c0,1.673,4.867,1.386,4.867,1.386s-5.029.753-4.868,2.654,6.366,1.706,6.366,1.706-5.137,1.146-3.209,2.809,18.366,3.566,20.85-.95-.806-12.232-.806-12.232" transform="translate(-50.711 -7.546)" fill="#f48462"/>
            <path id="Path_887522" data-name="Path 887522" d="M355.739,70.191s21.251,14.676,17.021,37.136c-4.267,22.658-45.622,9.368-45.622,9.368L328.5,95.8l24.273-1.477Z" transform="translate(-54.995 -5.368)" fill="#2bc897"/>
            <path id="Path_887523" data-name="Path 887523" d="M361.48,96.961a55.974,55.974,0,0,1-5.664-.364.281.281,0,0,1-.235-.242.306.306,0,0,1,.145-.318c3.61-1.987,8.091-1.532,9.231-.634a.66.66,0,0,1,.3.6.752.752,0,0,1-.531.574,9.659,9.659,0,0,1-3.248.382m-4.583-.847c1.979.189,6.252.508,7.638-.088a.77.77,0,0,0,.17-.1c-.413-.5-4.138-1.38-7.807.183" transform="translate(-59.776 -7.238)" fill="#f7b369"/>
            <path id="Path_887524" data-name="Path 887524" d="M314.715,102.1a.275.275,0,0,1-.262-.243.294.294,0,0,1,.213-.345l2.187-.453a.271.271,0,0,1,.311.237.3.3,0,0,1-.213.346l-2.187.453a.294.294,0,0,1-.049,0" transform="translate(-52.862 -7.728)"/>
            <path id="Path_887525" data-name="Path 887525" d="M306.459,107.974a.278.278,0,0,1-.264-.261.29.29,0,0,1,.232-.33l7.519-1.011a.268.268,0,0,1,.3.259.291.291,0,0,1-.232.331l-7.519,1.011-.032,0" transform="translate(-51.474 -8.135)"/>
            <path id="Path_887526" data-name="Path 887526" d="M308.145,112.957a.278.278,0,0,1-.265-.26.291.291,0,0,1,.231-.332l7.652-1.075a.272.272,0,0,1,.3.258.293.293,0,0,1-.232.332l-7.652,1.075-.033,0" transform="translate(-51.758 -8.511)"/>
            <path id="Path_887527" data-name="Path 887527" d="M338.081,98.773a.277.277,0,0,1-.262-.237.3.3,0,0,1,.208-.35,106.382,106.382,0,0,1,14.817-2.067.3.3,0,0,1,.029.593,105.826,105.826,0,0,0-14.739,2.055.21.21,0,0,1-.053.006" transform="translate(-56.79 -7.351)" fill="#f7b369"/>
            <path id="Path_887528" data-name="Path 887528" d="M81.809,245.951l-2.939,9.4s4.056,2.167,4.478,4.535c.432,2.418-1.9,4.014-1.9,4.014l7.273,9.918-22.592-3.11L68.2,245.951Z" transform="translate(-11.117 -18.81)" fill="#50608e"/>
            <path id="Path_887529" data-name="Path 887529" d="M57.34,47.608a14.1,14.1,0,0,0-10.686,9.445c-2.85,8.352-1.165,19.162-1.165,19.162l14.463-3.691-.628-14.835Z" transform="translate(-7.564 -3.641)"/>
            <path id="Path_887530" data-name="Path 887530" d="M66.245,63.115s-4.466.221-7.039-6.7a15.178,15.178,0,0,1,.646-12.336l5.608,3.26L68.507,59.7Z" transform="translate(-9.785 -3.371)"/>
            <path id="Path_887531" data-name="Path 887531" d="M49.871,256.027V271.4l19.513-1.654V255.055Z" transform="translate(-8.384 -19.506)" fill="#f48462"/>
            <path id="Path_887532" data-name="Path 887532" d="M81.889,120.548s20.644,45.5,20.8,60.494-27.6,64.718-27.6,64.718a44.87,44.87,0,0,1-18.627,3.048C45.38,248.411,43.638,247,43.638,247s1.9-106.66,6.333-116.643,31.918-9.809,31.918-9.809" transform="translate(-7.336 -9.219)" fill="#ffb164"/>
            <path id="Path_887533" data-name="Path 887533" d="M66.9,67.993s-9.815-.366-14.882,4.731-1.742,49.564-1.742,49.564,13.217,1.231,22.678,0,13.735-2.9,13.735-2.9S87.8,78.512,85.262,73.6s-18.365-5.6-18.365-5.6" transform="translate(-8.272 -5.199)" fill="#68b6d8"/>
            <path id="Path_887534" data-name="Path 887534" d="M67.934,61.452,67.312,69.6s1.145,2.468,5.41,3.259c3.177.589,4.362-.107,4.362-.107l-.131-4.17-.132-4.066-7.609-2.624Z" transform="translate(-11.316 -4.7)" fill="#f48462"/>
            <path id="Path_887535" data-name="Path 887535" d="M69.594,61.93a2.941,2.941,0,0,0,.153.806c1.332,4.225,5.756,5.525,7.589,5.883L77.2,64.553Z" transform="translate(-11.7 -4.736)"/>
            <path id="Path_887536" data-name="Path 887536" d="M79.019,44.539s3.072,10.58,1.121,16.115S73.6,64.77,70.9,63.358a9.685,9.685,0,0,1-3.823-3.46,3.79,3.79,0,0,1-4.2-2.2c-1.5-2.891-.148-5.867,1.408-6.411s3.221.85,3.221.85l-1.124-3.1s7.2-14.317,12.641-4.5" transform="translate(-10.46 -3.143)" fill="#f48462"/>
            <path id="Path_887537" data-name="Path 887537" d="M67.187,57.464a.251.251,0,0,1-.174-.071l-3.105-2.952a.32.32,0,0,1-.03-.418.25.25,0,0,1,.378-.031l3.105,2.952a.319.319,0,0,1,.029.417.256.256,0,0,1-.2.1" transform="translate(-10.728 -4.124)"/>
            <path id="Path_887538" data-name="Path 887538" d="M64.2,57.317a.277.277,0,0,1-.263-.248.294.294,0,0,1,.219-.342l2.225-.417a.273.273,0,0,1,.308.243.294.294,0,0,1-.219.342l-2.225.418a.246.246,0,0,1-.045,0" transform="translate(-10.747 -4.306)"/>
            <path id="Path_887539" data-name="Path 887539" d="M74.6,48.7a.253.253,0,0,1-.181-.078.32.32,0,0,1-.017-.419,2.093,2.093,0,0,1,2.916-.555.316.316,0,0,1,.077.409.252.252,0,0,1-.369.088,1.6,1.6,0,0,0-2.229.459.256.256,0,0,1-.2.1" transform="translate(-12.497 -3.616)"/>
            <path id="Path_887540" data-name="Path 887540" d="M82.895,49.022a.256.256,0,0,1-.187-.085c-.73-.794-1.215-.637-1.235-.63a.267.267,0,0,1-.336-.186.3.3,0,0,1,.156-.372c.08-.034.814-.3,1.79.764a.32.32,0,0,1,0,.419.252.252,0,0,1-.191.09" transform="translate(-13.637 -3.648)"/>
            <path id="Path_887541" data-name="Path 887541" d="M63.505,67.822s6.846,111.787,6.283,113.059-13.514,3.5-18.085,2.544-7.093-2.544-7.828-3.5.477-74.053.477-74.053L43.638,75.85s9.886-8.067,19.867-8.028" transform="translate(-7.336 -5.187)" fill="#f4e6e6"/>
            <path id="Path_887542" data-name="Path 887542" d="M54.993,97.3h8.679A1.423,1.423,0,0,0,65.015,95.8v-1.66a1.423,1.423,0,0,0-1.343-1.491H54.993a1.423,1.423,0,0,0-1.343,1.491V95.8A1.423,1.423,0,0,0,54.993,97.3" transform="translate(-9.019 -7.086)" fill="#92b4ea"/>
            <path id="Path_887543" data-name="Path 887543" d="M80.969,57.7a.242.242,0,0,1-.062-.008.3.3,0,0,1-.2-.357c.658-3.082-.905-4.542-.972-4.6a.319.319,0,0,1-.038-.417.249.249,0,0,1,.374-.044c.078.068,1.9,1.739,1.156,5.2a.275.275,0,0,1-.26.228" transform="translate(-13.388 -3.993)"/>
            <path id="Path_887544" data-name="Path 887544" d="M82.736,53.1a.276.276,0,0,1-.263-.243l-.317-1.913a.322.322,0,0,1,.054-.239l.562-.78a.252.252,0,0,1,.376-.046.319.319,0,0,1,.042.417l-.486.674L83,52.747a.3.3,0,0,1-.214.345.293.293,0,0,1-.048,0" transform="translate(-13.811 -3.809)"/>
            <path id="Path_887545" data-name="Path 887545" d="M77.288,60.7a1.542,1.542,0,0,1-.829-.228,2.492,2.492,0,0,1-.973-1.935.309.309,0,0,1,.124-.293.246.246,0,0,1,.291.006l2.3,1.741a.31.31,0,0,1,.116.272.3.3,0,0,1-.158.244,2.167,2.167,0,0,1-.872.192m-1.119-1.528a1.409,1.409,0,0,0,.551.784,1.1,1.1,0,0,0,.679.146Z" transform="translate(-12.69 -4.451)"/>
            <path id="Path_887546" data-name="Path 887546" d="M89.379,71.722a59.049,59.049,0,0,0,9.537,4.755,28.444,28.444,0,0,0,7.823,1.775s.014,6.358-.174,12.987a65.666,65.666,0,0,0,.626,11.65s-14.859,3.545-18.3-1.718.491-29.449.491-29.449" transform="translate(-14.706 -5.485)" fill="#7772d3"/>
            <path id="Path_887547" data-name="Path 887547" d="M123.973,61.155s2.712-7.439,7.287-8.883c2.188-.691-1.264,6.307-1.264,6.307l4.726-2.007s6.992-2.164,8.382-1.488-.9,3.192-.9,3.192,4.978-1.659,4.28,1.036-4.105,4.244-4.105,4.244,4.867-1.914,3.768,1.243c-.594,1.707-11.3,8.9-18.506,8.643s-5.258-5.6-5.258-5.6Z" transform="translate(-20.534 -3.994)" fill="#f48462"/>
            <path id="Path_887548" data-name="Path 887548" d="M141.943,65.81a.248.248,0,0,1-.173-.071l-6.192-5.873a.319.319,0,0,1-.03-.417.25.25,0,0,1,.377-.033l6.192,5.873a.32.32,0,0,1,.029.417.257.257,0,0,1-.2.1" transform="translate(-22.776 -4.538)"/>
            <path id="Path_887549" data-name="Path 887549" d="M127.55,69.235a.274.274,0,0,1-.259-.22.3.3,0,0,1,.19-.363,4.053,4.053,0,0,0,2.253-2.123c.673-1.465.608-3.4-.194-5.765a.306.306,0,0,1,.156-.381.259.259,0,0,1,.344.173c.859,2.528.915,4.632.165,6.253a4.517,4.517,0,0,1-2.586,2.416.226.226,0,0,1-.068.01" transform="translate(-21.397 -4.616)"/>
            <path id="Path_887550" data-name="Path 887550" d="M81.392,247.955a.289.289,0,0,1-.267-.314C82.948,212.9,82.3,156.488,82.3,155.922a.306.306,0,0,1,.131-.259l9.733-6.4a.253.253,0,0,1,.366.1.315.315,0,0,1-.093.406l-9.6,6.313c.039,3.477.6,57.776-1.174,91.588a.281.281,0,0,1-.266.28" transform="translate(-13.638 -11.412)" fill="#a37b90"/>
            <path id="Path_887551" data-name="Path 887551" d="M82.908,195.677a.262.262,0,0,1-.217-.123.323.323,0,0,1,0-.351c.21-.312,5.191-7.64,8.455-7.978a1.855,1.855,0,0,1,1.583.557,1.527,1.527,0,0,1,.459,1.408c-.547,2.842-9.213,6.108-10.2,6.472a.241.241,0,0,1-.084.015m8.479-7.871a1.657,1.657,0,0,0-.188.01c-2.431.251-6.128,5.036-7.52,6.956,3-1.188,8.621-3.784,8.991-5.706a.9.9,0,0,0-.3-.848,1.323,1.323,0,0,0-.985-.412" transform="translate(-13.893 -14.318)" fill="#a37b90"/>
            <path id="Path_887552" data-name="Path 887552" d="M51.356,287.488a2.824,2.824,0,0,1-2.457-2.974c-.073-6.364-.942-20.62.1-20.635,1.334-.018,14.775,3.851,14.775,3.851s.281-8.823,5.827-7.318c4.255,1.155,9.234,6.695,11.32,9.209a4.709,4.709,0,0,0,2.419,1.591c3.963,1.041,14.873,4.488,15.1,10.959.28,7.912-2.59,7.046-3.924,7.066-1.145.016-33.912-1.36-43.168-1.75" transform="translate(-8.152 -19.902)" fill="#5c69a5"/>
            <path id="Path_887553" data-name="Path 887553" d="M73.336,271.02a.246.246,0,0,1-.091-.018l-6.386-2.6a.307.307,0,0,1-.16-.38.266.266,0,0,1,.344-.177l6.386,2.6a.307.307,0,0,1,.16.38.271.271,0,0,1-.251.195" transform="translate(-11.21 -20.483)" fill="#fff"/>
            <path id="Path_887554" data-name="Path 887554" d="M77.142,53.137a.277.277,0,0,1-.263-.243l-.316-1.912a.321.321,0,0,1,.067-.256l.725-.87a.248.248,0,0,1,.378-.016.32.32,0,0,1,.014.419l-.634.76.293,1.767a.3.3,0,0,1-.214.345.3.3,0,0,1-.049,0" transform="translate(-12.87 -3.806)"/>
            <path id="Path_887555" data-name="Path 887555" d="M67.029,51.692l.853,1.1-.426-1.583a9.05,9.05,0,0,0,4.639-1.859c2.63-1.846,3.254-6.328,3.254-6.328a13.9,13.9,0,0,1,2.386,1.67,4.664,4.664,0,0,1,1.509,2.23s3.3-10.139-3.62-11.457S63.8,40.653,63.8,40.653a5.37,5.37,0,0,0-4.354,4.917,11.63,11.63,0,0,0,2.314,7.645s1.769-3.571,5.268-1.522" transform="translate(-9.987 -2.699)"/>
            <path id="Path_887556" data-name="Path 887556" d="M112.122,65.552,129.17,75.768s-6.14,19.682-17.448,24.668C100.758,105.269,95,104.195,95,104.195L105.131,161.6s-15.165-39.586-15.5-41.752-10.746-51.3-10.746-51.3,2.457-.392,7.859,1.915,11.217,3.85,16.2,3.85,9.171-8.767,9.171-8.767" transform="translate(-13.262 -5.013)" fill="#f4e6e6"/>
            <path id="Path_887557" data-name="Path 887557" d="M77.172,73.43l.414,3.665s-9.115-4.238-9.723-6.14,8.9,1.064,8.9,1.064Z" transform="translate(-11.404 -5.378)" fill="#f48462"/>
            <path id="Path_887558" data-name="Path 887558" d="M77.538,77.382a.246.246,0,0,1-.1-.022c-.341-.156-8.375-3.837-9.843-6.248a.318.318,0,0,1,.072-.412.252.252,0,0,1,.371.08c1.2,1.974,7.554,5.066,9.209,5.847l-.328-6.116a.288.288,0,0,1,.251-.314.291.291,0,0,1,.282.279l.354,6.591a.312.312,0,0,1-.111.259.249.249,0,0,1-.156.055" transform="translate(-11.356 -5.369)" fill="#fff"/>
            <path id="Path_887559" data-name="Path 887559" d="M54.452,184.494c-.532,0-1-.015-1.359-.047a8.285,8.285,0,0,1-4.168-1.22.3.3,0,0,1-.113-.241V159.631a.283.283,0,0,1,.268-.3H63.772a.282.282,0,0,1,.267.284c.263,6.862.826,22.894.375,23.546-.494.713-6.6,1.328-9.962,1.328m-5.105-1.675a8.843,8.843,0,0,0,3.79,1.036c2.957.271,10.3-.534,10.864-1.063.245-.79-.147-14-.484-22.863H49.347Z" transform="translate(-8.206 -12.186)" fill="#5c69a5"/>
            <path id="Path_887560" data-name="Path 887560" d="M107.435,83.806a.992.992,0,0,1-.829-.431c-1.184-1.619.484-7.7.678-8.385a.275.275,0,0,1,.253-.209.237.237,0,0,1,.255.2c.077.254,1.853,6.234.721,8.168a1.216,1.216,0,0,1-.949.646,1.246,1.246,0,0,1-.13.007m.111-7.7c-.537,2.171-1.254,5.9-.525,6.89a.488.488,0,0,0,.492.208.694.694,0,0,0,.552-.38c.7-1.193.009-4.678-.52-6.719" transform="translate(-17.851 -5.719)" fill="#5c69a5"/>
            <path id="Path_887561" data-name="Path 887561" d="M63.972,78.189a.365.365,0,0,1-.346-.3c-.809-3.8-.653-6.7.463-8.63a3.831,3.831,0,0,1,2.244-1.917.358.358,0,0,1,.419.31.4.4,0,0,1-.28.465,3.152,3.152,0,0,0-1.8,1.592c-.982,1.721-1.1,4.486-.356,8a.4.4,0,0,1-.265.476.314.314,0,0,1-.082.011" transform="translate(-10.611 -5.149)" fill="#40507f"/>
            <path id="Path_887562" data-name="Path 887562" d="M83.96,87.29a.379.379,0,0,1-.357-.4c0-.146.076-14.707-4.534-18.43a.424.424,0,0,1-.079-.552.336.336,0,0,1,.5-.088c4.9,3.962,4.832,18.463,4.827,19.078a.377.377,0,0,1-.355.392" transform="translate(-13.268 -5.181)" fill="#40507f"/>
            <path id="Path_887563" data-name="Path 887563" d="M64.516,92.048a.356.356,0,0,1-.326-.236c-.151-.383-3.669-9.418-.805-12.857a1.933,1.933,0,0,1,1.738-.754c3.141.306,7.48,7.744,7.663,8.059a.422.422,0,0,1-.107.547.336.336,0,0,1-.492-.119c-1.2-2.065-4.807-7.472-7.126-7.7a1.268,1.268,0,0,0-1.152.5c-2.548,3.061.9,11.914.934,12a.414.414,0,0,1-.183.521.331.331,0,0,1-.143.033" transform="translate(-10.468 -5.98)" fill="#40507f"/>
            <path id="Path_887564" data-name="Path 887564" d="M82.421,89.12a2.138,2.138,0,1,0,2.126-2.361,2.253,2.253,0,0,0-2.126,2.361" transform="translate(-13.856 -6.635)" fill="#40507f"/>
            <path id="Path_887565" data-name="Path 887565" d="M83.982,89.239a.832.832,0,1,0,.828-.919.877.877,0,0,0-.828.919" transform="translate(-14.118 -6.754)" fill="#a37b90"/>
            <path id="Path_887566" data-name="Path 887566" d="M75.316,87.955h-2.75a.4.4,0,0,1,0-.791h2.75a.4.4,0,0,1,0,.791" transform="translate(-12.139 -6.666)" fill="#40507f"/>
            <path id="Path_887567" data-name="Path 887567" d="M64.411,94.324a.331.331,0,0,1-.186-.059.42.42,0,0,1-.116-.543l1.438-2.6a.337.337,0,0,1,.49-.13.421.421,0,0,1,.116.544l-1.438,2.6a.349.349,0,0,1-.3.188" transform="translate(-10.768 -6.954)" fill="#40507f"/>
            <path id="Path_887568" data-name="Path 887568" d="M191.369,110.259H135.482a3.223,3.223,0,0,1-3.042-3.377V18.4a3.223,3.223,0,0,1,3.042-3.377h55.886a3.223,3.223,0,0,1,3.042,3.377v88.486a3.223,3.223,0,0,1-3.042,3.377" transform="translate(-22.265 -1.149)" fill="#92b4ea"/>
            <path id="Path_887569" data-name="Path 887569" d="M124.537,60.746s3.63-8.6,8.529-8.522S130,59,130,59Z" transform="translate(-20.936 -3.994)" fill="#f48462"/>
            <path id="Path_887570" data-name="Path 887570" d="M189.017,31.206H166.89a.673.673,0,0,1,0-1.339h22.127a.673.673,0,0,1,0,1.339" transform="translate(-27.955 -2.284)" fill="#5c69a5"/>
            <path id="Path_887571" data-name="Path 887571" d="M185.444,45.616h-39.8a.673.673,0,0,1,0-1.339h39.8a.673.673,0,0,1,0,1.339" transform="translate(-24.382 -3.386)" fill="#5c69a5"/>
            <path id="Path_887572" data-name="Path 887572" d="M185.444,60.025h-39.8a.673.673,0,0,1,0-1.339h39.8a.673.673,0,0,1,0,1.339" transform="translate(-24.382 -4.488)" fill="#5c69a5"/>
            <path id="Path_887573" data-name="Path 887573" d="M185.444,74.7h-39.8a.673.673,0,0,1,0-1.339h39.8a.673.673,0,0,1,0,1.339" transform="translate(-24.382 -5.611)" fill="#5c69a5"/>
            <path id="Path_887574" data-name="Path 887574" d="M185.444,89.112h-39.8a.673.673,0,0,1,0-1.339h39.8a.673.673,0,0,1,0,1.339" transform="translate(-24.382 -6.713)" fill="#5c69a5"/>
            <path id="Path_887575" data-name="Path 887575" d="M191.516,103.521h-9.757a.673.673,0,0,1,0-1.339h9.757a.673.673,0,0,1,0,1.339" transform="translate(-30.454 -7.815)" fill="#5c69a5"/>
            <path id="Path_887576" data-name="Path 887576" d="M148.338,29.8l-1.989-3.166a2.84,2.84,0,0,1-.376.017h-2.2V29.8h-1.809V18.994h4c2.56,0,4.145,1.452,4.145,3.845a3.468,3.468,0,0,1-2.072,3.411l2.239,3.552Zm-2.447-9.11h-2.114V25h2.114c1.586,0,2.4-.8,2.4-2.162s-.819-2.146-2.4-2.146" transform="translate(-23.866 -1.453)" fill="#40507f"/>
            <path id="Path_887577" data-name="Path 887577" d="M154.719,38.816l-2.642-4.107-2.615,4.107H147.4L151.02,33.3l-3.925-6.23,2.548.934,2.489,3.845,2.462-3.845h1.962l-3.407,5.219,3.658,5.589Z" transform="translate(-24.728 -2.071)" fill="#40507f"/>
            <path id="Path_887578" data-name="Path 887578" d="M76.2,108.354s6.86-2.765,12.187-.849c1.909.687,4.909.895,5.033,1.751.235,1.626-2.5,1.453-4.154,2.662s4,4.034,6.548,4.106,6.5-1.978,6.729-.151c.152,1.238-1.5,3.4-3.62,4.151s-7.641.042-7.641.042Z" transform="translate(-12.811 -8.17)" fill="#f48462"/>
            <path id="Path_887579" data-name="Path 887579" d="M77.6,121.931s12.212,5.433,16.354,4.933,8.587-4.581,8.2-7.01-3.319-.432-3.319-.432L90.931,120l-10.714-9.8L77.4,113.136Z" transform="translate(-13.012 -8.428)" fill="#f48462"/>
            <path id="Path_887580" data-name="Path 887580" d="M97.3,121.472a12.481,12.481,0,0,1-3.793-.589.3.3,0,0,1-.183-.367.26.26,0,0,1,.33-.2,12.8,12.8,0,0,0,10.063-1.186.252.252,0,0,1,.365.106.314.314,0,0,1-.095.405,13.134,13.134,0,0,1-6.688,1.833" transform="translate(-15.687 -9.107)"/>
            <path id="Path_887581" data-name="Path 887581" d="M95.645,125.707a9.314,9.314,0,0,1-3.723-.669.309.309,0,0,1-.15-.385.26.26,0,0,1,.347-.166c3.51,1.55,9.268-.293,9.325-.311a.264.264,0,0,1,.332.2.3.3,0,0,1-.181.368,21.6,21.6,0,0,1-5.951.962" transform="translate(-15.425 -9.496)"/>
            <path id="Path_887582" data-name="Path 887582" d="M40.539,76.514S21.8,96.286,25.746,113.226c5.225,22.409,45.623,9.368,45.623,9.368L70,101.7l-24.273-1.477Z" transform="translate(-4.236 -5.852)" fill="#f4e6e6"/>
            <path id="Path_887583" data-name="Path 887583" d="M44.4,102.826a9.649,9.649,0,0,1-3.247-.382c-.325-.139-.5-.333-.531-.574a.658.658,0,0,1,.3-.6c1.14-.9,5.622-1.353,9.232.634a.307.307,0,0,1,.144.318.28.28,0,0,1-.235.243,56,56,0,0,1-5.664.364m-3.224-1.031a.769.769,0,0,0,.17.1c1.388.595,5.66.276,7.638.088-3.67-1.563-7.393-.68-7.807-.183" transform="translate(-6.828 -7.686)" fill="#5c69a5"/>
            <path id="Path_887584" data-name="Path 887584" d="M320.463,14.341c0,7.922-11.005,14.343-24.581,14.343S271.3,22.263,271.3,14.341,282.306,0,295.882,0s24.581,6.421,24.581,14.342" transform="translate(-45.608 0)" fill="#ead8d8"/>
            <path id="Path_887585" data-name="Path 887585" d="M295.369,27.288l23.575,17.321L309.753,23.8Z" transform="translate(-49.655 -1.82)" fill="#ead8d8"/>
          </g>
        </g>
      </g>
    </g>
  </g>
</svg>
