<svg xmlns="http://www.w3.org/2000/svg" xmlns:xlink="http://www.w3.org/1999/xlink" width="369.331" height="175.882" viewBox="0 0 369.331 175.882">
  <defs>
    <clipPath id="clip-path">
      <rect id="Rectangle_406645" data-name="Rectangle 406645" width="369.331" height="175.882" transform="translate(0 0)" fill="none"/>
    </clipPath>
    <clipPath id="clip-path-2">
      <rect id="Rectangle_406644" data-name="Rectangle 406644" width="369.331" height="172.103" fill="none"/>
    </clipPath>
    <clipPath id="clip-path-3">
      <rect id="Rectangle_406633" data-name="Rectangle 406633" width="47.294" height="86.17" fill="none"/>
    </clipPath>
    <clipPath id="clip-path-4">
      <rect id="Rectangle_406634" data-name="Rectangle 406634" width="18.796" height="86.164" fill="none"/>
    </clipPath>
    <clipPath id="clip-path-5">
      <rect id="Rectangle_406635" data-name="Rectangle 406635" width="34.254" height="45.382" fill="none"/>
    </clipPath>
    <clipPath id="clip-path-6">
      <rect id="Rectangle_406638" data-name="Rectangle 406638" width="24.007" height="62.116" fill="none"/>
    </clipPath>
    <clipPath id="clip-path-7">
      <rect id="Rectangle_406639" data-name="Rectangle 406639" width="19.265" height="72.391" fill="none"/>
    </clipPath>
    <clipPath id="clip-path-8">
      <rect id="Rectangle_406640" data-name="Rectangle 406640" width="15.26" height="0.939" fill="none"/>
    </clipPath>
    <clipPath id="clip-path-9">
      <rect id="Rectangle_406641" data-name="Rectangle 406641" width="14.613" height="7.351" fill="none"/>
    </clipPath>
  </defs>
  <g id="Group_1112218" data-name="Group 1112218" transform="translate(0 -7)">
    <g id="Group_1112217" data-name="Group 1112217" transform="translate(0 7)" clip-path="url(#clip-path)">
      <g id="Group_1112216" data-name="Group 1112216" transform="translate(0 3.778)">
        <g id="Group_1112215" data-name="Group 1112215" clip-path="url(#clip-path-2)">
          <path id="Path_886873" data-name="Path 886873" d="M13.516,171.176c.08-1.32-31.456-43.971,1.543-85.48s71.585-19.141,79.5-48.348c9.9-36.513,59.114-46.786,83.427-28.481C210.181,33.106,259.654.894,304.645,17.03c73.863,26.49,21.516,78.595,38.188,86.159s36.939,23.709,15.093,67.539Z" transform="translate(0 0.005)" fill="#fff"/>
          <path id="Path_886874" data-name="Path 886874" d="M941.988,417.563c-5.21-7.193-18.631-.13-18.631-.13s-4.637,16.991-7.346,18.227.927-15.249.927-15.249c-5.666,1.259-17.339,12.01-17.339,12.01s6.827,15.906,3.875,16.482-5.275-14.372-5.275-14.372c-4.762,3.185-7.594,10.553-7.594,10.553-2.736,11.4,13.08,14.09,13.08,14.09a26.123,26.123,0,0,1,.888,13.192h0a18.953,18.953,0,0,0-.512,3.753l1.447-.463c-.015-.4-.013-.792.008-1.174a.008.008,0,0,1,0-.007c0-.006,0-.011,0-.017.022-.24.056-.583.1-1v0s0,0,0,0c.145-.949.225-1.642.256-2.133a.018.018,0,0,0,0,0c.393-2.96,1.089-6.876,2.107-7.977a2.877,2.877,0,0,1-.537-.521l.537.521c4.3,4.163,16.983,1.026,23.4-2.5s2.74-4.384-2.058-6.145-12.3,1.508-15.021,1.088.213-2.652,4.934-3.794,8.6,2.418,16.271.7,8.544-16.579,8.544-16.579c-4.585,3.129-14.755,3.43-15.715,1.891s12.723-5.733,14.664-6.908,4.2-6.329-1.009-13.522" transform="translate(-779.934 -366.376)" fill="#41cee2"/>
          <path id="Path_886875" data-name="Path 886875" d="M2067.62,1165.055c5.036-5.06-3.232-13.5-3.232-13.5s-14.932-.31-16.443-2.049,12.822-2.062,12.822-2.062c-2.061-3.875-13.075-10.394-13.075-10.394s-11.977,7.791-12.984,5.758,10.982-6.393,10.982-6.393c-3.5-2.875-10.118-3.6-10.118-3.6-9.95.063-9.349,11.99-9.349,11.99a24.892,24.892,0,0,1-10.789,3.007h0a18.385,18.385,0,0,0-3.206.3l.644.964q.494-.124.976-.205h.006l.014,0c.2-.027.494-.064.849-.107h0c.814-.065,1.4-.131,1.816-.2h0c2.528-.246,5.9-.444,7,.1a2.18,2.18,0,0,1,.335-.482l-.335.482c-2.686,3.854,2.192,12.473,6.271,16.482s4.13,1.2,4.731-2.59-3.456-8.628-3.6-10.675,2.24-.321,4.033,2.89-.466,6.654,2.335,11.9,15.291,3.211,15.291,3.211c-3.418-2.757-5.491-10.062-4.386-11.033s7.038,8.179,8.361,9.373,6.005,1.906,11.041-3.154" transform="translate(-1762.808 -1001.693)" fill="#2bc897"/>
          <path id="Path_886876" data-name="Path 886876" d="M564.217,577.369c2.978-5.293,12.738-1.415,12.738-1.415s4.56,11.3,6.515,11.949-1.879-10.368-1.879-10.368c3.98.458,12.844,6.983,12.844,6.983s-3.372,11.37-1.305,11.553,2.436-10.21,2.436-10.21c3.518,1.841,6.057,6.68,6.057,6.68,2.8,7.6-7.8,10.572-7.8,10.572a17.95,17.95,0,0,0,.47,9.089h0a13.165,13.165,0,0,1,.657,2.531l-1.028-.214q-.034-.413-.1-.8a.006.006,0,0,0,0,0l0-.011c-.035-.163-.086-.4-.151-.678h0c-.177-.639-.288-1.108-.349-1.442a.013.013,0,0,1,0,0c-.511-2-1.306-4.628-2.093-5.308a1.935,1.935,0,0,0,.325-.394l-.325.394c-2.6,3.154-11.537,1.911-16.214-.047s-2.233-2.8.906-4.351,8.537.157,10.367-.325-.362-1.8-3.686-2.245-5.685,2.266-11.076,1.638-7.2-10.736-7.2-10.736c3.393,1.814,10.376,1.3,10.907.175s-9.174-3.017-10.6-3.683-3.391-4.031-.414-9.324" transform="translate(-492.92 -508.081)" fill="#41cee2"/>
          <g id="Group_1112196" data-name="Group 1112196" transform="translate(228.766 84.009)" opacity="0.5">
            <g id="Group_1112195" data-name="Group 1112195">
              <g id="Group_1112194" data-name="Group 1112194" clip-path="url(#clip-path-3)">
                <path id="Path_886877" data-name="Path 886877" d="M1885.114,811.995l-20.774-.006-10.989,0a7.534,7.534,0,0,1-7.751-7.245l.024-71.677a7.53,7.53,0,0,1,7.755-7.238l9.745,0,22.017.006a7.532,7.532,0,0,1,7.752,7.243l-.022,71.678a7.535,7.535,0,0,1-7.758,7.24" transform="translate(-1845.601 -725.825)" fill="#c0d8fb"/>
              </g>
            </g>
          </g>
          <path id="Path_886878" data-name="Path 886878" d="M1902.282,1071.977l-.551-3.773-.551-3.774a3.488,3.488,0,0,0-1.464-2.333,3.971,3.971,0,0,0-2.8-.692c-.114.015-.226.036-.336.059a3.363,3.363,0,0,0,.651-1.671,3.866,3.866,0,0,0,4.371,2.08,3.54,3.54,0,0,0,2.8-4.26l-.949-3.7-.949-3.7a3.553,3.553,0,0,0-1.7-2.186,4,4,0,0,0-2.859-.429,3.541,3.541,0,0,0-2.8,4.26l1.43,5.58a3.612,3.612,0,0,0-.8-.782,3.928,3.928,0,0,0-2.186-.719,3.443,3.443,0,0,0,.732-1.531,3.32,3.32,0,0,0-.311-2.168,3.4,3.4,0,0,0-1.207-3.755l-6.287-4.852a3.983,3.983,0,0,0-5.33.473,3.371,3.371,0,0,0,.171,4.68,3.978,3.978,0,0,0-1.008.121l-3.935,1.005-3.933,1a3.663,3.663,0,0,0-2.676,2.575l-.413-.924-1.572-3.513a3.9,3.9,0,0,0-4.952-1.9,3.464,3.464,0,0,0-2.034,4.624l1.572,3.513,1.007,2.252a3.57,3.57,0,0,0-2.391,3.1l-.206,3.8h0l-.206,3.8a3.392,3.392,0,0,0,.976,2.545,3.883,3.883,0,0,0,2.613,1.163,3.98,3.98,0,0,0,1.278-.15,3.355,3.355,0,0,0-.3,2.389,3.6,3.6,0,0,0-1.6,1.7l-1.558,3.519-1.558,3.52a3.31,3.31,0,0,0,.007,2.7,3.653,3.653,0,0,0,2.045,1.913,3.985,3.985,0,0,0,4.228-.877,3.548,3.548,0,0,0,1.176,1.422,3.978,3.978,0,0,0,5.307-.658l2.479-3.023,2.479-3.025a3.4,3.4,0,0,0,.675-1.346,3.971,3.971,0,0,0,2.523-.6l.649-.418-.9,1.1-2.479,3.023a3.39,3.39,0,0,0,.705,4.955,3.978,3.978,0,0,0,5.307-.658l2.479-3.023,2.479-3.025c.032-.039.058-.08.088-.12a3.593,3.593,0,0,0,.726.8l-.882,1.077a3.39,3.39,0,0,0,.7,4.955,3.978,3.978,0,0,0,5.307-.658l4.958-6.048a3.355,3.355,0,0,0,.741-2.613,3.479,3.479,0,0,0-1.446-2.342,3.826,3.826,0,0,0-.9-.474c.046,0,.092,0,.138-.011a3.6,3.6,0,0,0,3.239-3.98m-34.113-3.373.07-1.3a3.583,3.583,0,0,0,.948,1,3.774,3.774,0,0,0,.461.278l-1.734,1.117a3.3,3.3,0,0,0,.254-1.1m25.509-3.218.741,5.073A3.648,3.648,0,0,0,1893,1069a4,4,0,0,0-2.511-.49,3.677,3.677,0,0,0,1.031-.861l2.128-2.6c0,.109.014.219.029.329m-8.61-13.706.954.736-.982.632a3.266,3.266,0,0,0,.028-1.368m.823,11.209a3.41,3.41,0,0,0-.671-1.5,3.856,3.856,0,0,0,.815-.393l2.984-1.921Zm2.476,6.615a4,4,0,0,0-2.854-.8l.081-.952a3.647,3.647,0,0,0,.619.563,3.973,3.973,0,0,0,2.838.687,3.747,3.747,0,0,0-.684.506m-7.626-13.378a3.351,3.351,0,0,0,.029,3.967c.016.022.035.042.052.064a3.9,3.9,0,0,0-.778.376,3.334,3.334,0,0,0,.15-1.546,3.481,3.481,0,0,0-1.446-2.342l-.012-.007Zm-3.768,8.5,1.46-1.781a3.322,3.322,0,0,0-.047.335l-.277,3.27a3.908,3.908,0,0,0-1.923-.864Zm-6.835,14.94.429-.968a3.293,3.293,0,0,0,.182-2.15c.087-.047.173-.094.257-.148l6.714-4.324c.044-.028.082-.059.124-.088a3.4,3.4,0,0,0,.427.967l-1.2.77a3.517,3.517,0,0,0-1.529,2.109,3.914,3.914,0,0,0-3.381,1.362Zm17.812-4.358.209.818a3.972,3.972,0,0,0-1.049-.277Zm8,.826-.292-1.139-.056-.217a3.82,3.82,0,0,0,1.547,1.061,4.031,4.031,0,0,0-1.2.295m-22.93-18.211-2.054,2.506-2.478,3.023c-.011.014-.021.028-.031.043l.13-2.4c0-.062,0-.122,0-.183.116-.033.232-.072.347-.116a3.53,3.53,0,0,0,2.312-3.538,3.969,3.969,0,0,0,1.776.662" transform="translate(-1629.597 -922.12)" fill="#afcdfb"/>
          <g id="Group_1112199" data-name="Group 1112199" transform="translate(228.766 84.009)" opacity="0.5">
            <g id="Group_1112198" data-name="Group 1112198">
              <g id="Group_1112197" data-name="Group 1112197" clip-path="url(#clip-path-4)">
                <path id="Path_886879" data-name="Path 886879" d="M1864.34,811.99l-10.989,0a7.534,7.534,0,0,1-7.751-7.245l.024-71.677a7.529,7.529,0,0,1,7.755-7.238l9.745,0a8.427,8.427,0,0,1,1.272,4.477l-.026,80.96q0,.366-.031.723" transform="translate(-1845.6 -725.826)" fill="#afcdfb"/>
              </g>
            </g>
          </g>
          <path id="Path_886880" data-name="Path 886880" d="M1885.518,681.909l-29.5-.008-16.745-.006a1.462,1.462,0,0,1-1.507-1.409l0-6.75a1.464,1.464,0,0,1,1.508-1.407l16.721,0h0l29.524.008a1.464,1.464,0,0,1,1.507,1.409l0,6.75a1.465,1.465,0,0,1-1.509,1.409" transform="translate(-1609.968 -594.512)" fill="#f99746"/>
          <path id="Path_886881" data-name="Path 886881" d="M1856.014,681.9l-16.745-.006a1.462,1.462,0,0,1-1.507-1.408l0-6.75a1.464,1.464,0,0,1,1.508-1.407l16.721,0h0a1.464,1.464,0,0,1,1.5,1.408l0,6.75a1.463,1.463,0,0,1-1.485,1.408" transform="translate(-1609.968 -594.511)" fill="#ef7e29"/>
          <path id="Path_886882" data-name="Path 886882" d="M785.811,658.15v46.559a5.4,5.4,0,0,1-5.564,5.2H750.611a5.834,5.834,0,0,1-2.233-.44,5.215,5.215,0,0,1-3.331-4.755V658.15a5.4,5.4,0,0,1,5.564-5.2h29.637a5.4,5.4,0,0,1,5.564,5.2" transform="translate(-652.697 -577.381)" fill="#fcecdb"/>
          <path id="Path_886883" data-name="Path 886883" d="M940.236,720.562a5.552,5.552,0,0,1-3.541-7.282,6.19,6.19,0,0,1,7.8-3.306,5.553,5.553,0,0,1,3.541,7.282,6.192,6.192,0,0,1-7.8,3.306" transform="translate(-820.25 -627.479)" fill="#f7e0cb"/>
          <path id="Path_886884" data-name="Path 886884" d="M950.779,717.254l-11.339-3.976a6.19,6.19,0,0,1,7.8-3.306,5.553,5.553,0,0,1,3.541,7.282" transform="translate(-822.994 -627.478)" fill="#efcbab"/>
          <path id="Path_886885" data-name="Path 886885" d="M787.153,719.657a5.4,5.4,0,0,1-.862-7.957,6.353,6.353,0,0,1,8.521-.8,5.4,5.4,0,0,1,.862,7.957,6.355,6.355,0,0,1-8.521.8" transform="translate(-687.633 -627.488)" fill="#f7e0cb"/>
          <path id="Path_886886" data-name="Path 886886" d="M805.322,718.853l-9.383-7.153a6.353,6.353,0,0,1,8.521-.8,5.4,5.4,0,0,1,.862,7.957" transform="translate(-697.281 -627.488)" fill="#efcbab"/>
          <path id="Path_886887" data-name="Path 886887" d="M940.236,1018.615a5.552,5.552,0,0,1-3.541-7.282,6.19,6.19,0,0,1,7.8-3.307,5.553,5.553,0,0,1,3.541,7.282,6.192,6.192,0,0,1-7.8,3.306" transform="translate(-820.25 -891.035)" fill="#f7e0cb"/>
          <path id="Path_886888" data-name="Path 886888" d="M950.779,1018.63l-11.339-3.976a6.19,6.19,0,0,1,7.8-3.306,5.553,5.553,0,0,1,3.541,7.282" transform="translate(-822.994 -893.971)" fill="#efcbab"/>
          <path id="Path_886889" data-name="Path 886889" d="M787.153,1017.712a5.4,5.4,0,0,1-.862-7.957,6.353,6.353,0,0,1,8.521-.8,5.4,5.4,0,0,1,.862,7.957,6.355,6.355,0,0,1-8.521.8" transform="translate(-687.633 -891.045)" fill="#f7e0cb"/>
          <path id="Path_886890" data-name="Path 886890" d="M805.322,1020.228l-9.383-7.152a6.354,6.354,0,0,1,8.521-.8,5.4,5.4,0,0,1,.862,7.957" transform="translate(-697.281 -893.981)" fill="#efcbab"/>
          <path id="Path_886891" data-name="Path 886891" d="M944.961,874.956a6.249,6.249,0,0,1-8.067-2.688,5.5,5.5,0,0,1,2.879-7.532,6.25,6.25,0,0,1,8.067,2.688,5.5,5.5,0,0,1-2.879,7.532" transform="translate(-820.252 -764.167)" fill="#f7e0cb"/>
          <path id="Path_886892" data-name="Path 886892" d="M947.84,867.424l-10.945,4.844a5.5,5.5,0,0,1,2.879-7.532,6.25,6.25,0,0,1,8.067,2.688" transform="translate(-820.252 -764.167)" fill="#efcbab"/>
          <path id="Path_886893" data-name="Path 886893" d="M785.352,867.741a6.206,6.206,0,0,1,7.873-3.149,5.537,5.537,0,0,1,3.372,7.351,6.208,6.208,0,0,1-7.873,3.149,5.538,5.538,0,0,1-3.372-7.352" transform="translate(-687.625 -764.163)" fill="#f7e0cb"/>
          <path id="Path_886894" data-name="Path 886894" d="M815.632,878.2l4.5-10.5a5.537,5.537,0,0,1,3.372,7.352,6.208,6.208,0,0,1-7.873,3.149" transform="translate(-714.533 -767.269)" fill="#efcbab"/>
          <g id="Group_1112202" data-name="Group 1112202" transform="translate(98.861 87.142)" opacity="0.5">
            <g id="Group_1112201" data-name="Group 1112201">
              <g id="Group_1112200" data-name="Group 1112200" clip-path="url(#clip-path-5)">
                <path id="Path_886895" data-name="Path 886895" d="M831.829,752.894v40.515a5,5,0,0,1-5.091,4.867H799.618a5.229,5.229,0,0,1-2.043-.412V758.5a5.483,5.483,0,0,1,1.865-4.092,5.911,5.911,0,0,1,1.433-.947,6.03,6.03,0,0,1,2.568-.57Z" transform="translate(-797.575 -752.894)" fill="#efcbab"/>
              </g>
            </g>
          </g>
          <path id="Path_886896" data-name="Path 886896" d="M805.385,806.908V760.349a5.4,5.4,0,0,1,5.564-5.2h29.637a5.4,5.4,0,0,1,5.564,5.2v46.559a5.4,5.4,0,0,1-5.564,5.2H810.949a5.4,5.4,0,0,1-5.564-5.2" transform="translate(-705.556 -667.751)" fill="#fcecdb"/>
          <path id="Path_886897" data-name="Path 886897" d="M1000.574,822.764a5.552,5.552,0,0,1-3.541-7.282,6.191,6.191,0,0,1,7.8-3.306,5.553,5.553,0,0,1,3.541,7.282,6.192,6.192,0,0,1-7.8,3.306" transform="translate(-873.109 -717.852)" fill="#f7e0cb"/>
          <path id="Path_886898" data-name="Path 886898" d="M1011.116,819.457l-11.34-3.976a6.191,6.191,0,0,1,7.8-3.306,5.553,5.553,0,0,1,3.541,7.282" transform="translate(-875.852 -717.851)" fill="#efcbab"/>
          <path id="Path_886899" data-name="Path 886899" d="M847.489,821.86a5.4,5.4,0,0,1-.862-7.957,6.353,6.353,0,0,1,8.521-.8,5.4,5.4,0,0,1,.862,7.957,6.355,6.355,0,0,1-8.521.8" transform="translate(-740.491 -717.861)" fill="#f7e0cb"/>
          <path id="Path_886900" data-name="Path 886900" d="M865.658,821.055l-9.383-7.153a6.353,6.353,0,0,1,8.521-.8,5.4,5.4,0,0,1,.862,7.957" transform="translate(-750.138 -717.861)" fill="#efcbab"/>
          <path id="Path_886901" data-name="Path 886901" d="M1000.574,1120.817a5.552,5.552,0,0,1-3.541-7.282,6.191,6.191,0,0,1,7.8-3.306,5.553,5.553,0,0,1,3.541,7.282,6.192,6.192,0,0,1-7.8,3.306" transform="translate(-873.109 -981.408)" fill="#f7e0cb"/>
          <path id="Path_886902" data-name="Path 886902" d="M1011.116,1120.831l-11.34-3.976a6.191,6.191,0,0,1,7.8-3.306,5.553,5.553,0,0,1,3.541,7.282" transform="translate(-875.852 -984.344)" fill="#efcbab"/>
          <path id="Path_886903" data-name="Path 886903" d="M847.489,1119.914a5.4,5.4,0,0,1-.862-7.957,6.353,6.353,0,0,1,8.521-.8,5.4,5.4,0,0,1,.862,7.957,6.355,6.355,0,0,1-8.521.8" transform="translate(-740.491 -981.418)" fill="#f7e0cb"/>
          <path id="Path_886904" data-name="Path 886904" d="M865.658,1122.43l-9.383-7.152a6.353,6.353,0,0,1,8.521-.8,5.4,5.4,0,0,1,.862,7.957" transform="translate(-750.138 -984.354)" fill="#efcbab"/>
          <path id="Path_886905" data-name="Path 886905" d="M1005.3,977.158a6.249,6.249,0,0,1-8.066-2.689,5.5,5.5,0,0,1,2.879-7.532,6.25,6.25,0,0,1,8.066,2.688,5.5,5.5,0,0,1-2.879,7.532" transform="translate(-873.11 -854.54)" fill="#f7e0cb"/>
          <path id="Path_886906" data-name="Path 886906" d="M1008.176,969.626l-10.946,4.844a5.5,5.5,0,0,1,2.879-7.532,6.25,6.25,0,0,1,8.066,2.688" transform="translate(-873.11 -854.54)" fill="#efcbab"/>
          <path id="Path_886907" data-name="Path 886907" d="M845.689,969.944a6.206,6.206,0,0,1,7.873-3.149,5.537,5.537,0,0,1,3.372,7.351,6.208,6.208,0,0,1-7.873,3.149,5.538,5.538,0,0,1-3.372-7.352" transform="translate(-740.483 -854.537)" fill="#f7e0cb"/>
          <path id="Path_886908" data-name="Path 886908" d="M875.97,980.4l4.5-10.5a5.537,5.537,0,0,1,3.372,7.352,6.208,6.208,0,0,1-7.873,3.149" transform="translate(-767.392 -857.642)" fill="#efcbab"/>
          <rect id="Rectangle_406636" data-name="Rectangle 406636" width="46.548" height="64.865" transform="translate(89.459 105.975)" fill="#ef7e29"/>
          <rect id="Rectangle_406637" data-name="Rectangle 406637" width="46.548" height="64.866" transform="translate(95.942 105.974)" fill="#f99746"/>
          <path id="Path_886909" data-name="Path 886909" d="M728.2,919.376l-2.231,3.239h-4.253v-7H728.2Z" transform="translate(-632.261 -809.637)" fill="#d8661a"/>
          <path id="Path_886910" data-name="Path 886910" d="M696.126,920.722h-6.483l3.976-5.11H700.1Z" transform="translate(-604.16 -809.637)" fill="#f99746"/>
          <g id="Group_1112205" data-name="Group 1112205" transform="translate(95.942 108.931)" opacity="0.5">
            <g id="Group_1112204" data-name="Group 1112204">
              <g id="Group_1112203" data-name="Group 1112203" clip-path="url(#clip-path-6)">
                <path id="Path_886911" data-name="Path 886911" d="M798.035,1003.265H774.028V941.149l24.008,2.154Z" transform="translate(-774.028 -941.149)" fill="#efcbab"/>
              </g>
            </g>
          </g>
          <path id="Path_886912" data-name="Path 886912" d="M820.576,920.719l-3.777,1.893H776.272l-2.244-3.239v-3.764Z" transform="translate(-678.086 -809.634)" fill="#ef7e29"/>
          <path id="Path_886913" data-name="Path 886913" d="M823.861,920.722H777.313l-3.288-5.11h46.548Z" transform="translate(-678.083 -809.637)" fill="#f99746"/>
          <path id="Path_886914" data-name="Path 886914" d="M2339.721,883.127a.89.89,0,0,0-.246-.433,2.359,2.359,0,0,1-.3-.766.321.321,0,0,0-.593-.192.665.665,0,0,0-.088.32,10.007,10.007,0,0,0-3.233-.632s-1.2-.124-.423.827c.52.636.971.64,1.72,1.525a2.905,2.905,0,0,0,2.731,1.141l1,.112.65-1.49Z" transform="translate(-2045.203 -779.401)" fill="#f9c29d"/>
          <path id="Path_886915" data-name="Path 886915" d="M2403.041,809.379s-.985,10.13-15.021,14.407c-3.79,1.155-17.963-2.391-17.963-2.391s.08-1.743,1.231-2.181c0,0,13.278-.762,14.4-.25.992.454,9.47-7.7,12.21-9.011a7.656,7.656,0,0,1,5.148-.574" transform="translate(-2076.283 -715.516)" fill="#91cecf"/>
          <path id="Path_886916" data-name="Path 886916" d="M2732.914,1408.062s1.68,1.431,1.353,2.449-1.844,1.7-2.049,2.939-1.024,1.921-1.763,1.921h-3.516s-.543-.875.769-1.139,1.806-1.725,1.723-3.081a22.339,22.339,0,0,1,.123-3.165l2.786-.6Z" transform="translate(-2388.833 -1244.491)" fill="#233862"/>
          <path id="Path_886917" data-name="Path 886917" d="M2590,1065.689c-.308.849-3.689,2.091-3.689,2.091s-1.843-2.712-7.745-12.433c-.507-.838-1.038-1.756-1.585-2.735-5.794-10.395-13.29-27.67-13.29-27.67l14.323-3.729s.675,5.368.8,8.082a31.765,31.765,0,0,0,2.367,8.293,19.184,19.184,0,0,0,2.611,4.761c3.952,4.575,6.209,23.34,6.209,23.34" transform="translate(-2245.914 -903.016)" fill="#2b478b"/>
          <path id="Path_886918" data-name="Path 886918" d="M2581.176,1037.589c-.9,4.264-2.553,11.4-4.2,15.024-5.8-10.4-13.29-27.67-13.29-27.67l14.323-3.729s.675,5.368.8,8.081a31.715,31.715,0,0,0,2.367,8.293" transform="translate(-2245.913 -903.017)" fill="#233862"/>
          <path id="Path_886919" data-name="Path 886919" d="M2539.845,1435.6s.3,3.258-.436,3.6l-9.44-.018s0-1.017,1.516-1.243,4.18-1.055,4.631-2.9,3.729.565,3.729.565" transform="translate(-2216.375 -1268.328)" fill="#233862"/>
          <path id="Path_886920" data-name="Path 886920" d="M2545.347,1041.531s.5,5.711,1.083,12.577c.8,9.326,1.752,20.782,1.846,22.952.164,3.768.82,9.8.82,9.8s1.556,1.432,4.672.828a91.6,91.6,0,0,0,3.569-17.709c.012-.149.025-.3.037-.45.738-9.268,1.885-28.785,1.885-28.785Z" transform="translate(-2229.847 -920.283)" fill="#2b478b"/>
          <path id="Path_886921" data-name="Path 886921" d="M2590.441,722.028s-8.775,2.5-7.742,1.272c-.135-.731-.526-2.693-.586-3.231a16.422,16.422,0,0,1-.165-1.945l2.611-1.918,2.476-1.835a9.112,9.112,0,0,0,3.407,7.657" transform="translate(-2261.91 -631.688)" fill="#ffb27d"/>
          <path id="Path_886922" data-name="Path 886922" d="M2557.855,810.211c-7.12,4.489-21.507,3.207-21.615,3.12-.239-2.857-.375-7.568-.45-11.928-.093-5.416-.094-10.29-.087-10.393,0,0,0-.164.012-.441.023-.88.081-2.9.143-4.4.011-.281.023-.543.034-.777,0-.013,0-.025,0-.039a30.993,30.993,0,0,1,1.11-4.583,49.572,49.572,0,0,1,3.2-8.534c.511-.888,2.228-3.458,2.228-3.458a5.2,5.2,0,0,0,3.365-.693c1.4-.631,2.908-1.312,3.151-1.139,1.832,1.25,3.07,4.06,3.73,7.65.376,2.067,5.525,35.392,5.173,35.614" transform="translate(-2221.396 -678.154)" fill="#abddda"/>
          <path id="Path_886923" data-name="Path 886923" d="M2587.08,730.364a8.809,8.809,0,0,1-4.967,3.725,16.473,16.473,0,0,1-.165-1.946l2.61-1.918Z" transform="translate(-2261.911 -645.708)" fill="#ed985f"/>
          <path id="Path_886924" data-name="Path 886924" d="M2563.44,671.042s6.456.986,7.062-2.72,1.847-6.075-2.249-6.861-5.131.517-5.66,1.709-.817,7.52.847,7.872" transform="translate(-2244.593 -584.69)" fill="#ffb27d"/>
          <path id="Path_886925" data-name="Path 886925" d="M2558.1,643.817c.059-.063.194-.113.495-.129a1.28,1.28,0,0,0-.562-.148,1.425,1.425,0,0,0-1.006-1.25.852.852,0,0,1,.438.608c-.834-.8-2.621-1.382-7.569-1.017-6.521.481-4.372,4.379-3.528,4.844s2.97-.809,4.542-.693,1.872,2.239,2.406,2.53.324-.224,1.046-.528.791.812.582,1.539.783,1.684.783,1.684l1-1.008c1-1.008,1.947-5.278,1.492-6.188l-.121-.244" transform="translate(-2229.846 -567.49)" fill="#2c3a64"/>
          <path id="Path_886926" data-name="Path 886926" d="M2535.791,881.62c-.093-5.416-.094-10.289-.087-10.393,0,0,0-.164.012-.441,5.583-6.451,12.774-13.151,12.774-13.151s1.558,18.923-12.7,23.984" transform="translate(-2221.396 -758.372)" fill="#91cecf"/>
          <path id="Path_886927" data-name="Path 886927" d="M2544.465,848.12c-.077.116-1.845,9.862-6.381,9.97a3.821,3.821,0,0,1-1.126-.119c.011-.281.022-.543.034-.777,0-.013,0-.025,0-.038a30.986,30.986,0,0,1,1.109-4.583c1.855-.356,4.027-1.945,6.362-4.452" transform="translate(-2222.497 -749.957)" fill="#91cecf"/>
          <path id="Path_886928" data-name="Path 886928" d="M2578.369,754.737s-.539-1.461-.977-1.625a11.733,11.733,0,0,0-8.13,7.6s2.372-3.86,9.107-5.979" transform="translate(-2250.797 -665.945)" fill="#6bb7bf"/>
          <path id="Path_886929" data-name="Path 886929" d="M2332.349,789.038l-12.139,1.576-6.421.834a4.546,4.546,0,0,1-5.161-3.644l-6.239-41.883a4.343,4.343,0,0,1,3.9-4.819l5.694-.739,12.865-1.671a4.545,4.545,0,0,1,5.161,3.643l6.239,41.884a4.345,4.345,0,0,1-3.9,4.82" transform="translate(-2016.965 -653.158)" fill="#f0b371"/>
          <path id="Path_886930" data-name="Path 886930" d="M2365.046,948.749l-.651-2.162-.651-2.163a2.113,2.113,0,0,0-1.059-1.252,2.365,2.365,0,0,0-1.7-.191c-.066.017-.129.038-.191.06a1.948,1.948,0,0,0,.235-1.026,2.319,2.319,0,0,0,2.735.883,2.049,2.049,0,0,0,1.265-2.7l-.878-2.091-.878-2.092a2.15,2.15,0,0,0-1.186-1.147,2.371,2.371,0,0,0-1.708-.034,2.049,2.049,0,0,0-1.264,2.7l1.322,3.152a2.178,2.178,0,0,0-.535-.4,2.346,2.346,0,0,0-1.34-.254,1.974,1.974,0,0,0-.078-2.194,2.042,2.042,0,0,0-1.032-2.1l-4.1-2.357a2.333,2.333,0,0,0-3.073.682,2,2,0,0,0,.508,2.722,2.328,2.328,0,0,0-.579.147l-2.211.886-2.21.886a2.106,2.106,0,0,0-1.339,1.708l-.322-.508-1.225-1.933a2.33,2.33,0,0,0-3.059-.733,2.015,2.015,0,0,0-.785,2.857l1.225,1.933.785,1.239a2.058,2.058,0,0,0-1.126,2l.211,2.238.212,2.238a2.04,2.04,0,0,0,.792,1.413,2.341,2.341,0,0,0,2.362.3,1.969,1.969,0,0,0,.033,1.419,2.067,2.067,0,0,0-.79,1.117l-.6,2.174-.6,2.175a1.962,1.962,0,0,0,.24,1.579,2.213,2.213,0,0,0,1.362.962,2.32,2.32,0,0,0,2.394-.834,2.15,2.15,0,0,0,.812.741,2.326,2.326,0,0,0,3.043-.788l1.185-1.955,1.185-1.956a1.966,1.966,0,0,0,.277-.838,2.3,2.3,0,0,0,1.421-.544l.344-.294-.43.71-1.184,1.955a2.018,2.018,0,0,0,.844,2.842,2.327,2.327,0,0,0,3.043-.788l1.184-1.955,1.184-1.956c.015-.025.028-.051.041-.077a2.207,2.207,0,0,0,.494.411l-.422.7a2.019,2.019,0,0,0,.845,2.842,2.327,2.327,0,0,0,3.044-.788l2.369-3.911a1.957,1.957,0,0,0,.205-1.583,2.109,2.109,0,0,0-1.05-1.258,2.3,2.3,0,0,0-.57-.209c.027-.006.053-.01.08-.017a2.077,2.077,0,0,0,1.545-2.572m-20.227.624-.072-.763a2.156,2.156,0,0,0,.641.512,2.284,2.284,0,0,0,.293.127l-.915.784a1.933,1.933,0,0,0,.053-.66m14.625-3.82.875,2.908a2.21,2.21,0,0,0-.956-.742,2.379,2.379,0,0,0-1.51-.1,2.094,2.094,0,0,0,.527-.582l1.017-1.679a1.886,1.886,0,0,0,.047.19m-6.227-7.353.622.358-.519.444a1.945,1.945,0,0,0-.1-.8m1.459,6.487a2.065,2.065,0,0,0-.523-.826,2.212,2.212,0,0,0,.442-.292l1.576-1.349Zm2.024,3.677a2.386,2.386,0,0,0-1.738-.253l-.036-.562a2.2,2.2,0,0,0,.411.282,2.366,2.366,0,0,0,1.718.185,2.135,2.135,0,0,0-.356.347m-5.624-7.237a1.985,1.985,0,0,0,.363,2.316c.012.012.025.022.036.033a2.25,2.25,0,0,0-.422.279,1.961,1.961,0,0,0-.047-.915,2.107,2.107,0,0,0-1.049-1.258l-.008,0Zm-1.46,5.253.7-1.151a1.81,1.81,0,0,0,0,.2l.123,1.932a2.344,2.344,0,0,0-1.2-.359Zm-2.691,9.25.166-.6a1.938,1.938,0,0,0-.081-1.27c.046-.034.092-.068.137-.106l3.546-3.037c.023-.019.042-.041.064-.061a2.053,2.053,0,0,0,.334.533l-.631.541a2.022,2.022,0,0,0-.71,1.349,2.262,2.262,0,0,0-1.857,1.053Zm10.028-3.9.194.462a2.369,2.369,0,0,0-.637-.083Zm4.744-.126-.27-.643-.051-.122a2.3,2.3,0,0,0,1,.5,2.352,2.352,0,0,0-.675.263m-14.987-8.9-.981,1.62-1.184,1.955c-.006.009-.01.018-.015.027l-.134-1.411c0-.036-.01-.071-.015-.107.065-.028.129-.059.192-.094a2.039,2.039,0,0,0,1.042-2.243,2.374,2.374,0,0,0,1.095.252" transform="translate(-2048.862 -825.078)" fill="#eb9342"/>
          <path id="Path_886931" data-name="Path 886931" d="M2318.11,708.534l-17.24,2.239-9.785,1.27a.882.882,0,0,1-1-.708l-.588-3.944a.844.844,0,0,1,.759-.937l9.77-1.269h0l17.252-2.241a.883.883,0,0,1,1,.709l.587,3.944a.844.844,0,0,1-.758.938" transform="translate(-2005.699 -621.576)" fill="#abddda"/>
          <path id="Path_886932" data-name="Path 886932" d="M2389.033,953.009a.934.934,0,0,0-.364-.353,2.487,2.487,0,0,1-.51-.661.324.324,0,0,0-.627-.032.656.656,0,0,0,.009.33,10.084,10.084,0,0,0-3.295.224s-1.192.19-.163.9c.688.477,1.123.365,2.1,1.024a2.979,2.979,0,0,0,2.962.394l.994-.15.186-1.6Z" transform="translate(-2088.205 -841.581)" fill="#f9c29d"/>
          <path id="Path_886933" data-name="Path 886933" d="M2453.795,809.172s2.04,9.991-10.192,17.712c-3.3,2.084-17.974,2.32-17.974,2.32s-.437-1.7.541-2.413c0,0,12.54-4.146,13.766-3.942,1.087.181,6.834-9.835,9.08-11.8a7.5,7.5,0,0,1,4.779-1.876" transform="translate(-2124.882 -715.516)" fill="#abddda"/>
          <path id="Path_886934" data-name="Path 886934" d="M473.2,934.021a3.735,3.735,0,0,0-6.545-.81,2.924,2.924,0,0,0-.49,1.541c-.089,3.242,6.758,15.789,7.666,16.9,1.654,2.021,11.641,6.88,11.641,6.88l2.122-.289a15.6,15.6,0,0,1-2.442-1.862c-2.566-2.392-6.306-6.281-6.992-6.819-1.176-.924-3.21-10.29-4.961-15.539" transform="translate(-408.379 -823.793)" fill="#ed985f"/>
          <path id="Path_886935" data-name="Path 886935" d="M643.831,1208.2H598.2a4.946,4.946,0,0,1-5.092-4.754V1178.12a4.947,4.947,0,0,1,5.092-4.755h45.632a4.947,4.947,0,0,1,5.092,4.755v25.326a4.946,4.946,0,0,1-5.092,4.754" transform="translate(-519.59 -1037.558)" fill="#fcecdb"/>
          <path id="Path_886936" data-name="Path 886936" d="M655.692,1216.848a5.665,5.665,0,0,1-7.137,3.026,5.081,5.081,0,0,1-3.24-6.664,5.667,5.667,0,0,1,7.137-3.026,5.082,5.082,0,0,1,3.24,6.664" transform="translate(-565.015 -1069.821)" fill="#f7e0cb"/>
          <path id="Path_886937" data-name="Path 886937" d="M652.452,1210.183l-3.9,9.69a5.081,5.081,0,0,1-3.24-6.664,5.667,5.667,0,0,1,7.137-3.026" transform="translate(-565.015 -1069.821)" fill="#efcbab"/>
          <path id="Path_886938" data-name="Path 886938" d="M654.805,1356.861a5.815,5.815,0,0,1-7.8.736,4.945,4.945,0,0,1-.789-7.282,5.816,5.816,0,0,1,7.8-.736,4.945,4.945,0,0,1,.789,7.282" transform="translate(-565.024 -1192.345)" fill="#f7e0cb"/>
          <path id="Path_886939" data-name="Path 886939" d="M654.017,1349.579l-7.01,8.018a4.945,4.945,0,0,1-.789-7.282,5.816,5.816,0,0,1,7.8-.736" transform="translate(-565.024 -1192.345)" fill="#efcbab"/>
          <path id="Path_886940" data-name="Path 886940" d="M928.461,1216.848a5.666,5.666,0,0,1-7.137,3.026,5.081,5.081,0,0,1-3.24-6.664,5.667,5.667,0,0,1,7.137-3.026,5.082,5.082,0,0,1,3.241,6.664" transform="translate(-803.974 -1069.821)" fill="#f7e0cb"/>
          <path id="Path_886941" data-name="Path 886941" d="M925.231,1210.183l-3.9,9.69a5.081,5.081,0,0,1-3.24-6.664,5.667,5.667,0,0,1,7.137-3.026" transform="translate(-803.983 -1069.821)" fill="#efcbab"/>
          <path id="Path_886942" data-name="Path 886942" d="M927.575,1356.858a5.813,5.813,0,0,1-7.55.913c-.084-.055-.166-.115-.248-.177a4.944,4.944,0,0,1-.788-7.282,5.814,5.814,0,0,1,7.8-.736c.081.062.159.125.235.19a4.934,4.934,0,0,1,.553,7.092" transform="translate(-803.983 -1192.342)" fill="#f7e0cb"/>
          <path id="Path_886943" data-name="Path 886943" d="M927.021,1349.767l-7,8c-.085-.055-.166-.115-.248-.177a4.944,4.944,0,0,1-.788-7.282,5.815,5.815,0,0,1,7.8-.736c.081.063.159.125.235.19" transform="translate(-803.983 -1192.343)" fill="#efcbab"/>
          <path id="Path_886944" data-name="Path 886944" d="M796.978,1212.814a5.031,5.031,0,0,1-2.635,6.893,5.718,5.718,0,0,1-7.382-2.46,5.033,5.033,0,0,1,2.635-6.893,5.72,5.72,0,0,1,7.382,2.461" transform="translate(-688.947 -1069.823)" fill="#f7e0cb"/>
          <path id="Path_886945" data-name="Path 886945" d="M789.595,1214.171l4.747,9.354a5.719,5.719,0,0,1-7.382-2.46,5.033,5.033,0,0,1,2.635-6.893" transform="translate(-688.946 -1073.641)" fill="#efcbab"/>
          <path id="Path_886946" data-name="Path 886946" d="M789.906,1358.382a5.067,5.067,0,0,1-3.086-6.728,5.68,5.68,0,0,1,7.205-2.882,5.068,5.068,0,0,1,3.086,6.728,5.681,5.681,0,0,1-7.205,2.882" transform="translate(-688.943 -1192.334)" fill="#f7e0cb"/>
          <path id="Path_886947" data-name="Path 886947" d="M799.927,1355.5l-10.291-3.846a5.68,5.68,0,0,1,7.205-2.882,5.068,5.068,0,0,1,3.086,6.728" transform="translate(-691.759 -1192.333)" fill="#efcbab"/>
          <path id="Path_886948" data-name="Path 886948" d="M499.56,814.914a35.049,35.049,0,0,0-5.093,2.325c-2.3,2.38-1.643,5.486-.328,5.516.843.019.68,1.328.68,1.328l9.394-3.711s-1.131-6.159-4.654-5.458" transform="translate(-431.844 -720.545)" fill="#2b478b"/>
          <path id="Path_886949" data-name="Path 886949" d="M463.017,793.381s.336-3.417-3.753-3.417a4.938,4.938,0,0,1,1.88.941,5.112,5.112,0,0,0-5.446.767c-2.838,2.2-1.075,7.706-1.938,8.753s-4.224,1.255-3.813,4.638,10.667,7.619,10.008,10.417c0,0,4.019-5.517,1.145-8.034a4.91,4.91,0,0,1,1.543,2.7s.38-2.859-1.568-3.774c-1.724-.809-3.137-3.769-2.988-4.3s4.929-8.689,4.929-8.689" transform="translate(-394.144 -698.532)" fill="#2b478b"/>
          <path id="Path_886950" data-name="Path 886950" d="M299.331,1091.9l-2.033-.279a22.139,22.139,0,0,1-7.854-14.537,19.29,19.29,0,0,0-1.622-5.465c-.727-1.1-1.97-3.177-3.339-5.509-2.465-4.2-5.334-9.223-6.318-10.823-3.136-5.1-1.624-8.527-1.624-8.527s8.749-.808,11.146-2.766l.863,1.243s1.9,7.836,1.806,7.872l.285.814a129.2,129.2,0,0,1,4.155,14.089c.527,2.469.668,7.363.811,8.316.847,5.624,3.724,15.572,3.724,15.572" transform="translate(-241.944 -923.157)" fill="#2b478b"/>
          <path id="Path_886951" data-name="Path 886951" d="M437.108,1444.979h-8.482a4.075,4.075,0,0,1,.24-2.123c.425-.879,1.03-.907.077-2.284.539.518,2.272.732,3.5.578a9.667,9.667,0,0,0,1.47,2.09c.554.372,3.026.239,3.2,1.738" transform="translate(-375.456 -1273.838)" fill="#233862"/>
          <path id="Path_886952" data-name="Path 886952" d="M284.484,1062.291c-2.465-4.2-5.334-9.222-6.319-10.822-3.136-5.1-1.624-8.527-1.624-8.527a23.818,23.818,0,0,0,6.638-3.265s1.959,15.941,1.3,22.615" transform="translate(-241.944 -919.342)" fill="#233862"/>
          <path id="Path_886953" data-name="Path 886953" d="M194.417,1034.718l.029-1.481c-3.161.372-10.9-3.526-10.9-3.526s-3.307,2.054-3.759,7.918c-.221,2.862-1.619,14.968-1.773,18.582a19.383,19.383,0,0,1-1.928,5.378c-4.823,8.379-2.3,19.764-2.3,19.764l1.12-.266s4.078-11.8,6.743-16.907c.452-.866,3.266-5,4.307-7.319a134.434,134.434,0,0,0,5.243-14.673c.1.016,3.216-7.47,3.216-7.47" transform="translate(-151.668 -910.529)" fill="#2b478b"/>
          <path id="Path_886954" data-name="Path 886954" d="M473.739,900.7c-5.167-1.107-1.866-7.887-1.566-7.767.716-.136,2.288-1.31,3.695-3.6l.19.154,3.173,2.6s-.734,1.01-1.351,2a4.362,4.362,0,0,0-.827,1.8c.255.188-1.936,5.113-3.314,4.818" transform="translate(-412.495 -786.397)" fill="#ffb27d"/>
          <path id="Path_886955" data-name="Path 886955" d="M490.432,944.054a23.462,23.462,0,0,1,1.393,3.124c.485,1.45,1.7,6.062,1.7,6.062a8.525,8.525,0,0,1-5.98,2.509s-1.871-2.734-1.211-5.2,4.1-6.491,4.1-6.491" transform="translate(-425.926 -834.787)" fill="#91cecf"/>
          <path id="Path_886956" data-name="Path 886956" d="M515.552,893.264s-.734,1.009-1.351,2c-1.973-1.136-1.975-3.416-1.823-4.6Z" transform="translate(-448.816 -787.579)" fill="#ed985f"/>
          <path id="Path_886957" data-name="Path 886957" d="M514.711,854.1s-4.79-2.489-3.085-5.251,2.237-4.943,5.367-3.471,3.069,2.844,2.74,3.895-3.732,5.4-5.022,4.827" transform="translate(-447.887 -747.114)" fill="#ffb27d"/>
          <path id="Path_886958" data-name="Path 886958" d="M516.983,844.8c-.219-1.226-.887-1.343-1.352-1.261a3.985,3.985,0,0,0-4.66-1.666,6.666,6.666,0,0,1-3.776,2.118s.556.966,2.846,1.564a4.177,4.177,0,0,0,2.26-.169,13.387,13.387,0,0,1-3.251,1.144c3.018.258,5.89-2.319,6.188-2.594a3.765,3.765,0,0,1,.237,1.846c-.2.831-.988,2.335-.506,2.53,0,0,2.342-1.672,2.013-3.512" transform="translate(-444.328 -744.255)" fill="#2b478b"/>
          <path id="Path_886959" data-name="Path 886959" d="M172.585,1444.542H164.1a4.074,4.074,0,0,1,.24-2.122c.425-.879,1.089-1.278.93-2.341a3.166,3.166,0,0,0,2.643.944,8.779,8.779,0,0,0,1.472,1.781c.554.372,3.026.239,3.2,1.738" transform="translate(-143.722 -1273.401)" fill="#233862"/>
          <path id="Path_886960" data-name="Path 886960" d="M238.083,926.071a21.938,21.938,0,0,1-4.189.709,30.123,30.123,0,0,0-5.739.832,7.849,7.849,0,0,0-1.609.82h0a.456.456,0,0,0-.047.033,5.085,5.085,0,0,0-.665.536,3.39,3.39,0,0,0-.778,1.078c-.442,1.021.144,3.849.519,5.4a1.376,1.376,0,0,1-.77,1.559q-1.272.614-2.5,1.133l-.129.054c.008-.157.011-.313.011-.466a13.454,13.454,0,0,0-.144-1.955,7.987,7.987,0,0,1-1.669,3.135c-11.382,4.265-19.335,2.411-19.2.286.449-7.377,5.776-13.65,5.776-13.65,9.935-10.788,30.032-13.628,30.032-13.628s.963-.108,2.124,1.195c1.671,1.877,1.754,2.366,1.754,2.366s.441,9.517-2.77,10.563" transform="translate(-176.231 -806.394)" fill="#abddda"/>
          <path id="Path_886961" data-name="Path 886961" d="M424.3,954.413a30.154,30.154,0,0,0-5.739.832,20.869,20.869,0,0,1,2.983-12.051s2.268,8.617,2.756,11.219" transform="translate(-366.634 -834.027)" fill="#91cecf"/>
          <path id="Path_886962" data-name="Path 886962" d="M441.247,931.7s-5.59.516-6.038,3.907,5.359,17.2,6.19,18.455c1.514,2.277,10.429,10.082,10.429,10.082l1.643-.93s-6.324-10-7.3-10.932c-1.537-1.469-3.03-19.408-4.922-20.583" transform="translate(-381.242 -823.86)" fill="#ffb27d"/>
          <path id="Path_886963" data-name="Path 886963" d="M439.954,934.5s.574-8.744-6.593-6.63,1.112,17.154,1.112,17.154,4.207-.194,5.7-3.621Z" transform="translate(-377.086 -820.188)" fill="#abddda"/>
          <path id="Path_886964" data-name="Path 886964" d="M373.01,1065.808a1.375,1.375,0,0,1-.77,1.559q-1.272.615-2.5,1.134c-.043-.13-.083-.267-.119-.412a6.716,6.716,0,0,1-.143-1.955c.189-3.265,2.571-5.737,3.792-6.8a3.391,3.391,0,0,0-.778,1.078c-.442,1.02.143,3.849.519,5.4" transform="translate(-323.667 -936.725)" fill="#91cecf"/>
          <path id="Path_886965" data-name="Path 886965" d="M490.067,904.32s.875-1.033,1.466-1c0,0,2.392,3.127,2.411,4.561,0,0-2.983-3.707-3.877-3.562" transform="translate(-429.322 -798.767)" fill="#91cecf"/>
          <path id="Path_886966" data-name="Path 886966" d="M626.5,1162.172s-1.272.021-1.546-.016a8.743,8.743,0,0,0-.992-.157,4.5,4.5,0,0,0-1.018.16.808.808,0,0,1-.151.014h-2.109a1.228,1.228,0,0,1-.443-.442c-.1-.151-.113-.509-.341-.627-1.277-.666,2.122-.289,2.122-.289a14.082,14.082,0,0,1,2.331.1,23.528,23.528,0,0,1,2.148,1.257" transform="translate(-542.813 -1026.365)" fill="#ed985f"/>
          <path id="Path_886967" data-name="Path 886967" d="M628.024,1167.066a10.312,10.312,0,0,1,1.647.573l.372.219s.215-.224-.124-.473c-.179-.131-.672-.515-.688-.956s-1.478-.055-1.207.637" transform="translate(-550.15 -1031.258)" fill="#ed985f"/>
          <path id="Path_886968" data-name="Path 886968" d="M569.319,1203.548a5.256,5.256,0,0,0,1.629.93c.7.162,1.5,2.044,1.632,2.313s-.672-.119-.992-.578-.539-.637-.632-.538a3.328,3.328,0,0,0,.589,2.051c.533.7.853,1.314.469,1.275s-2.666-.558-3.135-1.852-.125-1.34-1.2-2.671,1.643-.93,1.643-.93" transform="translate(-497.09 -1064.197)" fill="#ffb27d"/>
          <path id="Path_886969" data-name="Path 886969" d="M1322.788,642.894c-.009-.231-.2-2.717-4.256-2.847,0,0,1.994.222,2.339,1.041a3.414,3.414,0,0,0-2.464-.686c-1.106.325-1.755,2.135-1.762,2.729s.608,2.513,1.31,2.676a2.291,2.291,0,0,0,.85,0,8.749,8.749,0,0,0-.545.908c-1.618,3.1.051,6.134,1.421,5.8.878-.215,1.127,1.185,1.127,1.185l8.536-6.453s-3.135-6.058-6.557-4.353" transform="translate(-1153.445 -565.966)" fill="#2c3a64"/>
          <path id="Path_886970" data-name="Path 886970" d="M1393.16,836.905a11.227,11.227,0,0,1-1.023,1.791,5.071,5.071,0,0,1-1.828,1.68c-.564-.254-1.58-.628-2.011-.876-1.559-.889-3.782-3.411-5.6-6.114-.277-.413-.545-.828-.8-1.244a1.935,1.935,0,0,1-.138-.231,14.773,14.773,0,0,1-1.47-3.125l3.3-6.584c.012.011,1.025.57,1.918,2.969,1.329,3.569,3.484,8.636,4.98,10.186a11.551,11.551,0,0,0,2.608,1.488h0c.027.037.047.056.06.056" transform="translate(-1209.204 -727.04)" fill="#abddda"/>
          <path id="Path_886971" data-name="Path 886971" d="M1409.151,923.3a5.072,5.072,0,0,1-1.827,1.68c-.564-.254-1.58-.628-2.011-.876-1.559-.889-3.782-3.411-5.6-6.114.068-.85,4.831,3.514,5.436,4.305.456.6,2.814.893,4,1" transform="translate(-1226.217 -811.646)" fill="#91cecf"/>
          <path id="Path_886972" data-name="Path 886972" d="M1460.5,1390.707l-.666,5.749a2.2,2.2,0,0,1-2.453,1.844l-6.156-.62a2.127,2.127,0,0,1-1.975-2.292l.665-5.749a2.18,2.18,0,0,1,2.161-1.855,2.313,2.313,0,0,1,.294.011l6.155.62a2.127,2.127,0,0,1,1.976,2.292" transform="translate(-1269.602 -1227.158)" fill="#2b478b"/>
          <path id="Path_886973" data-name="Path 886973" d="M1457.036,1390.549c-4.357.226-5.246,7.192-5.81,7.135a2.127,2.127,0,0,1-1.975-2.292l.665-5.749a2.181,2.181,0,0,1,2.161-1.856c3.837,1.306,7.15,2.647,4.96,2.761" transform="translate(-1269.602 -1227.163)" fill="#233862"/>
          <path id="Path_886974" data-name="Path 886974" d="M1461.531,785.312l-8.3,43.679-4.681,24.641a2.916,2.916,0,0,1-3.211,2.249l-7.559-.762-1.706-.172a3.9,3.9,0,0,1-3.637-3.968l1.214-23.963,2.243-44.289,15.8,1.593Z" transform="translate(-1254.881 -692.133)" fill="#f7e0cb"/>
          <g id="Group_1112208" data-name="Group 1112208" transform="translate(177.552 90.595)" opacity="0.5">
            <g id="Group_1112207" data-name="Group 1112207">
              <g id="Group_1112206" data-name="Group 1112206" clip-path="url(#clip-path-7)">
                <path id="Path_886975" data-name="Path 886975" d="M1451.7,784.32l-8.057,42.979-4.9,26.162a2.888,2.888,0,0,1-.956,1.657l-1.706-.172a3.9,3.9,0,0,1-3.637-3.968l1.214-23.963,2.242-44.289Z" transform="translate(-1432.434 -782.727)" fill="#efcbab"/>
              </g>
            </g>
          </g>
          <path id="Path_886976" data-name="Path 886976" d="M1486.337,759.536l-.345,2.984-9.832-.991-15.8-1.593.345-2.983,15.9,1.6Z" transform="translate(-1279.342 -669.34)" fill="#e58435"/>
          <path id="Path_886977" data-name="Path 886977" d="M1453.024,1167.354l-4.712,24.8a2.732,2.732,0,0,1-3.007,2.108l-7.119-.718-2.968-.3a3.238,3.238,0,0,1-3.019-3.294l1.244-24.571,10.132,1.022Z" transform="translate(-1254.672 -1030.496)" fill="#f1a34f"/>
          <path id="Path_886978" data-name="Path 886978" d="M1443.576,1166.4l-4.949,26.053a3.011,3.011,0,0,1-.441,1.09l-2.967-.3a3.238,3.238,0,0,1-3.02-3.294l1.244-24.571Z" transform="translate(-1254.673 -1030.496)" fill="#eb9342"/>
          <path id="Path_886979" data-name="Path 886979" d="M1476.605,758.555l-.446,2.973-15.8-1.593.345-2.983Z" transform="translate(-1279.342 -669.341)" fill="#ce732e"/>
          <path id="Path_886980" data-name="Path 886980" d="M1284.814,1052.248l-1.813.63s-7.876-10.2-8.845-19.173c-.173-1.6.182-5,.048-5.724-.062-.339-.139-.746-.227-1.214-.256-1.37-.609-3.244-1.011-5.378-.927-4.911-2.128-11.19-3.06-15.805l.489-.146,5.286-1.593,1.092-3.24,3.936-.968s.879,1.606,1.666,9.194c.145,1,.277,2.093.376,3.283a60.726,60.726,0,0,1-.375,13.291,74.805,74.805,0,0,0-.842,8.107c.4,7.336,3.281,18.736,3.281,18.736" transform="translate(-1112.498 -883.937)" fill="#2b478b"/>
          <path id="Path_886981" data-name="Path 886981" d="M1282.749,1012.115l-8.547,15.867c-.062-.339-.139-.746-.227-1.214-.256-1.37-.608-3.244-1.011-5.378-.927-4.911-2.128-11.19-3.06-15.805l.488-.147,5.286-1.592,1.093-3.24,3.936-.968s.879,1.606,1.665,9.194c.145,1,.277,2.093.376,3.283" transform="translate(-1112.497 -883.938)" fill="#233862"/>
          <path id="Path_886982" data-name="Path 886982" d="M1223.154,987.573l-.2-1.584c-3.315.822-12.172-2.3-12.172-2.3s-3.212,2.636-2.79,8.955c.206,3.084.582,16.189.974,20.067a20.576,20.576,0,0,1-1.228,6c-3.854,9.589.593,21.4.593,21.4l1.154-.435s7.3-24.718,8.055-27.337a142.748,142.748,0,0,0,3.332-16.362c.105,0,2.28-8.4,2.28-8.4" transform="translate(-1056.662 -869.837)" fill="#2b478b"/>
          <path id="Path_886983" data-name="Path 886983" d="M1331.967,764c-5.7.292-4.447-7.641-4.1-7.6.7-.34,1.949-1.992,2.673-4.755l.246.107,4.113,1.805s-.437,1.25-.76,2.445a4.563,4.563,0,0,0-.281,2.093c.324.123.518.2.518.2a.01.01,0,0,0,0,0c.042.1-.891,5.625-2.411,5.7" transform="translate(-1162.96 -664.645)" fill="#ffb27d"/>
          <path id="Path_886984" data-name="Path 886984" d="M1358.081,754.374s-.437,1.248-.759,2.445c-2.4-.626-3.134-2.986-3.354-4.251Z" transform="translate(-1186.141 -665.465)" fill="#ed985f"/>
          <path id="Path_886985" data-name="Path 886985" d="M1356.181,704.971s-5.751-1.243-4.867-4.575.737-5.737,4.446-5.084,4.083,2.089,4.077,3.268-2.138,6.629-3.657,6.392" transform="translate(-1183.736 -614.74)" fill="#ffb27d"/>
          <path id="Path_886986" data-name="Path 886986" d="M1349.944,692.048c-.618-1.208-1.346-1.143-1.8-.929a4.347,4.347,0,0,0-5.353-.427,6.82,6.82,0,0,1-3.231,3.242s.883.845,3.444.826a4.4,4.4,0,0,0,2.284-.8,13.794,13.794,0,0,1-3,2.088c3.205-.573,5.354-4.038,5.575-4.406a4.174,4.174,0,0,1,.834,1.845c.06.915-.278,2.691.284,2.758,0,0,1.89-2.382.962-4.193" transform="translate(-1173.518 -610.1)" fill="#2c3a64"/>
          <path id="Path_886987" data-name="Path 886987" d="M1212.867,1442.031h-9.132a4.389,4.389,0,0,1,.258-2.286c.457-.946,1.173-1.377,1-2.521a3.41,3.41,0,0,0,2.846,1.017,9.46,9.46,0,0,0,1.585,1.918c.6.4,3.258.258,3.442,1.872" transform="translate(-1054.486 -1270.877)" fill="#233862"/>
          <path id="Path_886988" data-name="Path 886988" d="M1370.732,1444.952H1361.6a3.326,3.326,0,0,1,.258-2.286,1.557,1.557,0,0,0-.066-1.963,3.771,3.771,0,0,0,1.538.27,3.366,3.366,0,0,0,1.358-.446,31.624,31.624,0,0,0,2.6,2.553c.6.4,3.258.258,3.442,1.872" transform="translate(-1192.742 -1273.799)" fill="#233862"/>
          <path id="Path_886989" data-name="Path 886989" d="M1228.654,795.141l-1.5,18.778-.916,11.5c-1.409.409-2.75.729-4.022.974a13.216,13.216,0,0,0-.417-2.117,5.95,5.95,0,0,1-1.192,2.391c-11.694,1.749-17.177-3.014-17.177-3.014a118.289,118.289,0,0,1,4.784-19.9c.491-1.487,1-2.914,1.513-4.231a55.794,55.794,0,0,1,2.543-5.768c1.2-2.3,6.561-2.159,6.561-2.159a12.274,12.274,0,0,0,3.87,5.641c1.513-.83,2.639-3.746,2.639-3.746Z" transform="translate(-1054.265 -699.977)" fill="#abddda"/>
          <path id="Path_886990" data-name="Path 886990" d="M1427.425,984.2a9.46,9.46,0,0,1-2.637-.3s2.2-.029,1.734-.679a12.8,12.8,0,0,0-2.4-.029,4.417,4.417,0,0,0-1.676.671c-.886-.109-1.691-.269-1.951-.322a.446.446,0,0,1-.1-.026l-.782,2.127s.165.038.453.09a32.313,32.313,0,0,1,3.636,1.038,3.812,3.812,0,0,0,4.089-.82,2.08,2.08,0,0,0,.725-1.34c-.025-.43-.632-.41-1.092-.412" transform="translate(-1243.65 -869.37)" fill="#ffb27d"/>
          <path id="Path_886991" data-name="Path 886991" d="M1328.864,786.067s-.973.061-1.182.642c0,0,1.27,4.772,3.87,5.641Z" transform="translate(-1163.113 -695.086)" fill="#6bb7bf"/>
          <path id="Path_886992" data-name="Path 886992" d="M1358.9,807.239s2.426-3.768,2.417-4.334c0,0,1,.364.94.944,0,0-2.092,3.129-3.356,3.39" transform="translate(-1190.46 -709.975)" fill="#6bb7bf"/>
          <path id="Path_886993" data-name="Path 886993" d="M1305.172,825.681c.07.226,8.825,13.278,9.016,15.877s-3.682,1.13-3.742.791-5.274-16.669-5.274-16.669" transform="translate(-1143.393 -730.115)" fill="#91cecf"/>
          <path id="Path_886994" data-name="Path 886994" d="M1294.97,858.018l-.916,11.5c-12.525-3.369-13.213-28.047-13.213-28.047l7.741,13.049,6.321,3.412.068.088" transform="translate(-1122.078 -744.076)" fill="#91cecf"/>
          <path id="Path_886995" data-name="Path 886995" d="M1360.949,954.509l-.48,1.64s-.6-.1-1.565-.269c-.288-.052-.453-.09-.453-.09-.769-.14-1.687-.332-2.689-.538h-.014c-1.715-.384-3.636-.845-5.255-1.358-.145-.048-.288-.1-.427-.142-.958-.33.893-4.867,1.73-4.3.222.15.46.3.709.464,1.388.88,3.155,1.861,4.725,2.687.769.41,1.5.782,2.1,1.089.974.5,1.619.82,1.619.82" transform="translate(-1182.487 -839.514)" fill="#ffb27d"/>
          <path id="Path_886996" data-name="Path 886996" d="M1282.995,815.52a5.2,5.2,0,0,1-3.006,4.605c-3.59-1.21-5.511-6.21-6.993-9.644-.206-.474-.4-.948-.589-1.409a33.29,33.29,0,0,1-1.565-4.87,12.932,12.932,0,0,1-.37-2.319,5.2,5.2,0,0,1-.014-.653c.027-3.716,2.841-4.1,3.211-3.677a11.514,11.514,0,0,1,1.468,2.422c.782,1.652,1.6,3.792,2.373,5.919.426,1.166.838,2.332,1.249,3.408.234.653.467,1.268.686,1.832a17.151,17.151,0,0,0,1.152,2.5,6.5,6.5,0,0,0,1.688,1.423c.221.15.46.305.709.464" transform="translate(-1112.977 -705.121)" fill="#abddda"/>
          <path id="Path_886997" data-name="Path 886997" d="M1484.111,948.907c0,.014-.01.02-.018.02l.011-.024c.011-.02.013-.02.007,0" transform="translate(-1300.137 -839.062)" fill="#abddda"/>
          <path id="Path_886998" data-name="Path 886998" d="M640.815,1427.591a2.87,2.87,0,0,1-.937,2.1,3.291,3.291,0,0,1-2.25.875H622.576a3.1,3.1,0,0,1-3.186-2.976,2.875,2.875,0,0,1,.936-2.1,3.3,3.3,0,0,1,2.251-.874h15.051a3.1,3.1,0,0,1,3.187,2.975" transform="translate(-542.615 -1259.728)" fill="#2b478b"/>
          <path id="Path_886999" data-name="Path 886999" d="M633.051,1427.591a2.874,2.874,0,0,1-.936,2.1,3.292,3.292,0,0,1-2.251.875h-7.288a3.1,3.1,0,0,1-3.186-2.976,2.874,2.874,0,0,1,.936-2.1,3.3,3.3,0,0,1,2.251-.874h7.288a3.1,3.1,0,0,1,3.186,2.975" transform="translate(-542.616 -1259.728)" fill="#699ff0"/>
          <g id="Group_1112211" data-name="Group 1112211" transform="translate(80.459 165.548)" opacity="0.4">
            <g id="Group_1112210" data-name="Group 1112210">
              <g id="Group_1112209" data-name="Group 1112209" clip-path="url(#clip-path-8)">
                <path id="Path_887000" data-name="Path 887000" d="M663.921,1431.257H649.565a.439.439,0,0,1-.452-.422v-.1a.439.439,0,0,1,.452-.422h14.356a.439.439,0,0,1,.452.422v.1a.439.439,0,0,1-.452.422" transform="translate(-649.113 -1430.318)" fill="#e9f3fe"/>
              </g>
            </g>
          </g>
          <path id="Path_887001" data-name="Path 887001" d="M542.584,1364.209a2.955,2.955,0,0,1,.181,2.407,3.216,3.216,0,0,1-1.688,1.827l-14.266,6.675a3.5,3.5,0,0,1-4.534-1.408,2.958,2.958,0,0,1-.182-2.407,3.221,3.221,0,0,1,1.689-1.826l14.266-6.675a3.5,3.5,0,0,1,4.534,1.406" transform="translate(-457.229 -1204.775)" fill="#ef7e29"/>
          <path id="Path_887002" data-name="Path 887002" d="M535.226,1393.958a2.958,2.958,0,0,1,.182,2.407,3.217,3.217,0,0,1-1.688,1.827l-6.908,3.232a3.5,3.5,0,0,1-4.534-1.408,2.959,2.959,0,0,1-.182-2.407,3.222,3.222,0,0,1,1.689-1.827l6.908-3.232a3.5,3.5,0,0,1,4.533,1.407" transform="translate(-457.23 -1231.081)" fill="#f99746"/>
          <g id="Group_1112214" data-name="Group 1112214" transform="translate(67.527 158.492)" opacity="0.5">
            <g id="Group_1112213" data-name="Group 1112213">
              <g id="Group_1112212" data-name="Group 1112212" clip-path="url(#clip-path-9)">
                <path id="Path_887003" data-name="Path 887003" d="M559.135,1370.3l-13.607,6.368a.5.5,0,0,1-.643-.2l-.048-.09a.435.435,0,0,1,.214-.6l13.607-6.367a.5.5,0,0,1,.643.2l.048.09a.435.435,0,0,1-.214.6" transform="translate(-544.787 -1369.362)" fill="#ffe2cc"/>
              </g>
            </g>
          </g>
          <path id="Path_887004" data-name="Path 887004" d="M1963.131,789.707a.863.863,0,0,1,.173.973.006.006,0,0,1,0,0,6.207,6.207,0,0,1-2.046,2.1c-.124.093-.233.177-.328.256-.025.02-.05.041-.074.062l-.057.048c-.9.774-.561.952-2.177,2.522-1.842,1.79-3.111,1.822-3.471,1.659-.305-.139.315-1.088,1-2.155l.1-.156c.091-.142.182-.286.273-.428.806-1.284.6-1.887.408-3.8-.155-1.553-2.587-8.676-2.587-8.676l3.531-.568s1.063,5.672,2.234,6.545a14.45,14.45,0,0,0,1.93.817c.042.024.084.049.125.074a4.589,4.589,0,0,1,.966.725" transform="translate(-1712.1 -691.088)" fill="#ffb27d"/>
          <path id="Path_887005" data-name="Path 887005" d="M1968.249,845.952a.863.863,0,0,1,.173.973.007.007,0,0,1,0,0,7.2,7.2,0,0,1-2.049,2.089c-.122.094-.229.181-.325.262-.025.02-.051.041-.074.062l-.057.048c-.9.774-.561.952-2.177,2.522-1.842,1.79-3.111,1.822-3.471,1.659-.305-.139.315-1.088,1-2.155a7.881,7.881,0,0,0,3.284-2.26c1.109-1.322,1.849-3.02,2.6-4q.064.036.125.074a4.593,4.593,0,0,1,.966.725" transform="translate(-1717.218 -747.333)" fill="#233862"/>
          <path id="Path_887006" data-name="Path 887006" d="M1720.674,779.983c-.218,1.018-1.771.848-3.507.452s-1.323.075-3.793-.18-3.218-1.115-3.293-1.458c-.068-.3,1.153-.412,2.462-.552.165-.017.33-.036.5-.055,1.478-.173,2.56-1.064,3.9-1.8,1.272-.693,3.169-3.515,3.169-3.515l3.387.251s-1.777,2.521-2.465,3.617a3.6,3.6,0,0,0-.333,2.155,3.8,3.8,0,0,1-.026,1.082" transform="translate(-1498.11 -683.424)" fill="#ffb27d"/>
          <path id="Path_887007" data-name="Path 887007" d="M1717.167,821.428c-1.736-.4-1.323.075-3.793-.181s-3.218-1.115-3.293-1.458c-.068-.3,1.153-.412,2.462-.552l.012.024a7.287,7.287,0,0,0,3.537,1.027c1.676.038,3.451-.41,4.608-.393a3.8,3.8,0,0,1-.026,1.082c-.218,1.018-1.771.848-3.507.452" transform="translate(-1498.11 -724.417)" fill="#233862"/>
          <path id="Path_887008" data-name="Path 887008" d="M1900.289,620.789l3.167,7.956,4.134,10.389a7.158,7.158,0,0,0,2.2-.187,9.8,9.8,0,0,0,2.124-.965s-1.148-11.154-3.289-17.558a11.083,11.083,0,0,0-1.842-3.721c-3.32-3.663-6.489,4.087-6.489,4.087" transform="translate(-1664.745 -544.454)" fill="#233862"/>
          <path id="Path_887009" data-name="Path 887009" d="M1793.923,538.214c2.074-.625,7.991.177,13.935,1.264l1.244-1.917,12.838-.936s4.236,8.772,1.917,14.362a2.17,2.17,0,0,1-2.173,1.366h-.187s-7.641,0-10.122,0c-6.385,0-13.512-4.1-14.434-4.27-1.509-.282-2.113,2.536-3.622,5.5s-14.186,13.105-14.186,13.105a11.914,11.914,0,0,1-2.753-.264,2.723,2.723,0,0,1-1.182-.7s14.046-26.1,18.725-27.5" transform="translate(-1555.159 -474.515)" fill="#2b478b"/>
          <path id="Path_887010" data-name="Path 887010" d="M2001.68,252.951a141.977,141.977,0,0,0,13.857,8.38s3.125,1.748,5.257.89c3.553-1.43,6.282-6.434,1.367-11.972-2.451-2.762-4.483-3.671-4.006-7.343.517-3.978-1.406-8.979-6.31-9.189a14.48,14.48,0,0,0-4.665.192c-4.516,1.324-12.069,17-5.5,19.042" transform="translate(-1751.313 -206.571)" fill="#233862"/>
          <path id="Path_887011" data-name="Path 887011" d="M2052.182,382.154c-.264.681-7.206,1.289-11.155,1.044a5.728,5.728,0,0,1-2.549-.514c-1.409-1.142-1.268,1.37-1.462-10.653-.093-5.865,5.329-11.087,5.329-11.087s.433,2.505,5.811-.476c.191-.1,2.309,2.824,4.348,6.43,2.246,3.984-.053,14.557-.323,15.257" transform="translate(-1784.524 -318.743)" fill="#abddda"/>
          <path id="Path_887012" data-name="Path 887012" d="M1925.835,664.691l4.134,10.389a7.157,7.157,0,0,0,2.2-.187,9.8,9.8,0,0,0,2.124-.965s-1.148-11.155-3.289-17.558Z" transform="translate(-1687.124 -580.399)" fill="#2b478b"/>
          <path id="Path_887013" data-name="Path 887013" d="M1970.694,364.6s-4.91,1.125-6.183,3.1c-1.551,2.406-9.285,13.257-9.285,13.257s7.625,2.518,8.924,1.3S1968.672,371,1968.672,371Z" transform="translate(-1712.872 -322.397)" fill="#abddda"/>
          <path id="Path_887014" data-name="Path 887014" d="M2081.613,328.905a13.4,13.4,0,0,1-3.448,2.222c-.574.2-1.529.41-1.529.41l-.777-.733c-.681-.593,0-.765-.1-1.887-.006-.053-.01-.108-.017-.162a19.073,19.073,0,0,0-.551-2.72.009.009,0,0,1,0,0l4.751-1.269-.153.245c.293,2.3,1.179,3.83,1.824,3.9" transform="translate(-1817.967 -287.174)" fill="#ffb27d"/>
          <path id="Path_887015" data-name="Path 887015" d="M2079.942,324.763a5.2,5.2,0,0,1-4.281,3.392,20.067,20.067,0,0,0-.469-2.12.009.009,0,0,1,0,0Z" transform="translate(-1817.967 -287.174)" fill="#ed975d"/>
          <path id="Path_887016" data-name="Path 887016" d="M2049.345,268.567s6.4-.4,6.078-4.118.28-6.277-3.823-6.18-4.772,1.577-4.986,2.843,1.057,7.463,2.731,7.455" transform="translate(-1792.912 -228.374)" fill="#ffb27d"/>
          <path id="Path_887017" data-name="Path 887017" d="M2059.527,251.579s1.591,4.36,5.369,4.867c2.756.37,3.851-.326,3.851-.326a10.1,10.1,0,0,1-2.372-3.465,1.922,1.922,0,0,0-1.525-1.17c-1.962-.283-4.494-1.5-5.323.094" transform="translate(-1804.245 -221.75)" fill="#233862"/>
          <path id="Path_887018" data-name="Path 887018" d="M2046.338,258.236a4.094,4.094,0,0,0-1.941,2.025,7.146,7.146,0,0,0-.482,3.8s-1.841-3.978-.508-5.771a1.756,1.756,0,0,1,2.931-.055" transform="translate(-1789.698 -227.636)" fill="#233862"/>
          <path id="Path_887019" data-name="Path 887019" d="M2073.176,360.654s.392,2.208.877,2.62a3.328,3.328,0,0,1-1.811-1.906s.43-.663.934-.714" transform="translate(-1815.384 -318.911)" fill="#6bb7bf"/>
          <path id="Path_887020" data-name="Path 887020" d="M2020.493,425.464s-3.576,4.006-3.136,5.457,2.917,1.451,2.917,1.451a14.979,14.979,0,0,1,0-4.7c.463-1.609.753-2.3.219-2.208" transform="translate(-1767.268 -376.212)" fill="#91cecf"/>
          <path id="Path_887021" data-name="Path 887021" d="M2127,454.88s2.759-1.829,2.692-3.533,0-4.829.485-4.391,2.011,3.949,1.864,4.943-1.335,3.948-1.966,4.074S2127,454.88,2127,454.88" transform="translate(-1863.356 -395.188)" fill="#91cecf"/>
          <path id="Path_887022" data-name="Path 887022" d="M2045.239,559.514s3.877,11.318,13.714,12.664c0,0,3.491-3.2,3.183-10.43s-16.9-2.234-16.9-2.234" transform="translate(-1791.728 -493.266)" fill="#abddda"/>
          <path id="Path_887023" data-name="Path 887023" d="M1657.32,377.207l-1.88,4.836a2.637,2.637,0,0,1-3.309,1.444l-49.55-16.791a39.809,39.809,0,0,1-6.57-2.908l-6.7-3.726-8.681-4.828a28.627,28.627,0,0,0-4.735-2.1l-11.093-3.759a.727.727,0,0,1-.474-.948.76.76,0,0,1,.409-.418.841.841,0,0,1,.605-.025l9.062,3.071a53.5,53.5,0,0,0,9.236,2.236l7.843,1.175,8.141,1.219a35.725,35.725,0,0,1,6.175,1.5l49.97,16.933a2.371,2.371,0,0,1,1.547,3.09" transform="translate(-1370.386 -307.672)" fill="#aec3ff"/>
          <path id="Path_887024" data-name="Path 887024" d="M1834.191,427.065l-1.88,4.836a2.636,2.636,0,0,1-3.309,1.444l-49.549-16.791a39.792,39.792,0,0,1-6.57-2.908l-6.7-3.726a7.457,7.457,0,0,1,.493-3,7.857,7.857,0,0,1,1.681-2.595l8.141,1.219a35.73,35.73,0,0,1,6.175,1.495l49.97,16.933a2.371,2.371,0,0,1,1.547,3.09" transform="translate(-1547.258 -357.53)" fill="#cde0fb"/>
          <path id="Path_887025" data-name="Path 887025" d="M2240.291,563.28l-1.879,4.836a2.636,2.636,0,0,1-3.309,1.444l-5.365-1.818,3.642-9.37,5.365,1.818a2.371,2.371,0,0,1,1.546,3.09" transform="translate(-1953.358 -493.746)" fill="#f99746"/>
          <path id="Path_887042" data-name="Path 887042" d="M0,0,3.6.081l.308,14.375-3.6-.081Z" transform="translate(240.331 58.342) rotate(-70.054)" fill="#8fadef"/>
          <path id="Path_887026" data-name="Path 887026" d="M1570.708,349.806l-.541,1.391-5.363-1.817a.727.727,0,0,1-.474-.948.759.759,0,0,1,.409-.418.841.841,0,0,1,.605-.025Z" transform="translate(-1370.386 -307.672)" fill="#2b478b"/>
          <path id="Path_887027" data-name="Path 887027" d="M1858.954,491.716s-.146-2,.665-1.924c.995.1,2.051,2.3,1.566,2.726s-2.221-.308-2.231-.8" transform="translate(-1628.524 -433.1)" fill="#ffb27d"/>
          <path id="Path_887028" data-name="Path 887028" d="M2126.9,360.495s5.081.31,6.352,2.161,5.35,12.391,4.69,15.617-9.9,8.653-9.9,8.653l-.982-1.975s5.406-8.317,4.9-9.469c-1.885-4.255-5.053-14.987-5.053-14.987" transform="translate(-1863.271 -318.77)" fill="#abddda"/>
          <path id="Path_887029" data-name="Path 887029" d="M2095.426,570.6l-1.21-.677a3.318,3.318,0,0,0-1.191-.221c-.442.059-1.491-.114-1.525.046s1.083.845,1.083.845l.04-.008c-.627.9-3.01,1.1-3.183,1.438-.209.41.816.795,1.372,1.017a3.448,3.448,0,0,0,2.8-.156c.6-.426,1.587-.987,1.587-.987Z" transform="translate(-1830.426 -503.743)" fill="#ffb27d"/>
          <path id="Path_887030" data-name="Path 887030" d="M2090.83,351.713s-2.813,3.3-3.978,3.655a8.282,8.282,0,0,0,5.64-2.577s-.78-1.068-1.662-1.078" transform="translate(-1828.183 -311.005)" fill="#6bb7bf"/>
          <path id="Path_887031" data-name="Path 887031" d="M1711.111,1067.6v31.888a5.954,5.954,0,0,1-6.148,5.742h-16.429a5.955,5.955,0,0,1-6.149-5.742V1067.6a5.549,5.549,0,0,1,1.8-4.062,6.354,6.354,0,0,1,4.348-1.681,1.586,1.586,0,0,0,1.514-1.034,1.406,1.406,0,0,0,.073-.446v-3.007a1.031,1.031,0,0,1,.077-.4,1.217,1.217,0,0,1,1.142-.743h10.976a1.117,1.117,0,0,1,.568.154.98.98,0,0,1,.494.839v3.155a1.535,1.535,0,0,0,1.585,1.48,5.954,5.954,0,0,1,6.148,5.743" transform="translate(-1473.851 -933.976)" fill="#5a98e2"/>
          <path id="Path_887032" data-name="Path 887032" d="M1749.8,1067.6v31.888a5.954,5.954,0,0,1-6.148,5.742H1732.7a5.955,5.955,0,0,1-6.149-5.742V1067.6a5.549,5.549,0,0,1,1.8-4.062,6.354,6.354,0,0,1,4.349-1.681,1.585,1.585,0,0,0,1.514-1.034,1.4,1.4,0,0,0,.073-.446v-3.007a1.05,1.05,0,0,1,.077-.4,1.217,1.217,0,0,1,1.142-.743h5.5a1.119,1.119,0,0,1,.568.154.98.98,0,0,1,.494.839v3.155a1.534,1.534,0,0,0,1.585,1.48,5.954,5.954,0,0,1,6.148,5.743" transform="translate(-1512.542 -933.976)" fill="#7babef"/>
          <path id="Path_887033" data-name="Path 887033" d="M1750.521,1053.621h-15.1v-2.691a2.171,2.171,0,0,1,2.242-2.093h10.621a2.172,2.172,0,0,1,2.242,2.093Z" transform="translate(-1520.309 -927.443)" fill="#f99746"/>
          <rect id="Rectangle_406643" data-name="Rectangle 406643" width="28.725" height="11.731" transform="translate(208.535 138.625)" fill="#005865"/>
          <path id="Path_887034" data-name="Path 887034" d="M1867.035,1379.027a4.075,4.075,0,0,1-3.878,3.938l-46.95,3.724a4.3,4.3,0,0,1-4.111-2.108h0a3.732,3.732,0,0,1-.37-.933,3.645,3.645,0,0,1-.1-.563,3.682,3.682,0,0,1,.14-1.4,1.493,1.493,0,0,1,.05-.152,3.639,3.639,0,0,1,.337-.723,4.266,4.266,0,0,1,3.335-2l46.95-3.724a4.2,4.2,0,0,1,4.5,3.117,3.479,3.479,0,0,1,.078.487c.01.113.016.226.016.338" transform="translate(-1587.06 -1215.916)" fill="#eac3a2"/>
          <path id="Path_887035" data-name="Path 887035" d="M1780.865,1431.814a1.508,1.508,0,0,1-.723,1.267,1.7,1.7,0,0,1-.776.255l-.868.068h0l-3.46.274a1.662,1.662,0,0,1-1.6-.828,1.413,1.413,0,0,1-.173-.565,1.564,1.564,0,0,1,1.494-1.652l3.38-.268.08-.006.868-.068c.05,0,.1-.006.145-.006a1.6,1.6,0,0,1,1.625,1.4,1.192,1.192,0,0,1,.006.131" transform="translate(-1553.462 -1264.74)" fill="#eac3a2"/>
          <path id="Path_887036" data-name="Path 887036" d="M1867.83,1378.2a4.17,4.17,0,0,1-3.72,2.877l-46.95,3.725a4.442,4.442,0,0,1-2.531-.547,4.129,4.129,0,0,1-1.214-1.017,3.785,3.785,0,0,1-.756-1.553c-.011-.048-.022-.1-.03-.146l.079-.006a3.632,3.632,0,0,1,.337-.723,4.267,4.267,0,0,1,3.335-2l46.95-3.724a4.2,4.2,0,0,1,4.5,3.117" transform="translate(-1587.95 -1215.916)" fill="#f9ddbf"/>
          <path id="Path_887037" data-name="Path 887037" d="M1779.413,1426.028a1.475,1.475,0,0,1-.485,1.083,1.658,1.658,0,0,1-.8.408,1.958,1.958,0,0,1-.212.03l-4.329.343c-.049,0-.1.006-.145.006a1.4,1.4,0,0,1-.172-.565,1.565,1.565,0,0,1,1.494-1.652l3.38-.268.08-.006a3.617,3.617,0,0,1,.337-.723,1.587,1.587,0,0,1,.677.648,1.41,1.41,0,0,1,.172.565,1.222,1.222,0,0,1,.007.131" transform="translate(-1553.462 -1259.789)" fill="#f9ddbf"/>
          <path id="Path_887038" data-name="Path 887038" d="M2241.444,1361.216a4.747,4.747,0,0,1-4.508,4.66l-15.577,1.237-.164-9.221.054,0,14.852-1.179a4.963,4.963,0,0,1,5.054,3.038,4.252,4.252,0,0,1,.271,1.156c.009.1.014.208.017.313" transform="translate(-1945.874 -1199.666)" fill="#233862"/>
          <path id="Path_887039" data-name="Path 887039" d="M2241.537,1359.747a4.895,4.895,0,0,1-4.219,3.046l-15.577,1.237-.11-6.142,14.852-1.179a4.962,4.962,0,0,1,5.054,3.038" transform="translate(-1946.256 -1199.666)" fill="#2b478b"/>
          <path id="Path_887040" data-name="Path 887040" d="M2197.91,1352.631l-1.015-11.156a2.32,2.32,0,0,1,2.214-2.451l.32-.025a2.385,2.385,0,0,1,2.625,2.067l1.015,11.156a2.319,2.319,0,0,1-2.214,2.451l-.321.025a2.385,2.385,0,0,1-2.625-2.067" transform="translate(-1924.578 -1184.013)" fill="#f99746"/>
          <path id="Path_887041" data-name="Path 887041" d="M418.67,1476.431H57.41a.494.494,0,0,1-.509-.475v-.428a.494.494,0,0,1,.509-.475H418.67a.494.494,0,0,1,.509.475v.428a.494.494,0,0,1-.509.475" transform="translate(-49.848 -1304.328)" fill="#2e3552"/>
        </g>
      </g>
    </g>
  </g>
</svg>
