<svg xmlns="http://www.w3.org/2000/svg" xmlns:xlink="http://www.w3.org/1999/xlink" width="99" height="99" viewBox="0 0 99 99">
  <defs>
    <clipPath id="clip-path">
      <rect id="Rectangle_401223" data-name="Rectangle 401223" width="99" height="99" transform="translate(0)" fill="#844804"/>
    </clipPath>
    <clipPath id="clip-path-2">
      <rect id="Rectangle_401223-2" data-name="Rectangle 401223" width="88.539" height="88.539" fill="#f3f9ff"/>
    </clipPath>
    <clipPath id="clip-path-3">
      <rect id="Rectangle_406585" data-name="Rectangle 406585" width="66.75" height="68.348" transform="translate(0 -15)" fill="none"/>
    </clipPath>
  </defs>
  <g id="Group_1109773" data-name="Group 1109773" transform="translate(-619.921 -5755.871)">
    <g id="Group_1100724" data-name="Group 1100724" transform="translate(619.921 5755.871)">
      <g id="Group_1099654" data-name="Group 1099654" transform="translate(0 0)">
        <g id="Group_1099652" data-name="Group 1099652" clip-path="url(#clip-path)">
          <path id="Path_873521" data-name="Path 873521" d="M99,77.066A22,22,0,0,1,77.066,99H21.934A22,22,0,0,1,0,77.066V21.933A22,22,0,0,1,21.934,0H77.066A22,22,0,0,1,99,21.934Z" transform="translate(0)" fill="#005865"/>
        </g>
      </g>
      <g id="Group_1099659" data-name="Group 1099659" transform="translate(4.77 5.723)">
        <g id="Group_1099652-2" data-name="Group 1099652" transform="translate(0 0)" clip-path="url(#clip-path-2)">
          <path id="Path_873521-2" data-name="Path 873521" d="M88.539,68.922A19.674,19.674,0,0,1,68.923,88.539H19.616A19.674,19.674,0,0,1,0,68.922V19.616A19.674,19.674,0,0,1,19.616,0H68.923A19.674,19.674,0,0,1,88.539,19.616Z" fill="#f3f9ff"/>
        </g>
      </g>
    </g>
    <g id="Group_1100725" data-name="Group 1100725" transform="translate(636.343 5771.293)">
      <rect id="Rectangle_401104" data-name="Rectangle 401104" width="68" height="69" transform="translate(-0.422 0.438)" fill="none"/>
      <g id="Group_1112105" data-name="Group 1112105" transform="translate(0.578 13.438)">
        <rect id="Rectangle_406584" data-name="Rectangle 406584" width="7.84" height="13.64" transform="translate(26.46 15.961)" fill="#c59d82"/>
        <g id="Group_1112104" data-name="Group 1112104">
          <g id="Group_1112103" data-name="Group 1112103" clip-path="url(#clip-path-3)">
            <path id="Path_886647" data-name="Path 886647" d="M196.983,25.953c-.2-.055-.3-.231-.439-.354a9.76,9.76,0,0,0-2.3-1.48c-.636-.3-1.327-.391-1.97-.645a2.435,2.435,0,0,1,.194-.753c.212-.7.389-1.4.572-2.106.189-.727.378-1.457.57-2.183.217-.819.437-1.64.675-2.455.3-1.03.6-2.062.815-3.112.134-.67.381-1.3.529-1.966a23.224,23.224,0,0,1,.677-2.4,4.539,4.539,0,0,0,.108-.61c.1-.511.3-.99.424-1.493a3.139,3.139,0,0,1,2.474-2.351,4.289,4.289,0,0,1,1.343.049c.381.08.755.249,1.139.352,1.055.283,2.111.567,3.172.826.506.123.992.334,1.5.42.806.138,1.558.448,2.353.619.872.187,1.721.474,2.589.686.648.158,1.276.383,1.931.52.7.148,1.389.372,2.077.58a12.483,12.483,0,0,1,1.426.4,2.872,2.872,0,0,1,1.656,1.8,3.306,3.306,0,0,1,.038,1.841c-.2.856-.453,1.7-.691,2.546-.123.438-.175.9-.315,1.329a8.9,8.9,0,0,0-.287.964c-.126.624-.371,1.216-.445,1.857-.029.253-.226.507-.278.774-.153.79-.4,1.556-.6,2.33-.19.71-.352,1.429-.586,2.13-.166.5-.223,1.033-.4,1.533-.119.345-.163.7-.264,1.052-.217.738-.441,1.474-.634,2.219-.274,1.057-.58,2.107-.842,3.166-.335,1.355-.732,2.693-1.081,4.044-.31,1.2-.65,2.393-.969,3.591-.329,1.238-.626,2.485-.98,3.715a6.449,6.449,0,0,1-.566,1.641,3.015,3.015,0,0,1-1.75,1.388,3.275,3.275,0,0,1-1.71-.02c-.672-.143-1.313-.384-1.981-.538-.834-.193-1.652-.456-2.485-.656a21.466,21.466,0,0,0-2.548-.62c-.143-.016-.167-.134-.2-.24a1.261,1.261,0,0,1,.207-.016c.2.017.266-.088.266-.264q0-.509,0-1.019,0-5.212,0-10.423a9.22,9.22,0,0,0-.156-1.96c-.033-.154.055-.263.1-.39a.365.365,0,0,0,.227-.164,2.648,2.648,0,0,0-2.382-4.339c-.106.011-.206.05-.2.19M211.8,22.172a2.622,2.622,0,0,0-5.236-.213,2.621,2.621,0,1,0,5.236.213m-5.01,6.094a2.573,2.573,0,0,0-2.58,2.572,2.7,2.7,0,0,0,2.665,2.652,2.793,2.793,0,0,0,2.6-2.611,2.651,2.651,0,0,0-2.686-2.613m.3,11.282a2.642,2.642,0,0,0-2.4-2.622,2.7,2.7,0,0,0-2.8,2.627,2.67,2.67,0,0,0,2.614,2.622,2.564,2.564,0,0,0,2.582-2.627m-4.606-19.882a2.6,2.6,0,1,0-2.576,2.623,2.481,2.481,0,0,0,2.576-2.623m-2.83-8.7A2.643,2.643,0,0,0,202.3,13.6a2.727,2.727,0,0,0,2.594-2.664A2.648,2.648,0,0,0,202.008,8.4a2.558,2.558,0,0,0-2.355,2.563M214.1,13.489a2.607,2.607,0,1,0-5.214-.043,2.607,2.607,0,1,0,5.214.043" transform="translate(-151.9 -3.171)" fill="#dde2e6"/>
            <path id="Path_886648" data-name="Path 886648" d="M21.893,30.587a.574.574,0,0,1-.448.159,7.946,7.946,0,0,0-2.792.679,8.288,8.288,0,0,0-3.917,3.34,7.079,7.079,0,0,0-.711,1.447.768.768,0,0,1-.238.424c-.331.005-.662.014-.993.015q-5.023,0-10.046,0A2.967,2.967,0,0,1,1,36.2a2.286,2.286,0,0,1-.778-2.872c.459-.947.954-1.878,1.425-2.819.487-.971.959-1.95,1.449-2.921.619-1.227,1.261-2.444,1.87-3.676a10.7,10.7,0,0,0,.674-1.411c.05-.153.188-.262.258-.415.267-.584.513-1.181.834-1.735.394-.68.692-1.4,1.053-2.1.49-.941.962-1.892,1.43-2.845a6.784,6.784,0,0,1,.8-1.391,2.74,2.74,0,0,1,2.2-.68,2.83,2.83,0,0,1,1.844,1.764,10.623,10.623,0,0,0,.731,1.371,4.863,4.863,0,0,1,.383.773c.315.763.727,1.476,1.086,2.216.5,1.028,1.016,2.047,1.532,3.067q1.345,2.664,2.7,5.324c.224.442.434.89.66,1.331.242.47.495.933.744,1.4M10.8,23.53h0c0,1.4-.005,2.8,0,4.2a.924.924,0,0,0,1.3.789,1.161,1.161,0,0,0,.633-1.141q.014-3.813,0-7.626a1.876,1.876,0,0,0-.137-.707.887.887,0,0,0-1.123-.592.907.907,0,0,0-.678.894q0,2.089,0,4.178m2.465,7.884a1.494,1.494,0,0,0-1.53-1.624,1.592,1.592,0,0,0-1.619,1.593,1.538,1.538,0,0,0,1.636,1.54,1.465,1.465,0,0,0,1.513-1.509" transform="translate(0 -10.509)" fill="#ffc041"/>
            <path id="Path_886649" data-name="Path 886649" d="M101.337,15.824C101.3,6.988,107.906.175,115.569,0c8.662-.194,15.07,7.319,15.034,15.741-.038,9-6.464,15.73-14.546,15.833-8.046.1-14.734-7.062-14.721-15.752" transform="translate(-85.52 -13.895)" fill="#ecba91"/>
            <path id="Path_886650" data-name="Path 886650" d="M63.684,194.432a.227.227,0,0,1,.012.041s-.01.011-.016.017c0-.019,0-.039,0-.058" transform="translate(-50.308 -153.603)" fill="#dde2e6"/>
            <path id="Path_886651" data-name="Path 886651" d="M214.69,107.719c-.008-.14.091-.18.2-.19a2.648,2.648,0,0,1,2.382,4.339.365.365,0,0,1-.227.164c-.105-.01-.131-.075-.152-.173a8.364,8.364,0,0,0-1.884-3.795c-.1-.117-.21-.23-.316-.344" transform="translate(-169.606 -84.936)" fill="#e24773"/>
            <path id="Path_886652" data-name="Path 886652" d="M265.545,80.593a2.622,2.622,0,1,1-2.6-2.629,2.614,2.614,0,0,1,2.6,2.629" transform="translate(-205.645 -61.591)" fill="#e24773"/>
            <path id="Path_886653" data-name="Path 886653" d="M251.682,119.462a2.65,2.65,0,0,1,2.686,2.613,2.793,2.793,0,0,1-2.6,2.611,2.7,2.7,0,0,1-2.665-2.652,2.573,2.573,0,0,1,2.58-2.572" transform="translate(-196.792 -94.367)" fill="#e24773"/>
            <path id="Path_886654" data-name="Path 886654" d="M243.269,163.346a2.565,2.565,0,0,1-2.582,2.627,2.67,2.67,0,0,1-2.614-2.622,2.7,2.7,0,0,1,2.8-2.627,2.642,2.642,0,0,1,2.4,2.622" transform="translate(-188.079 -126.968)" fill="#e24773"/>
            <path id="Path_886655" data-name="Path 886655" d="M221.321,68.783a2.481,2.481,0,0,1-2.576,2.623,2.61,2.61,0,1,1,2.576-2.623" transform="translate(-170.738 -52.287)" fill="#e24773"/>
            <path id="Path_886656" data-name="Path 886656" d="M227.368,27.479a2.557,2.557,0,0,1,2.355-2.563,2.648,2.648,0,0,1,2.887,2.533,2.727,2.727,0,0,1-2.594,2.664,2.643,2.643,0,0,1-2.647-2.634" transform="translate(-179.615 -19.684)" fill="#e24773"/>
            <path id="Path_886657" data-name="Path 886657" d="M276.591,39.231A2.607,2.607,0,1,1,274.01,36.6a2.565,2.565,0,0,1,2.581,2.632" transform="translate(-214.389 -28.912)" fill="#e24773"/>
            <path id="Path_886658" data-name="Path 886658" d="M51.433,42.817q0-2.089,0-4.178a.907.907,0,0,1,.678-.894.887.887,0,0,1,1.123.592,1.872,1.872,0,0,1,.137.707q.007,3.813,0,7.626a1.161,1.161,0,0,1-.633,1.141.925.925,0,0,1-1.3-.789c-.008-1.4,0-2.8,0-4.2Z" transform="translate(-40.632 -29.796)" fill="#e24773"/>
            <path id="Path_886659" data-name="Path 886659" d="M51.325,93.442a1.465,1.465,0,0,1-1.513,1.509,1.538,1.538,0,0,1-1.636-1.54A1.592,1.592,0,0,1,49.8,91.818a1.494,1.494,0,0,1,1.53,1.624" transform="translate(-38.059 -72.537)" fill="#e24773"/>
            <path id="Path_886646" data-name="Path 886646" d="M74.149,95.613c.083.212.243.166.391.166,1.266,0,2.533,0,3.8,0a.837.837,0,0,1,.683.339c.786.924,1.563,1.863,2.384,2.742,1,1.069,1.948,2.2,2.922,3.3.325.367.39.373.706.012q1.6-1.828,3.2-3.663,1.084-1.242,2.165-2.49a.61.61,0,0,1,.488-.239c1.535,0,3.069-.006,4.6.015.468.006.935.1,1.4.148.791.369,1.641.5,2.424.936a11.989,11.989,0,0,1,2.828,2.147c.174.179.3.434.54.514.13.166.262.33.389.5a13.085,13.085,0,0,1,2.319,5.506c.027.142.058.236.188.252a1.156,1.156,0,0,0-.119.566,15.717,15.717,0,0,1,.192,2.843q0,7.561,0,15.123,0,.739,0,1.478c0,.257-.084.408-.327.384a1.3,1.3,0,0,0-.255.024c-1.663-.008-3.327-.023-4.99-.021-1.33,0-2.661.064-3.99.043-6.331-.1-12.662-.013-18.993-.044-1,0-2,.083-2.992.053-3.369-.1-6.738-.029-10.107-.05-.247,0-.369-.082-.335-.387.007-.008.02-.017.02-.024a.385.385,0,0,0-.015-.06q0-6.822.009-13.645c0-1.136.034-2.274.022-3.408a26.981,26.981,0,0,1,.474-4.277,1.179,1.179,0,0,0,.294-.616,11.145,11.145,0,0,1,.874-2.1,10.736,10.736,0,0,1,3.012-3.706,9.266,9.266,0,0,1,1.808-1.139,8.584,8.584,0,0,1,3.436-.986.645.645,0,0,0,.551-.23" transform="translate(-54.224 -75.535)" fill="#57bee1"/>
          </g>
        </g>
      </g>
    </g>
  </g>
</svg>
