<svg xmlns="http://www.w3.org/2000/svg" xmlns:xlink="http://www.w3.org/1999/xlink" width="139.001" height="139.131" viewBox="0 0 139.001 139.131">
  <defs>
    <clipPath id="clip-path">
      <rect id="Rectangle_400938" data-name="Rectangle 400938" width="132.745" height="132.745" fill="none"/>
    </clipPath>
    <clipPath id="clip-path-2">
      <path id="Path_873460" data-name="Path 873460" d="M0,1.637A1.69,1.69,0,0,0,1.74,3.273,1.69,1.69,0,0,0,3.48,1.637,1.69,1.69,0,0,0,1.74,0,1.69,1.69,0,0,0,0,1.637" transform="translate(0)" fill="#005865"/>
    </clipPath>
    <clipPath id="clip-path-3">
      <path id="Path_873466" data-name="Path 873466" d="M0,1.637A1.69,1.69,0,0,0,1.741,3.273,1.69,1.69,0,0,0,3.48,1.637,1.69,1.69,0,0,0,1.741,0,1.69,1.69,0,0,0,0,1.637" fill="#005865"/>
    </clipPath>
    <clipPath id="clip-path-4">
      <path id="Path_873467" data-name="Path 873467" d="M0,1.637A1.69,1.69,0,0,0,1.741,3.273a1.69,1.69,0,0,0,1.74-1.636A1.69,1.69,0,0,0,1.741,0,1.69,1.69,0,0,0,0,1.637" transform="translate(0 0)" fill="#005865"/>
    </clipPath>
    <clipPath id="clip-path-6">
      <path id="Path_873469" data-name="Path 873469" d="M0,1.637A1.69,1.69,0,0,0,1.741,3.273,1.69,1.69,0,0,0,3.48,1.637,1.69,1.69,0,0,0,1.741,0,1.69,1.69,0,0,0,0,1.637" transform="translate(0 0)" fill="#005865"/>
    </clipPath>
    <clipPath id="clip-path-8">
      <path id="Path_873472" data-name="Path 873472" d="M0,1.637A1.69,1.69,0,0,0,1.741,3.273,1.69,1.69,0,0,0,3.481,1.637,1.69,1.69,0,0,0,1.741,0,1.69,1.69,0,0,0,0,1.637" transform="translate(0 0)" fill="#005865"/>
    </clipPath>
    <clipPath id="clip-path-9">
      <path id="Path_873473" data-name="Path 873473" d="M0,1.637A1.69,1.69,0,0,0,1.741,3.273,1.689,1.689,0,0,0,3.48,1.637,1.69,1.69,0,0,0,1.741,0,1.69,1.69,0,0,0,0,1.637" transform="translate(0 0)" fill="#005865"/>
    </clipPath>
    <clipPath id="clip-path-22">
      <rect id="Rectangle_401492" data-name="Rectangle 401492" width="67.685" height="67.685" transform="translate(0.455 -0.321)" fill="#005865" stroke="#707070" stroke-width="1"/>
    </clipPath>
    <clipPath id="clip-path-23">
      <rect id="Rectangle_406749" data-name="Rectangle 406749" width="61.641" height="63.872" fill="none"/>
    </clipPath>
  </defs>
  <g id="Group_1108975" data-name="Group 1108975" transform="translate(23055.133 3812.152)">
    <g id="Group_1100237" data-name="Group 1100237" transform="translate(-23050.26 -3789.812)">
      <g id="Group_1099505" data-name="Group 1099505" transform="translate(2.265 10.547)">
        <g id="Group_1099504" data-name="Group 1099504" transform="translate(0)" clip-path="url(#clip-path-2)">
          <rect id="Rectangle_401140" data-name="Rectangle 401140" width="3.48" height="3.273" transform="translate(0)" fill="#005865"/>
        </g>
      </g>
      <g id="Group_1099517" data-name="Group 1099517" transform="translate(46.428 10.547)">
        <g id="Group_1099516" data-name="Group 1099516" transform="translate(0)" clip-path="url(#clip-path-3)">
          <rect id="Rectangle_401146" data-name="Rectangle 401146" width="3.48" height="3.273" transform="translate(0 0)" fill="#005865"/>
        </g>
      </g>
      <g id="Group_1099519" data-name="Group 1099519" transform="translate(37.83 10.547)">
        <g id="Group_1099518" data-name="Group 1099518" transform="translate(0 0)" clip-path="url(#clip-path-4)">
          <rect id="Rectangle_401147" data-name="Rectangle 401147" width="3.481" height="3.273" transform="translate(0 0)" fill="#005865"/>
        </g>
      </g>
      <g id="Group_1099521" data-name="Group 1099521" transform="translate(29.232 10.547)">
        <g id="Group_1099520" data-name="Group 1099520" transform="translate(0 0)" clip-path="url(#clip-path-4)">
          <rect id="Rectangle_401148" data-name="Rectangle 401148" width="3.481" height="3.273" transform="translate(0 0)" fill="#005865"/>
        </g>
      </g>
      <g id="Group_1099523" data-name="Group 1099523" transform="translate(20.635 10.547)">
        <g id="Group_1099522" data-name="Group 1099522" transform="translate(0 0)" clip-path="url(#clip-path-6)">
          <rect id="Rectangle_401149" data-name="Rectangle 401149" width="3.48" height="3.273" transform="translate(0 0)" fill="#005865"/>
        </g>
      </g>
      <g id="Group_1099525" data-name="Group 1099525" transform="translate(42.988)">
        <g id="Group_1099524" data-name="Group 1099524" clip-path="url(#clip-path-4)">
          <rect id="Rectangle_401150" data-name="Rectangle 401150" width="3.481" height="3.273" transform="translate(0 0)" fill="#005865"/>
        </g>
      </g>
      <g id="Group_1099529" data-name="Group 1099529" transform="translate(34.39)">
        <g id="Group_1099528" data-name="Group 1099528" transform="translate(0)" clip-path="url(#clip-path-8)">
          <rect id="Rectangle_401152" data-name="Rectangle 401152" width="3.481" height="3.273" transform="translate(0 0)" fill="#005865"/>
        </g>
      </g>
      <g id="Group_1099531" data-name="Group 1099531" transform="translate(17.195)">
        <g id="Group_1099530" data-name="Group 1099530" transform="translate(0)" clip-path="url(#clip-path-9)">
          <rect id="Rectangle_401153" data-name="Rectangle 401153" width="3.48" height="3.273" transform="translate(0 0)" fill="#005865"/>
        </g>
      </g>
      <g id="Group_1099533" data-name="Group 1099533" transform="translate(8.597)">
        <g id="Group_1099532" data-name="Group 1099532" clip-path="url(#clip-path-6)">
          <rect id="Rectangle_401154" data-name="Rectangle 401154" width="3.48" height="3.273" transform="translate(0 0)" fill="#005865"/>
        </g>
      </g>
      <g id="Group_1099535" data-name="Group 1099535" transform="translate(0)">
        <g id="Group_1099534" data-name="Group 1099534" transform="translate(0)" clip-path="url(#clip-path-6)">
          <rect id="Rectangle_401155" data-name="Rectangle 401155" width="3.48" height="3.273" transform="translate(0 0)" fill="#005865"/>
        </g>
      </g>
    </g>
    <g id="Group_1100238" data-name="Group 1100238" transform="translate(-22971.867 -3710.335)">
      <g id="Group_1099505-2" data-name="Group 1099505" transform="translate(2.265 10.547)">
        <g id="Group_1099504-2" data-name="Group 1099504" transform="translate(0)" clip-path="url(#clip-path-2)">
          <rect id="Rectangle_401140-2" data-name="Rectangle 401140" width="3.48" height="3.273" transform="translate(0)" fill="#005865"/>
        </g>
      </g>
      <g id="Group_1099517-2" data-name="Group 1099517" transform="translate(46.428 10.547)">
        <g id="Group_1099516-2" data-name="Group 1099516" transform="translate(0)" clip-path="url(#clip-path-3)">
          <rect id="Rectangle_401146-2" data-name="Rectangle 401146" width="3.48" height="3.273" transform="translate(0 0)" fill="#005865"/>
        </g>
      </g>
      <g id="Group_1099519-2" data-name="Group 1099519" transform="translate(37.83 10.547)">
        <g id="Group_1099518-2" data-name="Group 1099518" transform="translate(0 0)" clip-path="url(#clip-path-4)">
          <rect id="Rectangle_401147-2" data-name="Rectangle 401147" width="3.481" height="3.273" transform="translate(0 0)" fill="#005865"/>
        </g>
      </g>
      <g id="Group_1099521-2" data-name="Group 1099521" transform="translate(29.232 10.547)">
        <g id="Group_1099520-2" data-name="Group 1099520" transform="translate(0 0)" clip-path="url(#clip-path-4)">
          <rect id="Rectangle_401148-2" data-name="Rectangle 401148" width="3.481" height="3.273" transform="translate(0 0)" fill="#005865"/>
        </g>
      </g>
      <g id="Group_1099523-2" data-name="Group 1099523" transform="translate(20.635 10.547)">
        <g id="Group_1099522-2" data-name="Group 1099522" transform="translate(0 0)" clip-path="url(#clip-path-6)">
          <rect id="Rectangle_401149-2" data-name="Rectangle 401149" width="3.48" height="3.273" transform="translate(0 0)" fill="#005865"/>
        </g>
      </g>
      <g id="Group_1099525-2" data-name="Group 1099525" transform="translate(42.988)">
        <g id="Group_1099524-2" data-name="Group 1099524" clip-path="url(#clip-path-4)">
          <rect id="Rectangle_401150-2" data-name="Rectangle 401150" width="3.481" height="3.273" transform="translate(0 0)" fill="#005865"/>
        </g>
      </g>
      <g id="Group_1099529-2" data-name="Group 1099529" transform="translate(34.39)">
        <g id="Group_1099528-2" data-name="Group 1099528" transform="translate(0)" clip-path="url(#clip-path-8)">
          <rect id="Rectangle_401152-2" data-name="Rectangle 401152" width="3.481" height="3.273" transform="translate(0 0)" fill="#005865"/>
        </g>
      </g>
      <g id="Group_1099531-2" data-name="Group 1099531" transform="translate(17.195)">
        <g id="Group_1099530-2" data-name="Group 1099530" transform="translate(0)" clip-path="url(#clip-path-9)">
          <rect id="Rectangle_401153-2" data-name="Rectangle 401153" width="3.48" height="3.273" transform="translate(0 0)" fill="#005865"/>
        </g>
      </g>
      <g id="Group_1099533-2" data-name="Group 1099533" transform="translate(8.597)">
        <g id="Group_1099532-2" data-name="Group 1099532" clip-path="url(#clip-path-6)">
          <rect id="Rectangle_401154-2" data-name="Rectangle 401154" width="3.48" height="3.273" transform="translate(0 0)" fill="#005865"/>
        </g>
      </g>
      <g id="Group_1099535-2" data-name="Group 1099535" transform="translate(0)">
        <g id="Group_1099534-2" data-name="Group 1099534" transform="translate(0)" clip-path="url(#clip-path-6)">
          <rect id="Rectangle_401155-2" data-name="Rectangle 401155" width="3.48" height="3.273" transform="translate(0 0)" fill="#005865"/>
        </g>
      </g>
    </g>
    <path id="Path_873784" data-name="Path 873784" d="M95.309,21.036A21.023,21.023,0,0,0,74.274,0l-53,.131A21.275,21.275,0,0,0,.132,21.271L0,74.273A21.022,21.022,0,0,0,21.036,95.307l53-.131A21.275,21.275,0,0,0,95.178,74.038Z" transform="translate(-22983.523 -3673.019) rotate(-135)" fill="#2bc897"/>
    <ellipse id="Ellipse_11579" data-name="Ellipse 11579" cx="54.393" cy="54.091" rx="54.393" ry="54.091" transform="translate(-23038.395 -3795.057)" fill="#befed9"/>
    <g id="Mask_Group_1098697" data-name="Mask Group 1098697" transform="translate(-23017.424 -3774.097)" clip-path="url(#clip-path-22)">
      <g id="Group_1112367" data-name="Group 1112367" transform="translate(3.455 1.679)">
        <g id="Group_1112366" data-name="Group 1112366" clip-path="url(#clip-path-23)">
          <path id="Path_887596" data-name="Path 887596" d="M.035,4.662A4.4,4.4,0,0,1,2.987.213,4.912,4.912,0,0,1,4.292,0Q20.668.007,37.043.014A4,4,0,0,1,40.8,2.156c.311.566,1.008.451,1.542.558,1.809.362,3.64.6,5.446.992,1.353.294,2.732.472,4.1.709,1.346.233,2.687.493,4.036.705.995.156,1.946.478,2.92.694a4.946,4.946,0,0,1,2.688,3.073,8.918,8.918,0,0,1-.166,3.338c-.207,1.389-.495,2.766-.757,4.146-.349,1.833-.634,3.677-1.01,5.507-.338,1.646-.536,3.321-.817,4.98-.209,1.239-.459,2.472-.676,3.71-.215,1.223-.387,2.453-.626,3.671-.166.849-.287,1.7-.445,2.553-.25,1.341-.517,2.678-.722,4.028-.2,1.314-.47,2.617-.7,3.926q-.429,2.421-.846,4.845c-.227,1.305-.461,2.609-.673,3.916-.316,1.96-.785,3.892-1.024,5.866A5.037,5.037,0,0,1,49.9,63.64a5.282,5.282,0,0,1-3.016.015c-1.627-.3-3.258-.583-4.889-.865-1.343-.232-2.688-.461-4.034-.677a29.822,29.822,0,0,0-4.887-.648q-14.527.06-29.054.007A4.027,4.027,0,0,1,.183,58.15c-.073-.294-.258-.6-.148-.93.073-.044.148-.088.038-.173q0-18.777.007-37.554,0-7.329-.007-14.658c.111-.085.034-.129-.038-.174m41.42,15.683-.014.1.1-.068a.83.83,0,0,0,.9-.711.939.939,0,0,0-.51-1.117c-.31-.168-.5-.2-.484.26.023.512.009,1.027.011,1.54m0,1.86c0,2.075.006,4.151-.017,6.226a1.316,1.316,0,0,0,.258.831,2.451,2.451,0,0,1,.055,2.951,1.992,1.992,0,0,0-.305,1.134q0,11.673,0,23.346A4.508,4.508,0,0,1,39.5,60.748c.94.174,1.778.31,2.608.487,1.291.275,2.6.452,3.894.711a7.285,7.285,0,0,0,2.387.327,3.189,3.189,0,0,0,2.988-2.525c.407-2.083.69-4.191,1.059-6.283.412-2.335.934-4.654,1.273-7,.307-2.12.925-4.182,1.091-6.328.064-.826.342-1.634.481-2.457.36-2.131.662-4.272,1.053-6.4.313-1.7.7-3.39.926-5.112.133-.99.29-1.991.51-2.967.42-1.863.64-3.758,1.011-5.627.278-1.4.532-2.8.777-4.2a27.547,27.547,0,0,0,.5-3.282,2.8,2.8,0,0,0-2.093-2.942,32.91,32.91,0,0,0-3.765-.69c-2.106-.352-4.2-.77-6.3-1.148-2.02-.364-4.049-.685-6.06-1.094-.406-.083-.392.023-.391.3l.011,1.945a.81.81,0,0,0,0,.092c.081.012.06-.043.054-.088a2.63,2.63,0,0,1,3-.873,2.6,2.6,0,0,1,1.679,1.978,2.523,2.523,0,0,1-1.358,2.768,2.445,2.445,0,0,1-3.174-.6.16.16,0,0,0-.159-.2c-.149.021-.064.138-.038.221q.013,3.479.025,6.957c-.027.082,0,.106.074.061.147.03.3.052.44.092a2.541,2.541,0,0,1,1.995,3.11,2.673,2.673,0,0,1-2.443,2.1c-.1,0-.139.033-.088.131M37,59.916a2.9,2.9,0,0,0,2.848-2.861q-.006-20.428,0-40.857c0-3.913.011-7.826-.018-11.738A2.712,2.712,0,0,0,38.515,1.97a3.652,3.652,0,0,0-1.886-.4C31.765,1.553,26.9,1.56,22.037,1.56c-5.793,0-11.587-.008-17.38.007a2.735,2.735,0,0,0-2.63,1.309A4.192,4.192,0,0,0,1.671,4.99q.048,25.747.037,51.493c0,.337-.169.624-.087.994A3.032,3.032,0,0,0,3.9,59.91l.173-.064c.172.014.344.041.515.041q16.128,0,32.256,0l.157.034M43.46,9.083a1.248,1.248,0,0,0,1.193-1.011,1.2,1.2,0,0,0-1.042-1.061,1.049,1.049,0,0,0-1.038,1.041.983.983,0,0,0,.887,1.032" transform="translate(-0.001 0.001)" fill="#070708"/>
          <path id="Path_887597" data-name="Path 887597" d="M.236,329.067c.11.085.035.129-.038.173l.038-.173" transform="translate(-0.164 -272.018)" fill="#949296"/>
          <path id="Path_887598" data-name="Path 887598" d="M.2,26.9c.072.045.149.089.038.173L.2,26.9" transform="translate(-0.163 -22.234)" fill="#949296"/>
          <path id="Path_887599" data-name="Path 887599" d="M239.084,55.217l-.2.018c-.026-.083-.111-.2.038-.221a.16.16,0,0,1,.159.2" transform="translate(-197.433 -45.476)" fill="#949296"/>
          <path id="Path_887600" data-name="Path 887600" d="M239.116,37.29l.049,0c.007.045.028.1-.054.088a.814.814,0,0,1,0-.092" transform="translate(-197.657 -30.825)" fill="#949296"/>
          <path id="Path_887601" data-name="Path 887601" d="M239.112,127.331l-.088.131c-.051-.1-.01-.133.088-.131" transform="translate(-197.567 -105.257)" fill="#949296"/>
          <path id="Path_887602" data-name="Path 887602" d="M239.048,117.277l.053-.017.032.046-.1.068.014-.1" transform="translate(-197.594 -96.931)" fill="#949296"/>
          <path id="Path_887603" data-name="Path 887603" d="M239.21,96.424l.055.008.019.053c-.079.045-.1.021-.074-.061" transform="translate(-197.73 -79.708)" fill="#949296"/>
          <path id="Path_887604" data-name="Path 887604" d="M22.509,345.142c.034-.084.086-.12.173-.064l-.173.064" transform="translate(-18.607 -285.231)" fill="#949296"/>
          <path id="Path_887605" data-name="Path 887605" d="M212.536,345.128c.08-.115.119-.043.157.034l-.157-.034" transform="translate(-175.69 -285.246)" fill="#949296"/>
          <path id="Path_887606" data-name="Path 887606" d="M182.927,93.129c.253,1.286-1.4,2.747-2.611,2.672a2.625,2.625,0,0,1-2.679-2.795,2.561,2.561,0,0,1,2.7-2.563,2.627,2.627,0,0,1,2.592,2.687m-2.63.966a.97.97,0,0,0,1.078-.96c.024-.687-.342-1.035-1.085-1.112a1.211,1.211,0,0,0-1.124,1.081,1.062,1.062,0,0,0,1.131.991" transform="translate(-146.841 -74.762)" fill="#070708"/>
          <path id="Path_887607" data-name="Path 887607" d="M111.623,92.608a2.685,2.685,0,0,1-2.749,2.686,2.834,2.834,0,0,1-2.583-2.822,3.073,3.073,0,0,1,2.35-2.625,2.77,2.77,0,0,1,2.983,2.761M109,93.6c.729-.058,1.12-.464,1.074-1.115a1.133,1.133,0,0,0-1.2-.962,1.262,1.262,0,0,0-1.009,1.076,1,1,0,0,0,1.136,1" transform="translate(-87.86 -74.268)" fill="#070708"/>
          <path id="Path_887608" data-name="Path 887608" d="M37.838,298.577a2.514,2.514,0,0,1,2.724,2.521,2.668,2.668,0,1,1-5.33-.015,2.443,2.443,0,0,1,2.606-2.506m-.015,1.556a.994.994,0,0,0-1.022,1.038,1.047,1.047,0,0,0,1.045,1.044,1.173,1.173,0,0,0,1.166-1.072c.014-.626-.438-1.009-1.189-1.011" transform="translate(-29.123 -246.814)" fill="#070708"/>
          <path id="Path_887609" data-name="Path 887609" d="M37.894,21.721a2.5,2.5,0,0,1,2.692,2.544,2.663,2.663,0,1,1-5.321-.066,2.443,2.443,0,0,1,2.629-2.478m-.02,1.556a.99.99,0,0,0-1.046,1.014,1.058,1.058,0,0,0,1.021,1.068,1.173,1.173,0,0,0,1.19-1.112c-.014-.6-.456-.964-1.165-.97" transform="translate(-29.151 -17.955)" fill="#070708"/>
          <path id="Path_887610" data-name="Path 887610" d="M35.277,93.129a2.637,2.637,0,0,1,2.6-2.674A2.689,2.689,0,0,1,40.609,93.1a2.77,2.77,0,0,1-2.717,2.695,2.673,2.673,0,0,1-2.616-2.662m2.649.977a1.009,1.009,0,0,0,1.119-1,1.241,1.241,0,0,0-1.127-1.075,1.14,1.14,0,0,0-1.084,1.129,1.01,1.01,0,0,0,1.092.95" transform="translate(-29.156 -74.774)" fill="#070708"/>
          <path id="Path_887611" data-name="Path 887611" d="M111.706,24.371a2.661,2.661,0,1,1-5.319-.158c.009-1.521,1.18-2.5,2.988-2.492a2.467,2.467,0,0,1,2.331,2.65m-2.636-1.093a1.022,1.022,0,0,0-1.126,1,1.21,1.21,0,0,0,1.11,1.079,1.015,1.015,0,0,0,1.095-1.049.98.98,0,0,0-1.079-1.034" transform="translate(-87.944 -17.955)" fill="#070708"/>
          <path id="Path_887612" data-name="Path 887612" d="M180.187,298.491a2.7,2.7,0,0,1,2.756,3.111c-.036.953-1.678,2.135-3.014,2.17a2.766,2.766,0,0,1-2.429-2.74,2.5,2.5,0,0,1,2.687-2.541m.071,1.557c-.734-.006-1.176.362-1.207,1a1.246,1.246,0,0,0,1.114,1.08,1,1,0,0,0,1.091-1.108.937.937,0,0,0-1-.975" transform="translate(-146.728 -246.729)" fill="#070708"/>
          <path id="Path_887613" data-name="Path 887613" d="M180.214,21.631c1.5-.139,2.605.991,2.692,2.763.062,1.261-1.449,2.511-2.987,2.528a2.806,2.806,0,0,1-2.419-2.77,2.5,2.5,0,0,1,2.714-2.521m.021,1.557a1.037,1.037,0,0,0-1.183,1.027,1.248,1.248,0,0,0,1.137,1.056,1.007,1.007,0,0,0,1.069-1.132.946.946,0,0,0-1.023-.951" transform="translate(-146.728 -17.865)" fill="#070708"/>
          <path id="Path_887614" data-name="Path 887614" d="M108.955,303.766a2.6,2.6,0,1,1,.268-5.189,2.493,2.493,0,0,1,2.434,2.3,2.564,2.564,0,0,1-2.7,2.889m.048-1.549a1.016,1.016,0,0,0,1.085-1.059A.979.979,0,0,0,109,300.134a1.02,1.02,0,0,0-1.116,1.013,1.21,1.21,0,0,0,1.119,1.07" transform="translate(-87.883 -246.814)" fill="#070708"/>
          <path id="Path_887615" data-name="Path 887615" d="M182.819,162.5c.178,1.324-1.018,2.691-2.914,2.715a2.765,2.765,0,0,1-2.4-2.717,2.656,2.656,0,0,1,5.311,0m-1.557-.025a.94.94,0,0,0-.99-.984c-.75-.008-1.238.418-1.215,1.058a1.273,1.273,0,0,0,1.1,1.025,1,1,0,0,0,1.1-1.1" transform="translate(-146.732 -132.168)" fill="#070708"/>
          <path id="Path_887616" data-name="Path 887616" d="M109.017,160a2.522,2.522,0,0,1,2.688,2.313,2.6,2.6,0,0,1-2.658,2.892,2.63,2.63,0,0,1-2.673-2.611c-.039-1.241,1.148-2.872,2.643-2.594m.061,1.557a1.037,1.037,0,0,0-1.145,1.049,1.225,1.225,0,0,0,1.09,1.034,1.02,1.02,0,0,0,1.115-1.029.98.98,0,0,0-1.06-1.054" transform="translate(-87.931 -132.236)" fill="#070708"/>
          <path id="Path_887617" data-name="Path 887617" d="M108.947,228.96a2.54,2.54,0,0,1,2.7,2.5,2.824,2.824,0,0,1-2.614,2.843,2.879,2.879,0,0,1-2.716-2.692,2.669,2.669,0,0,1,2.633-2.649m.1,3.762a1.186,1.186,0,0,0,1.041-1.147A1.072,1.072,0,0,0,109,230.512a1.248,1.248,0,0,0-1.113,1.032,1.213,1.213,0,0,0,1.166,1.177" transform="translate(-87.882 -189.261)" fill="#070708"/>
          <path id="Path_887618" data-name="Path 887618" d="M37.89,160.149a2.51,2.51,0,0,1,2.731,2.58,2.66,2.66,0,0,1-5.319.009,2.5,2.5,0,0,1,2.587-2.589m.014,1.556a.99.99,0,0,0-1.044,1.014,1.145,1.145,0,0,0,1.027,1.068,1.171,1.171,0,0,0,1.184-1.115c-.016-.6-.458-.961-1.167-.966" transform="translate(-29.183 -132.385)" fill="#070708"/>
          <path id="Path_887619" data-name="Path 887619" d="M180.27,228.958a2.673,2.673,0,0,1,2.681,2.553c.011,1.236-1.32,2.87-2.644,2.791a2.734,2.734,0,0,1-2.683-2.728,2.549,2.549,0,0,1,2.645-2.616m1.094,2.73c.048-.754-.345-1.1-1.1-1.169a1.21,1.21,0,0,0-1.106,1.108c.009.317.558,1.069.792,1.084.906.058,1.416-.311,1.417-1.023" transform="translate(-146.831 -189.26)" fill="#070708"/>
          <path id="Path_887620" data-name="Path 887620" d="M35.3,231.654a2.521,2.521,0,0,1,2.609-2.581,2.65,2.65,0,1,1-2.609,2.581m1.557.037c-.006.548.359,1.057.77,1.072.846.031,1.468-.416,1.428-1.069a1.089,1.089,0,0,0-1.142-1.076.984.984,0,0,0-1.056,1.073" transform="translate(-29.183 -189.359)" fill="#070708"/>
          <path id="Path_887621" data-name="Path 887621" d="M16.738,51.325q0-.109,0-.218a17.561,17.561,0,0,0,.05-2.648c-.011-1.509.082-3.02-.05-4.528q0-.109,0-.218l.081-.422a.543.543,0,0,1,.632-.477c.349.047.769.122.846.605l.078.166q0,4-.005,8c-.1.068-.044.117.021.164-.73.724-1.2.726-1.573,0l-.079-.424" transform="translate(-13.836 -35.387)" fill="#070708"/>
          <path id="Path_887622" data-name="Path 887622" d="M18.153,29.3c0,.666-.278.979-.8.97s-.763-.323-.757-.948c.007-.651.214-.872.8-.867.609.006.843.318.756.846" transform="translate(-13.718 -23.518)" fill="#070708"/>
          <path id="Path_887623" data-name="Path 887623" d="M16.452,49.284c.132,1.508.04,3.019.05,4.528a17.562,17.562,0,0,1-.05,2.648q-.12-3.588,0-7.176" transform="translate(-13.55 -40.74)" fill="#949296"/>
          <path id="Path_887624" data-name="Path 887624" d="M16.591,45.594l-.081.422c-.049-.155-.105-.312.081-.422" transform="translate(-13.608 -37.69)" fill="#949296"/>
          <path id="Path_887625" data-name="Path 887625" d="M16.507,91.935l.079.424c-.185-.112-.128-.269-.079-.424" transform="translate(-13.605 -75.997)" fill="#949296"/>
          <path id="Path_887626" data-name="Path 887626" d="M25.805,46.5l-.078-.166c.083.028.122.078.078.166" transform="translate(-21.267 -38.3)" fill="#949296"/>
          <path id="Path_887627" data-name="Path 887627" d="M25.917,93.577c-.066-.047-.117-.1-.021-.164l.021.164" transform="translate(-21.363 -77.218)" fill="#949296"/>
          <path id="Path_887628" data-name="Path 887628" d="M277.56,182.114a2.541,2.541,0,0,1-2.55,2.642A2.513,2.513,0,0,1,272.5,182.1a2.53,2.53,0,1,1,5.059.017m-2.546.955c.7,0,1-.3.993-1a.991.991,0,0,0-.984-.947,1.008,1.008,0,0,0-.967.965c0,.7.279.98.958.984" transform="translate(-225.259 -148.43)" fill="#070708"/>
          <path id="Path_887629" data-name="Path 887629" d="M295.605,51.015a2.4,2.4,0,0,1,2.716-2.525,2.556,2.556,0,0,1,2.437,2.806,2.822,2.822,0,0,1-2.694,2.387,2.559,2.559,0,0,1-2.46-2.669m2.527-.948c-.679,0-.973.3-.965.97a.966.966,0,0,0,.938.981.979.979,0,0,0,1.014-.971.937.937,0,0,0-.987-.981" transform="translate(-244.353 -40.075)" fill="#070708"/>
          <path id="Path_887630" data-name="Path 887630" d="M286.339,114.4a2.515,2.515,0,0,1,2.63,2.472,2.715,2.715,0,0,1-2.493,2.6,2.555,2.555,0,0,1-2.7-2.632,2.449,2.449,0,0,1,2.562-2.444m.033,1.557c-.645,0-1.043.339-1.047.9a1.146,1.146,0,0,0,.983,1.035,1.216,1.216,0,0,0,1.094-1.045,1,1,0,0,0-1.03-.893" transform="translate(-234.58 -94.55)" fill="#070708"/>
          <path id="Path_887631" data-name="Path 887631" d="M251.863,311.3a2.24,2.24,0,0,1,2.513,2.254c0,1.76-.95,2.82-2.519,2.815a2.525,2.525,0,0,1-2.538-2.519,2.321,2.321,0,0,1,2.544-2.55m-.025,1.557c-.668,0-.966.277-.965.888a.977.977,0,1,0,1.946-.022c0-.641-.258-.869-.981-.866" transform="translate(-206.096 -257.33)" fill="#070708"/>
          <path id="Path_887632" data-name="Path 887632" d="M265.718,247.936a2.7,2.7,0,0,1-2.629,2.64,2.781,2.781,0,0,1-2.56-2.655,2.6,2.6,0,0,1,2.616-2.534,2.556,2.556,0,0,1,2.573,2.548m-2.619-.981a.964.964,0,0,0-1,.9c.054.685.456,1.068,1.024,1.047a.979.979,0,1,0-.02-1.951" transform="translate(-215.362 -202.845)" fill="#070708"/>
        </g>
      </g>
    </g>
  </g>
</svg>
