<svg xmlns="http://www.w3.org/2000/svg" xmlns:xlink="http://www.w3.org/1999/xlink" width="99" height="99" viewBox="0 0 99 99">
  <defs>
    <clipPath id="clip-path">
      <rect id="Rectangle_401223" data-name="Rectangle 401223" width="99" height="99" transform="translate(0)" fill="#f3a744"/>
    </clipPath>
    <clipPath id="clip-path-2">
      <rect id="Rectangle_401223-2" data-name="Rectangle 401223" width="88.539" height="88.539" fill="#f3f9ff"/>
    </clipPath>
    <clipPath id="clip-path-3">
      <rect id="Rectangle_406581" data-name="Rectangle 406581" width="60.242" height="66.932" fill="none"/>
    </clipPath>
  </defs>
  <g id="Group_1109774" data-name="Group 1109774" transform="translate(-619.922 -5755.871)">
    <g id="Group_1100724" data-name="Group 1100724" transform="translate(619.921 5755.871)">
      <g id="Group_1099654" data-name="Group 1099654" transform="translate(0 0)">
        <g id="Mask_Group_1099652" data-name="Mask Group 1099652" clip-path="url(#clip-path)">
          <path id="Path_873521" data-name="Path 873521" d="M99,77.066A22,22,0,0,1,77.066,99H21.934A22,22,0,0,1,0,77.066V21.933A22,22,0,0,1,21.934,0H77.066A22,22,0,0,1,99,21.934Z" transform="translate(0)" fill="#005865"/>
        </g>
      </g>
      <g id="Group_1099659" data-name="Group 1099659" transform="translate(4.77 5.723)">
        <g id="Group_1099652" data-name="Group 1099652" transform="translate(0 0)" clip-path="url(#clip-path-2)">
          <path id="Path_873521-2" data-name="Path 873521" d="M88.539,68.922A19.674,19.674,0,0,1,68.923,88.539H19.616A19.674,19.674,0,0,1,0,68.922V19.616A19.674,19.674,0,0,1,19.616,0H68.923A19.674,19.674,0,0,1,88.539,19.616Z" fill="#f3f9ff"/>
        </g>
      </g>
    </g>
    <g id="Group_1100725" data-name="Group 1100725" transform="translate(636.343 5771.293)">
      <rect id="Rectangle_401104" data-name="Rectangle 401104" width="68" height="69" transform="translate(-0.422 0.627)" fill="none"/>
      <g id="Group_1112097" data-name="Group 1112097" transform="translate(3.579 1.627)">
        <g id="Group_1112096" data-name="Group 1112096" clip-path="url(#clip-path-3)">
          <path id="Path_886600" data-name="Path 886600" d="M60.242,78.984A30.121,30.121,0,1,1,30.121,48.863,30.121,30.121,0,0,1,60.242,78.984" transform="translate(0 -42.173)" fill="#62d5e5"/>
          <path id="Path_886601" data-name="Path 886601" d="M86.886,4.08a10.547,10.547,0,0,0-2.318.6,4,4,0,0,0-1.777,2.031,2.617,2.617,0,0,1-1.75,1.466,2.387,2.387,0,0,0-1.924,2.216,10.676,10.676,0,0,1-1.668,4.381,1.776,1.776,0,0,0-.168.566,15.706,15.706,0,0,0-2.417,2.083c-.543.585-.909,1.149-.475,1.991a6.986,6.986,0,0,1,.657,1.856c.191.992.254,1.7-1.187,1.979a1.553,1.553,0,0,0-1.346,1.49,3,3,0,0,1-2.343,2.77,4.368,4.368,0,0,0-1,.42,3.007,3.007,0,0,0-1.443,2.763c-.038,1.162-.068,2.247-1.617,2.535a1.572,1.572,0,0,0-1.121,1.633,2.857,2.857,0,0,0,1.4,2.507,3.722,3.722,0,0,1,1.773,4.2,3.623,3.623,0,0,0,.248,3.033L56.47,44.595a24.079,24.079,0,0,1,2.389-3.777,2.079,2.079,0,0,0,.26-2.127,9.159,9.159,0,0,1-.666-2.019,3.665,3.665,0,0,0-.008-1.9L58.4,34.5c.216-.176.1-.238-.093-.275a3.023,3.023,0,0,0-.44-1.665,2.43,2.43,0,0,1-.143-2.015c.112-.386.254-.764.368-1.15a3.061,3.061,0,0,0-.542-3.21A7.837,7.837,0,0,1,56.083,24.1c0-.319,0-.637.011-.956a1.434,1.434,0,0,1,1.124-1.353,1.793,1.793,0,0,0,1.929-1.917,1.776,1.776,0,0,1,.093-.389c.344-1.195.921-2.151,2.323-2.259,1.275-.137,2.395-.562,2.751-1.933a1.954,1.954,0,0,1,2-1.61c.7-.051.978-.458,1.007-1.187a4.759,4.759,0,0,0-.243-1.589,1.853,1.853,0,0,1,.709-2.416c.246-.152.441-.386.688-.534a3.167,3.167,0,0,1,3.234-.428.822.822,0,0,0,.488.045c.884-.078.931-.791,1.143-1.387.15-.422.26-.925.8-.968a3.561,3.561,0,0,1,1.283.067A2.948,2.948,0,0,0,78.3,4.915c.719-.593,1.45-1.173,2.175-1.759.889-.642,1.78-1.281,2.665-1.928a17.489,17.489,0,0,1,1.88-1.06c1.012-.565,2.125.408,2.293,1.378a12.962,12.962,0,0,1,.124,1.473,1,1,0,0,1-.289.8l-.261.266" transform="translate(-48.405 -0.001)" fill="#f99f11"/>
          <path id="Path_886602" data-name="Path 886602" d="M182.889,326.76a4.626,4.626,0,0,0,1.068,1.3,10.359,10.359,0,0,1,1.829,3.5q0,.2.009.4c.011.859-.146,1.622-1.1,1.934a1.656,1.656,0,0,1-1.962-1.283,4.423,4.423,0,0,0-.364-.734,2.474,2.474,0,0,0-2.427-1.437c-1.572.044-3.148.058-4.719,0-2.06-.077-2.4.4-2.34,2.347a1.663,1.663,0,0,0,.922,1.543,4.455,4.455,0,0,1,1.148.848,1.735,1.735,0,0,1-.57,2.956,14.912,14.912,0,0,0-1.963.781c-.413.256-.819.532-.636,1.13q-11.335,0-22.671,0c-.2,0-.415-.065-.578.116l-.4,0c.759-1.494,1.192-3.128,2.015-4.6a2.444,2.444,0,0,0-.184-2.82,5.669,5.669,0,0,1-1.013-2.429,12.1,12.1,0,0,0-.978-3.52l.286-.042c.2.007.41.02.615.02h34.01" transform="translate(-127.719 -282.005)" fill="#003081"/>
          <path id="Path_886603" data-name="Path 886603" d="M144.107,424.7l.4,0q7.143.01,14.286.021,4.477.008,8.954.021a1.575,1.575,0,0,0,.306.739c.74,1.018,1.472,2.042,2.207,3.064a28.8,28.8,0,0,1-7.046,3.283,31.488,31.488,0,0,1-6.026,1.355,28.484,28.484,0,0,1-4.887.138,8.124,8.124,0,0,0-.863-1.736,4.947,4.947,0,0,0-3.662-2.75,3.447,3.447,0,0,1-2.823-2.311,2.652,2.652,0,0,0-1.383-1.639l-.259-.144.8-.044" transform="translate(-123.688 -366.552)" fill="#d11134"/>
          <path id="Path_886604" data-name="Path 886604" d="M125.076,141.436l-.286.042a.321.321,0,0,0-.112-.036l-.144-.141a3.622,3.622,0,0,1-.248-3.033,3.722,3.722,0,0,0-1.773-4.2,2.857,2.857,0,0,1-1.4-2.507,1.572,1.572,0,0,1,1.121-1.633c1.549-.288,1.578-1.372,1.617-2.535a3.007,3.007,0,0,1,1.443-2.763,4.366,4.366,0,0,1,1-.42,3,3,0,0,0,2.343-2.77,1.553,1.553,0,0,1,1.346-1.49c1.44-.283,1.377-.987,1.187-1.979a6.99,6.99,0,0,0-.657-1.856c-.434-.842-.068-1.406.475-1.991a15.706,15.706,0,0,1,2.417-2.083.288.288,0,0,1,.028.12.247.247,0,0,0,.27.282l.14.131.136.142h0l.134.137a12.641,12.641,0,0,1,3.124,2.374.456.456,0,0,1,.164.356l.1.142q.006.619.011,1.239l-.108.148c.046.57-.347,1.042-.3,1.639a3.525,3.525,0,0,0,1.97,3.058c.693.347,1.443-.051,2.146-.263.463-.14.92-.3,1.38-.449.041.06.083.064.129.005l.145-.037c.185-.012.386.053.54-.11a6.782,6.782,0,0,1,3.019-.273l.282.1c1.181.123,1.656,1.059,2.161,1.925.44.756.917,1.486,1.393,2.218a2.256,2.256,0,0,0,2.446,1.058l.279-.1a15.052,15.052,0,0,1,3.42-.854c.147,0,.3.026.412-.107.84-.01,1.686-.084,2.52-.015,1.768.145,2.091,1.52,1.4,2.836-.286.545-.808.9-1.143,1.413a2.8,2.8,0,0,0-.584,1.938c.1.751-.177,1.478-.135,2.224a7.437,7.437,0,0,0,1.227,4.162,1.849,1.849,0,0,1-.031,2.532,5.778,5.778,0,0,0-.393.624c-.2.188-.1.434-.124.654-.3.009-.592.026-.887.026q-16.377,0-32.754.007c-.283,0-.593-.112-.852.11" transform="translate(-104.53 -96.701)" fill="#ffb91a"/>
          <path id="Path_886605" data-name="Path 886605" d="M150.067,325.84c.259-.222.569-.11.852-.11q16.377-.01,32.754-.007c.3,0,.592-.017.887-.026a.391.391,0,0,0,.116.019l.015.143h-34.01c-.2,0-.41-.013-.615-.02" transform="translate(-129.521 -281.105)" fill="#88754b"/>
          <path id="Path_886606" data-name="Path 886606" d="M402.1,321.593a.39.39,0,0,1-.116-.019c.029-.22-.077-.466.124-.654q0,.337-.008.673" transform="translate(-346.945 -276.982)" fill="#ffb81e"/>
          <path id="Path_886607" data-name="Path 886607" d="M280.625,177.005c-.154.163-.355.1-.54.11.147-.2.351-.119.54-.11" transform="translate(-241.738 -152.75)" fill="#ffb81e"/>
          <path id="Path_886608" data-name="Path 886608" d="M379.391,206.06c-.112.134-.265.108-.412.107.1-.171.264-.112.412-.107" transform="translate(-327.092 -177.836)" fill="#ffb81e"/>
          <path id="Path_886609" data-name="Path 886609" d="M211.385,113.2a.247.247,0,0,1-.27-.282l.27.282" transform="translate(-182.211 -97.455)" fill="#ffb81e"/>
          <path id="Path_886610" data-name="Path 886610" d="M352.238,213.075l-.28.1c.055-.138.165-.126.28-.1" transform="translate(-303.77 -183.89)" fill="#ffb81e"/>
          <path id="Path_886611" data-name="Path 886611" d="M306.363,175.179l-.282-.1c.116-.026.224-.027.282.1" transform="translate(-264.175 -151.093)" fill="#ffb81e"/>
          <path id="Path_886612" data-name="Path 886612" d="M240.109,148.141l.108-.148c.024.093-.038.124-.108.148" transform="translate(-207.235 -127.731)" fill="#ffb81e"/>
          <path id="Path_886613" data-name="Path 886613" d="M215.233,117.107l-.134-.137.134.137" transform="translate(-185.649 -100.955)" fill="#ffb81e"/>
          <path id="Path_886614" data-name="Path 886614" d="M240.194,138.051l-.1-.142c.064.026.124.054.1.142" transform="translate(-207.223 -119.027)" fill="#ffb81e"/>
          <path id="Path_886615" data-name="Path 886615" d="M278.213,178.111c-.046.059-.088.055-.129-.005a.142.142,0,0,1,.129.005" transform="translate(-240.011 -153.709)" fill="#ffb81e"/>
          <path id="Path_886616" data-name="Path 886616" d="M214.241,116.072l-.136-.142.136.142" transform="translate(-184.791 -100.058)" fill="#ffb81e"/>
          <path id="Path_886617" data-name="Path 886617" d="M69.292,325.716l.144.141-12.33,0c.04-.12.147-.127.247-.144l11.939.005" transform="translate(-49.287 -281.117)" fill="#484a54"/>
          <path id="Path_886618" data-name="Path 886618" d="M73.343,255.884q0-.948-.008-1.9a3.665,3.665,0,0,1,.008,1.9" transform="translate(-63.294 -219.213)" fill="#ffb81e"/>
          <path id="Path_886619" data-name="Path 886619" d="M72.3,250.225c-.141-.054-.117-.165-.094-.275.191.037.309.1.094.275" transform="translate(-62.304 -215.729)" fill="#ffb81e"/>
          <path id="Path_886620" data-name="Path 886620" d="M18.637,326.761l12.33,0a.318.318,0,0,1,.112.036,12.1,12.1,0,0,1,.977,3.52,5.668,5.668,0,0,0,1.013,2.429,2.444,2.444,0,0,1,.184,2.82c-.823,1.473-1.256,3.107-2.016,4.6l-.8.044c-1.073-.375-2.229-.418-3.3-.817a4.032,4.032,0,0,1-1.21-.615,5.431,5.431,0,0,0-3.61-1.191,10.725,10.725,0,0,1-3.5-.4,5.693,5.693,0,0,1-3.01-3.1,5.254,5.254,0,0,0-2.775-2.68c-.852-.317-.422-.853-.142-1.335,1.639-1.1,3.539-1.735,5.157-2.878.2-.142.375-.316.586-.441" transform="translate(-10.819 -282.023)" fill="#0e295b"/>
          <path id="Path_886621" data-name="Path 886621" d="M175.294,423.805l-.008.153q-4.477-.011-8.955-.021-7.143-.012-14.286-.021c.164-.181.382-.116.578-.116q11.335,0,22.671,0" transform="translate(-131.228 -365.767)" fill="#65225d"/>
        </g>
      </g>
    </g>
  </g>
</svg>
