<svg xmlns="http://www.w3.org/2000/svg" xmlns:xlink="http://www.w3.org/1999/xlink" width="129" height="128" viewBox="0 0 129 128">
  <defs>
    <clipPath id="clip-path">
      <rect id="Rectangle_400938" data-name="Rectangle 400938" width="120" height="120" fill="none"/>
    </clipPath>
    <clipPath id="clip-path-2">
      <rect id="Rectangle_401492" data-name="Rectangle 401492" width="66.543" height="66.543" transform="translate(0 0)" fill="#12263f" stroke="#707070" stroke-width="1"/>
    </clipPath>
    <clipPath id="clip-path-3">
      <rect id="Rectangle_406703" data-name="Rectangle 406703" width="63.543" height="63.513" fill="#12263f"/>
    </clipPath>
  </defs>
  <g id="Group_1112751" data-name="Group 1112751" transform="translate(-386.711 -1239)">
    <g id="Grupo_108927" data-name="Grupo 108927" transform="translate(-3.289 -3228)">
      <path id="Rectángulo_36179" data-name="Rectángulo 36179" d="M0,0H129V128H0Z" transform="translate(390 4467)" fill="#41cee2"/>
    </g>
    <g id="Group_1111808" data-name="Group 1111808" transform="translate(398.211 1243.957)">
      <circle id="Ellipse_11562" data-name="Ellipse 11562" cx="51.479" cy="51.479" r="51.479" transform="translate(0 8.543)" fill="#defff4"/>
      <g id="Ellipse_11577" data-name="Ellipse 11577" transform="translate(-5.5 3.043)" fill="none" stroke="#defff4" stroke-width="1">
        <circle cx="56.979" cy="56.979" r="56.979" stroke="none"/>
        <circle cx="56.979" cy="56.979" r="56.479" fill="none"/>
      </g>
    </g>
    <g id="Group_1111809" data-name="Group 1111809" transform="translate(419.143 1271.223)">
      <rect id="Rectangle_401104" data-name="Rectangle 401104" width="62" height="63" transform="translate(-0.16 -0.223)" fill="none"/>
      <g id="Mask_Group_1098697" data-name="Mask Group 1098697" transform="translate(-2.432 -0.223)" clip-path="url(#clip-path-2)">
        <g id="Group_1112308" data-name="Group 1112308" transform="translate(2 2)">
          <g id="Group_1112307" data-name="Group 1112307" transform="translate(0 0)" clip-path="url(#clip-path-3)">
            <path id="Path_887248" data-name="Path 887248" d="M52.77,60.493a4.2,4.2,0,0,1-3.244,2.9,5.959,5.959,0,0,1-1.051.1q-15.658.007-31.316,0a4.038,4.038,0,0,1-4.036-2.6,5.365,5.365,0,0,1-.358-2q-.036-11.673-.008-23.347a.455.455,0,0,0-.376-.525,17.44,17.44,0,0,1-11.114-10.6,17.05,17.05,0,0,1,.194-13.359A17.951,17.951,0,0,1,21.019.263a17.9,17.9,0,0,1,9.909,5.226,18.916,18.916,0,0,1,1.409,1.664.612.612,0,0,0,.552.258c2.271-.008,4.541,0,6.812-.008a4.667,4.667,0,0,1,3.551,1.517c2.765,2.846,5.593,5.63,8.4,8.438a3.978,3.978,0,0,1,1.217,2.256,9.24,9.24,0,0,1,.094,1.317q.008,11.871,0,23.743a1.013,1.013,0,0,0,.329.782c2.8,2.785,5.578,5.584,8.379,8.363a5.849,5.849,0,0,1,1.808,3.265,5.454,5.454,0,0,1-3.57,6.056,5.251,5.251,0,0,1-5.734-1.234c-.469-.446-.91-.92-1.4-1.415M32.478,38.055c-.742-.729-1.468-1.452-2.2-2.163a1.717,1.717,0,0,1-.6-1.036.372.372,0,0,0-.1-.2c-.489-.493-.987-.976-1.474-1.471-.14-.142-.243-.138-.422-.04a27.286,27.286,0,0,1-2.719,1.413A17.578,17.578,0,0,1,16.6,35.916c-.568-.053-1.133-.142-1.733-.218V59.151a2.127,2.127,0,0,0,2.216,2.226H47.969a4.535,4.535,0,0,0,.89-.01,3.063,3.063,0,0,0,1.067-.372,2.187,2.187,0,0,0,.924-2.07.724.724,0,0,0-.209-.554q-1.568-1.541-3.106-3.113a.691.691,0,0,0-.545-.233c-1.764.008-3.527,0-5.291,0h-.356V52.9h3.8c-.083-.1-.126-.157-.176-.208Q43.039,50.763,41.1,48.84a.635.635,0,0,0-.4-.154c-1.036-.012-2.072-.006-3.108-.006h-.477V46.546h1.68c-.094-.105-.147-.171-.206-.23-1.231-1.232-2.47-2.457-3.689-3.7a.9.9,0,0,0-.721-.292c-1.378.013-2.756.006-4.133.006H29.7V40.2h2.729c-.821-.979-.817-1.176.051-2.147m18.368,4.966v-.489c0-7.165-.013-14.33.015-21.495a3.239,3.239,0,0,0-1.019-2.6c-.09-.081-.169-.173-.255-.259q-3.456-3.465-6.914-6.929c-.074-.075-.156-.142-.236-.214-.027.036-.049.052-.049.068,0,1.973-.016,3.946,0,5.919a.957.957,0,0,0,1.036.971c.937.006,1.874,0,2.811,0h.35V20.1c-1.1,0-2.183.017-3.262-.005a3.065,3.065,0,0,1-2.246-1.037,3.3,3.3,0,0,1-.814-2.343c-.013-2.27,0-4.541,0-6.812v-.35H33.872a17.4,17.4,0,0,1,2.073,6.741,17.089,17.089,0,0,1-.744,7h2.92v2.1c-1.162,0-2.3,0-3.432.006a.432.432,0,0,0-.326.133c-.425.767-.828,1.545-1.263,2.369.471.473.981.974,1.475,1.491a.727.727,0,0,0,.58.238c2.281-.008,4.563,0,6.845,0h.358v2.122H39.544c1.885,1.8,3.724,3.7,5.594,5.557s3.754,3.757,5.707,5.712M2.168,17.92A15.87,15.87,0,1,0,18.229,2.1,15.884,15.884,0,0,0,2.168,17.92m56.7,36.074L39.22,34.332l-4.809,4.8L54.072,58.8l4.794-4.807m-3.356,6.348a3.34,3.34,0,0,0,3.3.942,3.258,3.258,0,0,0,2.52-2.606,3.352,3.352,0,0,0-.94-3.226l-4.882,4.89M35,32.209l-2.741,2.712,1.68,1.691,2.71-2.741L35,32.209m-3.944.939,2.138-2.17-1.25-1.329-2.277,2.243,1.39,1.256m7.083-.757.773-.615H37.487l.652.615" transform="translate(0 0)" fill="#12263f"/>
            <rect id="Rectangle_406695" data-name="Rectangle 406695" width="10.542" height="2.077" transform="translate(24.414 46.577)" fill="#12263f"/>
            <rect id="Rectangle_406696" data-name="Rectangle 406696" width="10.541" height="2.078" transform="translate(19.126 52.934)" fill="#12263f"/>
            <rect id="Rectangle_406697" data-name="Rectangle 406697" width="8.426" height="2.077" transform="translate(19.114 40.231)" fill="#12263f"/>
            <rect id="Rectangle_406698" data-name="Rectangle 406698" width="7.367" height="2.078" transform="translate(31.824 52.934)" fill="#12263f"/>
            <rect id="Rectangle_406699" data-name="Rectangle 406699" width="3.135" height="2.077" transform="translate(19.117 46.588)" fill="#12263f"/>
            <rect id="Rectangle_406700" data-name="Rectangle 406700" width="6.32" height="2.072" transform="translate(40.277 23.301)" fill="#12263f"/>
            <rect id="Rectangle_406701" data-name="Rectangle 406701" width="2.077" height="2.076" transform="translate(44.52 29.646)" fill="#12263f"/>
            <path id="Path_887249" data-name="Path 887249" d="M20.791,6.624A13.747,13.747,0,1,1,6.73,19.673,13.744,13.744,0,0,1,20.791,6.624M32.08,21.42a13.5,13.5,0,0,0-.607-4.905.491.491,0,0,0-.563-.384c-2.876.013-5.752.008-8.629.008-2.038,0-4.077,0-6.116,0a2.085,2.085,0,0,0-2.059,1.932q-.015,5.934,0,11.868a.45.45,0,0,0,.19.33c.439.249.888.484,1.347.694a11.573,11.573,0,0,0,6.969.854,11.789,11.789,0,0,0,5.689-2.84c.026-.022.032-.069.063-.14H17.3V26.719h.411q6.116,0,12.232,0c.184,0,.34,0,.432-.207.4-.892.809-1.779,1.21-2.67a1.623,1.623,0,0,0,.068-.307H25.765V21.42Zm-20.1,6.909v-.453c0-3.219-.007-6.436,0-9.654A4.089,4.089,0,0,1,13.1,15.4a4.478,4.478,0,0,1,3.543-1.384q6.58.012,13.159,0h.4A11.648,11.648,0,0,0,9.278,17.009a11.6,11.6,0,0,0,2.706,11.32" transform="translate(-2.409 -2.38)" fill="#12263f"/>
            <rect id="Rectangle_406702" data-name="Rectangle 406702" width="6.309" height="2.076" transform="translate(14.88 19.066)" fill="#12263f"/>
          </g>
        </g>
      </g>
    </g>
  </g>
</svg>
