<svg xmlns="http://www.w3.org/2000/svg" xmlns:xlink="http://www.w3.org/1999/xlink" width="178" height="178" viewBox="0 0 178 178">
  <defs>
    <clipPath id="clip-path">
      <rect id="Rectangle_406254" data-name="Rectangle 406254" width="92.289" height="90.569" fill="none"/>
    </clipPath>
  </defs>
  <g id="Group_1112769" data-name="Group 1112769" transform="translate(-360.141 -3201.704)">
    <g id="Group_1111857" data-name="Group 1111857" transform="translate(360.141 3201.705)">
      <path id="Path_882862" data-name="Path 882862" d="M89,0A89,89,0,1,1,0,89,89,89,0,0,1,89,0Z" transform="translate(0 -0.001)" fill="#005865"/>
      <path id="Path_882863" data-name="Path 882863" d="M78.668,0A78.668,78.668,0,1,1,0,78.668,78.668,78.668,0,0,1,78.668,0Z" transform="translate(10.332 10.331)" fill="#f3f9ff"/>
    </g>
    <rect id="Rectangle_401104" data-name="Rectangle 401104" width="99.117" height="100.574" transform="translate(399.141 3240.284)" fill="none"/>
    <g id="Group_1111518" data-name="Group 1111518" transform="translate(402.141 3245.284)">
      <g id="Group_1111517" data-name="Group 1111517" clip-path="url(#clip-path)">
        <path id="Path_886222" data-name="Path 886222" d="M103.969,101.728c11.133-3.813,23.146,4.765,23.114,16.452,6.059.036,12.117-.891,17.077,3.331-.015,1.894.3,5.3-.01,6.967-.122.66-1.24,1.819-1.546,2.827-1.075,3.537,1.05,7.922,4.68,8.949a15.122,15.122,0,0,1-12.59,7.3c-5.743.342-43.218,2.508-49.99-4.8a15,15,0,0,1,2.606-22.285,21.316,21.316,0,0,1,3.634-1.676,3.989,3.989,0,0,1,1.14-.214,18.109,18.109,0,0,1,7.744-14.642,23.74,23.74,0,0,1,4.142-2.21" transform="translate(-64.043 -79.818)" fill="#b8fafd"/>
        <path id="Path_886223" data-name="Path 886223" d="M387.95,117.215c.084,8.084-.049,16.18-.017,24.267,4.98,5.131-.164,13.711-7.063,11.759-3.63-1.027-5.755-5.411-4.68-8.949.306-1.008,1.424-2.167,1.546-2.827.309-1.664-.005-5.072.01-6.967.045-5.773.042-11.55.208-17.284Z" transform="translate(-297.63 -92.806)" fill="#f66c82"/>
        <path id="Path_886224" data-name="Path 886224" d="M99.809,81.868a23.739,23.739,0,0,0-4.142,2.21A18.109,18.109,0,0,0,87.923,98.72a3.989,3.989,0,0,0-1.14.214,21.316,21.316,0,0,0-3.634,1.676A13.08,13.08,0,1,1,99.809,81.868" transform="translate(-59.884 -59.957)" fill="#fccc57"/>
        <path id="Path_886225" data-name="Path 886225" d="M228.527,292.561a18.2,18.2,0,0,0-.32,3.19c.652.516,4.735,2.146,4.887,2.637a1.156,1.156,0,0,1,.025.479l-7.216,9.111c-.685.545-1.157.169-1.064-.678.2-1.81,1.642-4.357,1.976-6.191a.838.838,0,0,0,.045-.433c-.689-.582-5.038-1.731-5.354-2.21a.727.727,0,0,1-.106-.359c.014-.329,3.1-4.872,3.558-5.547a46.761,46.761,0,0,1,2.88-4.2c.526-.583.863-.543,1.2.187-.2,1.333-.357,2.672-.514,4.009" transform="translate(-175.294 -227.995)" fill="#fccc57"/>
        <path id="Path_886226" data-name="Path 886226" d="M395.461,77.831h-10c.06-2.089-.412-6.017.51-7.716,2.365-4.354,9-3.027,9.483,1.783.182,1.8-.017,4.063,0,5.932" transform="translate(-305.141 -53.422)" fill="#e4e5e8"/>
        <path id="Path_886227" data-name="Path 886227" d="M199.473,35.2c1.452-.321,2.4.793,1.7,2.12L195.054,43.9a1.466,1.466,0,0,1-2.16-1.951c1.409-.986,5.321-6.475,6.579-6.754" transform="translate(-152.525 -27.823)" fill="#fccc57"/>
        <path id="Path_886228" data-name="Path 886228" d="M36.96,41.134a2.3,2.3,0,0,1,.992-.041c.915.178,5.815,5.655,6.993,6.545a1.483,1.483,0,0,1-1.881,2.09L36.493,43.6a1.515,1.515,0,0,1,.468-2.464" transform="translate(-28.541 -32.507)" fill="#fccc57"/>
        <path id="Path_886229" data-name="Path 886229" d="M11.134,131.083a1.753,1.753,0,0,1-.245,2.25c-1.217.727-7.939-.138-9.8.19a1.479,1.479,0,0,1,.215-2.9,56.4,56.4,0,0,1,8.53-.018,3.083,3.083,0,0,1,1.294.475" transform="translate(0 -103.289)" fill="#fccc57"/>
        <path id="Path_886230" data-name="Path 886230" d="M131.841.09A1.6,1.6,0,0,1,133.988,1.6a53.852,53.852,0,0,1-.024,8.315c-.292,2.107-2.69,1.906-2.907.238a62.109,62.109,0,0,1,0-8.976,1.247,1.247,0,0,1,.783-1.09" transform="translate(-103.637 0)" fill="#fccc57"/>
        <path id="Path_886231" data-name="Path 886231" d="M41.907,205.951a2.187,2.187,0,0,1-.027-2.107c1.507-1.006,5.095-6.075,6.419-6.5a1.516,1.516,0,0,1,2.038,1.3c.022.726-2.608,3.43-3.272,4.134a34.44,34.44,0,0,1-3.6,3.486,1.607,1.607,0,0,1-1.552-.317" transform="translate(-32.956 -156.189)" fill="#fccc57"/>
        <path id="Path_886232" data-name="Path 886232" d="M351.185,383.371c1.452-.319,2.022.492,1.841,1.841a57.046,57.046,0,0,1-2.576,7.843c-.933,1.708-3.013,1.161-2.656-1.2a54.264,54.264,0,0,1,2.507-7.7c.224-.427.364-.674.884-.788" transform="translate(-275.336 -303.482)" fill="#41cee2"/>
        <path id="Path_886233" data-name="Path 886233" d="M171.081,383.223c1.621-.487,2.108.691,1.884,2.094a56.772,56.772,0,0,1-2.5,7.7,1.509,1.509,0,0,1-2.828-.935,74.422,74.422,0,0,1,2.565-7.866,1.854,1.854,0,0,1,.876-1" transform="translate(-132.721 -303.331)" fill="#41cee2"/>
        <path id="Path_886234" data-name="Path 886234" d="M120.832,383.263c1.265-.375,2.291.324,2.1,1.671a78.243,78.243,0,0,1-2.624,8.01c-.915,1.676-3.013,1.1-2.7-1.03a61.411,61.411,0,0,1,2.443-7.768c.171-.345.385-.766.783-.883" transform="translate(-93.091 -303.372)" fill="#41cee2"/>
        <path id="Path_886235" data-name="Path 886235" d="M300.081,383.237c1.465-.44,2.1.519,1.885,1.885a68.862,68.862,0,0,1-2.5,7.913,1.509,1.509,0,0,1-2.828-.935c.083-.732,2.185-7.119,2.564-7.867.18-.356.478-.876.878-1" transform="translate(-234.857 -303.345)" fill="#41cee2"/>
        <rect id="Rectangle_406247" data-name="Rectangle 406247" width="4.319" height="0.987" transform="translate(85.48 30.298)" fill="#f6f6f6"/>
        <rect id="Rectangle_406248" data-name="Rectangle 406248" width="4.319" height="0.987" transform="translate(85.48 32.642)" fill="#f6f6f6"/>
        <rect id="Rectangle_406249" data-name="Rectangle 406249" width="4.319" height="0.987" transform="translate(85.48 34.987)" fill="#f6f6f6"/>
        <rect id="Rectangle_406250" data-name="Rectangle 406250" width="4.319" height="0.987" transform="translate(85.48 37.332)" fill="#f6f6f6"/>
        <rect id="Rectangle_406251" data-name="Rectangle 406251" width="4.319" height="0.987" transform="translate(85.48 39.677)" fill="#f6f6f6"/>
        <rect id="Rectangle_406252" data-name="Rectangle 406252" width="4.319" height="0.987" transform="translate(85.48 42.021)" fill="#f6f6f6"/>
        <rect id="Rectangle_406253" data-name="Rectangle 406253" width="4.319" height="0.987" transform="translate(85.48 44.366)" fill="#f6f6f6"/>
      </g>
    </g>
  </g>
</svg>
