<svg xmlns="http://www.w3.org/2000/svg" xmlns:xlink="http://www.w3.org/1999/xlink" width="147" height="147" viewBox="0 0 147 147">
  <defs>
    <clipPath id="clip-path">
      <rect id="Rectangle_400938" data-name="Rectangle 400938" width="147" height="147" fill="none"/>
    </clipPath>
    <clipPath id="clip-path-2">
      <rect id="Rectangle_401492" data-name="Rectangle 401492" width="78.518" height="78.519" transform="translate(2.297 3.187)" fill="#b8fafd" stroke="#707070" stroke-width="1"/>
    </clipPath>
    <clipPath id="clip-path-3">
      <rect id="Rectangle_406630" data-name="Rectangle 406630" width="63.315" height="77.365" fill="#b8fafd"/>
    </clipPath>
  </defs>
  <g id="Group_1111851" data-name="Group 1111851" transform="translate(-310 -7635)">
    <g id="Group_1102000" data-name="Group 1102000" transform="translate(448.975 7781.705) rotate(180)">
      <path id="Path_874029" data-name="Path 874029" d="M626.466,575.286l-64.987-36.674V465.259l64.987-36.677,64.987,36.677v73.354Zm-62.05-38.332,62.05,35.019,62.05-35.019V466.916l-62.05-35.022-62.05,35.022Z" transform="translate(-561.479 -428.582)" fill="#2bc897"/>
      <path id="Path_874030" data-name="Path 874030" d="M574.458,477v66.873l59.374,33.436L693.2,543.876V477l-59.373-33.436Z" transform="translate(-568.844 -437.087)" fill="#005865"/>
    </g>
    <g id="Mask_Group_1098697" data-name="Mask Group 1098697" transform="translate(341.414 7665.634)" clip-path="url(#clip-path-2)">
      <g id="Group_1112189" data-name="Group 1112189" transform="translate(10.297 4.187)">
        <g id="Group_1112188" data-name="Group 1112188" clip-path="url(#clip-path-3)">
          <path id="Path_886852" data-name="Path 886852" d="M38.6,49.875H56.022c1.691,0,3.67,2.465,3.862,4.083.7,5.911-.484,13.077.02,19.121a5.14,5.14,0,0,1-3.432,3.972c-16.954.633-34.022.085-51.017.278C2.227,77.086.413,75.44.14,72.172.45,66.585-.282,60.546.13,55.014a5.227,5.227,0,0,1,2.411-4.451,12.646,12.646,0,0,1,1.478-.688H18.735L6.743,37.761a5,5,0,0,1-.02-6.128L37.151,1.21a4.966,4.966,0,0,1,6.866.361C49.4,7.6,56.3,13.016,61.534,19.083c2.026,2.35,2.519,4.574.449,7.139L38.867,49.332ZM39.632,2.067a3.3,3.3,0,0,0-1.49.856l-29.7,29.7c-2.355,2.946,1.036,4.949,2.808,6.771s3.517,3.715,5.317,5.517c1.657,1.658,3.4,3.205,5.007,4.924l14.134-.057L60.27,25.231a3.04,3.04,0,0,0,.452-4.071c-5.1-5.1-10.155-10.189-15.267-15.249-1.646-1.629-3.082-4.354-5.823-3.844M4.969,51.727a3.166,3.166,0,0,0-2.846,2.751c-.6,5.636.453,12.311,0,18.058A2.981,2.981,0,0,0,5.1,75.342H55.127a3.039,3.039,0,0,0,2.707-1.988l-.087-19.786a3.368,3.368,0,0,0-3.341-1.9Z" transform="translate(0 0)" fill="#b8fafd"/>
          <path id="Path_886853" data-name="Path 886853" d="M136.15,75.328a1.168,1.168,0,0,1,1.1.641,1.348,1.348,0,0,1-.419,1.32c-9.091,8.623-17.579,17.837-26.543,26.544-.238.231-1.787,1.655-1.9,1.709a1,1,0,0,1-.993-1.717l27.986-27.988a1.7,1.7,0,0,1,.767-.51" transform="translate(-87.672 -61.719)" fill="#b8fafd"/>
          <path id="Path_886854" data-name="Path 886854" d="M163.167,86.181c5.464-.834,6.162,7.191,1.2,7.7-5.188.531-5.937-6.977-1.2-7.7m.176,1.979a1.924,1.924,0,0,0,1,3.713c2.257-.458,1.695-4.324-1-3.713" transform="translate(-131.117 -70.57)" fill="#b8fafd"/>
          <path id="Path_886855" data-name="Path 886855" d="M181.588,189.909a3.917,3.917,0,1,1-2.4,1.935,4.551,4.551,0,0,1,2.4-1.935m.359,1.984c-1.7.385-1.618,3.471.552,3.72,2.63.3,2.994-4.522-.552-3.72" transform="translate(-146.471 -155.523)" fill="#b8fafd"/>
          <path id="Path_886856" data-name="Path 886856" d="M121.147,128.293c5.161-.636,5.818,7.073,1.2,7.7-5.456.744-6.283-7.076-1.2-7.7m0,1.978a1.922,1.922,0,0,0,1,3.712c2.224-.457,1.627-4.209-1-3.712" transform="translate(-96.496 -105.097)" fill="#b8fafd"/>
          <path id="Path_886857" data-name="Path 886857" d="M205.242,44.083c5.638-.975,6.425,7.148,1.384,7.707-4.992.553-5.889-6.928-1.384-7.707m.356,1.981a1.923,1.923,0,0,0,.187,3.715c2.96.573,3.076-4.467-.187-3.715" transform="translate(-165.79 -36.057)" fill="#b8fafd"/>
          <path id="Path_886858" data-name="Path 886858" d="M224.866,147.331c5.112-.452,5.609,7.1,1.2,7.71-5.834.808-6.12-7.275-1.2-7.71m.176,1.982a1.9,1.9,0,0,0-.218,3.749c3.066.486,2.954-4.056.218-3.749" transform="translate(-181.431 -120.712)" fill="#b8fafd"/>
          <path id="Path_886859" data-name="Path 886859" d="M266.743,105.243a3.938,3.938,0,0,1,3.557,6.446,3.9,3.9,0,1,1-3.557-6.446m.181,1.98a1.924,1.924,0,1,0,1,3.715c2.218-.511,1.54-4.208-1-3.715" transform="translate(-215.914 -86.202)" fill="#b8fafd"/>
          <path id="Path_886860" data-name="Path 886860" d="M79.128,170.313c5.577-.612,5.918,8.613-.4,7.706-3.9-.56-4.227-7.2.4-7.706M79.12,172.3A1.946,1.946,0,1,0,80.3,176c1.9-.489,1.427-4.234-1.177-3.705" transform="translate(-62.058 -139.536)" fill="#b8fafd"/>
          <path id="Path_886861" data-name="Path 886861" d="M137.674,238.46c-3.433-3.438,1.215-8.723,5.081-5.893,4.362,3.194-1.188,9.791-5.081,5.893m2.419-4.777c-2.307.44-1.983,4.09.473,3.933,2.639-.169,2.037-4.411-.473-3.933" transform="translate(-111.832 -189.914)" fill="#b8fafd"/>
          <path id="Path_886862" data-name="Path 886862" d="M181.962,303.035a4.083,4.083,0,0,1,4.923,3.663c.2,1.962.258,9.328-.189,11-1.135,4.249-7.282,3.761-7.752-.895a66.7,66.7,0,0,1,.045-10.424,4.3,4.3,0,0,1,2.973-3.347m2.758,7.724v-4.424c0-.535-1.268-1.369-1.88-1.343-.542.023-1.731.865-1.731,1.343v4.424Zm-3.521,1.986c-.411.251-.09.388-.09.451v4.153c0,.664,1.255,1.209,1.9,1.189.582-.018,1.714-.615,1.714-1.189V313.2c0-.045.147-.107.142-.181l-.232-.271Z" transform="translate(-146.484 -248.245)" fill="#b8fafd"/>
          <path id="Path_886863" data-name="Path 886863" d="M40.978,303.035A4.083,4.083,0,0,1,45.9,306.7c.2,1.962.258,9.328-.189,11-1.135,4.249-7.282,3.761-7.752-.895A65.644,65.644,0,0,1,38,306.562a4.22,4.22,0,0,1,2.973-3.527m2.758,7.724v-4.424c0-.535-1.268-1.369-1.88-1.343-.542.023-1.731.865-1.731,1.343v4.424Zm-3.611,1.986v4.6c0,1.034,2.451,1.8,3.335.446a6.236,6.236,0,0,0,.457-1.168v-3.611l-.271-.271Z" transform="translate(-30.96 -248.245)" fill="#b8fafd"/>
          <path id="Path_886864" data-name="Path 886864" d="M252.9,303.158a3.938,3.938,0,0,1,4.743,3.3,75.935,75.935,0,0,1-.081,11.477,4.5,4.5,0,0,1-1.194,1.875c-2.25,1.935-6.164.683-6.49-2.336a74.627,74.627,0,0,1,.044-11.333,4.042,4.042,0,0,1,2.979-2.979m2.756,7.721v-4.424c0-.513-1.343-1.364-1.9-1.364s-1.9.852-1.9,1.364v4.424Zm0,1.986H251.86v4.6a4.342,4.342,0,0,0,.948,1.038,2.388,2.388,0,0,0,2.217-.221,5.9,5.9,0,0,0,.627-1Z" transform="translate(-204.596 -248.365)" fill="#b8fafd"/>
          <path id="Path_886865" data-name="Path 886865" d="M111.9,303.158a3.938,3.938,0,0,1,4.743,3.3,75.936,75.936,0,0,1-.081,11.477c-.815,3.847-7.243,3.661-7.685-.461a74.579,74.579,0,0,1,.044-11.333,4.042,4.042,0,0,1,2.979-2.979m2.756,7.721v-4.424c0-.513-1.343-1.364-1.9-1.364s-1.9.852-1.9,1.364v4.424Zm0,1.986H110.86v4.424a5.9,5.9,0,0,0,.627,1,2.388,2.388,0,0,0,2.217.221,4.342,4.342,0,0,0,.948-1.038Z" transform="translate(-89.055 -248.365)" fill="#b8fafd"/>
        </g>
      </g>
    </g>
  </g>
</svg>
