<svg xmlns="http://www.w3.org/2000/svg" xmlns:xlink="http://www.w3.org/1999/xlink" width="99" height="99" viewBox="0 0 99 99">
  <defs>
    <clipPath id="clip-path">
      <rect id="Rectangle_401223" data-name="Rectangle 401223" width="99" height="99" transform="translate(0)" fill="#006543"/>
    </clipPath>
    <clipPath id="clip-path-2">
      <rect id="Rectangle_401223-2" data-name="Rectangle 401223" width="88.539" height="88.539" fill="#f3f9ff"/>
    </clipPath>
    <clipPath id="clip-path-3">
      <rect id="Rectangle_406582" data-name="Rectangle 406582" width="42.839" height="69" fill="none"/>
    </clipPath>
  </defs>
  <g id="Group_1109776" data-name="Group 1109776" transform="translate(-619.922 -5755.871)">
    <g id="Group_1100724" data-name="Group 1100724" transform="translate(619.921 5755.871)">
      <g id="Group_1099654" data-name="Group 1099654" transform="translate(0 0)">
        <g id="Group_1099652" data-name="Group 1099652" clip-path="url(#clip-path)">
          <path id="Path_873521" data-name="Path 873521" d="M99,77.066A22,22,0,0,1,77.066,99H21.934A22,22,0,0,1,0,77.066V21.933A22,22,0,0,1,21.934,0H77.066A22,22,0,0,1,99,21.934Z" transform="translate(0)" fill="#005865"/>
        </g>
      </g>
      <g id="Group_1099659" data-name="Group 1099659" transform="translate(4.77 5.723)">
        <g id="Group_1099652-2" data-name="Group 1099652" transform="translate(0 0)" clip-path="url(#clip-path-2)">
          <path id="Path_873521-2" data-name="Path 873521" d="M88.539,68.922A19.674,19.674,0,0,1,68.923,88.539H19.616A19.674,19.674,0,0,1,0,68.922V19.616A19.674,19.674,0,0,1,19.616,0H68.923A19.674,19.674,0,0,1,88.539,19.616Z" fill="#f3f9ff"/>
        </g>
      </g>
    </g>
    <g id="Group_1100725" data-name="Group 1100725" transform="translate(636.343 5771.293)">
      <rect id="Rectangle_401104" data-name="Rectangle 401104" width="68" height="69" transform="translate(-0.422 -0.373)" fill="none"/>
      <g id="Group_1112102" data-name="Group 1112102" transform="translate(12.579 -0.373)">
        <g id="Group_1112099" data-name="Group 1112099">
          <g id="Group_1112098" data-name="Group 1112098" clip-path="url(#clip-path-3)">
            <path id="Path_886622" data-name="Path 886622" d="M97.326,64.324h10.32a3.991,3.991,0,0,1,3.991,3.991v8.117a3.991,3.991,0,0,1-3.991,3.991H97.325a3.989,3.989,0,0,1-3.99-3.99V68.315a3.991,3.991,0,0,1,3.991-3.991" transform="translate(-78.716 -54.249)" fill="#004753"/>
            <path id="Path_886623" data-name="Path 886623" d="M78.781,0H94.913A3.991,3.991,0,0,1,98.9,3.991v5.99a3.99,3.99,0,0,1-3.99,3.99H78.782a3.991,3.991,0,0,1-3.991-3.991V3.99A3.99,3.99,0,0,1,78.781,0" transform="translate(-63.077)" fill="#009cc3"/>
            <path id="Path_886624" data-name="Path 886624" d="M92.118,19.149a1.7,1.7,0,0,1-3.4,0v-8.1a1.7,1.7,0,0,1,3.4,0Z" transform="translate(-74.824 -7.887)" fill="#3bb4d1"/>
            <path id="Path_886625" data-name="Path 886625" d="M126.935,19.149a1.7,1.7,0,0,1-3.4,0v-8.1a1.7,1.7,0,0,1,3.4,0Z" transform="translate(-104.188 -7.887)" fill="#3bb4d1"/>
            <path id="Path_886626" data-name="Path 886626" d="M161.693,19.149a1.7,1.7,0,0,1-3.4,0v-8.1a1.7,1.7,0,0,1,3.4,0Z" transform="translate(-133.502 -7.887)" fill="#3bb4d1"/>
            <path id="Path_886627" data-name="Path 886627" d="M196.473,19.149a1.7,1.7,0,0,1-3.4,0v-8.1a1.7,1.7,0,0,1,3.4,0Z" transform="translate(-162.835 -7.887)" fill="#3bb4d1"/>
            <path id="Path_886628" data-name="Path 886628" d="M75.255,128.093v38.574a4.558,4.558,0,0,1-4.557,4.557H44.9a4.558,4.558,0,0,1-4.557-4.557V128.093a4.552,4.552,0,0,1,4.548-4.557H70.7a4.552,4.552,0,0,1,4.557,4.548v.009" transform="translate(-34.025 -104.187)" fill="#41b5d0"/>
            <path id="Path_886629" data-name="Path 886629" d="M159.221,14.863a1.29,1.29,0,0,1-1.289,1.291h-6.71a1.291,1.291,0,1,1-.077-2.582h6.786a1.29,1.29,0,0,1,1.291,1.289v0" transform="translate(-126.415 -11.446)" fill="#fff"/>
            <path id="Path_886630" data-name="Path 886630" d="M50.843,386.747H79.476a1.6,1.6,0,0,1,1.6,1.6v1.437a1.6,1.6,0,0,1-1.6,1.6H50.843a1.6,1.6,0,0,1-1.6-1.6v-1.437a1.6,1.6,0,0,1,1.6-1.6" transform="translate(-41.534 -326.173)" fill="#004753"/>
            <path id="Path_886631" data-name="Path 886631" d="M172.32,138.7a1.53,1.53,0,0,1-1.53,1.53H160.179a1.53,1.53,0,0,1,0-3.058h10.612a1.531,1.531,0,0,1,1.53,1.53" transform="translate(-133.85 -115.69)" fill="#fff"/>
            <path id="Path_886632" data-name="Path 886632" d="M1.69,364.982l9.083-5.781a3.5,3.5,0,0,1,3.763,5.9l-9.083,5.781a3.5,3.5,0,1,1-3.9-5.811q.069-.047.141-.09" transform="translate(0 -302.478)" fill="#46a87e"/>
            <path id="Path_886633" data-name="Path 886633" d="M1.8,383.5l4.539-2.892,3.756,5.9L5.554,389.4A3.5,3.5,0,0,1,1.7,383.555l.093-.059" transform="translate(-0.106 -320.993)" fill="#f4952f"/>
            <path id="Path_886634" data-name="Path 886634" d="M24.87,374.983A.958.958,0,0,1,25.9,376.6l-7.184,4.576a.957.957,0,0,1-1.108-1.561.97.97,0,0,1,.082-.052Z" transform="translate(-14.509 -316.125)" fill="#fff"/>
            <path id="Path_886635" data-name="Path 886635" d="M66.556,221.632H28.183V204.4H66.556Z" transform="translate(-23.769 -172.388)" fill="#fff"/>
          </g>
        </g>
        <text id="XXX" transform="translate(15 44)" fill="#161615" font-size="9" font-family="Roboto-Bold, Roboto" font-weight="700"><tspan x="0" y="0" letter-spacing="-0.014em">XX</tspan><tspan y="0">X</tspan></text>
        <g id="Group_1112101" data-name="Group 1112101">
          <g id="Group_1112100" data-name="Group 1112100" clip-path="url(#clip-path-3)">
            <path id="Path_886636" data-name="Path 886636" d="M97.048,211.079c-2.7-.077-5.315.857-7.881,1.561a14.076,14.076,0,0,0-1.7.532,8.523,8.523,0,0,0-1.5.8,9.6,9.6,0,0,0-2.4,2.363,7.685,7.685,0,0,0-.887,1.5,5.536,5.536,0,0,0-.4,1.812,8.444,8.444,0,0,0,.614,3.588,3.88,3.88,0,0,0,1.9,2.1,7.059,7.059,0,0,0,2.776.605c.929.042,1.862-.007,2.79-.046a25.123,25.123,0,0,0,2.672-.259A19.014,19.014,0,0,0,98.3,224.1a10.1,10.1,0,0,0,4.072-3.267,7.431,7.431,0,0,0,1.094-2.4,9.689,9.689,0,0,0,.24-2.81,8.332,8.332,0,0,0-.57-2.969,2.963,2.963,0,0,0-2.147-1.8,10.368,10.368,0,0,0-3.326.018c-1.257.142-2.521.205-3.78.334-.727.075-1.454.155-2.182.228a.4.4,0,0,0-.392.392.394.394,0,0,0,.392.392c1.442-.144,2.881-.319,4.327-.417,1.024-.069,2.042-.221,3.067-.275a6.907,6.907,0,0,1,1.506.049,2.425,2.425,0,0,1,1.169.472,3.821,3.821,0,0,1,1.04,2.349,8.736,8.736,0,0,1-.534,5.047,8.082,8.082,0,0,1-3.286,3.409,15.819,15.819,0,0,1-4.818,1.78,28.224,28.224,0,0,1-5.012.518,13.452,13.452,0,0,1-2.66-.106,3.948,3.948,0,0,1-2.179-1,5.1,5.1,0,0,1-1.16-2.729,5.61,5.61,0,0,1,.27-3.278,8.713,8.713,0,0,1,1.92-2.588,7.733,7.733,0,0,1,2.559-1.625c.538-.2,1.1-.335,1.653-.489.627-.174,1.251-.356,1.878-.532a27.2,27.2,0,0,1,3.782-.849,11.521,11.521,0,0,1,1.822-.1.392.392,0,0,0,0-.783" transform="translate(-69.381 -177.721)" fill="#db0216"/>
            <path id="Path_886637" data-name="Path 886637" d="M27.59,277.317v-1.688h7.46c.186,0,.336.378.336.844s-.151.843-.336.843Z" transform="translate(-23.269 -232.459)" fill="#6d6d6d"/>
            <path id="Path_886638" data-name="Path 886638" d="M27.59,256.546v-1.688h7.46c.186,0,.336.378.336.844s-.151.843-.336.843Z" transform="translate(-23.269 -214.941)" fill="#6d6d6d"/>
            <path id="Path_886639" data-name="Path 886639" d="M27.59,235.767v-1.68h7.46c.185.017.329.407.322.871-.006.44-.147.793-.322.809Z" transform="translate(-23.269 -197.423)" fill="#6d6d6d"/>
            <path id="Path_886640" data-name="Path 886640" d="M223.486,277.317c-.188,0-.34-.378-.34-.843s.152-.844.34-.844h7.549v1.688Z" transform="translate(-188.196 -232.459)" fill="#6d6d6d"/>
            <path id="Path_886641" data-name="Path 886641" d="M223.486,256.546c-.188,0-.34-.378-.34-.843s.152-.844.34-.844h7.549v1.688Z" transform="translate(-188.196 -214.941)" fill="#6d6d6d"/>
            <path id="Path_886642" data-name="Path 886642" d="M223.559,235.767c-.177-.016-.32-.369-.326-.809-.007-.464.139-.854.326-.871h7.549v1.68Z" transform="translate(-188.269 -197.423)" fill="#6d6d6d"/>
            <path id="Path_886643" data-name="Path 886643" d="M67.859,370.29,77.966,374a3.5,3.5,0,0,1-2.407,6.572l-10.107-3.711a3.5,3.5,0,1,1,2.25-6.629c.053.018.105.037.157.057" transform="translate(-53.197 -312.088)" fill="#46a87e"/>
            <path id="Path_886644" data-name="Path 886644" d="M67.992,370.322l5.053,1.853-2.41,6.566-5.053-1.85a3.5,3.5,0,0,1,2.3-6.61l.1.038" transform="translate(-53.33 -312.12)" fill="#f4952f"/>
            <path id="Path_886645" data-name="Path 886645" d="M95.474,385.294a.958.958,0,0,1-.66,1.8l-8-2.933a.957.957,0,1,1,.569-1.828.894.894,0,0,1,.092.034Z" transform="translate(-72.652 -322.412)" fill="#fff"/>
          </g>
        </g>
      </g>
    </g>
  </g>
</svg>
