<svg xmlns="http://www.w3.org/2000/svg" xmlns:xlink="http://www.w3.org/1999/xlink" width="85" height="85" viewBox="0 0 85 85">
  <defs>
    <clipPath id="clip-path">
      <rect id="Rectangle_406575" data-name="Rectangle 406575" width="62.11" height="55.915" fill="#fff"/>
    </clipPath>
  </defs>
  <g id="Group_1112776" data-name="Group 1112776" transform="translate(-1020.711 -1574)">
    <rect id="Rectangle_404009" data-name="Rectangle 404009" width="85" height="85" transform="translate(1020.711 1574)" fill="#005865"/>
    <g id="Group_1112093" data-name="Group 1112093" transform="translate(1031.711 1589)">
      <g id="Group_1112092" data-name="Group 1112092" clip-path="url(#clip-path)">
        <path id="Path_886596" data-name="Path 886596" d="M120.216,93.865c-1.308-2.5-2.669-5.024-3.985-7.466q-.838-1.555-1.674-3.111l-2.89-5.388q-5.639-10.518-11.281-21.034a6.017,6.017,0,0,0-5.532-3.419h-.042A6.052,6.052,0,0,0,89.261,56.9c-.768,1.449-1.558,2.918-2.322,4.339l-.924,1.719-3.465,6.457c-4.247,7.915-8.638,16.1-12.964,24.146a5.4,5.4,0,0,0-.726,3.508,5.263,5.263,0,0,0,5.431,4.462c2.919,0,5.866,0,8.79,0h15.9c5.313,0,10.807,0,16.21-.009a7.248,7.248,0,0,0,1.79-.2,5.092,5.092,0,0,0,3.419-2.863,5.26,5.26,0,0,0-.183-4.6m-48.47.862c.078-.151.159-.3.239-.45l5.047-9.4,8.656-16.122q.915-1.7,1.827-3.411c1.29-2.412,2.624-4.907,3.953-7.351a3.727,3.727,0,0,1,4.49-1.944A3.944,3.944,0,0,1,98.28,58.11c1.875,3.505,3.788,7.066,5.638,10.509l2.526,4.7,1.572,2.929c3.2,5.969,6.518,12.141,9.768,18.217a4.884,4.884,0,0,1,.585,1.48,2.641,2.641,0,0,1-.575,2.154,2.9,2.9,0,0,1-2.24.97c-2.906.015-5.861.012-8.719.01l-3.3,0H88.651c-4.688,0-9.534,0-14.3,0a3.041,3.041,0,0,1-2.711-1.3,3.091,3.091,0,0,1,.108-3.051" transform="translate(-58.733 -45.625)" fill="#fff"/>
        <path id="Path_886597" data-name="Path 886597" d="M12.353,37.9h.1a.964.964,0,0,0,.7-.165,1.462,1.462,0,0,0,.577-1c-.007-.351-.351-.65-.687-.9a.88.88,0,0,0-.6-.106.774.774,0,0,1-.136.006H9.17q-2.35,0-4.7,0a2.034,2.034,0,0,1-2.3-2.284q0-10.627,0-21.255A2.009,2.009,0,0,1,4.283,9.941a4.334,4.334,0,0,0,4.038-3.1c.031-.091.063-.181.094-.272.114-.325.232-.661.316-1.007.059-.245.119-.306.428-.3,1.583.014,3.192.013,4.747.012q1.35,0,2.7,0c.176,0,.351-.012.524-.025a1.877,1.877,0,0,1,1.028.086c.178.123.272.523.356.876.042.179.086.365.144.535a4.334,4.334,0,0,0,4.2,3.206,2.04,2.04,0,0,1,2,2.1c0,.362,0,.723,0,1.085,0,.345,0,.69,0,1.034a1.072,1.072,0,0,0,1.022,1.194,1.009,1.009,0,0,0,.754-.26,1.273,1.273,0,0,0,.357-.924c.017-.67.011-1.355,0-1.958a4.165,4.165,0,0,0-4.215-4.439,1.963,1.963,0,0,1-1.72-.956,9.033,9.033,0,0,1-.554-1.288l-.1-.266h.077c.324,0,.6.006.89-.006a2.619,2.619,0,0,0,2.482-3.048A2.666,2.666,0,0,0,21.005,0Q14.686,0,8.367,0H6a3.722,3.722,0,0,0-.5.023A2.641,2.641,0,0,0,3.109,2.8,2.658,2.658,0,0,0,5.816,5.266c.245,0,.489,0,.756,0h0l-.023.074c-.1.307-.189.6-.293.878a2.177,2.177,0,0,1-2.1,1.564A4.162,4.162,0,0,0,.005,12.175C0,19.17,0,26.34.005,33.487A4.2,4.2,0,0,0,4.447,37.9c1.036,0,2.078,0,3.119,0,1.493,0,2.983,0,4.443-.005ZM20.807,3.127h0q-6.139,0-12.277,0H6.157c-.876-.006-.878-.306-.879-.484a.377.377,0,0,1,.094-.295c.083-.083.284-.183.774-.183H20.855c.059,0,.122,0,.186-.01a1.189,1.189,0,0,1,.2,0c.36.293.444.441.45.509a1.073,1.073,0,0,1-.394.452,1.012,1.012,0,0,1-.33.018c-.056,0-.111,0-.164,0" transform="translate(0 -0.001)" fill="#fff"/>
        <path id="Path_886598" data-name="Path 886598" d="M220.668,139.813q.253.025.5.025a4.278,4.278,0,0,0,2.887-1.059,4.5,4.5,0,0,0,1.435-3.352c.029-2.041.022-4.115.015-6.121q0-1.33-.006-2.659l0-.346q0-1.179.007-2.358c.008-2.063.016-4.2-.02-6.3a4.3,4.3,0,0,0-4.291-4.345h-.042a4.278,4.278,0,0,0-3.02,1.236,4.4,4.4,0,0,0-1.308,3.136c-.039,5.842-.038,11.847,0,17.846a4.245,4.245,0,0,0,3.843,4.292m2.117-11.487q0,3.527,0,7.053A1.616,1.616,0,0,1,221.743,137a1.363,1.363,0,0,1-1.675-.361,2.644,2.644,0,0,1-.481-1.387c-.039-2.151-.034-4.341-.028-6.459q0-1.117,0-2.233,0-1.354,0-2.708c0-1.987,0-4.042.006-6.062a1.575,1.575,0,0,1,1.524-1.731,1.557,1.557,0,0,1,1.168.419,1.861,1.861,0,0,1,.521,1.357c.008,1.959.007,3.951,0,5.877q0,1.154,0,2.308Z" transform="translate(-185.066 -96.719)" fill="#fff"/>
        <path id="Path_886599" data-name="Path 886599" d="M222.6,303.111a15.057,15.057,0,0,0-2.616,0,3.32,3.32,0,0,0-3.055,3.376,3.374,3.374,0,0,0,3.223,3.3c.142.007.284.01.424.01.118,0,.235,0,.35,0q.336,0,.672,0c.254,0,.517.007.781-.006a3.313,3.313,0,0,0,3.219-3.2,3.247,3.247,0,0,0-3-3.476m.278,3.306a.53.53,0,0,1-.5.588,4,4,0,0,1-.735.016c-.125,0-.25-.009-.374-.009H220.9v.014a4,4,0,0,1-.676-.014.532.532,0,0,1-.531-.621c.024-.471.311-.538.524-.548.367-.016.718-.024,1.058-.024.376,0,.738.01,1.093.029a.517.517,0,0,1,.51.567" transform="translate(-185.181 -258.699)" fill="#fff"/>
      </g>
    </g>
  </g>
</svg>
