<svg xmlns="http://www.w3.org/2000/svg" xmlns:xlink="http://www.w3.org/1999/xlink" width="129" height="128" viewBox="0 0 129 128">
  <defs>
    <clipPath id="clip-path">
      <rect id="Rectangle_400938" data-name="Rectangle 400938" width="120" height="120" fill="none"/>
    </clipPath>
    <clipPath id="clip-path-2">
      <rect id="Rectangle_401492" data-name="Rectangle 401492" width="66.543" height="66.543" transform="translate(0 0)" fill="#12263f" stroke="#707070" stroke-width="1"/>
    </clipPath>
    <clipPath id="clip-path-3">
      <rect id="Rectangle_401491" data-name="Rectangle 401491" width="52.856" height="61.057" fill="#12263f"/>
    </clipPath>
  </defs>
  <g id="Group_1112752" data-name="Group 1112752" transform="translate(-386.711 -1401)">
    <g id="Grupo_108927" data-name="Grupo 108927" transform="translate(-3.289 -3066)">
      <path id="Rectángulo_36179" data-name="Rectángulo 36179" d="M0,0H129V128H0Z" transform="translate(390 4467)" fill="#41cee2"/>
    </g>
    <g id="Group_1111812" data-name="Group 1111812" transform="translate(398.211 1405.957)">
      <circle id="Ellipse_11562" data-name="Ellipse 11562" cx="51.479" cy="51.479" r="51.479" transform="translate(0 8.543)" fill="#defff4"/>
      <g id="Ellipse_11577" data-name="Ellipse 11577" transform="translate(-5.5 3.043)" fill="none" stroke="#defff4" stroke-width="1">
        <circle cx="56.979" cy="56.979" r="56.979" stroke="none"/>
        <circle cx="56.979" cy="56.979" r="56.479" fill="none"/>
      </g>
    </g>
    <g id="Group_1111813" data-name="Group 1111813" transform="translate(419.143 1433.223)">
      <rect id="Rectangle_401104" data-name="Rectangle 401104" width="62" height="63" transform="translate(-0.16 -0.223)" fill="none"/>
      <g id="Mask_Group_1098697" data-name="Mask Group 1098697" transform="translate(-2.432 -0.223)" clip-path="url(#clip-path-2)">
        <g id="Group_1100236" data-name="Group 1100236" transform="translate(6.779 2.542)">
          <g id="Group_1100235" data-name="Group 1100235" clip-path="url(#clip-path-3)">
            <path id="Path_873786" data-name="Path 873786" d="M47.024,49.11h.453c.92-.005,1.841-.023,2.761-.009a1.858,1.858,0,0,1,.789.167,1.148,1.148,0,0,1,.619,1.127,10.3,10.3,0,0,1-2.092,6.236,10.594,10.594,0,0,1-6.783,4.233,11,11,0,0,1-2.01.184q-16.894.016-33.788,0A6.587,6.587,0,0,1,.686,57.145,6.738,6.738,0,0,1,.061,54.56C.02,53.979,0,53.395,0,52.812Q0,28.536.013,4.26A5.514,5.514,0,0,1,.335,2.309,3.528,3.528,0,0,1,3.813,0C3.859,0,3.9,0,3.95,0Q22.279,0,40.608,0a3.776,3.776,0,0,1,2.639.936,3.57,3.57,0,0,1,1.2,2.578c.012.236.011.474.011.711q0,12.473,0,24.946a.544.544,0,0,0,.2.374,16.148,16.148,0,0,0,6.8,3,2.7,2.7,0,0,1,.6.173,1.027,1.027,0,0,1,.635.833,18.578,18.578,0,0,1,.159,2.1,17.466,17.466,0,0,1-4.547,12.057c-.412.459-.866.88-1.3,1.318l.015.08m-13.345-12c0-.733-.02-1.425.007-2.115a9.442,9.442,0,0,1,.165-1.49,1.08,1.08,0,0,1,.951-.893c.323-.054.644-.117.966-.176a13.31,13.31,0,0,0,6.138-2.87.618.618,0,0,0,.179-.416c.016-.483-.011-.966-.011-1.449Q42.082,15.749,42.1,3.8a1.261,1.261,0,0,0-1.385-1.4c-2.259.034-4.519.011-6.779.011H3.673A1.109,1.109,0,0,0,2.438,3.452a3.575,3.575,0,0,0-.029.572q0,25,0,50a7.222,7.222,0,0,0,.11,1.222,4.217,4.217,0,0,0,3.56,3.378,4.138,4.138,0,0,0,4.555-2.743,6.313,6.313,0,0,0,.23-2.19c-.005-1.1-.007-2.206.01-3.309a1.19,1.19,0,0,1,1.182-1.275,3.41,3.41,0,0,1,.382-.018l26.624.014c.156,0,.312-.022.535-.038A17.786,17.786,0,0,1,34.084,39.5c-.092-.005-.172-.014-.252-.014H18.579a5.637,5.637,0,0,1-.6-.025A1.211,1.211,0,0,1,16.855,38.3a1.244,1.244,0,0,1,1.121-1.152,6.983,6.983,0,0,1,.736-.035q7.039,0,14.078,0h.89M49.206,51.446h-.525q-7.461,0-14.923,0-10.113,0-20.225,0c-.24,0-.313.067-.309.309.014.921.019,1.841,0,2.762A6.381,6.381,0,0,1,11.8,58.527a.5.5,0,0,0-.045.12h.322q14.554,0,29.108,0a5.894,5.894,0,0,0,1.034-.07,8.35,8.35,0,0,0,6.289-4.736,7.234,7.234,0,0,0,.7-2.393M36.1,34.773a16.148,16.148,0,0,0,.287,4.281A15.3,15.3,0,0,0,42.9,48.671c.364.25.371.254.737,0A15.122,15.122,0,0,0,50.477,35c-.006-.207-.075-.275-.269-.321A18.274,18.274,0,0,1,44.8,32.466c-.516-.318-1.017-.662-1.524-.994a16.187,16.187,0,0,1-7.174,3.3" transform="translate(0 -0.001)" fill="#12263f"/>
            <path id="Path_873787" data-name="Path 873787" d="M43.8,42.766H29.265a3.8,3.8,0,0,1-.436-.015,1.212,1.212,0,0,1-1.2-1.323q-.008-6.454,0-12.908a1.228,1.228,0,0,1,1.286-1.326c.263-.015.528,0,.793,0q14.349,0,28.7,0a2.946,2.946,0,0,1,.65.063,1.286,1.286,0,0,1,.992,1.2c.006.091,0,.182,0,.273q0,6.249,0,12.5a1.339,1.339,0,0,1-1.516,1.539c-2.879.011-5.758.005-8.636.006H43.8M57.63,29.548H56.085q-12.888,0-25.776,0c-.265,0-.333.068-.332.334q.014,5.129,0,10.257c0,.209.057.258.26.257,1.649-.01,3.3-.008,4.948-.009l22.141-.005c.1,0,.194-.008.3-.014Z" transform="translate(-21.56 -21.217)" fill="#12263f"/>
            <path id="Path_873788" data-name="Path 873788" d="M35.981,173.209c0,.9-.038,1.806.01,2.705a1.373,1.373,0,0,1-1.534,1.525c-1.093,0-2.185.005-3.278,0-.8-.006-1.6-.013-2.4-.051a1.165,1.165,0,0,1-1.158-1.209q-.02-2.965-.006-5.931a1.138,1.138,0,0,1,1.131-1.2c.281-.025.564-.018.846-.018,1.593,0,3.187,0,4.78,0a2.876,2.876,0,0,1,.754.088,1.177,1.177,0,0,1,.857,1.163q0,1.462,0,2.924m-2.415-1.8c-1.142,0-2.253,0-3.364,0-.2,0-.241.075-.239.259.011,1.048.01,2.1.014,3.146a1.838,1.838,0,0,0,.022.2h3.567Z" transform="translate(-21.546 -131.92)" fill="#12263f"/>
            <path id="Path_873789" data-name="Path 873789" d="M36,118.764c0,.975,0,1.95,0,2.925a1.175,1.175,0,0,1-1.229,1.243q-2.924,0-5.847,0a1.173,1.173,0,0,1-1.288-1.266q-.014-2.9,0-5.8a1.185,1.185,0,0,1,1.283-1.253c1.913,0,3.825,0,5.738-.005a1.242,1.242,0,0,1,1.21.683,1.071,1.071,0,0,1,.125.461c.011,1,.006,2,.006,3.007m-2.418-1.724a.987.987,0,0,0-.115-.015c-1.092-.005-2.184-.005-3.275-.019-.211,0-.206.109-.205.258.006.965.007,1.93.009,2.895,0,.115,0,.23,0,.346h3.586Z" transform="translate(-21.56 -89.451)" fill="#12263f"/>
            <path id="Path_873790" data-name="Path 873790" d="M86.913,114.622q4.4,0,8.8,0a2.33,2.33,0,0,1,.513.054,1.152,1.152,0,0,1,.093,2.205,3.111,3.111,0,0,1-.856.142q-8.376.012-16.752,0a4.762,4.762,0,0,1-.975-.094A1.162,1.162,0,0,1,78,114.625c1.621,0,3.243,0,4.864,0h4.044Z" transform="translate(-59.879 -89.458)" fill="#12263f"/>
            <path id="Path_873791" data-name="Path 873791" d="M83.334,196.365q2.651,0,5.3,0a1.194,1.194,0,0,1,1.262,1.32,1.151,1.151,0,0,1-.828.983,2.535,2.535,0,0,1-.671.1q-4.8.009-9.593,0c-.318,0-.638-.02-.954-.052a1.283,1.283,0,0,1-1.13-1.207,1.3,1.3,0,0,1,1.256-1.146q2.678,0,5.356,0" transform="translate(-59.878 -153.256)" fill="#12263f"/>
            <path id="Path_873792" data-name="Path 873792" d="M83.364,143.947H78.009a1.178,1.178,0,0,1-1.067-.592,1.035,1.035,0,0,1,.327-1.481,2.154,2.154,0,0,1,1.019-.322c3.369-.023,6.739-.017,10.108-.008a2.335,2.335,0,0,1,.718.141,1.153,1.153,0,0,1,.8,1.346,1.17,1.17,0,0,1-1.173.913c-1.63,0-3.26,0-4.89,0h-.492" transform="translate(-59.908 -110.464)" fill="#12263f"/>
            <path id="Path_873793" data-name="Path 873793" d="M181.084,171.451c.561-.565,1.106-1.112,1.65-1.661.57-.576,1.128-1.164,1.711-1.726a1.18,1.18,0,0,1,2.007.505,1.16,1.16,0,0,1-.382,1.208c-.4.42-.822.827-1.234,1.238q-1.393,1.389-2.787,2.776a1.32,1.32,0,0,1-.975.476,1.033,1.033,0,0,1-.743-.284c-.6-.587-1.2-1.166-1.783-1.77a1.153,1.153,0,0,1-.1-1.544,1.212,1.212,0,0,1,1.731-.118c.3.273.582.574.91.9" transform="translate(-139.075 -130.875)" fill="#12263f"/>
          </g>
        </g>
      </g>
    </g>
  </g>
</svg>
