<svg xmlns="http://www.w3.org/2000/svg" xmlns:xlink="http://www.w3.org/1999/xlink" width="295" height="236" viewBox="0 0 295 236">
  <defs>
    <clipPath id="clip-path">
      <rect id="Rectangle_406767" data-name="Rectangle 406767" width="295" height="202.804" fill="#41cee2"/>
    </clipPath>
    <clipPath id="clip-path-2">
      <rect id="Rectangle_406766" data-name="Rectangle 406766" width="295.001" height="202.804" fill="#41cee2"/>
    </clipPath>
    <clipPath id="clip-path-4">
      <rect id="Rectangle_406764" data-name="Rectangle 406764" width="182.884" height="236" fill="none"/>
    </clipPath>
    <clipPath id="clip-path-6">
      <rect id="Rectangle_406761" data-name="Rectangle 406761" width="40.549" height="2.758" fill="none"/>
    </clipPath>
    <clipPath id="clip-path-7">
      <rect id="Rectangle_406762" data-name="Rectangle 406762" width="45.602" height="29.81" fill="none"/>
    </clipPath>
  </defs>
  <g id="Group_1112395" data-name="Group 1112395" transform="translate(-285 -4560.257)">
    <g id="Group_1112394" data-name="Group 1112394" transform="translate(285 4588.529)">
      <g id="Group_1112393" data-name="Group 1112393" transform="translate(0)" clip-path="url(#clip-path)">
        <g id="Group_1112392" data-name="Group 1112392" transform="translate(-0.001)">
          <g id="Group_1112391" data-name="Group 1112391" clip-path="url(#clip-path-2)">
            <g id="Group_1112390" data-name="Group 1112390" transform="translate(0.001)" opacity="0.28">
              <g id="Group_1112389" data-name="Group 1112389">
                <g id="Group_1112388" data-name="Group 1112388" clip-path="url(#clip-path)">
                  <path id="Path_887813" data-name="Path 887813" d="M293.137,136.211c-6.283-20.218-9.759-48.741-37.759-59.407C228.688,78.1,228.321,114.395,210,111.746c-24.108-3.485-31.5-26.15-69.153-46.027-12.269-6.476,11.769-40.217,0-47.583C112.44.358,85.378,31.47,71.378,14.8,47.417,4.806,1.657,34.494.046,91.013c-.68,23.863,6.073,59.643,23.86,70.077,58.806,13.046,63.81-39.547,96.139-24.879,20,19.259,10.371,40.752,33.333,49.926,21.32,8.518,38.12-8.281,64.667-6,36.022,3.1,30.337,30.555,51.232,21.175,17.232-7.736,30.829-42.677,23.86-65.1" transform="translate(-0.001 0)" fill="#41cee2"/>
                </g>
              </g>
            </g>
          </g>
        </g>
      </g>
    </g>
    <g id="Group_1112387" data-name="Group 1112387" transform="translate(336.827 4560.257)">
      <g id="Group_1112386" data-name="Group 1112386" clip-path="url(#clip-path-4)">
        <g id="Group_1112385" data-name="Group 1112385">
          <g id="Group_1112384" data-name="Group 1112384" clip-path="url(#clip-path-4)">
            <path id="Path_887690" data-name="Path 887690" d="M168.546,419.34c0,2.452-20.6,4.44-46.008,4.44s-46.007-1.988-46.007-4.44,20.6-4.441,46.007-4.441,46.008,1.988,46.008,4.441" transform="translate(-31.981 -187.78)" fill="#ccc"/>
            <path id="Path_887691" data-name="Path 887691" d="M287.275,420.8c0,1.476-6.642,2.672-14.836,2.672s-14.836-1.2-14.836-2.672,6.642-2.672,14.836-2.672,14.836,1.2,14.836,2.672" transform="translate(-107.649 -189.241)" fill="#ccc"/>
            <rect id="Rectangle_406754" data-name="Rectangle 406754" width="1.752" height="52.298" transform="translate(163.983 178.509)" fill="#92ded0"/>
            <path id="Path_887692" data-name="Path 887692" d="M288.4,25.488c0-2.694-7.1-4.877-15.857-4.876s-15.856,2.187-15.856,4.881c0,.379,0,1.823,0,2.2,0,2.694,7.1,4.877,15.857,4.876S288.4,30.384,288.4,27.69c0-.379,0-1.823,0-2.2" transform="translate(-107.265 -9.329)" fill="#223242"/>
            <path id="Path_887693" data-name="Path 887693" d="M288.4,29.512c0,2.694-7.1,4.88-15.856,4.881s-15.857-2.182-15.858-4.876,7.1-4.88,15.856-4.881S288.4,26.817,288.4,29.512" transform="translate(-107.266 -11.15)" fill="#3e6478"/>
            <path id="Path_887694" data-name="Path 887694" d="M280.228,28.079c-2.175,0-3.939.808-3.939,1.8l.006,29.876h7.877l-.006-29.877c0-1-1.764-1.8-3.938-1.8" transform="translate(-115.458 -12.708)" fill="#3e6478"/>
            <path id="Path_887695" data-name="Path 887695" d="M288.057,80.089c0-2.756-8.144-4.989-18.19-4.987s-18.189,2.237-18.188,4.993c0,.388,0,1.865,0,2.253,0,2.756,8.144,4.989,18.19,4.986s18.189-2.237,18.188-4.993c0-.388,0-1.864,0-2.253" transform="translate(-105.174 -33.991)" fill="#223242"/>
            <path id="Path_887696" data-name="Path 887696" d="M288.058,85.442c0,2.5-8.143,4.525-18.188,4.527s-18.189-2.022-18.19-4.52,8.143-4.525,18.188-4.527,18.189,2.022,18.19,4.521" transform="translate(-105.174 -36.625)" fill="#3e6478"/>
            <rect id="Rectangle_406755" data-name="Rectangle 406755" width="9.429" height="24.3" transform="translate(160.141 172.256)" fill="#3e6478"/>
            <path id="Path_887697" data-name="Path 887697" d="M272.425,85.952c-8.186,0-14.822.81-14.822,1.806l.027,144.532,29.645,0-.027-144.532c0-1-6.637-1.8-14.823-1.8" transform="translate(-107.649 -38.901)" fill="#92ded0"/>
            <rect id="Rectangle_406756" data-name="Rectangle 406756" width="22.057" height="103.535" transform="translate(153.764 84.399)" fill="#ffa347"/>
            <path id="Path_887698" data-name="Path 887698" d="M285.207,359.066l-14.187,0,4.279,8.1,5.633,0Z" transform="translate(-113.256 -162.51)" fill="#223242"/>
            <path id="Path_887699" data-name="Path 887699" d="M286.189,152.63c0,1.02-4.937,1.847-11.029,1.847s-11.029-.827-11.029-1.847,4.938-1.847,11.029-1.847,11.029.827,11.029,1.847" transform="translate(-110.378 -68.243)" fill="#f55644"/>
            <path id="Path_887700" data-name="Path 887700" d="M275.5,188.687a2.757,2.757,0,0,1-.359,4.05,3.192,3.192,0,0,1-4.307-.338,2.758,2.758,0,0,1,.359-4.05,3.192,3.192,0,0,1,4.307.338" transform="translate(-112.878 -84.937)" fill="#f55644"/>
            <path id="Path_887701" data-name="Path 887701" d="M274.182,294.937a2.758,2.758,0,0,1-.359,4.05,3.192,3.192,0,0,1-4.308-.338,2.758,2.758,0,0,1,.359-4.05,3.193,3.193,0,0,1,4.308.338" transform="translate(-112.325 -133.025)" fill="#f55644"/>
            <path id="Path_887702" data-name="Path 887702" d="M292.064,224.579a2.757,2.757,0,0,1-.359,4.05,3.191,3.191,0,0,1-4.306-.338,2.757,2.757,0,0,1,.359-4.05,3.192,3.192,0,0,1,4.307.338" transform="translate(-119.798 -101.182)" fill="#f55644"/>
            <path id="Path_887703" data-name="Path 887703" d="M286.909,256.866a2.757,2.757,0,0,1-.359,4.05,3.191,3.191,0,0,1-4.307-.338,2.758,2.758,0,0,1,.359-4.05,3.192,3.192,0,0,1,4.307.338" transform="translate(-117.644 -115.795)" fill="#f55644"/>
            <path id="Path_887704" data-name="Path 887704" d="M284.2,181.989a1.749,1.749,0,0,1-1.919,1.527,1.707,1.707,0,0,1-1.624-1.8,1.749,1.749,0,0,1,1.919-1.527,1.706,1.706,0,0,1,1.624,1.8" transform="translate(-117.281 -81.547)" fill="#f55644"/>
            <path id="Path_887705" data-name="Path 887705" d="M277.175,238.236a1.748,1.748,0,0,1-1.919,1.527,1.706,1.706,0,0,1-1.624-1.8,1.749,1.749,0,0,1,1.919-1.527,1.706,1.706,0,0,1,1.624,1.8" transform="translate(-114.345 -107.004)" fill="#f55644"/>
            <path id="Path_887706" data-name="Path 887706" d="M257.413,174.415l0-.728,8.926-.042,0,.728Z" transform="translate(-107.569 -78.59)" fill="#223242"/>
            <path id="Path_887707" data-name="Path 887707" d="M257.494,190.7l0-.728,8.927-.043,0,.728Z" transform="translate(-107.602 -85.96)" fill="#223242"/>
            <rect id="Rectangle_406757" data-name="Rectangle 406757" width="8.928" height="0.73" transform="translate(149.937 112.918) rotate(-0.216)" fill="#223242"/>
            <path id="Path_887708" data-name="Path 887708" d="M257.657,223.264l0-.728,8.927-.043,0,.728Z" transform="translate(-107.671 -100.698)" fill="#223242"/>
            <rect id="Rectangle_406758" data-name="Rectangle 406758" width="8.928" height="0.73" transform="translate(150.032 130.745) rotate(-0.216)" fill="#223242"/>
            <path id="Path_887709" data-name="Path 887709" d="M257.824,255.829l0-.728,8.927-.043,0,.728Z" transform="translate(-107.74 -115.437)" fill="#223242"/>
            <path id="Path_887710" data-name="Path 887710" d="M257.9,272.113l0-.728,8.927-.043,0,.728Z" transform="translate(-107.774 -122.807)" fill="#223242"/>
            <rect id="Rectangle_406759" data-name="Rectangle 406759" width="8.928" height="0.73" transform="translate(150.176 157.485) rotate(-0.216)" fill="#223242"/>
            <path id="Path_887711" data-name="Path 887711" d="M258.07,304.678l0-.728,8.927-.043,0,.728Z" transform="translate(-107.843 -137.546)" fill="#223242"/>
            <rect id="Rectangle_406760" data-name="Rectangle 406760" width="8.928" height="0.73" transform="translate(150.271 175.312) rotate(-0.216)" fill="#223242"/>
            <path id="Path_887712" data-name="Path 887712" d="M96.441,11.05s-6.4,16.238-5.465,24.029c0,0,19.518,7.717,32.708-.7,0,0-5.331-17.331-5.751-23.723Z" transform="translate(-37.979 -4.822)" fill="#ffa347"/>
            <path id="Path_887713" data-name="Path 887713" d="M106.541,57.052s7.441-1.257,13.247.251l-6.4,6.032Z" transform="translate(-44.522 -25.599)" fill="#3e6478"/>
            <path id="Path_887714" data-name="Path 887714" d="M244.839,89.655a71.266,71.266,0,0,1,3.6-9.6c1.616-2.989,7.267-7.47,7.215-5.864s-4.57,6.3-4.3,9.7.54.908,1.915-.481,3.408,3.707-8.127,12.415Z" transform="translate(-102.315 -33.426)" fill="#fcceae"/>
            <path id="Path_887715" data-name="Path 887715" d="M104.171,192.919l-4.255,53.952.4,13.132-2.251,10.3,1.159,39.606H90.034s-13.43-48-2.12-50.518c0,0-13.43-39.218-11.31-66.471Z" transform="translate(-31.917 -87.313)" fill="#223242"/>
            <path id="Path_887716" data-name="Path 887716" d="M82.024,220.8c1.1,15.469,5.092,30.747,9.11,45.75l1.827,6.434.07.247c-2.118,0-2.933,3.506-3.284,5.08-1.125,6.278-.52,12.714.11,19.021.466,4.225,1.1,8.433,1.8,12.631s1.49,8.384,2.322,12.563c-.9-4.166-1.761-8.34-2.525-12.531-1.038-6-6.174-35.228,1.313-37.158l-.218.252-1.813-6.442c-3.916-15.035-7.925-30.341-8.714-45.847" transform="translate(-34.277 -99.933)" fill="#726691"/>
            <path id="Path_887717" data-name="Path 887717" d="M105.946,192.37l33.483,69.964c-4.469,7.247,6.713,27.089,11.2,37.809,2.585,6.182,4.088,9.216,4.088,9.216h9c-4.04-20.65-7.746-33.77-11.477-48.737-6.424-25.763-9.069-45.428-15.925-68.915Z" transform="translate(-44.274 -86.764)" fill="#223242"/>
            <path id="Path_887718" data-name="Path 887718" d="M122.611,213.324c7.448,17.887,14.6,35.938,23.563,53.217.925,1.716,2.01,3.565,3.1,5.176l.061.1-.049.1c-3.131,7.739,1.774,16.584,4.4,23.939,1.548,3.9,3.161,7.781,4.763,11.664s3.225,7.759,4.872,11.626q-2.557-5.768-5.047-11.561t-4.843-11.638c-2.7-7.435-7.684-16.326-4.5-24.208l.012.2c-1.108-1.625-2.209-3.482-3.15-5.206-8.87-17.332-16.036-35.392-23.177-53.4" transform="translate(-51.238 -96.549)" fill="#726691"/>
            <path id="Path_887719" data-name="Path 887719" d="M121.531,219.454a42.411,42.411,0,0,0,.572-8.006,8.117,8.117,0,0,0,3.171-2.2,6.939,6.939,0,0,1-3.062,2.224,31.042,31.042,0,0,1-.68,7.982" transform="translate(-50.786 -94.704)" fill="#726691"/>
            <path id="Path_887720" data-name="Path 887720" d="M88.938,63.987l22.564.118,5.811,35.548,6.616,35.667a78,78,0,0,1-47.086.024l-.074-.024L87.823,98.412Z" transform="translate(-32.08 -28.96)" fill="#92ded0"/>
            <path id="Path_887721" data-name="Path 887721" d="M120.578,37.881s-5.645-.879-5.81-3.711c-.292-5-.461-9.081.534-12.945L106.686,5.842s-.048,11.938-.8,25.877c-.244,4.541-6.05,5.75-8.215,5.953,0,0,5.629,4.316,12.04,4.145,8.637-.24,10.864-3.935,10.864-3.935" transform="translate(-40.817 -2.644)" fill="#fcceae"/>
            <path id="Path_887722" data-name="Path 887722" d="M120.478,32.774c-.235-4.372-.289-8.053.611-11.55L112.473,5.841s-.048,11.938-.8,25.877a4.974,4.974,0,0,1-.153.959,8.245,8.245,0,0,0,4.6,1.142,10.154,10.154,0,0,0,4.353-1.044" transform="translate(-46.605 -2.644)" fill="#223242"/>
            <path id="Path_887723" data-name="Path 887723" d="M122.179,15.311s2.036,16.041-9.981,16.407c-8.493.259-10.963-10.071-9.8-19.436.747-6.039,4.9-7.2,10.324-7.475,5.695-.293,8.377,3.35,9.462,10.5" transform="translate(-42.677 -2.168)" fill="#fcceae"/>
            <path id="Path_887724" data-name="Path 887724" d="M94.552,29.289c1.015,1.724,2.974,2.531,4.376,1.8s1.716-2.719.7-4.443-2.974-2.531-4.376-1.8-1.717,2.719-.7,4.443" transform="translate(-39.263 -11.123)" fill="#fcceae"/>
            <path id="Path_887725" data-name="Path 887725" d="M96.915,28.3a1.537,1.537,0,0,1,1.009.18,1.808,1.808,0,0,1,.719.729,2.549,2.549,0,0,1,.3.937c.008.161.024.321.023.481-.018.161-.025.319-.052.476-.077-.313-.131-.617-.212-.915a4.011,4.011,0,0,0-.336-.839A1.992,1.992,0,0,0,96.915,28.3" transform="translate(-40.5 -12.796)" fill="#223242"/>
            <path id="Path_887726" data-name="Path 887726" d="M97.052,31.032a1.362,1.362,0,0,1,.527-.629,1.291,1.291,0,0,1,.392-.179.781.781,0,0,1,.444-.007c-.251.148-.436.286-.653.431a3.742,3.742,0,0,1-.711.384" transform="translate(-40.557 -13.662)" fill="#223242"/>
            <path id="Path_887727" data-name="Path 887727" d="M137.853,27.813c-.891,1.783-2.789,2.71-4.24,2.069s-1.9-2.607-1.012-4.39,2.79-2.71,4.24-2.069,1.9,2.607,1.012,4.39" transform="translate(-55.221 -10.509)" fill="#fcceae"/>
            <path id="Path_887728" data-name="Path 887728" d="M138.341,26.871a1.535,1.535,0,0,0-.994.241,1.8,1.8,0,0,0-.666.772,2.542,2.542,0,0,0-.229.954c0,.162,0,.322.011.481.029.159.047.317.086.472.055-.316.087-.624.147-.926a3.973,3.973,0,0,1,.277-.858,1.972,1.972,0,0,1,1.369-1.136" transform="translate(-57.021 -12.157)" fill="#223242"/>
            <path id="Path_887729" data-name="Path 887729" d="M138.768,29.657a1.378,1.378,0,0,0-.57-.6,1.307,1.307,0,0,0-.4-.154.785.785,0,0,0-.444.021c.261.132.455.258.681.39a3.79,3.79,0,0,0,.736.339" transform="translate(-57.397 -13.074)" fill="#223242"/>
            <path id="Path_887730" data-name="Path 887730" d="M126.491,22.42a1.747,1.747,0,0,1,.648-.734,1.562,1.562,0,0,1,.8-.255,1.615,1.615,0,0,1,.765.176c.118.064.23.141.343.212a4.052,4.052,0,0,1,.3.3c-.259-.032-.5-.1-.736-.134a4.2,4.2,0,0,0-.708-.049,2.427,2.427,0,0,0-1.416.48" transform="translate(-52.859 -9.699)" fill="#f55644"/>
            <path id="Path_887731" data-name="Path 887731" d="M108.328,23.61a1.723,1.723,0,0,1,.558-.8,1.537,1.537,0,0,1,.765-.336,1.629,1.629,0,0,1,.782.095c.125.052.246.116.366.175a4.235,4.235,0,0,1,.336.27c-.261,0-.5-.045-.747-.056a4.186,4.186,0,0,0-.71.024,2.4,2.4,0,0,0-1.351.624" transform="translate(-45.269 -10.167)" fill="#f55644"/>
            <path id="Path_887732" data-name="Path 887732" d="M110.3,29.286a1.013,1.013,0,0,1,.956-.189,1.5,1.5,0,0,1,.445.23,1.533,1.533,0,0,1,.325.353,3.087,3.087,0,0,0-.823-.422,1.427,1.427,0,0,0-.9.029" transform="translate(-46.091 -13.15)" fill="#223242"/>
            <path id="Path_887733" data-name="Path 887733" d="M112.521,27.532a.625.625,0,1,1-.594-.755.689.689,0,0,1,.594.755" transform="translate(-46.508 -12.119)" fill="#223242"/>
            <path id="Path_887734" data-name="Path 887734" d="M127.041,28.68a.989.989,0,0,1,.879-.4,1.56,1.56,0,0,1,.491.122,1.6,1.6,0,0,1,.406.267,3.183,3.183,0,0,0-.907-.221,1.408,1.408,0,0,0-.87.235" transform="translate(-53.089 -12.798)" fill="#223242"/>
            <path id="Path_887735" data-name="Path 887735" d="M128.79,26.6a.666.666,0,0,1-.427.848.709.709,0,0,1-.771-.6.666.666,0,0,1,.427-.848.709.709,0,0,1,.771.6" transform="translate(-53.309 -11.763)" fill="#223242"/>
            <path id="Path_887736" data-name="Path 887736" d="M112.337,37.26a5.817,5.817,0,0,0,2.259,1.458,8.657,8.657,0,0,0,1.324.344c.455.085.921.117,1.4.17-.233.048-.472.078-.711.109-.239,0-.483.022-.724,0a5.177,5.177,0,0,1-1.429-.281,4.365,4.365,0,0,1-1.254-.714,2.949,2.949,0,0,1-.863-1.089" transform="translate(-46.944 -16.864)" fill="#223242"/>
            <path id="Path_887737" data-name="Path 887737" d="M128.83,64.2,118.236,88.966l1.548,59.74s9.945,6.865,28.521,2.917c0,0-3.544-34.209-7.048-43.157-3.191-8.15-.048-39.321-.048-39.321A49.845,49.845,0,0,0,128.83,64.2" transform="translate(-49.409 -29.058)" fill="#fff"/>
            <path id="Path_887738" data-name="Path 887738" d="M60.036,73.229A135.629,135.629,0,0,0,37.2,97.1s3.512,5.929,9.874,4.254L63.415,88.825s.408-11.81-3.38-15.6" transform="translate(-15.547 -33.143)" fill="#fff"/>
            <path id="Path_887739" data-name="Path 887739" d="M154.472,73.229s14.084,10.765,26.753,22.3c0,0,.243,10.564-6.347,10.135l-24.9-16.986s1.6-11.017,4.5-15.446" transform="translate(-62.673 -33.143)" fill="#fff"/>
            <path id="Path_887740" data-name="Path 887740" d="M195.384,105.11,224.135,97.4l.937,10.262a330.967,330.967,0,0,1-32.317,8.939Z" transform="translate(-80.55 -44.083)" fill="#fff"/>
            <path id="Path_887741" data-name="Path 887741" d="M77.879,163.607s.41-3.062-3.17-5.615L70.4,162.678s-3.691,10.483-1.629,9.968c2.981-.744,4.412,1.306,4.627-1.674,5.232-5.734,4.481-7.365,4.481-7.365" transform="translate(-28.477 -71.506)" fill="#edc2a3"/>
            <path id="Path_887742" data-name="Path 887742" d="M71.271,170.1c-.165-3.44-6.461,2.126-5.216,5.445.914,2.436,1.007,3.115,3.064-.724,2.015-3.761,2.17-4.34,2.151-4.721" transform="translate(-27.536 -76.495)" fill="#edc2a3"/>
            <path id="Path_887743" data-name="Path 887743" d="M65.688,181.8s-5.247.183-4.905-1.06c.722-2.628,5.577-2.518,5.577-2.518Z" transform="translate(-25.394 -80.663)" fill="#edc2a3"/>
            <path id="Path_887744" data-name="Path 887744" d="M60.794,178s.793-5.424,1.989-5.815,1.72,3.954,1.72,3.954Z" transform="translate(-25.405 -77.917)" fill="#edc2a3"/>
            <path id="Path_887745" data-name="Path 887745" d="M67.706,176.245a3.092,3.092,0,0,1-1.206.249l-.6.042a1.1,1.1,0,0,0-.431.1.171.171,0,0,1-.139.2.182.182,0,0,1-.215-.131.159.159,0,0,1,.009-.1l.046-.106a6.416,6.416,0,0,0,.5-1.827,2.5,2.5,0,0,0-.382-1.821,2.3,2.3,0,0,1,.643,1.837,5.735,5.735,0,0,1-.458,1.935l-.3-.135c.28-.282.49-.194.7-.235a5.313,5.313,0,0,1,.62,0,5.285,5.285,0,0,0,1.21-.01" transform="translate(-27.208 -78.231)" fill="#56a3a6"/>
            <path id="Path_887746" data-name="Path 887746" d="M69.221,182.585a18.5,18.5,0,0,0,2.011-1.117,7.291,7.291,0,0,0,.9-.68,2.7,2.7,0,0,0,.731-.835,1.86,1.86,0,0,1-.545,1,5.291,5.291,0,0,1-.889.77,5.837,5.837,0,0,1-2.2.859" transform="translate(-28.927 -81.445)" fill="#56a3a6"/>
            <path id="Path_887747" data-name="Path 887747" d="M36.886,115.19s2.943-1.076,8.1,4.246L61.893,138.8l-6.636,6.34S24.672,123.979,36.886,115.19" transform="translate(-14.211 -52.094)" fill="#fff"/>
            <path id="Path_887748" data-name="Path 887748" d="M50.4,125c-1.979-.908-4.241-.083-6.222.438,1.818-.888,4.405-1.72,6.222-.438" transform="translate(-18.462 -56.277)" fill="#56a3a6"/>
            <path id="Path_887749" data-name="Path 887749" d="M83.7,63.987,95.67,88.868l-.943,60.312s-11.915,6.292-30.491,2.345c0,0,3.791-33.366,7.3-42.314,3.191-8.15-.2-40.164-.2-40.164A47.5,47.5,0,0,1,83.7,63.987" transform="translate(-26.843 -28.96)" fill="#fff"/>
            <path id="Path_887750" data-name="Path 887750" d="M106.937,406.633H97.748s-2.042,1.672-2.912,9.05h19.208s.522-4.36-4.525-6.037Z" transform="translate(-39.631 -184.038)" fill="#3e6478"/>
            <path id="Path_887751" data-name="Path 887751" d="M189.592,406.633s-.551,5.74.261,8.073l21.17.14s1.145-5.1-12.43-8.212Z" transform="translate(-79.152 -184.038)" fill="#3e6478"/>
            <path id="Path_887752" data-name="Path 887752" d="M77.569,178.224a9.984,9.984,0,0,0,6.269,3.6,12.322,12.322,0,0,0,1.747,0c-3.157.77-6.418-1.077-8.016-3.6" transform="translate(-32.415 -80.663)" fill="#56a3a6"/>
            <path id="Path_887753" data-name="Path 887753" d="M144.054,183.121a10.252,10.252,0,0,0,6.9-2.36,11.138,11.138,0,0,0,1.087-1.286c-1.33,2.8-4.9,4.045-7.991,3.646" transform="translate(-60.198 -81.229)" fill="#56a3a6"/>
            <path id="Path_887754" data-name="Path 887754" d="M105.33,30.295a23.38,23.38,0,0,0,15.649,0s.248,5.3,1.2,6.552a7.656,7.656,0,0,1-8.044,7.121c-6.076,0-8.777-3.439-9.413-6.729,0,0,2.132-4.938.6-6.944" transform="translate(-43.763 -13.711)" fill="#92ded0"/>
            <path id="Path_887755" data-name="Path 887755" d="M134.415,24.009A12.3,12.3,0,0,1,131.4,28.5" transform="translate(-54.912 -10.866)" fill="#92ded0"/>
            <path id="Path_887756" data-name="Path 887756" d="M102.006,26.22s2.134,2.8,3.688,3.282" transform="translate(-42.627 -11.867)" fill="#92ded0"/>
            <path id="Path_887757" data-name="Path 887757" d="M119.719,34.445a4.647,4.647,0,0,0,2.548-1.593,2.025,2.025,0,0,1-2.548,1.593" transform="translate(-50.029 -14.869)" fill="#56a3a6"/>
            <path id="Path_887758" data-name="Path 887758" d="M106.625,3.836s5.766,8.068,14.11,7.5c0,0,6.223-16.278-15.576-9.577,0,0-2.255-2.358-4.223-1.618,0,0,.661,2.655,2.273,3.053,0,0-2.392-1.356-3.189,0a5.472,5.472,0,0,0,2.5.638,5.15,5.15,0,0,0-2.5,2.393C99.052,8.063,99.6,13.6,99.6,13.6a5.094,5.094,0,0,1,2.241,1.788,13.6,13.6,0,0,1-.016-5.212,50.181,50.181,0,0,0,4.8-6.342" transform="translate(-41.557 0)" fill="#ffa347"/>
            <path id="Path_887759" data-name="Path 887759" d="M112.347,5.99a26.726,26.726,0,0,0,11.515,6.3c.615.19,1.259.245,1.892.4a17.888,17.888,0,0,1-13.408-6.7" transform="translate(-46.948 -2.711)" fill="#f55644"/>
            <path id="Path_887760" data-name="Path 887760" d="M113.775,4.791a35.865,35.865,0,0,0,11.746,4.8,18.351,18.351,0,0,1-11.746-4.8" transform="translate(-47.545 -2.168)" fill="#f55644"/>
            <path id="Path_887761" data-name="Path 887761" d="M117.895,3.543c3.486-.8,8.589-.2,9.791,3.524-1.938-3.228-6.253-3.5-9.791-3.524" transform="translate(-49.267 -1.462)" fill="#f55644"/>
            <path id="Path_887762" data-name="Path 887762" d="M106.645,6.912a15.41,15.41,0,0,1-4.52,5.417,35.312,35.312,0,0,1,4.52-5.417" transform="translate(-42.677 -3.128)" fill="#f55644"/>
            <path id="Path_887763" data-name="Path 887763" d="M111.524,5.065c.792,2.92,2.816,5.289,4.981,7.438-2.711-1.556-5-4.349-4.981-7.438" transform="translate(-46.604 -2.292)" fill="#ffa347"/>
            <path id="Path_887764" data-name="Path 887764" d="M101.554,35.954a1.443,1.443,0,1,1-1.44-1.354,1.4,1.4,0,0,1,1.44,1.354" transform="translate(-41.234 -15.66)" fill="#fff"/>
            <path id="Path_887765" data-name="Path 887765" d="M138.481,35.11a1.443,1.443,0,1,1-1.44-1.354,1.4,1.4,0,0,1,1.44,1.354" transform="translate(-56.666 -15.278)" fill="#fff"/>
            <path id="Path_887766" data-name="Path 887766" d="M105.518,408.426a6.035,6.035,0,0,1,5.5,0,15.606,15.606,0,0,0-5.5,0" transform="translate(-44.095 -184.55)" fill="#fff"/>
            <path id="Path_887767" data-name="Path 887767" d="M106.622,410.831a6.035,6.035,0,0,1,5.5,0,15.608,15.608,0,0,0-5.5,0" transform="translate(-44.556 -185.638)" fill="#fff"/>
            <path id="Path_887768" data-name="Path 887768" d="M107.727,413.235a6.035,6.035,0,0,1,5.5,0,15.6,15.6,0,0,0-5.5,0" transform="translate(-45.018 -186.726)" fill="#fff"/>
            <path id="Path_887769" data-name="Path 887769" d="M97.05,411.832a1.391,1.391,0,0,1,1.975.25c1.305,1.627,1.368,3.784,1.235,5.729-.367-1.41-.555-2.831-1-4.217-.3-.911-.952-2.306-2.214-1.762" transform="translate(-40.556 -186.25)" fill="#fff"/>
            <path id="Path_887770" data-name="Path 887770" d="M206.388,407.133a2.77,2.77,0,0,0-2.238.878,1.4,1.4,0,0,1,2.238-.878" transform="translate(-85.312 -184.135)" fill="#fff"/>
            <path id="Path_887771" data-name="Path 887771" d="M209.144,408.038a2.77,2.77,0,0,0-2.238.878,1.4,1.4,0,0,1,2.238-.878" transform="translate(-86.464 -184.545)" fill="#fff"/>
            <path id="Path_887772" data-name="Path 887772" d="M211.9,408.943a2.77,2.77,0,0,0-2.238.878,1.4,1.4,0,0,1,2.238-.878" transform="translate(-87.615 -184.955)" fill="#fff"/>
            <path id="Path_887773" data-name="Path 887773" d="M189.485,410.438a5.274,5.274,0,0,1,5.483,4.909c.015.372.038.741.035,1.107-.1-.36-.162-.719-.246-1.073a6.175,6.175,0,0,0-5.272-4.943" transform="translate(-79.184 -185.753)" fill="#fff"/>
            <path id="Path_887774" data-name="Path 887774" d="M288.866,227.031h-.629a1.425,1.425,0,0,1-1.467-1.379V109a1.425,1.425,0,0,1,1.467-1.379h.629A1.425,1.425,0,0,1,290.333,109V225.651a1.425,1.425,0,0,1-1.467,1.379" transform="translate(-119.838 -48.709)" fill="#fff"/>
            <path id="Path_887775" data-name="Path 887775" d="M276.514,29.495a6.345,6.345,0,0,1,7.616,0,7.784,7.784,0,0,0-7.616,0" transform="translate(-115.552 -12.774)" fill="#56a3a6"/>
            <path id="Path_887776" data-name="Path 887776" d="M276.129,38.232a12.3,12.3,0,0,1,0-4.684,12.3,12.3,0,0,1,0,4.684" transform="translate(-115.297 -15.184)" fill="#56a3a6"/>
            <path id="Path_887777" data-name="Path 887777" d="M289.774,38.232a12.3,12.3,0,0,1,0-4.684,12.294,12.294,0,0,1,0,4.684" transform="translate(-120.999 -15.184)" fill="#56a3a6"/>
            <path id="Path_887778" data-name="Path 887778" d="M110.3,37.241a21.6,21.6,0,0,0,10.077.274c.483-.078.956-.2,1.447-.274-.449.192-.909.366-1.373.533-3.252,1.024-7.117,1.138-10.151-.533" transform="translate(-46.091 -16.855)" fill="#56a3a6"/>
            <path id="Path_887779" data-name="Path 887779" d="M110.3,41.862a21.6,21.6,0,0,0,10.077.274c.483-.078.956-.2,1.447-.274-.449.192-.909.366-1.373.533-3.252,1.024-7.117,1.138-10.151-.533" transform="translate(-46.091 -18.946)" fill="#56a3a6"/>
            <path id="Path_887780" data-name="Path 887780" d="M110.3,46.483a21.6,21.6,0,0,0,10.077.274c.483-.078.956-.2,1.447-.274-.449.192-.909.366-1.373.533-3.252,1.024-7.117,1.138-10.151-.533" transform="translate(-46.091 -21.038)" fill="#56a3a6"/>
            <path id="Path_887781" data-name="Path 887781" d="M199.038,110.923c-.634,1.7-1.646,3.27-2.027,5.039-.023-1.82,1.043-3.525,2.027-5.039" transform="translate(-82.328 -50.203)" fill="#56a3a6"/>
            <path id="Path_887782" data-name="Path 887782" d="M99,80.922c-.515,3.991-.991,8.414-1.549,12.2l6.4,9.451c-2.841,6.234-5.982,12.5-8.968,18.731,2.927,9.494,7.2,24.226,10.062,33.94-3.011-9.794-7.375-24.082-10.3-34.042,2.948-6.06,6.1-12.835,9.02-18.516-.023-.015-6.353-9.486-6.372-9.5.543-4.089,1.134-8.173,1.71-12.259" transform="translate(-39.549 -36.625)" fill="#92ded0"/>
            <path id="Path_887783" data-name="Path 887783" d="M129.341,80.922c.576,4.086,1.167,8.17,1.71,12.259-.012-.011-6.357,9.5-6.372,9.5,2.918,5.685,6.069,12.452,9.02,18.516-2.943,9.992-7.275,24.191-10.3,34.042,2.841-9.651,7.152-24.48,10.062-33.94-2.986-6.226-6.127-12.5-8.968-18.73l6.4-9.452c-.559-3.784-1.033-8.2-1.549-12.2" transform="translate(-51.566 -36.625)" fill="#92ded0"/>
            <path id="Path_887784" data-name="Path 887784" d="M110.3,70.376l2.7,4.957h3.9l2.75-5.676-4.677-.722Z" transform="translate(-46.091 -31.199)" fill="#3e6478"/>
            <path id="Path_887785" data-name="Path 887785" d="M101.654,57.458l-6.808,3.574,2.05,7.382,11.565-4.673Z" transform="translate(-39.635 -26.005)" fill="#92ded0"/>
            <path id="Path_887786" data-name="Path 887786" d="M124.706,57.917l7.22,3.323-2.051,7.382L118.31,63.949Z" transform="translate(-49.44 -26.213)" fill="#92ded0"/>
            <path id="Path_887787" data-name="Path 887787" d="M112.991,80.623l-2.7,6.166,4.623,9.608,4.23-9.888-2.26-5.886Z" transform="translate(-46.091 -36.489)" fill="#3e6478"/>
            <path id="Path_887788" data-name="Path 887788" d="M54.46,416.509c0,1.543-12.191,2.793-27.23,2.793S0,418.051,0,416.509s12.191-2.793,27.23-2.793,27.23,1.251,27.23,2.793" transform="translate(0 -187.244)" fill="#ccc"/>
            <path id="Path_887789" data-name="Path 887789" d="M49.7,319.7h0a1.922,1.922,0,0,0-1.979-1.861H11.641A1.922,1.922,0,0,0,9.663,319.7a1.922,1.922,0,0,1-1.979,1.861H6.1A1.923,1.923,0,0,0,4.12,323.42v46.67a2.723,2.723,0,0,0,2.5,2.642l4.8.519a170,170,0,0,0,36.509,0l4.8-.519a2.723,2.723,0,0,0,2.5-2.642V323.42a1.923,1.923,0,0,0-1.979-1.861H51.68A1.922,1.922,0,0,1,49.7,319.7" transform="translate(-1.722 -143.851)" fill="#92ded0"/>
            <path id="Path_887790" data-name="Path 887790" d="M53.876,376.146h0a156.681,156.681,0,0,1-41.417,0V336.857H53.876Z" transform="translate(-5.206 -152.458)" fill="#ffa347"/>
            <path id="Path_887791" data-name="Path 887791" d="M53.876,335.442c0,.945-9.271,1.711-20.709,1.711s-20.708-.766-20.708-1.711,9.271-1.711,20.708-1.711,20.709.766,20.709,1.711" transform="translate(-5.206 -151.044)" fill="#f55644"/>
            <path id="Path_887792" data-name="Path 887792" d="M74.952,375.548H74.61a1.191,1.191,0,0,1-1.226-1.153V329.28a1.191,1.191,0,0,1,1.226-1.153h.342a1.191,1.191,0,0,1,1.226,1.153V374.4a1.191,1.191,0,0,1-1.226,1.153" transform="translate(-30.666 -148.507)" fill="#fff"/>
            <g id="Group_1112380" data-name="Group 1112380" transform="translate(7.686 173.987)" opacity="0.48">
              <g id="Group_1112379" data-name="Group 1112379">
                <g id="Group_1112378" data-name="Group 1112378" clip-path="url(#clip-path-6)">
                  <path id="Path_887793" data-name="Path 887793" d="M53.753,320.6a1.756,1.756,0,0,1-.256-.9,1.922,1.922,0,0,0-1.979-1.861H15.438a1.923,1.923,0,0,0-1.979,1.861,1.755,1.755,0,0,1-.255.9Z" transform="translate(-13.204 -317.837)" fill="#223242"/>
                </g>
              </g>
            </g>
            <path id="Path_887794" data-name="Path 887794" d="M53.307,309.386H9.586a1.209,1.209,0,0,1-1.245-1.17v-11.49h46.21v11.49a1.209,1.209,0,0,1-1.245,1.17" transform="translate(-3.486 -134.296)" fill="#223242"/>
            <path id="Path_887795" data-name="Path 887795" d="M14.694,300a28.179,28.179,0,0,1,.291,4.277,27.738,27.738,0,0,1-.291,4.278,27.594,27.594,0,0,1-.291-4.278A27.882,27.882,0,0,1,14.694,300" transform="translate(-6.019 -135.779)" fill="#726691"/>
            <path id="Path_887796" data-name="Path 887796" d="M20.275,300a28.03,28.03,0,0,1,.291,4.277,27.666,27.666,0,0,1-.291,4.278,27.666,27.666,0,0,1-.291-4.278A28.03,28.03,0,0,1,20.275,300" transform="translate(-8.351 -135.779)" fill="#726691"/>
            <path id="Path_887797" data-name="Path 887797" d="M25.857,300a28.03,28.03,0,0,1,.291,4.277,27.666,27.666,0,0,1-.291,4.278,27.666,27.666,0,0,1-.291-4.278A28.03,28.03,0,0,1,25.857,300" transform="translate(-10.684 -135.779)" fill="#726691"/>
            <path id="Path_887798" data-name="Path 887798" d="M31.439,300a28.1,28.1,0,0,1,.291,4.277,27.739,27.739,0,0,1-.291,4.278,27.667,27.667,0,0,1-.291-4.278A28.03,28.03,0,0,1,31.439,300" transform="translate(-13.016 -135.779)" fill="#726691"/>
            <path id="Path_887799" data-name="Path 887799" d="M37.021,300a28.03,28.03,0,0,1,.291,4.277,27.666,27.666,0,0,1-.291,4.278,27.666,27.666,0,0,1-.291-4.278A28.03,28.03,0,0,1,37.021,300" transform="translate(-15.349 -135.779)" fill="#726691"/>
            <path id="Path_887800" data-name="Path 887800" d="M42.6,300a28.03,28.03,0,0,1,.291,4.277,27.667,27.667,0,0,1-.291,4.278,27.666,27.666,0,0,1-.291-4.278A28.03,28.03,0,0,1,42.6,300" transform="translate(-17.681 -135.779)" fill="#726691"/>
            <path id="Path_887801" data-name="Path 887801" d="M48.184,300a28.1,28.1,0,0,1,.291,4.277,27.666,27.666,0,0,1-.291,4.278,27.666,27.666,0,0,1-.291-4.278A28.03,28.03,0,0,1,48.184,300" transform="translate(-20.014 -135.779)" fill="#726691"/>
            <path id="Path_887802" data-name="Path 887802" d="M53.766,300a28.105,28.105,0,0,1,.291,4.277,27.667,27.667,0,0,1-.291,4.278,27.666,27.666,0,0,1-.291-4.278A28.03,28.03,0,0,1,53.766,300" transform="translate(-22.347 -135.779)" fill="#726691"/>
            <path id="Path_887803" data-name="Path 887803" d="M59.348,300a28.031,28.031,0,0,1,.291,4.277,27.667,27.667,0,0,1-.291,4.278,27.667,27.667,0,0,1-.291-4.278A28.03,28.03,0,0,1,59.348,300" transform="translate(-24.679 -135.779)" fill="#726691"/>
            <path id="Path_887804" data-name="Path 887804" d="M64.929,300a28.031,28.031,0,0,1,.291,4.277,27.665,27.665,0,0,1-.291,4.278,27.665,27.665,0,0,1-.291-4.278A28.03,28.03,0,0,1,64.929,300" transform="translate(-27.011 -135.779)" fill="#726691"/>
            <path id="Path_887805" data-name="Path 887805" d="M70.511,300a28.03,28.03,0,0,1,.291,4.277,27.665,27.665,0,0,1-.291,4.278,27.666,27.666,0,0,1-.291-4.278A28.03,28.03,0,0,1,70.511,300" transform="translate(-29.344 -135.779)" fill="#726691"/>
            <path id="Path_887806" data-name="Path 887806" d="M76.093,300a28.1,28.1,0,0,1,.291,4.277,27.666,27.666,0,0,1-.291,4.278,27.666,27.666,0,0,1-.291-4.278A28.029,28.029,0,0,1,76.093,300" transform="translate(-31.677 -135.779)" fill="#726691"/>
            <path id="Path_887807" data-name="Path 887807" d="M81.675,300a28.106,28.106,0,0,1,.291,4.277,27.669,27.669,0,0,1-.291,4.278,27.666,27.666,0,0,1-.291-4.278A28.03,28.03,0,0,1,81.675,300" transform="translate(-34.009 -135.779)" fill="#726691"/>
            <g id="Group_1112383" data-name="Group 1112383" transform="translate(4.855 190.214)" opacity="0.48">
              <g id="Group_1112382" data-name="Group 1112382">
                <g id="Group_1112381" data-name="Group 1112381" clip-path="url(#clip-path-7)">
                  <path id="Path_887808" data-name="Path 887808" d="M53.943,376.135l-9.565.684a185.775,185.775,0,0,1-26.473,0l-9.564-.684V347.481l9.564.684a185.614,185.614,0,0,0,26.473,0l9.565-.684Z" transform="translate(-8.341 -347.481)" fill="#223242"/>
                </g>
              </g>
            </g>
            <path id="Path_887809" data-name="Path 887809" d="M53.943,375.3l-9.565.684a185.775,185.775,0,0,1-26.473,0L8.341,375.3V346.643l9.564.684a185.623,185.623,0,0,0,26.473,0l9.565-.684Z" transform="translate(-3.486 -156.888)" fill="#fff"/>
            <path id="Path_887810" data-name="Path 887810" d="M50.052,367.7a8.754,8.754,0,0,1-9.01,8.473,8.489,8.489,0,1,1,0-16.946,8.754,8.754,0,0,1,9.01,8.473" transform="translate(-13.386 -162.585)" fill="#92ded0"/>
            <path id="Path_887811" data-name="Path 887811" d="M48.774,369.361H44.857a.308.308,0,0,1-.317-.3v-3.684a.308.308,0,0,0-.317-.3H42.749a.308.308,0,0,0-.317.3v3.684a.308.308,0,0,1-.317.3H38.2a.308.308,0,0,0-.317.3v1.385a.308.308,0,0,0,.317.3h3.918a.308.308,0,0,1,.317.3v3.685a.308.308,0,0,0,.317.3h1.473a.308.308,0,0,0,.317-.3V371.64a.308.308,0,0,1,.317-.3h3.918a.308.308,0,0,0,.317-.3v-1.385a.308.308,0,0,0-.317-.3" transform="translate(-15.83 -165.232)" fill="#fff"/>
            <path id="Path_887812" data-name="Path 887812" d="M54.552,296.365c0,.241-10.345.436-23.105.436s-23.106-.2-23.106-.436,10.345-.436,23.106-.436,23.105.2,23.105.436" transform="translate(-3.485 -133.935)" fill="#726691"/>
          </g>
        </g>
      </g>
    </g>
  </g>
</svg>
