<svg xmlns="http://www.w3.org/2000/svg" xmlns:xlink="http://www.w3.org/1999/xlink" width="178" height="178" viewBox="0 0 178 178">
  <defs>
    <clipPath id="clip-path">
      <rect id="Rectangle_406981" data-name="Rectangle 406981" width="86.476" height="93.628" fill="none"/>
    </clipPath>
  </defs>
  <g id="Group_1112743" data-name="Group 1112743" transform="translate(-703.711 -5141)">
    <g id="Group_1111765" data-name="Group 1111765" transform="translate(0.28 2001.018)">
      <g id="Group_1109453" data-name="Group 1109453" transform="translate(703.431 3139.983)">
        <path id="Path_882862" data-name="Path 882862" d="M89,0A89,89,0,1,1,0,89,89,89,0,0,1,89,0Z" transform="translate(0 -0.001)" fill="#005865"/>
        <path id="Path_882863" data-name="Path 882863" d="M78.668,0A78.668,78.668,0,1,1,0,78.668,78.668,78.668,0,0,1,78.668,0Z" transform="translate(10.332 10.331)" fill="#f3f9ff"/>
      </g>
      <g id="Group_1109456" data-name="Group 1109456" transform="translate(745.785 3181.422)">
        <rect id="Rectangle_401104" data-name="Rectangle 401104" width="95.639" height="97.045" transform="translate(-0.354 -0.439)" fill="none"/>
        <g id="Group_1112680" data-name="Group 1112680" transform="translate(4.47 1.491)">
          <g id="Group_1112679" data-name="Group 1112679" transform="translate(0 0)" clip-path="url(#clip-path)">
            <path id="Path_888150" data-name="Path 888150" d="M88.217,24.311a5.048,5.048,0,1,1-5.106,5.047,5.1,5.1,0,0,1,5.106-5.047" transform="translate(-6.846 -2.003)" fill="#fb2b3a"/>
            <path id="Path_888151" data-name="Path 888151" d="M87.229,79.852a4.071,4.071,0,1,1-4.119,4.071,4.055,4.055,0,0,1,4.119-4.071" transform="translate(-6.846 -6.578)" fill="#fb2b3a"/>
            <path id="Path_888152" data-name="Path 888152" d="M3.129,73.109a3.094,3.094,0,1,1,0,6.188A3.011,3.011,0,0,1,0,76.2a3.218,3.218,0,0,1,3.129-3.094" transform="translate(0 -6.022)" fill="#fb2b3a"/>
            <path id="Path_888153" data-name="Path 888153" d="M69.877,50.928V74.376a23.721,23.721,0,0,1-47.439,0V50.928Z" transform="translate(-1.848 -4.195)" fill="#faa71a"/>
            <path id="Path_888154" data-name="Path 888154" d="M69.892,23.285V46.733H22.618v-8.3a16.234,16.234,0,0,0,5.93-30.45,21.761,21.761,0,0,1,7.906-5.863A22.683,22.683,0,0,1,46.5,0a23.381,23.381,0,0,1,23.39,23.285" transform="translate(-1.863 0)" fill="#ffd400"/>
            <path id="Path_888155" data-name="Path 888155" d="M18.805,39.132A16.426,16.426,0,0,1,2.334,22.849,16.427,16.427,0,0,1,18.805,6.566a16.284,16.284,0,1,1,0,32.566" transform="translate(-0.192 -0.541)" fill="#313a52"/>
            <path id="Path_888156" data-name="Path 888156" d="M28.83,20.709v5.537H22.241V32.76h-5.6V26.246H10.051V20.709h6.589V14.2h5.6v6.513Z" transform="translate(-0.828 -1.169)" fill="#5cbeff"/>
          </g>
        </g>
      </g>
    </g>
  </g>
</svg>
