<svg xmlns="http://www.w3.org/2000/svg" xmlns:xlink="http://www.w3.org/1999/xlink" width="178" height="178" viewBox="0 0 178 178">
  <defs>
    <clipPath id="clip-path">
      <rect id="Rectangle_406993" data-name="Rectangle 406993" width="99.117" height="94.914" transform="translate(0 -5)" fill="none"/>
    </clipPath>
  </defs>
  <g id="Group_1112746" data-name="Group 1112746" transform="translate(-1578.354 6618.561)">
    <g id="Group_1111771" data-name="Group 1111771" transform="translate(874.569 -9758.982)">
      <g id="Group_1109453" data-name="Group 1109453" transform="translate(703.785 3140.422)">
        <path id="Path_882862" data-name="Path 882862" d="M89,0A89,89,0,1,1,0,89,89,89,0,0,1,89,0Z" transform="translate(0 -0.001)" fill="#005865"/>
        <path id="Path_882863" data-name="Path 882863" d="M78.668,0A78.668,78.668,0,1,1,0,78.668,78.668,78.668,0,0,1,78.668,0Z" transform="translate(10.332 10.331)" fill="#f3f9ff"/>
      </g>
      <g id="Group_1109456" data-name="Group 1109456" transform="translate(742.785 3179.421)">
        <rect id="Rectangle_401104" data-name="Rectangle 401104" width="99.117" height="100.574" transform="translate(-0.074 -0.438)" fill="none"/>
        <g id="Group_1112693" data-name="Group 1112693" transform="translate(-0.074 4.561)">
          <g id="Group_1112692" data-name="Group 1112692" transform="translate(0 2)" clip-path="url(#clip-path)">
            <path id="Path_888221" data-name="Path 888221" d="M8.518,133.912a3.91,3.91,0,0,0-2.332,3.766l0,42.8a3.808,3.808,0,0,0,2.136,3.574,43.243,43.243,0,0,1-6.053-.045,3.13,3.13,0,0,1-1.345-.728c-.37-.353-.37-1-.927-.969V135.655c.608-.128.806-.867,1.369-1.245a2.978,2.978,0,0,1,.9-.453c1.515-.308,4.535-.029,6.247-.044" transform="translate(0 -107.907)" fill="#f98601"/>
            <path id="Path_888222" data-name="Path 888222" d="M83.844,134.142a21.735,21.735,0,0,0,15.681,15.293l.008,31.853a3.258,3.258,0,0,1-2.132,2.9l-43.233.131L40.3,197.945c-.48.393-1.363-.415-1.363-.79V184.281c-1.61,0-3.229.005-4.84,0a3.808,3.808,0,0,1-2.136-3.574l0-42.8a3.91,3.91,0,0,1,2.332-3.766c16.514-.146,33.044.109,49.559,0M41.005,148.9c-1.573.353-1.533,2.8.149,2.867H84.138a1.461,1.461,0,0,0-.193-2.912Zm-.193,9.1c-1.519.348-1.116,2.9.535,2.867h42.6a1.461,1.461,0,0,0,.193-2.912Zm.193,8.9c-1.573.353-1.533,2.8.149,2.867H64.005c1.886-.155,1.585-2.8-.193-2.912Z" transform="translate(-25.768 -108.136)" fill="#fca513"/>
            <path id="Path_888226" data-name="Path 888226" d="M73.932,210.357l42.94-.045a1.461,1.461,0,0,1,.193,2.912H74.081c-1.682-.069-1.722-2.513-.149-2.867" transform="translate(-58.694 -169.598)" fill="#a74c2f"/>
            <path id="Path_888227" data-name="Path 888227" d="M73.769,257.361l43.326-.045a1.461,1.461,0,0,1-.193,2.912H74.3c-1.651.037-2.054-2.518-.535-2.867" transform="translate(-58.724 -207.503)" fill="#a74c2f"/>
            <path id="Path_888228" data-name="Path 888228" d="M73.932,303.358l22.807-.045c1.778.11,2.079,2.756.193,2.912H74.081c-1.682-.069-1.722-2.513-.149-2.867" transform="translate(-58.694 -244.595)" fill="#a74c2f"/>
            <path id="Path_888225" data-name="Path 888225" d="M338.172,76.134a2.428,2.428,0,0,0,3.8-.618c.294-.718.089-2.128,1.159-2.448,2.719-.814,2.458,2.477,1.554,4.1a5.549,5.549,0,0,1-10.023-.812c-.453-1.265-.642-3.345,1.208-3.354,2.153-.011,1.284,2.1,2.3,3.132" transform="translate(-272.93 -61.473)" fill="#a74c2f"/>
            <path id="Path_888224" data-name="Path 888224" d="M430.2,76.117c1.075-1.073.192-3.576,2.715-3.109,1.454.269,1.185,2.147.856,3.179a5.535,5.535,0,0,1-9.829,1.345c-1.08-1.621-1.637-5.362,1.3-4.483,1.07.32.865,1.73,1.159,2.448a2.429,2.429,0,0,0,3.8.619" transform="translate(-342.821 -61.456)" fill="#a74c2f"/>
            <path id="Path_888223" data-name="Path 888223" d="M368.581,130.282a13.01,13.01,0,0,1,8.939,2.188c1.049.732,2.5,1.772,1.819,3.267-.974,2.145-3.236-.393-4.281-1.016a9.254,9.254,0,0,0-8.839-.436c-1.166.527-2.484,1.986-3.317,2.211-1.728.468-2.588-1.61-1.282-2.991a13.509,13.509,0,0,1,6.961-3.223" transform="translate(-293.911 -106.579)" fill="#a74c2f"/>
            <path id="Path_888220" data-name="Path 888220" d="M297.446,28.5A22.9,22.9,0,0,1,324.652.555c8.9,1.94,15.3,8.964,17.324,17.694.089.383-.206.832.45.706v7.638c-.642-.125-.374.312-.453.7a23.144,23.144,0,0,1-27.341,17.969A23.821,23.821,0,0,1,297.446,28.5m11.105-9.832c-1.019-1.037-.149-3.143-2.3-3.132-1.85.009-1.661,2.09-1.208,3.354a5.549,5.549,0,0,0,10.023.812c.9-1.624,1.165-4.915-1.554-4.1-1.07.32-.865,1.73-1.159,2.448a2.429,2.429,0,0,1-3.8.618m22.135,0a2.429,2.429,0,0,1-3.8-.619c-.295-.718-.089-2.128-1.159-2.448-2.936-.879-2.379,2.862-1.3,4.483a5.535,5.535,0,0,0,9.829-1.345c.329-1.032.6-2.911-.856-3.179-2.523-.466-1.64,2.037-2.715,3.11M317.98,27.713a13.51,13.51,0,0,0-6.961,3.223c-1.306,1.381-.446,3.459,1.282,2.991.833-.225,2.151-1.684,3.317-2.211a9.254,9.254,0,0,1,8.839.436c1.045.624,3.307,3.161,4.281,1.016.679-1.495-.769-2.535-1.819-3.267a13.011,13.011,0,0,0-8.939-2.188" transform="translate(-243.31 -4.011)" fill="#fb636e"/>
          </g>
        </g>
      </g>
    </g>
  </g>
</svg>
