<svg xmlns="http://www.w3.org/2000/svg" xmlns:xlink="http://www.w3.org/1999/xlink" width="70" height="70" viewBox="0 0 70 70">
  <defs>
    <clipPath id="clip-path">
      <rect id="Rectangle_406690" data-name="Rectangle 406690" width="35.244" height="35.234" fill="#006543"/>
    </clipPath>
  </defs>
  <g id="Group_1111875" data-name="Group 1111875" transform="translate(-269 -958)">
    <circle id="Ellipse_5614" data-name="Ellipse 5614" cx="35" cy="35" r="35" transform="translate(269 958)" fill="#fff"/>
    <g id="Group_1112298" data-name="Group 1112298" transform="translate(288.378 974.383)">
      <g id="Group_1112297" data-name="Group 1112297" clip-path="url(#clip-path)">
        <path id="Path_887229" data-name="Path 887229" d="M26.854,26.658V30.95c0,1.035,0,2.07,0,3.1a1.066,1.066,0,0,1-1.187,1.178H1.189A1.061,1.061,0,0,1,0,34.028Q0,22.369,0,10.71v-.386H.423q3.3,0,6.607,0a3.127,3.127,0,0,0,3.3-3.311q0-3.285,0-6.57V0H25.638a1.076,1.076,0,0,1,1.216,1.221c0,3.02.006,6.04-.009,9.06a1.442,1.442,0,0,1-.219.73,55.114,55.114,0,0,0-5.639,11.024c-.283.789-.472,1.611-.71,2.417a2.15,2.15,0,0,1-.178.43c-.285.516-.6,1.016-.868,1.54a3.085,3.085,0,0,0,5.315,3.107c.266-.4.456-.854.745-1.234.451-.594.957-1.146,1.44-1.716l.124.079M13.451,12.4H5.442a3.12,3.12,0,0,0-.432.016,1.036,1.036,0,0,0-.88.92,1.009,1.009,0,0,0,.648,1.022,1.977,1.977,0,0,0,.636.084q8.009.006,16.018,0a3.106,3.106,0,0,0,.36-.007A1.027,1.027,0,0,0,22.7,13.4a1.013,1.013,0,0,0-.919-.99,3.8,3.8,0,0,0-.4-.009H13.451m-2.076,6.171h1.19c1.635,0,3.27,0,4.906,0a1.021,1.021,0,1,0,.011-2.037q-3.3-.005-6.6,0-2.813,0-5.627,0a1.037,1.037,0,0,0-1.025.6,1.016,1.016,0,0,0,1.014,1.44c2.044.006,4.088,0,6.132,0m0,2.082H8.85c-1.215,0-2.43-.007-3.644,0a1.02,1.02,0,0,0-.992,1.414,1.105,1.105,0,0,0,1.147.641q5.99-.009,11.979,0a2.218,2.218,0,0,0,.4-.025,1.01,1.01,0,0,0,.831-1.1,1.028,1.028,0,0,0-1.092-.93q-3.049,0-6.1,0m4.343,10.275V30.9c.349,0,.7,0,1.046,0a1.038,1.038,0,1,0,0-2.068c-.577-.007-1.155-.023-1.731,0a1.237,1.237,0,0,1-1.151-.582,2.95,2.95,0,0,0-4.745-.015,12.463,12.463,0,0,0-.713,1.084,1.02,1.02,0,0,0,.307,1.4,1,1,0,0,0,1.4-.274c.184-.252.345-.521.516-.782a.934.934,0,0,1,1.705-.034,2.817,2.817,0,0,0,1.932,1.207c.473.067.957.06,1.436.086m1.825-20.6q1.985,0,3.97,0a1.043,1.043,0,1,0,.016-2.068q-3.988,0-7.977,0a1.041,1.041,0,1,0,.02,2.067q1.985,0,3.97,0M17.537,6.2c1.346,0,2.692,0,4.038,0a1.04,1.04,0,1,0,.012-2.072c-2.692,0-5.383-.006-8.075.007a1.376,1.376,0,0,0-.673.2.977.977,0,0,0-.388,1.142A1.045,1.045,0,0,0,13.5,6.2c1.346.005,2.692,0,4.038,0" transform="translate(-0.001 0)" fill="#006543"/>
        <path id="Path_887230" data-name="Path 887230" d="M295.354,219.374l4.193,2.422a2.558,2.558,0,0,1-.112.241,43.923,43.923,0,0,1-4.639,6.466,3.212,3.212,0,0,1-.4.419,8.29,8.29,0,0,0-2.137,2.813,1.061,1.061,0,0,1-.794.616.975.975,0,0,1-.99-.384.989.989,0,0,1-.088-1.121c.273-.508.585-1,.853-1.505a3.4,3.4,0,0,0,.333-.86A21.121,21.121,0,0,1,293.128,224c.711-1.535,1.467-3.05,2.226-4.621" transform="translate(-269.304 -203.538)" fill="#006543"/>
        <path id="Path_887231" data-name="Path 887231" d="M380.017,85.455l-4.141-2.392c.2-.325.379-.631.568-.931a38.687,38.687,0,0,1,4.459-6.015,15,15,0,0,1,1.617-1.428.98.98,0,0,1,1.1-.257c.4.223.383.67.36,1.065a11.707,11.707,0,0,1-.813,3.311,46.909,46.909,0,0,1-3.048,6.522,1.235,1.235,0,0,1-.1.123" transform="translate(-348.743 -68.978)" fill="#006543"/>
        <path id="Path_887232" data-name="Path 887232" d="M9.97,17.68l7.519-7.521c.005.093.017.207.017.32q0,2.992,0,5.985c0,.836-.376,1.216-1.2,1.216q-2.993,0-5.985,0Z" transform="translate(-9.25 -9.426)" fill="#006543"/>
      </g>
    </g>
  </g>
</svg>
