<svg xmlns="http://www.w3.org/2000/svg" width="178" height="178" viewBox="0 0 178 178">
  <g id="Group_1111860" data-name="Group 1111860" transform="translate(-1060.785 -3140.421)">
    <g id="Group_1109454" data-name="Group 1109454" transform="translate(1060.785 3140.422)">
      <path id="Path_882862" data-name="Path 882862" d="M89,0A89,89,0,1,1,0,89,89,89,0,0,1,89,0Z" transform="translate(0 -0.001)" fill="#005865"/>
      <path id="Path_882863" data-name="Path 882863" d="M78.668,0A78.668,78.668,0,1,1,0,78.668,78.668,78.668,0,0,1,78.668,0Z" transform="translate(10.332 10.331)" fill="#f3f9ff"/>
    </g>
    <g id="Group_1109457" data-name="Group 1109457" transform="translate(1099.785 3179.421)">
      <rect id="Rectangle_401104" data-name="Rectangle 401104" width="99.117" height="100.574" transform="translate(-0.074 -0.421)" fill="none"/>
      <g id="Group_1111501" data-name="Group 1111501" transform="translate(2.926 4.579)">
        <rect id="Rectangle_406179" data-name="Rectangle 406179" width="7.796" height="79.798" transform="translate(0 2.404)" fill="#00aed5"/>
        <rect id="Rectangle_406180" data-name="Rectangle 406180" width="7.796" height="79.798" transform="translate(43.436 2.404)" fill="#00aed5"/>
        <rect id="Rectangle_406181" data-name="Rectangle 406181" width="7.797" height="79.798" transform="translate(86.871 2.404)" fill="#00aed5"/>
        <rect id="Rectangle_406182" data-name="Rectangle 406182" width="79.075" height="7.796" transform="translate(7.796 24.375)" fill="#00aed5"/>
        <rect id="Rectangle_406183" data-name="Rectangle 406183" width="79.075" height="7.796" transform="translate(7.796 59.388)" fill="#00aed5"/>
        <rect id="Rectangle_406184" data-name="Rectangle 406184" width="3.712" height="5.522" transform="translate(2.042 82.203)" fill="#525252"/>
        <rect id="Rectangle_406185" data-name="Rectangle 406185" width="3.712" height="5.522" transform="translate(45.477 82.203)" fill="#525252"/>
        <rect id="Rectangle_406186" data-name="Rectangle 406186" width="3.712" height="5.522" transform="translate(88.912 82.203)" fill="#525252"/>
        <rect id="Rectangle_406187" data-name="Rectangle 406187" width="7.796" height="3.031" transform="translate(0 87.725)" fill="#525252"/>
        <rect id="Rectangle_406188" data-name="Rectangle 406188" width="7.797" height="3.031" transform="translate(43.435 87.725)" fill="#525252"/>
        <rect id="Rectangle_406189" data-name="Rectangle 406189" width="7.797" height="3.031" transform="translate(86.871 87.725)" fill="#525252"/>
        <rect id="Rectangle_406190" data-name="Rectangle 406190" width="3.785" height="7.796" transform="translate(7.796 24.375)" fill="#007fc6"/>
        <rect id="Rectangle_406191" data-name="Rectangle 406191" width="3.785" height="7.796" transform="translate(51.231 24.375)" fill="#007fc6"/>
        <rect id="Rectangle_406192" data-name="Rectangle 406192" width="3.785" height="7.796" transform="translate(7.796 59.388)" fill="#007fc6"/>
        <rect id="Rectangle_406193" data-name="Rectangle 406193" width="3.785" height="7.796" transform="translate(51.232 59.388)" fill="#007fc6"/>
        <rect id="Rectangle_406194" data-name="Rectangle 406194" width="24.375" height="24.375" transform="translate(13.397 0)" fill="#fdb813"/>
        <rect id="Rectangle_406195" data-name="Rectangle 406195" width="4.569" height="5.921" transform="translate(16.761 0)" fill="#ba5720"/>
        <rect id="Rectangle_406196" data-name="Rectangle 406196" width="4.57" height="5.921" transform="translate(29.84 0)" fill="#ba5720"/>
        <rect id="Rectangle_406197" data-name="Rectangle 406197" width="15.796" height="6.587" transform="translate(17.686 15.355)" fill="#fff"/>
        <rect id="Rectangle_406198" data-name="Rectangle 406198" width="1.496" height="4.451" transform="translate(19.327 16.424)" fill="#525252"/>
        <rect id="Rectangle_406199" data-name="Rectangle 406199" width="2.446" height="4.451" transform="translate(22.042 16.424)" fill="#525252"/>
        <rect id="Rectangle_406200" data-name="Rectangle 406200" width="1.396" height="4.451" transform="translate(25.781 16.424)" fill="#525252"/>
        <rect id="Rectangle_406201" data-name="Rectangle 406201" width="1.395" height="4.451" transform="translate(27.643 16.424)" fill="#525252"/>
        <rect id="Rectangle_406202" data-name="Rectangle 406202" width="1.396" height="4.451" transform="translate(30.446 16.424)" fill="#525252"/>
        <rect id="Rectangle_406203" data-name="Rectangle 406203" width="24.376" height="24.375" transform="translate(57.054 0)" fill="#fdb813"/>
        <rect id="Rectangle_406204" data-name="Rectangle 406204" width="4.57" height="5.921" transform="translate(60.416 0)" fill="#ba5720"/>
        <rect id="Rectangle_406205" data-name="Rectangle 406205" width="4.57" height="5.921" transform="translate(73.496 0)" fill="#ba5720"/>
        <rect id="Rectangle_406206" data-name="Rectangle 406206" width="15.795" height="6.587" transform="translate(61.344 15.355)" fill="#fff"/>
        <rect id="Rectangle_406207" data-name="Rectangle 406207" width="1.496" height="4.451" transform="translate(62.984 16.424)" fill="#525252"/>
        <rect id="Rectangle_406208" data-name="Rectangle 406208" width="2.446" height="4.451" transform="translate(65.699 16.424)" fill="#525252"/>
        <rect id="Rectangle_406209" data-name="Rectangle 406209" width="1.396" height="4.451" transform="translate(69.438 16.424)" fill="#525252"/>
        <rect id="Rectangle_406210" data-name="Rectangle 406210" width="1.395" height="4.451" transform="translate(71.299 16.424)" fill="#525252"/>
        <rect id="Rectangle_406211" data-name="Rectangle 406211" width="1.396" height="4.451" transform="translate(74.103 16.424)" fill="#525252"/>
        <rect id="Rectangle_406212" data-name="Rectangle 406212" width="24.376" height="24.375" transform="translate(13.397 35.013)" fill="#fdb813"/>
        <rect id="Rectangle_406213" data-name="Rectangle 406213" width="4.57" height="5.921" transform="translate(16.76 35.013)" fill="#ba5720"/>
        <rect id="Rectangle_406214" data-name="Rectangle 406214" width="4.57" height="5.921" transform="translate(29.84 35.013)" fill="#ba5720"/>
        <rect id="Rectangle_406215" data-name="Rectangle 406215" width="15.796" height="6.586" transform="translate(17.686 50.369)" fill="#fff"/>
        <rect id="Rectangle_406216" data-name="Rectangle 406216" width="1.496" height="4.451" transform="translate(19.327 51.437)" fill="#525252"/>
        <rect id="Rectangle_406217" data-name="Rectangle 406217" width="2.446" height="4.451" transform="translate(22.042 51.437)" fill="#525252"/>
        <rect id="Rectangle_406218" data-name="Rectangle 406218" width="1.396" height="4.451" transform="translate(25.781 51.437)" fill="#525252"/>
        <rect id="Rectangle_406219" data-name="Rectangle 406219" width="1.395" height="4.451" transform="translate(27.643 51.437)" fill="#525252"/>
        <rect id="Rectangle_406220" data-name="Rectangle 406220" width="1.396" height="4.451" transform="translate(30.446 51.437)" fill="#525252"/>
        <rect id="Rectangle_406221" data-name="Rectangle 406221" width="24.376" height="24.375" transform="translate(57.053 35.013)" fill="#fdb813"/>
        <rect id="Rectangle_406222" data-name="Rectangle 406222" width="4.57" height="5.921" transform="translate(60.416 35.013)" fill="#ba5720"/>
        <rect id="Rectangle_406223" data-name="Rectangle 406223" width="4.57" height="5.921" transform="translate(73.496 35.013)" fill="#ba5720"/>
        <rect id="Rectangle_406224" data-name="Rectangle 406224" width="15.795" height="6.586" transform="translate(61.344 50.369)" fill="#fff"/>
        <rect id="Rectangle_406225" data-name="Rectangle 406225" width="1.496" height="4.451" transform="translate(62.984 51.437)" fill="#525252"/>
        <rect id="Rectangle_406226" data-name="Rectangle 406226" width="2.446" height="4.451" transform="translate(65.699 51.437)" fill="#525252"/>
        <rect id="Rectangle_406227" data-name="Rectangle 406227" width="1.396" height="4.451" transform="translate(69.438 51.437)" fill="#525252"/>
        <rect id="Rectangle_406228" data-name="Rectangle 406228" width="1.395" height="4.451" transform="translate(71.299 51.437)" fill="#525252"/>
        <rect id="Rectangle_406229" data-name="Rectangle 406229" width="1.396" height="4.451" transform="translate(74.103 51.437)" fill="#525252"/>
      </g>
    </g>
  </g>
</svg>
