<svg xmlns="http://www.w3.org/2000/svg" xmlns:xlink="http://www.w3.org/1999/xlink" width="85" height="85" viewBox="0 0 85 85">
  <defs>
    <clipPath id="clip-path">
      <rect id="Rectangle_404012" data-name="Rectangle 404012" width="69.19" height="69.19" transform="translate(0 0)" fill="#fff" stroke="#707070" stroke-width="1"/>
    </clipPath>
    <clipPath id="clip-path-2">
      <rect id="Rectangle_406753" data-name="Rectangle 406753" width="63" height="63.596" fill="#fff"/>
    </clipPath>
  </defs>
  <g id="Group_1112782" data-name="Group 1112782" transform="translate(-1020.34 -4328.297)">
    <rect id="Rectangle_404011" data-name="Rectangle 404011" width="85" height="85" transform="translate(1020.34 4328.297)" fill="#005865"/>
    <g id="Mask_Group_1098862" data-name="Mask Group 1098862" transform="translate(1028.34 4336.297)" clip-path="url(#clip-path)">
      <g id="Group_1112377" data-name="Group 1112377" transform="translate(3.371 3.703)">
        <g id="Group_1112376" data-name="Group 1112376" transform="translate(0 0)" clip-path="url(#clip-path-2)">
          <path id="Path_887672" data-name="Path 887672" d="M82.2,0a1.49,1.49,0,0,1,1.42,1.5A1.389,1.389,0,0,1,82.2,2.891a1.489,1.489,0,0,1-1.419-1.5A1.388,1.388,0,0,1,82.2,0" transform="translate(-31.643 0)" fill="#fff"/>
          <path id="Path_887673" data-name="Path 887673" d="M73.221,82.158a1.506,1.506,0,1,1-1.42,1.5c.109-.925.656-1.5,1.42-1.5" transform="translate(-28.127 -28.622)" fill="#fff"/>
          <path id="Path_887674" data-name="Path 887674" d="M59.758,4.436a1.505,1.505,0,1,1-1.42,1.5,1.572,1.572,0,0,1,1.42-1.5" transform="translate(-22.853 -1.546)" fill="#fff"/>
          <path id="Path_887675" data-name="Path 887675" d="M28.344,82.158a1.506,1.506,0,1,1-1.419,1.5c.109-.925.655-1.5,1.419-1.5" transform="translate(-10.547 -28.622)" fill="#fff"/>
          <path id="Path_887676" data-name="Path 887676" d="M26.19,0a1.49,1.49,0,0,1,1.42,1.5,1.46,1.46,0,0,1-1.42,1.388A1.555,1.555,0,0,1,24.772,1.5,1.573,1.573,0,0,1,26.19,0" transform="translate(-9.704 0)" fill="#fff"/>
          <path id="Path_887677" data-name="Path 887677" d="M61.472,38.319H1.419a1.505,1.505,0,0,1,0-3.006H61.472a1.505,1.505,0,0,1,0,3.006" transform="translate(0 -12.303)" fill="#fff"/>
          <path id="Path_887678" data-name="Path 887678" d="M56.192,70.581H6.84A6.821,6.821,0,0,1,.179,63.528V27.1A6.821,6.821,0,0,1,6.84,20.051H56.3A6.821,6.821,0,0,1,62.962,27.1V63.528a6.91,6.91,0,0,1-6.77,7.053M6.84,22.942A4.035,4.035,0,0,0,2.909,27.1V63.528A4.035,4.035,0,0,0,6.84,67.69H56.3a4.035,4.035,0,0,0,3.931-4.163V27.1A4.035,4.035,0,0,0,56.3,22.942Z" transform="translate(-0.07 -6.986)" fill="#fff"/>
          <path id="Path_887679" data-name="Path 887679" d="M21.256,24.871a1.505,1.505,0,0,1,0-3.006,2.786,2.786,0,0,0,2.729-2.891,2.734,2.734,0,1,0-5.459,0,1.49,1.49,0,0,1-1.42,1.5A1.3,1.3,0,0,1,15.8,19.09a5.573,5.573,0,0,1,5.46-5.782,5.573,5.573,0,0,1,5.459,5.782,5.573,5.573,0,0,1-5.459,5.781" transform="translate(-6.188 -4.636)" fill="#fff"/>
          <path id="Path_887680" data-name="Path 887680" d="M34.649,24.871a1.505,1.505,0,0,1,0-3.006,2.786,2.786,0,0,0,2.729-2.891,2.785,2.785,0,0,0-2.729-2.891,2.89,2.89,0,0,0-2.73,3.006,1.422,1.422,0,1,1-2.839,0A5.468,5.468,0,1,1,40,19.09a5.485,5.485,0,0,1-5.349,5.781" transform="translate(-11.392 -4.636)" fill="#fff"/>
          <path id="Path_887681" data-name="Path 887681" d="M48.181,24.871a1.505,1.505,0,0,1,0-3.006,2.786,2.786,0,0,0,2.729-2.891,2.734,2.734,0,1,0-5.459,0,1.49,1.49,0,0,1-1.42,1.5,1.3,1.3,0,0,1-1.31-1.387,5.468,5.468,0,1,1,10.919,0,5.573,5.573,0,0,1-5.459,5.781" transform="translate(-16.735 -4.636)" fill="#fff"/>
          <path id="Path_887682" data-name="Path 887682" d="M61.574,24.871a1.505,1.505,0,0,1,0-3.006A2.786,2.786,0,0,0,64.3,18.975a2.785,2.785,0,0,0-2.729-2.891,2.89,2.89,0,0,0-2.73,3.006,1.422,1.422,0,1,1-2.839,0,5.468,5.468,0,1,1,10.918,0,5.485,5.485,0,0,1-5.349,5.781" transform="translate(-21.939 -4.636)" fill="#fff"/>
          <path id="Path_887683" data-name="Path 887683" d="M75.107,24.871a1.505,1.505,0,0,1,0-3.006,2.786,2.786,0,0,0,2.729-2.891,2.734,2.734,0,1,0-5.459,0,1.49,1.49,0,0,1-1.42,1.5,1.3,1.3,0,0,1-1.31-1.387,5.468,5.468,0,1,1,10.919,0,5.572,5.572,0,0,1-5.459,5.781" transform="translate(-27.283 -4.636)" fill="#fff"/>
          <path id="Path_887685" data-name="Path 887685" d="M43.329,74.073c-7.1,0-12.993-6.128-12.993-13.76s5.9-13.644,12.993-13.644S56.322,52.8,56.322,60.429s-5.9,13.644-12.993,13.644m0-24.513c-5.678,0-10.265,4.857-10.265,10.87A10.465,10.465,0,0,0,43.329,71.182c5.677,0,10.263-4.857,10.263-10.87A10.465,10.465,0,0,0,43.329,49.56" transform="translate(-11.884 -16.259)" fill="#fff"/>
          <path id="Path_887686" data-name="Path 887686" d="M92.271,84.987H80.042a1.505,1.505,0,0,1,0-3.006H92.381a1.49,1.49,0,0,1,1.419,1.5,1.671,1.671,0,0,1-1.529,1.5" transform="translate(-30.799 -28.561)" fill="#fff"/>
          <path id="Path_887687" data-name="Path 887687" d="M13.758,84.987H1.419a1.505,1.505,0,0,1,0-3.006H13.758a1.49,1.49,0,0,1,1.419,1.5,1.667,1.667,0,0,1-1.419,1.5" transform="translate(0 -28.561)" fill="#fff"/>
          <path id="Path_887688" data-name="Path 887688" d="M8.636,10.917a4.275,4.275,0,0,1-4.15-4.393A4.275,4.275,0,0,1,8.636,2.13a4.275,4.275,0,0,1,4.149,4.394,4.275,4.275,0,0,1-4.149,4.393m0-5.781a1.506,1.506,0,0,0,0,3.007,1.49,1.49,0,0,0,1.418-1.5,1.417,1.417,0,0,0-1.418-1.5" transform="translate(-1.757 -0.742)" fill="#fff"/>
          <path id="Path_887689" data-name="Path 887689" d="M93.316,7.346a3.506,3.506,0,0,1-3.384-3.585,3.39,3.39,0,1,1,6.769,0,3.506,3.506,0,0,1-3.384,3.585m0-4.394a.726.726,0,0,0-.656.693.727.727,0,0,0,.656.695.648.648,0,0,0,.654-.695.647.647,0,0,0-.654-.693" transform="translate(-35.229 -0.062)" fill="#fff"/>
        </g>
      </g>
    </g>
  </g>
</svg>
