<svg xmlns="http://www.w3.org/2000/svg" xmlns:xlink="http://www.w3.org/1999/xlink" width="147" height="147" viewBox="0 0 147 147">
  <defs>
    <clipPath id="clip-path">
      <rect id="Rectangle_400938" data-name="Rectangle 400938" width="147" height="147" fill="none"/>
    </clipPath>
    <clipPath id="clip-path-2">
      <rect id="Rectangle_401492" data-name="Rectangle 401492" width="78.518" height="78.519" transform="translate(2.297 3.366)" fill="#b8fafd" stroke="#707070" stroke-width="1"/>
    </clipPath>
    <clipPath id="clip-path-3">
      <rect id="Rectangle_406705" data-name="Rectangle 406705" width="70.667" height="74.572" fill="#b8fafd"/>
    </clipPath>
  </defs>
  <g id="Group_1108953" data-name="Group 1108953" transform="translate(-310 -7635)">
    <g id="Group_1102000" data-name="Group 1102000" transform="translate(448.975 7781.705) rotate(180)">
      <path id="Path_874029" data-name="Path 874029" d="M626.466,575.286l-64.987-36.674V465.259l64.987-36.677,64.987,36.677v73.354Zm-62.05-38.332,62.05,35.019,62.05-35.019V466.916l-62.05-35.022-62.05,35.022Z" transform="translate(-561.479 -428.582)" fill="#2bc897"/>
      <path id="Path_874030" data-name="Path 874030" d="M574.458,477v66.873l59.374,33.436L693.2,543.876V477l-59.373-33.436Z" transform="translate(-568.844 -437.087)" fill="#005865"/>
    </g>
    <g id="Mask_Group_1098697" data-name="Mask Group 1098697" transform="translate(341.414 7665.634)" clip-path="url(#clip-path-2)">
      <g id="Group_1112312" data-name="Group 1112312" transform="translate(6.297 5.366)">
        <g id="Group_1112311" data-name="Group 1112311" transform="translate(0 0)" clip-path="url(#clip-path-3)">
          <path id="Path_887274" data-name="Path 887274" d="M87.6,59.337a1.743,1.743,0,0,0,1.632,1.612,1.631,1.631,0,0,0,1.631-1.489,1.652,1.652,0,0,0-1.631-1.613A1.549,1.549,0,0,0,87.6,59.337" transform="translate(-26.346 -17.398)" fill="#b8fafd"/>
          <path id="Path_887275" data-name="Path 887275" d="M86.9,10.147a1.614,1.614,0,1,0-1.632-1.614A1.653,1.653,0,0,0,86.9,10.147" transform="translate(-25.644 -2.081)" fill="#b8fafd"/>
          <path id="Path_887276" data-name="Path 887276" d="M23.946,35.029a1.743,1.743,0,0,0-1.631,1.612,1.632,1.632,0,1,0,1.631-1.612" transform="translate(-6.711 -10.535)" fill="#b8fafd"/>
          <path id="Path_887277" data-name="Path 887277" d="M15.1,64.591A1.614,1.614,0,1,0,16.726,66.2,1.653,1.653,0,0,0,15.1,64.591" transform="translate(-4.049 -19.426)" fill="#b8fafd"/>
          <path id="Path_887278" data-name="Path 887278" d="M15.1,93.337a1.744,1.744,0,0,0-1.632,1.613A1.632,1.632,0,1,0,15.1,93.337" transform="translate(-4.049 -28.071)" fill="#b8fafd"/>
          <path id="Path_887279" data-name="Path 887279" d="M1.632,10.147a1.614,1.614,0,1,0,0-3.227,1.614,1.614,0,1,0,0,3.227" transform="translate(0 -2.081)" fill="#b8fafd"/>
          <path id="Path_887280" data-name="Path 887280" d="M3.264,50.588a1.652,1.652,0,0,0-1.631-1.612A1.745,1.745,0,0,0,0,50.588,1.653,1.653,0,0,0,1.633,52.2a1.652,1.652,0,0,0,1.631-1.613" transform="translate(0 -14.73)" fill="#b8fafd"/>
          <path id="Path_887281" data-name="Path 887281" d="M57.959,36.747V19.357A19.494,19.494,0,0,0,38.379,0a19.221,19.221,0,0,0-8.285,1.861,18.676,18.676,0,0,0-5.788,4.051,14.15,14.15,0,0,0-5.634-1.2,14.022,14.022,0,1,0,0,28.042V55.216A19.5,19.5,0,0,0,38.253,74.572,19.183,19.183,0,0,0,52.185,68.74a18.638,18.638,0,0,0,5.774-13.649V37.785a1.856,1.856,0,0,0,.126-.436,1.533,1.533,0,0,0-.126-.6M31.475,4.715A16.5,16.5,0,0,1,54.822,19.481V35.736H21.936V32.389A13.926,13.926,0,0,0,27.167,7.563a16.9,16.9,0,0,1,4.308-2.848M7.627,18.86A11,11,0,0,1,18.672,7.941a9.84,9.84,0,0,1,5.272,1.366,10.826,10.826,0,0,1-3.058,20.215,1.558,1.558,0,0,0-1.58.245c-.2.012-.4.013-.634.013A10.92,10.92,0,0,1,7.627,18.86M50.051,66.631a16.954,16.954,0,0,1-11.673,4.716A16.406,16.406,0,0,1,21.936,55.092V38.961H54.822V55.092a16.035,16.035,0,0,1-4.771,11.539" transform="translate(-1.35 0)" fill="#b8fafd"/>
          <path id="Path_887282" data-name="Path 887282" d="M23.946,14.978a1.652,1.652,0,0,0-1.631,1.612V25.9a1.632,1.632,0,0,0,3.263,0V16.59a1.652,1.652,0,0,0-1.632-1.612" transform="translate(-6.711 -4.505)" fill="#b8fafd"/>
          <path id="Path_887283" data-name="Path 887283" d="M10.116,77.31a3.891,3.891,0,1,0-3.891,3.846,3.808,3.808,0,0,0,3.891-3.846m-3.137,0a.8.8,0,0,1-.754.744.745.745,0,1,1,0-1.489c.5,0,.879.248.754.745" transform="translate(-0.702 -22.094)" fill="#b8fafd"/>
          <path id="Path_887284" data-name="Path 887284" d="M90.035,80.029a4.637,4.637,0,0,0-4.771,4.591,4.741,4.741,0,0,0,4.771,4.714,4.637,4.637,0,0,0,4.77-4.591,4.741,4.741,0,0,0-4.77-4.715m0,6.327a1.613,1.613,0,1,1,1.631-1.612,1.652,1.652,0,0,1-1.631,1.612" transform="translate(-25.643 -24.069)" fill="#b8fafd"/>
          <path id="Path_887285" data-name="Path 887285" d="M90.787,35.407a5.46,5.46,0,1,0-5.523-5.46,5.54,5.54,0,0,0,5.523,5.46m0-7.693A2.358,2.358,0,1,1,88.4,30.071a2.369,2.369,0,0,1,2.384-2.358" transform="translate(-25.643 -7.365)" fill="#b8fafd"/>
        </g>
      </g>
    </g>
  </g>
</svg>
