<svg xmlns="http://www.w3.org/2000/svg" xmlns:xlink="http://www.w3.org/1999/xlink" width="147" height="147" viewBox="0 0 147 147">
  <defs>
    <clipPath id="clip-path">
      <rect id="Rectangle_400938" data-name="Rectangle 400938" width="147" height="147" fill="none"/>
    </clipPath>
    <clipPath id="clip-path-2">
      <rect id="Rectangle_401492" data-name="Rectangle 401492" width="78.518" height="78.519" transform="translate(2.297 3.366)" fill="#b8fafd" stroke="#707070" stroke-width="1"/>
    </clipPath>
    <clipPath id="clip-path-3">
      <rect id="Rectangle_406706" data-name="Rectangle 406706" width="75.081" height="71.312" fill="#b8fafd"/>
    </clipPath>
  </defs>
  <g id="Group_1108954" data-name="Group 1108954" transform="translate(-310 -7635)">
    <g id="Group_1102000" data-name="Group 1102000" transform="translate(448.975 7781.705) rotate(180)">
      <path id="Path_874029" data-name="Path 874029" d="M626.466,575.286l-64.987-36.674V465.259l64.987-36.677,64.987,36.677v73.354Zm-62.05-38.332,62.05,35.019,62.05-35.019V466.916l-62.05-35.022-62.05,35.022Z" transform="translate(-561.479 -428.582)" fill="#2bc897"/>
      <path id="Path_874030" data-name="Path 874030" d="M574.458,477v66.873l59.374,33.436L693.2,543.876V477l-59.373-33.436Z" transform="translate(-568.844 -437.087)" fill="#005865"/>
    </g>
    <g id="Mask_Group_1098697" data-name="Mask Group 1098697" transform="translate(341.414 7665.634)" clip-path="url(#clip-path-2)">
      <g id="Group_1112314" data-name="Group 1112314" transform="translate(4.297 7.366)">
        <g id="Group_1112313" data-name="Group 1112313" transform="translate(0 0)" clip-path="url(#clip-path-3)">
          <path id="Path_887286" data-name="Path 887286" d="M100.211,5.772a1.685,1.685,0,0,0,1.663-1.644,1.684,1.684,0,0,0-1.663-1.645,1.6,1.6,0,0,0-1.662,1.645,1.684,1.684,0,0,0,1.662,1.644" transform="translate(-28.328 -0.714)" fill="#b8fafd"/>
          <path id="Path_887287" data-name="Path 887287" d="M99.135,57.849a1.644,1.644,0,1,0,0,3.287,1.644,1.644,0,1,0,0-3.287" transform="translate(-28.019 -16.629)" fill="#b8fafd"/>
          <path id="Path_887288" data-name="Path 887288" d="M92.313,88.9a1.776,1.776,0,0,0-1.662,1.643A1.663,1.663,0,1,0,92.313,88.9" transform="translate(-26.058 -25.555)" fill="#b8fafd"/>
          <path id="Path_887289" data-name="Path 887289" d="M50.936,34.735a1.592,1.592,0,0,0,0-2.276,1.636,1.636,0,0,0-2.3,0,1.59,1.59,0,0,0,0,2.276,1.636,1.636,0,0,0,2.3,0" transform="translate(-13.842 -9.194)" fill="#b8fafd"/>
          <path id="Path_887290" data-name="Path 887290" d="M49.77,86.772a1.6,1.6,0,0,0-1.662,1.643,1.663,1.663,0,1,0,1.662-1.643" transform="translate(-13.829 -24.943)" fill="#b8fafd"/>
          <path id="Path_887291" data-name="Path 887291" d="M5.386,44.054a1.663,1.663,0,1,0,1.663-1.643,1.684,1.684,0,0,0-1.663,1.643" transform="translate(-1.548 -12.191)" fill="#b8fafd"/>
          <path id="Path_887292" data-name="Path 887292" d="M3.637,3.339A1.578,1.578,0,0,0,5.3,1.821,1.683,1.683,0,0,0,3.637.178,1.578,1.578,0,0,0,1.975,1.7,1.683,1.683,0,0,0,3.637,3.339" transform="translate(-0.568 -0.051)" fill="#b8fafd"/>
          <path id="Path_887293" data-name="Path 887293" d="M70.382,54.875V46.531a3.826,3.826,0,0,0-3.836-3.794h-2.43V39.7h2.43a3.852,3.852,0,0,0,3.836-3.919v-1.9a3.805,3.805,0,0,0-.661-2.17,4.345,4.345,0,0,0,.79-2.255v-1.9a3.748,3.748,0,0,0-3.838-3.794H64.116v-6.2h2.43a3.853,3.853,0,0,0,3.836-3.92v-6.7a3.747,3.747,0,0,0-3.836-3.794H63.988V1.77A1.684,1.684,0,0,0,62.325.127H24.7a1.575,1.575,0,0,0-1.238,0h-1.3a7.708,7.708,0,0,0-7.8,7.713V63.347a1.574,1.574,0,0,0,.13.62c0,.083,0,.17,0,.266a7.11,7.11,0,0,0,7.163,7.08h40.8a2.258,2.258,0,0,0,1.79-1.39V58.8c0-.043-.01-.085-.014-.128h2.316a3.824,3.824,0,0,0,3.836-3.793m-3.2-8.345v8.345a.6.6,0,0,1-.64.632H63.988V45.9h2.558a.6.6,0,0,1,.64.632m0-10.622a.6.6,0,0,1-.64.633H63.988V33.38h2.558a.6.6,0,0,1,.64.633Zm0-8.344v1.9a.6.6,0,0,1-.64.633H63.988V26.932h2.558a.6.6,0,0,1,.64.633m0-20.484v6.7a.6.6,0,0,1-.64.632H63.988V6.449h2.558a.6.6,0,0,1,.64.633M60.789,4.2a1.563,1.563,0,0,0-.127.61V15.932a1.563,1.563,0,0,0,.127.61V31.127a1.563,1.563,0,0,0-.127.61v6.322a1.557,1.557,0,0,0,.127.61v5.1a1.563,1.563,0,0,0-.127.61V57.025c0,.043.01.083.014.125H25.745V3.288H60.789Zm-38.5-.908h.127V57.15h-.64a7.251,7.251,0,0,0-4.091,1.192V7.839a4.559,4.559,0,0,1,4.6-4.552m-.64,64.738a3.962,3.962,0,0,1-3.965-3.92V63.6a3.9,3.9,0,0,1,1.151-2.275,3.986,3.986,0,0,1,2.814-1.139H60.789V61.7H44.8a1.644,1.644,0,1,0,0,3.287H60.789v3.035Z" transform="translate(-4.128 0)" fill="#b8fafd"/>
          <path id="Path_887294" data-name="Path 887294" d="M36.307,60.959H61.889a1.777,1.777,0,0,0,1.662-1.643,1.683,1.683,0,0,0-1.662-1.644H36.307a1.644,1.644,0,1,0,0,3.287" transform="translate(-9.959 -16.578)" fill="#b8fafd"/>
          <path id="Path_887295" data-name="Path 887295" d="M59.981,64.415H40.8a1.644,1.644,0,1,0,0,3.287H59.981a1.778,1.778,0,0,0,1.663-1.644,1.684,1.684,0,0,0-1.663-1.643" transform="translate(-11.249 -18.516)" fill="#b8fafd"/>
          <path id="Path_887296" data-name="Path 887296" d="M58.074,70.981H45.284a1.644,1.644,0,1,0,0,3.287H58.074a1.887,1.887,0,0,0,1.663-1.644,1.684,1.684,0,0,0-1.663-1.643" transform="translate(-12.539 -20.404)" fill="#b8fafd"/>
          <path id="Path_887297" data-name="Path 887297" d="M3.966,71.334a3.92,3.92,0,1,0,0,7.839,4.048,4.048,0,0,0,3.965-3.919,3.963,3.963,0,0,0-3.965-3.92m0,4.552a.759.759,0,1,1,0-1.518.759.759,0,1,1,0,1.518" transform="translate(0 -20.505)" fill="#b8fafd"/>
          <path id="Path_887298" data-name="Path 887298" d="M98.206,22.536a3.92,3.92,0,1,0,3.965,3.92,3.964,3.964,0,0,0-3.965-3.92m0,4.552a.759.759,0,1,1,.767-.76.821.821,0,0,1-.767.76" transform="translate(-27.09 -6.478)" fill="#b8fafd"/>
          <path id="Path_887299" data-name="Path 887299" d="M45.627,33.883a8.078,8.078,0,0,0,5.628-2.276l4.6-4.55h0l0,0,4.474-4.423a8.126,8.126,0,0,0,2.3-5.564,7.588,7.588,0,0,0-2.3-5.563,8.314,8.314,0,0,0-5.627-2.277A7.77,7.77,0,0,0,49.08,11.5l-3.956,3.91a1.621,1.621,0,0,0-.648.388,1.6,1.6,0,0,0-.393.641L40,20.481a7.873,7.873,0,0,0,0,11.126,8.317,8.317,0,0,0,5.628,2.276m5.628-20.231a5.214,5.214,0,0,1,3.454-1.39,5.782,5.782,0,0,1,3.452,1.264,5.086,5.086,0,0,1,1.408,3.415,4.64,4.64,0,0,1-1.408,3.414l-3.389,3.35-3.39-3.35,1.152-1.138a1.59,1.59,0,0,0,0-2.276,1.636,1.636,0,0,0-2.3,0L49.08,18.079,47.929,16.94Zm-9.081,8.978,3.454-3.415,6.843,6.766-3.389,3.35a5.21,5.21,0,0,1-3.454,1.391,4.749,4.749,0,0,1-3.454-1.391,4.619,4.619,0,0,1,0-6.7" transform="translate(-10.836 -2.652)" fill="#b8fafd"/>
        </g>
      </g>
    </g>
  </g>
</svg>
