<svg xmlns="http://www.w3.org/2000/svg" xmlns:xlink="http://www.w3.org/1999/xlink" width="178" height="178" viewBox="0 0 178 178">
  <defs>
    <clipPath id="clip-path">
      <rect id="Rectangle_406653" data-name="Rectangle 406653" width="96.047" height="84.143" fill="none"/>
    </clipPath>
  </defs>
  <g id="Group_1112770" data-name="Group 1112770" transform="translate(-9453.43 8526.296)">
    <g id="Group_1111866" data-name="Group 1111866" transform="translate(9453.43 -8526.295)">
      <path id="Path_882862" data-name="Path 882862" d="M89,0A89,89,0,1,1,0,89,89,89,0,0,1,89,0Z" transform="translate(0 -0.001)" fill="#005865"/>
      <path id="Path_882863" data-name="Path 882863" d="M78.668,0A78.668,78.668,0,1,1,0,78.668,78.668,78.668,0,0,1,78.668,0Z" transform="translate(10.332 10.331)" fill="#f3f9ff"/>
    </g>
    <rect id="Rectangle_401104" data-name="Rectangle 401104" width="99.117" height="100.574" transform="translate(9492.43 -8487.716)" fill="none"/>
    <g id="Group_1112235" data-name="Group 1112235" transform="translate(9495.5 -8479.5)">
      <g id="Group_1112234" data-name="Group 1112234" clip-path="url(#clip-path)">
        <path id="Path_887120" data-name="Path 887120" d="M181.175,20.768c-2.454,1.223-4.886,2.52-7.367,3.652a40.038,40.038,0,0,1-9.92,3.146,16.706,16.706,0,0,1,1.86-3.988c2.653-5.205,5.591-10.167,8.561-15.094,1.513-2.51,3.177-4.878,4.756-7.328a2.381,2.381,0,0,1,2.117-1.1q0,10.251,0,20.5-.011.1-.011.21" transform="translate(-133.089 -0.042)" fill="#70c6e2"/>
        <path id="Path_887121" data-name="Path 887121" d="M255.917,20.515q0-10.251,0-20.5a2.363,2.363,0,0,1,2.268,1.273c2.938,4.522,5.854,9.065,8.521,13.846a3,3,0,0,0,.485.534,81.918,81.918,0,0,0-11.27,4.85" transform="translate(-207.82 0)" fill="#3993d2"/>
        <path id="Path_887122" data-name="Path 887122" d="M255.8,277.034c.01-.053.021-.106.033-.158,2.343-1.165,4.672-2.381,7.033-3.485a39.509,39.509,0,0,1,11.4-3.494,20.687,20.687,0,0,1,4.756-.292c.241.023.509-.074.686.237a34.917,34.917,0,0,1-5.277,10.658A24.644,24.644,0,0,1,260.6,290.09a11.886,11.886,0,0,1-4.777.5q-.012-6.78-.023-13.561" transform="translate(-207.73 -206.534)" fill="#3993d2"/>
        <path id="Path_887123" data-name="Path 887123" d="M185.213,301.542q.011,6.78.023,13.561a19.1,19.1,0,0,1-9.788-2.408,24.457,24.457,0,0,1-6.57-5.008,38.578,38.578,0,0,1,4.683-1.295,61.011,61.011,0,0,0,10.946-4.568,6.286,6.286,0,0,1,.707-.282" transform="translate(-137.14 -231.042)" fill="#70c6e2"/>
        <path id="Path_887124" data-name="Path 887124" d="M255.8,100.894c.01-.053.021-.106.033-.158,2.31-1.153,4.6-2.356,6.934-3.444a37.137,37.137,0,0,1,7.7-2.719,141.331,141.331,0,0,1,6.212,12.882,48.389,48.389,0,0,0-18.084,5.187q-1.386.687-2.772,1.37-.012-6.559-.024-13.118" transform="translate(-207.73 -72.462)" fill="#3993d2"/>
        <path id="Path_887125" data-name="Path 887125" d="M279.313,179.928a60.225,60.225,0,0,1,1.518,6.417,27.013,27.013,0,0,1,.165,7.623,49.18,49.18,0,0,0-6.406.211c-1.738.274-3.487.454-5.207.895-1.134.29-2.274.568-3.386.96a69,69,0,0,0-10.169,4.408q-.012-6.559-.024-13.118c.01-.053.021-.105.033-.158,2.259-1.118,4.5-2.294,6.781-3.343a36.993,36.993,0,0,1,13.25-3.744c1.149-.068,2.3-.174,3.447-.152" transform="translate(-207.73 -137.859)" fill="#3993d2"/>
        <path id="Path_887126" data-name="Path 887126" d="M147.794,121.608q.012,6.559.024,13.118a1.7,1.7,0,0,0-.011.21c-2.97,1.426-5.857,3.119-8.9,4.3a41.087,41.087,0,0,1-10.682,2.808c-1.815.187-3.617.107-5.425.147a35.78,35.78,0,0,1,2.17-8.8c.58-1.764,1.312-3.452,1.975-5.174,1-.524,2.078-.272,3.114-.43a49.277,49.277,0,0,0,12.761-3.838c1.668-.749,3.317-1.563,4.975-2.347" transform="translate(-99.722 -93.176)" fill="#70c6e2"/>
        <path id="Path_887127" data-name="Path 887127" d="M147.067,211.575q.012,6.559.024,13.118a1.712,1.712,0,0,0-.011.21c-2.788,1.359-5.512,2.917-8.361,4.081a38.823,38.823,0,0,1-10.924,2.994c-.641.062-1.272.444-1.908-.011A34.877,34.877,0,0,1,121.9,218.2a43.536,43.536,0,0,0,14.633-2.131,58.4,58.4,0,0,0,9.734-4.163,7.9,7.9,0,0,1,.8-.328" transform="translate(-98.994 -162.109)" fill="#70c6e2"/>
        <path id="Path_887128" data-name="Path 887128" d="M302.45,73.381c.353-.3.635-.705.961-1.034a5.082,5.082,0,0,0-.678-4.6,7.39,7.39,0,0,0-1.757-1.222,61.561,61.561,0,0,0-9.612-4.181,45.865,45.865,0,0,0-10.2-2.168,38.5,38.5,0,0,0-9.332.442c-1.579.243-3.108.783-4.678,1.065a81.867,81.867,0,0,0-11.27,4.85c-.007.07-.011.14-.011.21q.01,3.774.02,7.548c2.31-1.152,4.6-2.356,6.934-3.444a37.139,37.139,0,0,1,7.7-2.719,31.916,31.916,0,0,1,7.076-1.084,21.98,21.98,0,0,1,4.978.43,36.144,36.144,0,0,1,9.145,2.363c1.571.663,3.151,1.288,4.7,2.038,1.269.613,2.475,1.411,3.769,1.937a1.978,1.978,0,0,0,2.249-.429" transform="translate(-207.788 -46.014)" fill="#b8fafd"/>
        <path id="Path_887129" data-name="Path 887129" d="M303.57,161.943a.613.613,0,0,0,.028-.059c.675-1.8-.245-3.657-.915-4.669a6.17,6.17,0,0,0-1.034-.645,70.589,70.589,0,0,0-9.391-4.242,47.735,47.735,0,0,0-9.478-2.355c-2-.277-4.025-.213-6.039-.3a48.389,48.389,0,0,0-18.084,5.187q-1.386.687-2.772,1.37a1.707,1.707,0,0,0-.011.21q.01,3.773.02,7.548c2.259-1.118,4.5-2.294,6.781-3.343a37,37,0,0,1,13.25-3.744c1.149-.067,2.3-.174,3.447-.152a40.6,40.6,0,0,1,11.147,2.337,54.1,54.1,0,0,1,9.369,4.318c1.346.8,2.735.2,3.684-1.46" transform="translate(-207.787 -114.678)" fill="#b8fafd"/>
        <path id="Path_887130" data-name="Path 887130" d="M303.23,252.693c1.168-2.05-.015-4.283-.752-5.352-1.257-1.064-2.807-1.478-4.19-2.221a46.582,46.582,0,0,0-10.44-3.913,22.346,22.346,0,0,0-6.188-1.035c-.209.006-.443.081-.607-.178a49.061,49.061,0,0,0-6.406.211c-1.737.274-3.486.454-5.207.894-1.134.29-2.274.568-3.386.96a69,69,0,0,0-10.169,4.408,1.707,1.707,0,0,0-.011.21q.01,3.773.02,7.548c2.343-1.165,4.672-2.381,7.033-3.485a39.509,39.509,0,0,1,11.4-3.494,20.7,20.7,0,0,1,4.756-.292c.241.023.509-.074.686.237a25.536,25.536,0,0,1,7.374,1.136,50.755,50.755,0,0,1,12.41,5.142,2.559,2.559,0,0,0,3.681-.777" transform="translate(-207.787 -183.884)" fill="#b8fafd"/>
        <path id="Path_887131" data-name="Path 887131" d="M48.513,268.581c-2.787,1.359-5.512,2.917-8.361,4.082a38.833,38.833,0,0,1-10.925,2.994c-.641.062-1.272.444-1.908-.01a7.9,7.9,0,0,1-3.859.165,41.33,41.33,0,0,1-4.712-.832,49.74,49.74,0,0,1-8.17-2.731q-2.874-1.231-5.674-2.723a6.4,6.4,0,0,0-1.432-.605,3.816,3.816,0,0,0-2.4,1.387,4.506,4.506,0,0,0,.507,4.961,4.652,4.652,0,0,0,.747.478,65.712,65.712,0,0,0,11.692,5.086,45.893,45.893,0,0,0,10.458,2.059c2.58.187,5.121-.44,7.689-.459a38.642,38.642,0,0,1,4.683-1.295,61.025,61.025,0,0,0,10.946-4.568,6.284,6.284,0,0,1,.706-.282c.011-.053.021-.106.033-.158q-.01-3.774-.02-7.548" transform="translate(-0.427 -205.788)" fill="#c3eaec"/>
        <path id="Path_887132" data-name="Path 887132" d="M48.526,178.614c-2.97,1.427-5.856,3.119-8.9,4.305a41.1,41.1,0,0,1-10.682,2.808c-1.815.187-3.617.107-5.425.147a3.638,3.638,0,0,0-.886-.2,15.241,15.241,0,0,1-4.536-.763,59.363,59.363,0,0,1-12.763-5.153,4.859,4.859,0,0,0-2.314-.885,4.113,4.113,0,0,0-1.931,1.312,4.5,4.5,0,0,0,.5,4.956c1.542,1.468,3.489,1.978,5.265,2.887a54.023,54.023,0,0,0,11.835,4.152,36.8,36.8,0,0,0,4.3.565c.132-.068.159.054.193.163a.439.439,0,0,1,.166.034,43.534,43.534,0,0,0,14.632-2.131,58.412,58.412,0,0,0,9.735-4.163,7.9,7.9,0,0,1,.8-.328c.011-.053.021-.106.033-.158q-.01-3.774-.02-7.548" transform="translate(-0.44 -136.855)" fill="#c3eaec"/>
        <path id="Path_887133" data-name="Path 887133" d="M48.086,88.647C45.632,89.87,43.2,91.167,40.72,92.3a40.042,40.042,0,0,1-9.92,3.146,24.53,24.53,0,0,1-3.264.463,20.485,20.485,0,0,1-5.747-.274l-.18.015c-.481.241-.874-.229-1.323-.252l-.088.04-.092-.023a21.732,21.732,0,0,1-2.505-.455A65.065,65.065,0,0,1,4.3,89.482a2.764,2.764,0,0,0-2.336-.351,3.926,3.926,0,0,0-1,.635,6.668,6.668,0,0,0-.744.959A3.948,3.948,0,0,0,0,91.354v1.909c.013.055.026.11.04.163l.1.154-.051.006q.061.194.134.379c.13.028.2.231.241.357A2.7,2.7,0,0,0,1.98,95.866a66.062,66.062,0,0,0,10.977,4.867,55.209,55.209,0,0,0,8.123,1.978,45.865,45.865,0,0,0,6.143.257c1-.524,2.078-.272,3.115-.431A49.258,49.258,0,0,0,43.1,98.7c1.668-.749,3.317-1.563,4.975-2.347.01-.053.021-.106.033-.158q-.01-3.774-.02-7.548" transform="translate(0 -67.922)" fill="#c3eaec"/>
      </g>
    </g>
  </g>
</svg>
