<svg xmlns="http://www.w3.org/2000/svg" xmlns:xlink="http://www.w3.org/1999/xlink" width="85" height="85" viewBox="0 0 85 85">
  <defs>
    <clipPath id="clip-path">
      <rect id="Rectangle_404012" data-name="Rectangle 404012" width="69.19" height="69.19" transform="translate(0 0)" fill="#fff" stroke="#707070" stroke-width="1"/>
    </clipPath>
    <clipPath id="clip-path-2">
      <rect id="Rectangle_405891" data-name="Rectangle 405891" width="63.962" height="58.576" fill="#fff"/>
    </clipPath>
  </defs>
  <g id="Group_1112780" data-name="Group 1112780" transform="translate(-180.34 -4328.297)">
    <rect id="Rectangle_404011" data-name="Rectangle 404011" width="85" height="85" transform="translate(180.34 4328.297)" fill="#005865"/>
    <g id="Mask_Group_1098862" data-name="Mask Group 1098862" transform="translate(188.34 4336.297)" clip-path="url(#clip-path)">
      <g id="Group_1111384" data-name="Group 1111384" transform="translate(2.614 5.307)">
        <g id="Group_1111383" data-name="Group 1111383" clip-path="url(#clip-path-2)">
          <path id="Path_885763" data-name="Path 885763" d="M32.052,7.529a2.073,2.073,0,0,1,2.06,1.5,47.411,47.411,0,0,1,.038,7.086c-.124,1.32-.883,1.812-2.105,2.1l.013,37.23a3.279,3.279,0,0,1-3,3.131L5.48,58.576A3.426,3.426,0,0,1,2.2,55.02l.014-36.807A2.4,2.4,0,0,1,.111,15.973,42.636,42.636,0,0,1,.149,9.306,2.052,2.052,0,0,1,2.2,7.523C2.3,4.611,1.376.517,5.347,0L29.3.035c3.722.744,2.592,4.7,2.756,7.493m-9.623-5.3H5.067a1.362,1.362,0,0,0-.628.628V7.529h17.99Zm7.531,5.3V3a2.991,2.991,0,0,0-.627-.767H24.661v5.3Zm2.092,2.092H2.348v6.415h29.7ZM29.96,18.128H4.439V30.819H9.948c1.512,0,2.874,1.7,3,3.132.317,3.488-.237,7.467-.021,11.008.063,1.017-1.459,2.874-2.426,2.874H4.439v7.88c0,.315.7.731,1.04.634l23.444,0c.353.164,1.038-.551,1.038-.776V48.042l-.209-.209h-6c-.882,0-2.26-1.672-2.289-2.592.227-3.681-.343-7.8-.018-11.429a3.317,3.317,0,0,1,1.443-2.461,5,5,0,0,1,1.421-.531H29.96ZM10.088,33.05H4.439v2.092c2.81-.463,2.81,2.555,0,2.092v3.207c2.813-.476,2.808,2.6,0,2.092v3.207h5.649c.169,0,.758-.613.627-.9-.242-3.457.321-7.343.006-10.748-.038-.414-.151-.935-.634-1.039m19.872,0H24.312c-.265,0-.853.7-.77,1.043.237,3.374-.3,7.145,0,10.469.036.4.314,1.179.774,1.179H29.96V42.533c-2.92.541-2.811-2.563,0-2.092V37.234c-2.9.555-2.865-2.647,0-2.092Z" transform="translate(0 0)" fill="#fff"/>
          <path id="Path_885764" data-name="Path 885764" d="M59.511,58.47a1.12,1.12,0,0,1,.746-1.869c.386-.02,2.554,1.077,3.256,1.284A14.885,14.885,0,1,0,62.5,29.678a14.932,14.932,0,0,1-2.146.9,1.123,1.123,0,0,1-.66-2.035,17.731,17.731,0,0,1,3.434-1.308,16.854,16.854,0,0,1,13.622,1.931c.9.568,1.626,1.319,2.451,1.873.115.077.139.2.347.137A10.31,10.31,0,0,0,64.283,17.656c-.759.627-1.189,1.7-2.346,1.36-1.283-.377-.139-1.973.386-2.483a12.941,12.941,0,0,1,7.118-3.341C80.493,12.244,87.117,23.8,80.966,32.9L82.9,35.854c.22.16,1.176-1.269,1.314-1.478,8.552-13.036-4.536-29.28-19.2-23.663-.608.233-2.469,1.3-2.843,1.32a1.065,1.065,0,0,1-.753-1.848c1.116-1.176,5.3-2.326,6.933-2.55C85.48,5.287,95.757,25.7,83.9,38.11a17.079,17.079,0,0,1-21.327,21.7,12.168,12.168,0,0,1-3.057-1.335" transform="translate(-25.045 -3.15)" fill="#fff"/>
          <path id="Path_885765" data-name="Path 885765" d="M78.844,59.721c1.466-.245,2.286,3.717,2.387,4.805.8,8.663-7.9,15.412-16.056,12.012-1.166-.486-2.251-1-1.152-2.341L78.038,60.182a2.313,2.313,0,0,1,.806-.461m-.106,3.045L66.673,74.759C74,77.327,81.01,70.068,78.737,62.766" transform="translate(-26.883 -25.252)" fill="#fff"/>
          <path id="Path_885766" data-name="Path 885766" d="M59.455,65.225a1.06,1.06,0,0,1-.039-1.425c3.224-3.737,7.8-7.115,10.881-10.874.118-.145.242-.187.278-.42.048-.321-.124-.176-.326-.23a9.809,9.809,0,0,0-7.443.968c-.961.562-2.075,2.162-3.165,1.545-2.106-1.192,2.518-3.667,3.446-4.053a11.649,11.649,0,0,1,8.739-.182c1.045.4,2.5,1,1.469,2.3L60.881,65.264a1.06,1.06,0,0,1-1.425-.039" transform="translate(-24.993 -21.057)" fill="#fff"/>
        </g>
      </g>
    </g>
  </g>
</svg>
