<svg xmlns="http://www.w3.org/2000/svg" xmlns:xlink="http://www.w3.org/1999/xlink" width="70" height="70" viewBox="0 0 70 70">
  <defs>
    <clipPath id="clip-path">
      <rect id="Rectangle_406688" data-name="Rectangle 406688" width="35.5" height="37.067" fill="#006543"/>
    </clipPath>
  </defs>
  <g id="Group_1111872" data-name="Group 1111872" transform="translate(-268.711 -957.7)">
    <circle id="Ellipse_5614" data-name="Ellipse 5614" cx="35" cy="35" r="35" transform="translate(268.711 957.7)" fill="#fff"/>
    <g id="Group_1112293" data-name="Group 1112293" transform="translate(284.211 974.167)">
      <g id="Group_1112292" data-name="Group 1112292" clip-path="url(#clip-path)">
        <path id="Path_887225" data-name="Path 887225" d="M28.069,0H56.4a3.138,3.138,0,0,1,3.185,2.285,3.961,3.961,0,0,1,.085.943q.008,5.42,0,10.839,0,10.541,0,21.082c0,.236,0,.473-.02.708a1.345,1.345,0,0,1-1.229,1.184c-.166.016-.333.024-.5.024q-13.552,0-27.1,0c-.213,0-.426-.008-.639-.023a1.333,1.333,0,0,1-1.231-1.159c-.018-.284-.018-.569-.018-.853q0-15.912,0-31.825A5.779,5.779,0,0,0,28.125.136,1.091,1.091,0,0,1,28.069,0M36.5,21.009h-.008c.008.1.014.2.023.3a1.313,1.313,0,0,0,1.257,1.166,1.343,1.343,0,0,0,1.481-.994,2.066,2.066,0,0,0,.042-.559c-.01-.175.055-.251.232-.312A4.394,4.394,0,0,0,39.9,12.28a5.17,5.17,0,0,0-2.113-.412,1.979,1.979,0,0,1-.886-.239,1.867,1.867,0,0,1-1-2.027,2.038,2.038,0,0,1,1.752-1.507,2.113,2.113,0,0,1,2.057,1.038c.086.163.149.337.235.5a1.446,1.446,0,0,0,2.2.355,1.286,1.286,0,0,0,.3-1.559A4.587,4.587,0,0,0,39.432,5.72a.193.193,0,0,1-.11-.133c-.021-.165-.019-.332-.029-.5A1.345,1.345,0,0,0,38,3.877a1.362,1.362,0,0,0-1.445.986,3.5,3.5,0,0,0-.055.687c0,.108-.04.155-.154.191a4.644,4.644,0,0,0-2.22,1.443,4.112,4.112,0,0,0-.917,3.877,4.478,4.478,0,0,0,2.549,2.968,5.7,5.7,0,0,0,2.258.463,1.917,1.917,0,1,1-1.563,3.223,2.534,2.534,0,0,1-.546-.867,1.418,1.418,0,0,0-1.786-.721A1.266,1.266,0,0,0,33.3,17.76a4.56,4.56,0,0,0,3,2.881c.167.057.24.127.2.288a.338.338,0,0,0,0,.08M44.282,33.17h9.352c.207,0,.415,0,.622-.017a1.279,1.279,0,0,0,.128-2.547,6.681,6.681,0,0,0-.963-.046q-9.1,0-18.2,0c-.288,0-.577-.009-.863.016a1.293,1.293,0,1,0,.057,2.584c.149.009.3.01.449.01h9.421m.007-7.915h-9.9a1.3,1.3,0,0,0-.274.022,1.332,1.332,0,0,0-1.036,1.068,1.264,1.264,0,0,0,.633,1.284,1.76,1.76,0,0,0,.909.2l19.337,0c.058,0,.115,0,.173,0a1.376,1.376,0,0,0,1.21-.68,1.306,1.306,0,0,0-1.235-1.9c-3.272.027-6.543.01-9.815.01M50.606,6.481h1.209c.777,0,1.555.01,2.332-.008A1.312,1.312,0,0,0,55.46,5.5,1.28,1.28,0,0,0,54.8,4.044a1.6,1.6,0,0,0-.814-.17h-6.1c-.265,0-.53-.008-.794,0a1.364,1.364,0,0,0-1.327.945,1.255,1.255,0,0,0,.593,1.458,1.757,1.757,0,0,0,.928.2h3.317m.018,2.728v0h-.259c-1.1,0-2.2-.006-3.3.007a1.34,1.34,0,0,0-1.263.849,1.275,1.275,0,0,0,.379,1.429,1.623,1.623,0,0,0,1.076.32q3.328,0,6.655,0a2.872,2.872,0,0,0,.516-.037,1.27,1.27,0,0,0,1.067-1.205,1.293,1.293,0,0,0-1.019-1.314,2.7,2.7,0,0,0-.566-.047c-1.095,0-2.19,0-3.284,0m0,13.279v0c1.187,0,2.373.008,3.56,0a1.288,1.288,0,0,0,.081-2.574c-.32-.023-.644-.006-.966-.007H49.378c-.806,0-1.613-.018-2.419.012a1.283,1.283,0,0,0-.878,2.171,1.465,1.465,0,0,0,1.122.407c1.141,0,2.281,0,3.422,0m-.035-5.351c1.2,0,2.4,0,3.6,0a1.257,1.257,0,0,0,1.037-.491,1.2,1.2,0,0,0,.12-1.383,1.309,1.309,0,0,0-1.242-.7H47.014a1.327,1.327,0,0,0-1.3,1.285,1.289,1.289,0,0,0,1.348,1.29h3.526" transform="translate(-24.172 -0.001)" fill="#006543"/>
        <path id="Path_887226" data-name="Path 887226" d="M3.784,3.518S3.7,1.221,2.468,1.068A2.124,2.124,0,0,0,0,3.442Z" transform="translate(0 -0.912)" fill="#006543"/>
      </g>
    </g>
  </g>
</svg>
