<svg xmlns="http://www.w3.org/2000/svg" xmlns:xlink="http://www.w3.org/1999/xlink" width="85" height="85" viewBox="0 0 85 85">
  <defs>
    <clipPath id="clip-path">
      <rect id="Rectangle_404012" data-name="Rectangle 404012" width="69.19" height="69.19" transform="translate(0.371 -0.297)" fill="#fff" stroke="#707070" stroke-width="1"/>
    </clipPath>
    <clipPath id="clip-path-2">
      <rect id="Rectangle_406751" data-name="Rectangle 406751" width="57.986" height="65.449" fill="#fff"/>
    </clipPath>
  </defs>
  <g id="Group_1112781" data-name="Group 1112781" transform="translate(-600.34 -4328.297)">
    <rect id="Rectangle_404011" data-name="Rectangle 404011" width="85" height="85" transform="translate(600.34 4328.297)" fill="#005865"/>
    <g id="Mask_Group_1098862" data-name="Mask Group 1098862" transform="translate(608.34 4336.297)" clip-path="url(#clip-path)">
      <g id="Group_1112373" data-name="Group 1112373" transform="translate(5.371 1.703)">
        <g id="Group_1112372" data-name="Group 1112372" clip-path="url(#clip-path-2)">
          <path id="Path_887656" data-name="Path 887656" d="M19.962,31.426c-.77-1.233-1.586-2.36-2.207-3.586A25.056,25.056,0,0,1,16.5,24.466c-.124-.37-.2-.6-.678-.628A2.81,2.81,0,0,1,12.913,20.7a16.462,16.462,0,0,1,.329-2.427.792.792,0,0,1,.324-.494c.921-.545.816-1.417.809-2.289-.018-2.57-.015-5.14,0-7.711A7.548,7.548,0,0,1,22.162,0Q29,0,35.842,0a7.549,7.549,0,0,1,7.775,7.73c0,.358.006.715,0,1.073-.016.765-.367,1.189-.972,1.186s-.939-.418-.964-1.2c-.016-.491,0-.985-.037-1.473a5.56,5.56,0,0,0-5.718-5.394q-6.94-.079-13.881,0a5.558,5.558,0,0,0-5.717,5.745c-.067,3.105-.012,6.213-.021,9.32,0,.341.082.531.452.6a11.248,11.248,0,0,1,1.207.38c.012-.267.031-.5.031-.731,0-2.19,0-4.381,0-6.571a3.928,3.928,0,0,1,4.124-4.2c.715-.015,1.43,0,2.146,0a4.554,4.554,0,0,1,2.919,1,2.582,2.582,0,0,0,3.6.013,4.6,4.6,0,0,1,2.981-1.013c.715,0,1.431-.015,2.146,0a3.921,3.921,0,0,1,4.077,4.182c.008,2.168,0,4.336,0,6.5v.807c.524-.155,1.012-.27,1.471-.457.119-.049.2-.322.207-.495.02-.916.01-1.832.01-2.749,0-.2-.008-.4.007-.6.05-.664.422-1.058.979-1.052a.972.972,0,0,1,.949,1.074c.018.938-.024,1.879.024,2.815a2.16,2.16,0,0,0,.371.844,7.254,7.254,0,0,1,.958,1.7,6.924,6.924,0,0,1,.061,2.393,2.763,2.763,0,0,1-2.857,2.41c-.366.025-.565.1-.645.493a15.483,15.483,0,0,1-3.4,6.753c-.056.068-.1.146-.184.274.513.249,1.023.456,1.495.731a8.471,8.471,0,0,1,4.329,6.128,1.047,1.047,0,0,0,.875.977c2.277.643,4.534,1.357,6.8,2.034a4.963,4.963,0,0,1,3.72,4.281c.9,5.4,1.831,10.785,2.754,16.177.391,2.284-.832,3.756-3.14,3.756q-25.784,0-51.569,0c-2.3,0-3.525-1.475-3.133-3.763C.337,60.143.59,58.6.85,57.056a4.532,4.532,0,0,1,.123-.59.91.91,0,0,1,1.115-.719.856.856,0,0,1,.757,1.017c-.121.975-.295,1.943-.458,2.912-.141.836-.3,1.67-.444,2.505-.147.851.235,1.314,1.114,1.356.156.007.313,0,.469,0h50.9c.2,0,.4.011.6-.006a1.012,1.012,0,0,0,1.02-1.319q-.819-4.822-1.646-9.643c-.38-2.221-.777-4.44-1.139-6.664a3.274,3.274,0,0,0-2.517-2.877C48.515,42.4,46.3,41.7,43.993,41.013c-.023.223-.057.407-.058.592,0,1.274.016,2.548-.013,3.822a.693.693,0,0,0,.563.809,4.934,4.934,0,0,1-1.076,9.609,4.952,4.952,0,0,1-5.3-3.863,4.9,4.9,0,0,1,3.206-5.709.834.834,0,0,0,.688-.985c-.032-1.452-.025-2.905,0-4.358a.6.6,0,0,0-.517-.7c-.9-.238-1.8-.523-2.75-.806-.128.273-.254.5-.349.747q-4.1,10.477-8.2,20.955c-.232.591-.342,1.341-1.184,1.349s-.964-.739-1.2-1.331q-4.1-10.477-8.2-20.955c-.1-.245-.221-.479-.352-.761-1.006.3-1.972.563-2.922.877-.149.049-.24.3-.333.475-.037.069,0,.177-.008.265a1.8,1.8,0,0,0,1.322,2.318A4,4,0,0,1,19.882,47c.279,3.047.515,6.1.731,9.151a2.393,2.393,0,0,1-2.377,2.61,8.322,8.322,0,0,1-1.339-.02.854.854,0,0,1-.824-.959.877.877,0,0,1,.876-.919,9,9,0,0,1,1.005-.014c.544.01.77-.245.727-.787-.114-1.447-.206-2.9-.32-4.344-.112-1.425-.246-2.848-.36-4.273a2.841,2.841,0,0,0-2.922-2.727,2.749,2.749,0,0,0-2.967,2.42c-.3,3-.5,6.01-.739,9.017-.038.482.227.692.691.692a9.452,9.452,0,0,1,1.072.019.886.886,0,0,1,.861.937.831.831,0,0,1-.79.921,7.41,7.41,0,0,1-2-.072,2.347,2.347,0,0,1-1.783-2.576c.117-1.895.288-3.786.445-5.678.1-1.179.172-2.362.327-3.533A4.4,4.4,0,0,1,13.3,43.1c.651-.228.837-.522.763-1.134a8.334,8.334,0,0,1-.006-.932c-.232.053-.4.082-.561.13-2.1.627-4.187,1.277-6.292,1.879A3.243,3.243,0,0,0,4.727,45.88c-.341,2.069-.706,4.134-1.065,6.2-.132.759-.544,1.133-1.131,1.045-.568-.085-.882-.53-.761-1.27.393-2.4.756-4.81,1.266-7.187A4.3,4.3,0,0,1,6.106,41.4c2.464-.793,4.949-1.523,7.431-2.26a.786.786,0,0,0,.643-.717,8.586,8.586,0,0,1,5.463-6.839c.119-.05.233-.114.32-.156M18.234,20.574a13.591,13.591,0,0,0,.379,4.406A14.042,14.042,0,0,0,22,30.538c2.565,2.549,5.623,3.7,9.223,2.815a10.958,10.958,0,0,0,6.544-5.013,10.832,10.832,0,0,0,1.93-7.733c-1.407-.27-1.626-.54-1.626-2.014q0-2.145,0-4.29c0-1.251.016-2.5-.005-3.754a1.962,1.962,0,0,0-2.135-2.128c-.491-.009-.986.031-1.474-.009a4.082,4.082,0,0,0-2.866.857,4.344,4.344,0,0,1-5.2-.01,3.964,3.964,0,0,0-2.8-.847c-.421.037-.849,0-1.273.006-1.689.007-2.387.709-2.389,2.417,0,2.659,0,5.318,0,7.977,0,1.24-.355,1.621-1.685,1.76M35.287,38.455c-1.07-1.211-.973-2.689-1.03-4.188a11.519,11.519,0,0,1-10.581-.021,6.059,6.059,0,0,1-.945,4.241c2.048,1.53,4.024,3.017,6.023,4.475a.718.718,0,0,0,.623-.1c.858-.6,1.692-1.239,2.531-1.867,1.1-.826,2.2-1.655,3.379-2.539M42.92,53.93a3.016,3.016,0,1,0-2.989-3.047A3.009,3.009,0,0,0,42.92,53.93M28.907,58.6l.172-.008c.51-1.37,1.022-2.739,1.524-4.111a.678.678,0,0,0,0-.331c-.246-1.385-.518-2.766-.736-4.156-.1-.635-.542-.458-.91-.471s-.754-.1-.834.484c-.136.995-.346,1.979-.518,2.97a3.533,3.533,0,0,0-.2,1.443c.429,1.415.993,2.789,1.506,4.179m7.352-25.553c0,1.041-.031,2.041.017,3.037a2.555,2.555,0,0,0,.372.984c.065.124.29.274.4.247,1.216-.289,2.267.3,3.374.591.434.113.866.237,1.34.368a6.494,6.494,0,0,0-5.507-5.227M16.276,38.287c.783-.237,1.536-.489,2.3-.689a7.264,7.264,0,0,1,1.761-.326c.927,0,1.294-.18,1.366-1.12.078-1.017.018-2.044.018-3.069-2.588.189-5.35,2.8-5.447,5.2m7.6,7.2,3.194-1.338-5.1-3.805-.127.085,2.031,5.058m7.038-1.339,3.193,1.339,2.03-5.053-.126-.089-5.1,3.8M26.895,46.4c.856,1.9,3.771,1.516,4.159-.009a3.091,3.091,0,0,0-4.159.009M14.813,19.241c0,.6-.023,1.107.005,1.607.049.848.528,1.17,1.422.958V19.461l-1.427-.22m26.945,2.6c1.3.177,1.87-1.006,1.241-2.576l-1.241.194ZM25.9,50.723l.189-.014a5.124,5.124,0,0,0,.126-1.973c-.218-.616-.876-1.076-1.341-1.6l-.266.181,1.292,3.41m6-.014.188.012,1.294-3.409-.269-.182c-.466.529-1.124.99-1.341,1.607A5.112,5.112,0,0,0,31.9,50.71" transform="translate(0 0.001)" fill="#fff"/>
        </g>
      </g>
    </g>
  </g>
</svg>
