<svg xmlns="http://www.w3.org/2000/svg" xmlns:xlink="http://www.w3.org/1999/xlink" width="70" height="70" viewBox="0 0 70 70">
  <defs>
    <clipPath id="clip-path">
      <rect id="Rectangle_405450" data-name="Rectangle 405450" width="36.44" height="40.947" fill="#006543"/>
    </clipPath>
    <clipPath id="clip-path-2">
      <rect id="Rectangle_406689" data-name="Rectangle 406689" width="21.262" height="21.011" fill="#006543"/>
    </clipPath>
  </defs>
  <g id="Group_1111874" data-name="Group 1111874" transform="translate(-268.711 -957.7)">
    <circle id="Ellipse_5614" data-name="Ellipse 5614" cx="35" cy="35" r="35" transform="translate(268.711 957.7)" fill="#fff"/>
    <g id="Group_1110757" data-name="Group 1110757" transform="translate(286.271 972.577)">
      <g id="Group_1110756" data-name="Group 1110756" clip-path="url(#clip-path)">
        <path id="Path_884715" data-name="Path 884715" d="M27.712,19.229a11.643,11.643,0,0,0-12.149,6.814,12.235,12.235,0,0,0-.174,9.14h-14A1.6,1.6,0,0,1,0,33.705V1.6C.051.619.773.2,1.677.12,7.2.413,13.112-.258,18.593.119a2.252,2.252,0,0,1,1.383.432l7.308,7.308a2.974,2.974,0,0,1,.428.814ZM7.053,3.108A1.45,1.45,0,0,0,6.94,5.944h9.445a1.452,1.452,0,0,0-.193-2.851Zm0,5.827a1.45,1.45,0,0,0-.112,2.837h9.445a1.452,1.452,0,0,0-.193-2.851Zm13.088,0a1.458,1.458,0,0,0-.113,2.837,1.458,1.458,0,1,0,.113-2.837M7.053,14.762A1.45,1.45,0,0,0,6.94,17.6h9.445a1.452,1.452,0,0,0-.193-2.851Zm13.088,0a1.458,1.458,0,0,0-.113,2.837,1.458,1.458,0,1,0,.113-2.837" transform="translate(0 0)" fill="#006543"/>
      </g>
    </g>
    <g id="Group_1112296" data-name="Group 1112296" transform="translate(301.45 992.7)">
      <g id="Group_1112295" data-name="Group 1112295" clip-path="url(#clip-path-2)">
        <path id="Path_887227" data-name="Path 887227" d="M13.4,21.011c-.2-.049-.527-.123-.853-.214-.4-.113-.8-.236-1.2-.361a2.367,2.367,0,0,0-1.461.006c-.523.165-1.049.324-1.577.47A2.172,2.172,0,0,1,5.9,20.057c-.326-.461-.627-.939-.932-1.414a2.386,2.386,0,0,0-1.161-.957c-.467-.185-.927-.389-1.386-.592A2.218,2.218,0,0,1,1.05,14.641q.1-.781.191-1.565a2.216,2.216,0,0,0-.233-1.282c-.243-.475-.48-.953-.721-1.429A2.193,2.193,0,0,1,.739,7.631c.393-.383.8-.756,1.2-1.13A2.192,2.192,0,0,0,2.6,5.352q.179-.792.37-1.581A2.23,2.23,0,0,1,5.152,2c.556-.019,1.113-.054,1.668-.1a2.146,2.146,0,0,0,1.13-.443c.421-.316.841-.632,1.264-.946a2.209,2.209,0,0,1,2.828,0q.607.448,1.207.905a2.429,2.429,0,0,0,1.44.5,15.375,15.375,0,0,1,1.758.124A2.132,2.132,0,0,1,18.29,3.766c.136.524.252,1.053.371,1.581a2.188,2.188,0,0,0,.657,1.15c.4.369.794.737,1.183,1.114a2.2,2.2,0,0,1,.465,2.77c-.2.386-.367.787-.588,1.158a2.816,2.816,0,0,0-.306,1.993c.072.426.121.858.162,1.288a2.187,2.187,0,0,1-1.244,2.2c-.515.247-1.045.466-1.574.684a2.321,2.321,0,0,0-1.094.9c-.3.46-.6.923-.9,1.378A2.309,2.309,0,0,1,13.4,21.011m-2.772-3.272A7.236,7.236,0,1,0,3.4,10.5a7.238,7.238,0,0,0,7.237,7.24" transform="translate(0 0)" fill="#006543"/>
        <path id="Path_887228" data-name="Path 887228" d="M29.349,34.958a6.535,6.535,0,1,1,6.516,6.549,6.541,6.541,0,0,1-6.516-6.549m5.625.617a2.241,2.241,0,0,0-.191-.256c-.413-.419-.824-.839-1.248-1.246a.947.947,0,0,0-1.338.008.934.934,0,0,0-.028,1.352q1.079,1.1,2.182,2.183a.916.916,0,0,0,1.334.01q1.971-1.967,3.919-3.957a.88.88,0,0,0,.248-.811.94.94,0,0,0-.666-.763.907.907,0,0,0-.978.248c-.722.723-1.437,1.451-2.158,2.174-.338.339-.683.672-1.076,1.059" transform="translate(-25.253 -24.468)" fill="#006543"/>
      </g>
    </g>
  </g>
</svg>
