<svg xmlns="http://www.w3.org/2000/svg" xmlns:xlink="http://www.w3.org/1999/xlink" width="70" height="70" viewBox="0 0 70 70">
  <defs>
    <clipPath id="clip-path">
      <rect id="Rectangle_405450" data-name="Rectangle 405450" width="35.84" height="40.272" fill="#006543"/>
    </clipPath>
  </defs>
  <g id="Group_1111873" data-name="Group 1111873" transform="translate(-331.711 -979.729)">
    <circle id="Ellipse_5614" data-name="Ellipse 5614" cx="35" cy="35" r="35" transform="translate(331.711 979.729)" fill="#fff"/>
    <g id="Group_1112294" data-name="Group 1112294" transform="translate(348.711 994.729)">
      <g id="Group_1110756" data-name="Group 1110756" clip-path="url(#clip-path)">
        <path id="Path_884715" data-name="Path 884715" d="M27.256,18.912a11.451,11.451,0,0,0-11.949,6.7,12.034,12.034,0,0,0-.172,8.989H1.371A1.569,1.569,0,0,1,0,33.151V1.574C.05.609.76.194,1.649.118,7.085.406,12.9-.254,18.287.117a2.215,2.215,0,0,1,1.36.425L26.835,7.73a2.925,2.925,0,0,1,.421.8ZM6.937,3.056a1.426,1.426,0,0,0-.11,2.79h9.29a1.429,1.429,0,0,0-.19-2.8Zm0,5.731a1.426,1.426,0,0,0-.11,2.79h9.29a1.429,1.429,0,0,0-.19-2.8Zm12.873,0a1.434,1.434,0,0,0-.111,2.79,1.434,1.434,0,1,0,.111-2.79M6.937,14.519a1.426,1.426,0,0,0-.11,2.79h9.29a1.429,1.429,0,0,0-.19-2.8Zm12.873,0a1.434,1.434,0,0,0-.111,2.79,1.434,1.434,0,1,0,.111-2.79" transform="translate(0 0)" fill="#006543"/>
        <path id="Path_884716" data-name="Path 884716" d="M177.08,215.181a10.04,10.04,0,1,1-6.972,16.217,10.062,10.062,0,0,1,6.972-16.217m-.19,2.91a7.263,7.263,0,0,0-5.619,4.622,7.173,7.173,0,0,0,10.518,8.545c6.451-3.98,3.046-14.064-4.9-13.167" transform="translate(-152.192 -194.925)" fill="#006543"/>
        <path id="Path_884717" data-name="Path 884717" d="M234.645,279.053c1.324-.182,3.276.166,2.756,1.956-.352,1.211-1.787.943-2.756.955.029.9.16,2.557-1.008,2.8-1.906.393-2.024-1.4-1.9-2.8-.97.009-2.485.22-2.778-1.026-.418-1.772,1.472-2.044,2.778-1.885-.138-1.2,0-2.984,1.633-2.813,1.4.147,1.348,1.756,1.278,2.813" transform="translate(-207.39 -250.275)" fill="#006543"/>
      </g>
    </g>
  </g>
</svg>
