<svg xmlns="http://www.w3.org/2000/svg" xmlns:xlink="http://www.w3.org/1999/xlink" width="70" height="70" viewBox="0 0 70 70">
  <defs>
    <clipPath id="clip-path">
      <rect id="Rectangle_406975" data-name="Rectangle 406975" width="35.155" height="39.907" fill="#006543"/>
    </clipPath>
  </defs>
  <g id="Group_1112766" data-name="Group 1112766" transform="translate(-300 -3452.841)">
    <g id="Group_1109473" data-name="Group 1109473" transform="translate(31 2494.841)">
      <circle id="Ellipse_5614" data-name="Ellipse 5614" cx="35" cy="35" r="35" transform="translate(269 958)" fill="#fff"/>
    </g>
    <g id="Group_1112670" data-name="Group 1112670" transform="translate(317.044 3467.841)">
      <g id="Group_1112669" data-name="Group 1112669" clip-path="url(#clip-path)">
        <path id="Path_888128" data-name="Path 888128" d="M13.225,86.687l-.013,17.719c0,2.6-2.7,3.907-4.922,2.321a2.954,2.954,0,0,1-4.836-1.746l-.007-9.5A4.312,4.312,0,0,1,.115,91.537a54.942,54.942,0,0,1,0-7.081c.394-4.972,6.221-3.332,9.819-3.583,1.488-.1,3.149-.54,4.649-.712l4.7-4.885c2.3-1.367,4.824.931,3.359,3.176-1.43,2.19-3.94,4.4-5.54,6.549Z" transform="translate(0 -67.511)" fill="#006543"/>
        <path id="Path_888129" data-name="Path 888129" d="M82.867,19.946l2.32-1.1c1.82-2.234,4.62-4.781,6.137-7.164,1.994-3.131-1.107-6.846-4.8-5.716-2.005.614-3.9,3.794-5.472,5.14l-.784.191.9-1.354c1.958-4.562-.917-8.347-5.945-8.665-.113-.007-.347.053-.257-.146A2.82,2.82,0,0,1,76.79,0L99.753,0a2.515,2.515,0,0,1,2.441,2.506c.4,4.888-.3,10.279-.015,15.219a2.654,2.654,0,0,1-1.37,1.946c-.09.044-.708.274-.749.274Z" transform="translate(-67.167)" fill="#006543"/>
        <path id="Path_888130" data-name="Path 888130" d="M40.153,29.261c6.043-.257,6.549,8.387.588,8.813-6.23.445-6.8-8.549-.588-8.813" transform="translate(-32.054 -26.381)" fill="#006543"/>
      </g>
    </g>
  </g>
</svg>
