<svg xmlns="http://www.w3.org/2000/svg" xmlns:xlink="http://www.w3.org/1999/xlink" width="62.504" height="62.504" viewBox="0 0 62.504 62.504">
  <defs>
    <clipPath id="clip-path">
      <rect id="Rectangle_406571" data-name="Rectangle 406571" width="25.107" height="37.969" fill="#12263f"/>
    </clipPath>
  </defs>
  <g id="Group_1112087" data-name="Group 1112087" transform="translate(-279.529 -1198.772)">
    <g id="Group_1072053" data-name="Group 1072053" transform="translate(279.529 1198.772)">
      <circle id="Ellipse_4742" data-name="Ellipse 4742" cx="31.252" cy="31.252" r="31.252" transform="translate(0)" fill="#ff9292"/>
    </g>
    <g id="Group_1112065" data-name="Group 1112065" transform="translate(298.529 1210.773)">
      <g id="Group_1112064" data-name="Group 1112064" clip-path="url(#clip-path)">
        <path id="Path_886563" data-name="Path 886563" d="M6.847,46H18.122c.141,0,.14,0,.14.142,0,1.141,0-.04,0,1.1a.182.182,0,0,0,.119.193A11.678,11.678,0,0,1,20.1,48.52a12.46,12.46,0,0,1,2.775,2.9,12.34,12.34,0,0,1,1.944,4.47,12.753,12.753,0,0,1,.277,3.221,12.342,12.342,0,0,1-1.119,4.676,12.757,12.757,0,0,1-2.436,3.554,12.528,12.528,0,0,1-2.93,2.231.72.72,0,0,1-.131.072c-.186.056-.225.177-.223.365.011,1.1.007,2.209.008,3.314,0,.127,0,.128-.128.128q-5.587,0-11.174,0c-.1,0-.121-.028-.121-.124,0-1.168,0-2.336.007-3.5,0-.066-.037-.084-.082-.108a12.6,12.6,0,0,1-5.451-5.559,12.6,12.6,0,0,1-1.3-6.174,12.424,12.424,0,0,1,1.276-4.97A12.621,12.621,0,0,1,4.1,49.277,12.1,12.1,0,0,1,6.784,47.4a.132.132,0,0,0,.057-.1c.006-.173,0-.347,0-.52,0-1,0,.321,0-.681V46m5.7,20.581A8.016,8.016,0,1,0,4.565,58.3a8,8,0,0,0,7.984,8.278" transform="translate(0.001 -42.315)" fill="#12263f"/>
        <path id="Path_886564" data-name="Path 886564" d="M113.955,445.425c.041,0,.075-.006.108-.006.688,0,1.377,0,2.065,0,.086,0,.114.025.114.114,0,.694,0,1.387-.006,2.081,0,.029,0,.058-.008.09h-2.273Z" transform="translate(-104.827 -409.742)" fill="#12263f"/>
        <path id="Path_886565" data-name="Path 886565" d="M173.225,447.675h-2.281c0-.071,0-.139,0-.208,0-.661,0-1.321-.009-1.982,0-.075.023-.1.1-.1q1.053,0,2.107,0c.064,0,.1.009.1.085,0,.721,0,1.442,0,2.162a.237.237,0,0,1-.007.037" transform="translate(-157.243 -409.712)" fill="#12263f"/>
        <path id="Path_886566" data-name="Path 886566" d="M143.613,404.492c-.346,0-.692,0-1.038,0-.076,0-.087-.026-.087-.092,0-.7,0-1.394,0-2.092,0-.089.024-.112.112-.111q1.038.005,2.076,0c.074,0,.1.02.1.1q0,1.041,0,2.081c0,.093-.027.119-.119.117-.346-.006-.692,0-1.038,0Z" transform="translate(-131.074 -369.984)" fill="#12263f"/>
        <path id="Path_886567" data-name="Path 886567" d="M199.676,404.5v-2.283c.024,0,.046-.006.068-.006.7,0,1.4,0,2.1,0,.08,0,.11.018.109.1,0,.694,0,1.388,0,2.082,0,.065-.006.107-.09.106-.725,0-1.45,0-2.182,0" transform="translate(-183.682 -369.995)" fill="#12263f"/>
        <path id="Path_886568" data-name="Path 886568" d="M87.69,402.209V404.5h-.564c-.535,0-1.071,0-1.606,0-.079,0-.1-.02-.1-.1q.005-1.045,0-2.091c0-.076.018-.1.1-.1.712,0,1.423,0,2.135,0a.233.233,0,0,1,.035.006" transform="translate(-78.576 -369.987)" fill="#12263f"/>
        <path id="Path_886569" data-name="Path 886569" d="M57.085,445.4h.354c.6,0,1.2,0,1.806,0,.089,0,.112.027.112.114q-.006,1.04,0,2.081c0,.066-.014.1-.088.1-.715,0-1.43,0-2.145,0a.3.3,0,0,1-.036,0Z" transform="translate(-52.513 -409.724)" fill="#12263f"/>
        <path id="Path_886570" data-name="Path 886570" d="M230.314,445.4v2.277c-.028,0-.056.006-.085.006-.692,0-1.384,0-2.076,0-.091,0-.111-.029-.11-.114q0-1.036,0-2.071c0-.082.021-.109.107-.108.7,0,1.39,0,2.086,0,.023,0,.046,0,.08,0" transform="translate(-209.775 -409.721)" fill="#12263f"/>
        <path id="Path_886571" data-name="Path 886571" d="M85.619,190.726a5.737,5.737,0,0,0,3.505,1.947c-.083.088-.145.159-.212.226a3.476,3.476,0,0,1-1.928.951c-.3.052-.606.078-.909.118a.094.094,0,0,1-.113-.069,5.6,5.6,0,0,1-.4-1.481,4.834,4.834,0,0,1-.019-1.246c.018-.137.044-.273.072-.445" transform="translate(-78.666 -175.449)" fill="#12263f"/>
        <path id="Path_886572" data-name="Path 886572" d="M186.687,177.7a6.642,6.642,0,0,0-1.569-1.275,6.748,6.748,0,0,0-1.9-.669,3.341,3.341,0,0,1,1.343-.945,6.059,6.059,0,0,1,.943-.242c.237-.048.481-.056.722-.085a.118.118,0,0,1,.143.088,5.7,5.7,0,0,1,.418,2.522c-.014.2-.052.389-.08.584,0,.007-.012.013-.022.024" transform="translate(-168.544 -160.508)" fill="#12263f"/>
        <path id="Path_886573" data-name="Path 886573" d="M156.957,135.715c-.023-.075-.04-.135-.058-.193a3.39,3.39,0,0,1,.148-2.3c.1-.257.215-.509.319-.764.024-.06.061-.066.117-.06a5.079,5.079,0,0,1,2.053.688c.282.168.552.356.824.556a7.323,7.323,0,0,0-1.874.743,6.984,6.984,0,0,0-1.529,1.327" transform="translate(-144.205 -121.794)" fill="#12263f"/>
        <path id="Path_886574" data-name="Path 886574" d="M111.287,234.095a6.722,6.722,0,0,0,1.905-.711,6.479,6.479,0,0,0,1.526-1.322c.012.025.024.046.032.068a3.138,3.138,0,0,1-.013,2.107c-.124.362-.279.712-.416,1.069-.03.078-.086.061-.139.053a5.971,5.971,0,0,1-1.348-.348,5.654,5.654,0,0,1-1.409-.82c-.035-.028-.074-.052-.139-.1" transform="translate(-102.373 -213.474)" fill="#12263f"/>
        <path id="Path_886575" data-name="Path 886575" d="M180.6,223.477a5.9,5.9,0,0,0-.07-4,3.438,3.438,0,0,1,.776.251,4.31,4.31,0,0,1,1.626,1.442c.07.1.135.2.207.294a.1.1,0,0,1,0,.141,5.777,5.777,0,0,1-2.346,1.807l-.163.07-.03-.01" transform="translate(-166.07 -201.902)" fill="#12263f"/>
        <path id="Path_886576" data-name="Path 886576" d="M102.591,136.205a5.914,5.914,0,0,0,.055,4.007c-.041-.005-.063-.006-.083-.011a3.913,3.913,0,0,1-2.265-1.615c-.088-.117-.167-.241-.256-.357a.1.1,0,0,1,0-.138,5.5,5.5,0,0,1,1.686-1.477c.245-.139.505-.25.759-.374.023-.011.048-.017.1-.035" transform="translate(-92.002 -125.295)" fill="#12263f"/>
        <path id="Path_886577" data-name="Path 886577" d="M63.89,4.645l-13.136-.24L48.752,0H65.813Z" transform="translate(-44.847 0)" fill="#12263f"/>
      </g>
    </g>
  </g>
</svg>
