<svg xmlns="http://www.w3.org/2000/svg" xmlns:xlink="http://www.w3.org/1999/xlink" width="178" height="178" viewBox="0 0 178 178">
  <defs>
    <clipPath id="clip-path">
      <rect id="Rectangle_406992" data-name="Rectangle 406992" width="92.88" height="93.621" fill="none"/>
    </clipPath>
  </defs>
  <g id="Group_1112748" data-name="Group 1112748" transform="translate(-2292.354 6618.561)">
    <g id="Group_1111775" data-name="Group 1111775" transform="translate(1231.569 -9758.982)">
      <g id="Group_1109454" data-name="Group 1109454" transform="translate(1060.785 3140.422)">
        <path id="Path_882862" data-name="Path 882862" d="M89,0A89,89,0,1,1,0,89,89,89,0,0,1,89,0Z" transform="translate(0 -0.001)" fill="#005865"/>
        <path id="Path_882863" data-name="Path 882863" d="M78.668,0A78.668,78.668,0,1,1,0,78.668,78.668,78.668,0,0,1,78.668,0Z" transform="translate(10.332 10.331)" fill="#f3f9ff"/>
      </g>
      <g id="Group_1109457" data-name="Group 1109457" transform="translate(1098.606 3176.892)">
        <rect id="Rectangle_401104" data-name="Rectangle 401104" width="102.432" height="103.937" transform="translate(-0.354 -0.438)" fill="none"/>
        <g id="Group_1112691" data-name="Group 1112691" transform="translate(4.813 4.729)">
          <rect id="Rectangle_406991" data-name="Rectangle 406991" width="82.14" height="65.865" transform="translate(6.364 3.779)" fill="#d2e1f1"/>
          <g id="Group_1112690" data-name="Group 1112690">
            <g id="Group_1112689" data-name="Group 1112689" clip-path="url(#clip-path)">
              <path id="Path_888193" data-name="Path 888193" d="M50.238.547c27.5-.109,55.043,0,82.518.1.5.31.538.592.591,1.133.074.755.117,4.819-.331,5.1a1.825,1.825,0,0,1-.731.176c-27.348-.071-54.7.1-82.047,0Z" transform="translate(-40.619 -0.405)" fill="#2bc897"/>
              <path id="Path_888194" data-name="Path 888194" d="M211.511,312.677a7.612,7.612,0,0,0,3.785,4.352c.195.093,1.472.608,1.576.626v27.954c-2.1-.011-4.218.041-6.318,0l-.046-18.048c-.48-2.1-2.311-2.977-4.358-2.822a3.529,3.529,0,0,0-1.469.542c-4.58,2.2-9.084,5.393-13.657,7.691a5.957,5.957,0,0,1-2.681-.383c-3.334-2.911-6.828-5.729-10.148-8.616-.29-.253-.666-.895-.957-1.149l4.021-5.17c.2.153.645.338.957.574,1.894,1.435,4.862,4.334,6.824,5.333a1.371,1.371,0,0,0,.564.223c.51.026,4.715-3.111,5.5-3.676.77-.553,1.592-1.423,2.237-1.88,4.347-3.08,8.533-5.791,14.169-5.553" transform="translate(-143.303 -252.798)" fill="#fee87b"/>
              <path id="Path_888195" data-name="Path 888195" d="M404.408,313.739c3.637.963,9.455.939,10.779,5.208.65,2.1.543,11.487.3,14.011a10.232,10.232,0,0,1-1.234,3.361,5.72,5.72,0,0,1-2.572,1.928l-.012-9.849a1.347,1.347,0,0,0-2.669.176c-.331,3.069.018,7.231,0,10.439-.006,1.081.184,6.809-.237,7.23-.211.211-.7.22-1,.245-2.623.22-5.83-.017-8.529-.008V318.334a6.693,6.693,0,0,0,5.17-4.6" transform="translate(-322.797 -253.668)" fill="#fee87b"/>
              <path id="Path_888196" data-name="Path 888196" d="M139.17,65.739a25.346,25.346,0,0,1,.167,5.432c-.146.429-1.513.446-1.977.513l-59.935-.012c-.424-.148-1.459-.068-1.606-.5-.331-.973.063-4.266.167-5.432Z" transform="translate(-61.198 -53.152)" fill="#fe9903"/>
              <path id="Path_888197" data-name="Path 888197" d="M32.45,34.736V93.516c-1.4.01-2.815-.044-4.212,0V34.736c1.4.015,2.811,0,4.212,0" transform="translate(-22.831 -28.084)" fill="#b0c0d2"/>
              <path id="Path_888198" data-name="Path 888198" d="M365.286,181.544c.044-.05.031-.366.146-.516,2.329-3.035,2.652-5.866,2.26-9.645a12.822,12.822,0,0,1-3.612-1.174c-2.607-1.544-2.863-4.6-6.691-4.124a5.652,5.652,0,0,0-4.165,3.2,7.716,7.716,0,0,1,2.678-7.948l2.3-1.625c.545.12,1.92.587,2.2.586.591,0,1.792-.687,2.682-.776,4.058-.406,7.728,1.567,9.041,5.507.728,2.187.663,10.223.442,12.783-.362,4.185-4.032,3.84-7.283,3.727" transform="translate(-285.398 -128.941)" fill="#a7774c"/>
              <path id="Path_888199" data-name="Path 888199" d="M365.193,209.251c-.224.254-1,.235-1.149,1.149-1.452.191-2.393,2.124-3.734,2.124-1.284,0-2.386-1.874-3.734-2.124-.145-.915-.945-.909-1.149-1.149a13.057,13.057,0,0,1-2.436-5.51c-.145-1.209-.232-5.781.138-6.743a5.652,5.652,0,0,1,4.165-3.2c3.828-.475,4.084,2.579,6.691,4.124a12.821,12.821,0,0,0,3.612,1.174c.392,3.779.069,6.61-2.26,9.645-.115.15-.1.466-.146.516" transform="translate(-285.305 -156.648)" fill="#fdd7a0"/>
              <path id="Path_888200" data-name="Path 888200" d="M69.193,341.676c1.672,1.659,3.593,3.053,5.361,4.6.291.254.667.9.957,1.149-8.421-.044-16.853.059-25.274,0v-5.744c6.315-.047,12.64.035,18.955,0" transform="translate(-40.619 -276.244)" fill="#2bc897"/>
              <path id="Path_888201" data-name="Path 888201" d="M337.376,159.871l-2.3,1.625a7.716,7.716,0,0,0-2.678,7.948c-.37.963-.282,5.535-.138,6.743a13.058,13.058,0,0,0,2.435,5.51c-3.034.1-6.924.489-7.283-3.534a78.987,78.987,0,0,1,.031-11.281,8.053,8.053,0,0,1,9.933-7.012" transform="translate(-264.573 -129.094)" fill="#936743"/>
              <path id="Path_888202" data-name="Path 888202" d="M71.115,156.761l31.939-.044a1.44,1.44,0,0,1,0,2.88h-31.6a1.433,1.433,0,0,1-.338-2.836" transform="translate(-56.573 -126.711)" fill="#e8ecf1"/>
              <path id="Path_888203" data-name="Path 888203" d="M71.108,122.761l31.939-.044c2.078.305,1.771,2.649-.191,2.88l-31.213,0c-1.888-.068-2.349-2.162-.534-2.832" transform="translate(-56.566 -99.221)" fill="#e8ecf1"/>
              <path id="Path_888204" data-name="Path 888204" d="M332.642,396.536c-.761-.015-4.15.168-4.379-.5l-.025-20.366c2.047-.155,3.878.72,4.358,2.822Z" transform="translate(-265.391 -303.724)" fill="#fede30"/>
              <path id="Path_888205" data-name="Path 888205" d="M387.11,337.739v28.146c-.955,0-1.917,0-2.872,0V337.93a9.04,9.04,0,0,0,2.872-.191" transform="translate(-310.669 -273.073)" fill="#fede30"/>
              <path id="Path_888206" data-name="Path 888206" d="M223.863,417.122c.056.974-.076,2.008-.007,2.974.134,1.888.4,1.183,1.543,2.1a4.629,4.629,0,0,1-.436,7.614c-4.79,3.072-9.991-3.875-5.216-7.7,1.075-.862,1.307-.1,1.443-2.005.078-1.091-.071-2.258-.007-3.357a5.957,5.957,0,0,0,2.681.383m-1.577,6.93a1.845,1.845,0,1,0,.866,3.559c2-.455,1.39-3.89-.866-3.559" transform="translate(-176.142 -336.947)" fill="#e8ecf1"/>
              <path id="Path_888207" data-name="Path 888207" d="M9.619.142v6.51c-1.4,0-2.812.015-4.212,0C4.516,6.642.7,6.829.282,6.415-.045,6.087-.084,1.24.146.72A1.144,1.144,0,0,1,1.089.132c2.335-.306,6.023.02,8.53.01" transform="translate(0 0)" fill="#006543"/>
              <path id="Path_888208" data-name="Path 888208" d="M366.769,302.739c.216,1.7,1.5,1.743,2.872,2.106a6.694,6.694,0,0,1-5.17,4.6,9.039,9.039,0,0,1-2.872.191c-.1-.018-1.381-.533-1.576-.626a7.612,7.612,0,0,1-3.785-4.352c1.374-.394,2.844-.093,3.063-1.915,1.988,1.073,3.332,1.78,5.6.914a12.751,12.751,0,0,1,1.862-.914" transform="translate(-288.03 -244.774)" fill="#fdd7a0"/>
              <path id="Path_888209" data-name="Path 888209" d="M71.305,189.862c5.825.419,12.845-.714,18.532-.05,1.963.229,2.212,2.646,0,2.876-5.764.6-12.514-.449-18.385,0a1.417,1.417,0,0,1-.142-2.831" transform="translate(-56.567 -153.296)" fill="#e8ecf1"/>
              <path id="Path_888210" data-name="Path 888210" d="M108.806,242.76a4.588,4.588,0,0,0-1.915,2.106c-3.394-5.779-6.393-11.789-9.615-17.667-.73-1.62.97-2.985,2.235-1.662Z" transform="translate(-78.509 -181.924)" fill="#d9e6eb"/>
              <path id="Path_888211" data-name="Path 888211" d="M157.6,320.9l-4.021,5.17c-1.769-1.543-3.689-2.937-5.361-4.6a10.568,10.568,0,0,1-.191-2.489,4.589,4.589,0,0,1,1.915-2.106,5.275,5.275,0,0,1,1.429-.2c1.5.082,4.875,3.2,6.229,4.222" transform="translate(-119.641 -256.046)" fill="#fdd7a0"/>
              <path id="Path_888212" data-name="Path 888212" d="M218.364,341.739c-.645.457-1.466,1.327-2.237,1.88-.787.564-4.991,3.7-5.5,3.676a1.371,1.371,0,0,1-.564-.222c-1.962-1-4.93-3.9-6.824-5.333Z" transform="translate(-164.325 -276.307)" fill="#2bc897"/>
              <path id="Path_888213" data-name="Path 888213" d="M214.264,197.763c.339.339.313,4.475.246,5.229-.063.7-.069,1.154-.86,1.246a33.322,33.322,0,0,1-5,0c-.626-.083-.778-.227-.862-.862a33.371,33.371,0,0,1,0-5c.092-.791.545-.8,1.246-.86.754-.067,4.89-.093,5.229.246" transform="translate(-167.929 -159.666)" fill="#46e0c3"/>
              <path id="Path_888214" data-name="Path 888214" d="M208.743,260.44a26.337,26.337,0,0,1,4.558-.045,1.573,1.573,0,0,1,1.063.469,25.11,25.11,0,0,1,.181,5.187c-.033.3-.119.8-.384.956a44.25,44.25,0,0,1-5.468.1c-.634-.083-.779-.236-.862-.862a33.9,33.9,0,0,1,.013-4.983,1.126,1.126,0,0,1,.9-.824" transform="translate(-167.97 -210.476)" fill="#46e0c3"/>
              <path id="Path_888215" data-name="Path 888215" d="M15.9,341.665c1.4-.044,2.813.01,4.212,0v5.744c-1.194-.008-5.8.211-6.505-.1a1.146,1.146,0,0,1-.589-.943,23.788,23.788,0,0,1,.105-4.127c.377-.791,2.035-.551,2.777-.574" transform="translate(-10.489 -276.233)" fill="#006543"/>
              <path id="Path_888216" data-name="Path 888216" d="M452.313,395.512a7.344,7.344,0,0,1-2.681.766c.018-3.208-.331-7.37,0-10.439a1.347,1.347,0,0,1,2.669-.176Z" transform="translate(-363.426 -310.933)" fill="#fede30"/>
              <path id="Path_888217" data-name="Path 888217" d="M379.705,280.739a26.021,26.021,0,0,0,0,4.212,12.751,12.751,0,0,0-1.862.914c-2.273.866-3.617.159-5.6-.914a26.007,26.007,0,0,0,0-4.212c1.348.25,2.449,2.124,3.734,2.124,1.34,0,2.282-1.932,3.734-2.124" transform="translate(-300.967 -226.987)" fill="#f9c68c"/>
              <path id="Path_888218" data-name="Path 888218" d="M136.895,224.436a42.516,42.516,0,0,1,6.429,0,1.428,1.428,0,0,1,.029,2.82,42.074,42.074,0,0,1-6.458-.029,1.412,1.412,0,0,1,0-2.791" transform="translate(-109.716 -181.365)" fill="#e8ecf1"/>
              <path id="Path_888219" data-name="Path 888219" d="M234.141,454.84c2.257-.332,2.866,3.1.866,3.559a1.845,1.845,0,1,1-.866-3.559" transform="translate(-187.997 -367.735)" fill="#f5f6f7"/>
            </g>
          </g>
        </g>
      </g>
    </g>
  </g>
</svg>
