<svg xmlns="http://www.w3.org/2000/svg" xmlns:xlink="http://www.w3.org/1999/xlink" width="107" height="107" viewBox="0 0 107 107">
  <defs>
    <clipPath id="clip-path">
      <rect id="Rectangle_406739" data-name="Rectangle 406739" width="63" height="49.407" fill="#fff"/>
    </clipPath>
  </defs>
  <g id="Group_1112757" data-name="Group 1112757" transform="translate(-285 -6130)">
    <g id="Grupo_156312" data-name="Grupo 156312" transform="translate(-3.668 1681.563)">
      <path id="Elipse_5845" data-name="Elipse 5845" d="M53.5,0A53.5,53.5,0,1,1,0,53.5,53.5,53.5,0,0,1,53.5,0Z" transform="translate(288.668 4448.437)" fill="#006543"/>
    </g>
    <g id="Group_1111832" data-name="Group 1111832" transform="translate(-101.527 111.787)">
      <path id="Path_873216" data-name="Path 873216" d="M0,0H63.184V63.186H0Z" transform="translate(408.527 6040.213)" fill="none"/>
      <g id="Group_1112348" data-name="Group 1112348" transform="translate(408.527 6046.313)">
        <g id="Group_1112347" data-name="Group 1112347" transform="translate(0 0)" clip-path="url(#clip-path)">
          <path id="Path_887439" data-name="Path 887439" d="M83.351,49.231a1.264,1.264,0,0,0-.419.935,1.538,1.538,0,0,0,.419.934,1.29,1.29,0,0,0,.945.415,1.575,1.575,0,0,0,.945-.415,1.261,1.261,0,0,0,.42-.934,1.537,1.537,0,0,0-.42-.935,1.342,1.342,0,0,0-1.89,0" transform="translate(-34.422 -20.272)" fill="#fff"/>
          <path id="Path_887440" data-name="Path 887440" d="M82.908,26.79a1.261,1.261,0,0,0,.42-.935,1.535,1.535,0,0,0-.42-.934,1.341,1.341,0,0,0-1.89,0,1.259,1.259,0,0,0-.42.934,1.537,1.537,0,0,0,.42.935,1.284,1.284,0,0,0,1.89,0" transform="translate(-33.453 -10.182)" fill="#fff"/>
          <path id="Path_887441" data-name="Path 887441" d="M21.47,36.077a1.573,1.573,0,0,0,.945-.415,1.261,1.261,0,0,0,.419-.934,1.532,1.532,0,0,0-.419-.934,1.342,1.342,0,0,0-1.891,0,1.259,1.259,0,0,0-.419.934,1.538,1.538,0,0,0,.419.934,1.29,1.29,0,0,0,.945.415" transform="translate(-8.345 -13.865)" fill="#fff"/>
          <path id="Path_887442" data-name="Path 887442" d="M14.828,40.114H59.453a1.549,1.549,0,0,0,1.365-1.349V10.221a1.382,1.382,0,0,0-1.365-1.349H14.828a1.382,1.382,0,0,0-1.365,1.349V38.765a1.382,1.382,0,0,0,1.365,1.349M58.088,37.52h-42V34.925h35.49a1.458,1.458,0,0,0,1.365-1.349,1.381,1.381,0,0,0-1.365-1.349H45.053A12.847,12.847,0,0,0,44.96,11.57h7.878v3.841A1.382,1.382,0,0,0,54.2,16.76a1.549,1.549,0,0,0,1.365-1.349V11.57h2.52ZM26.588,21.95a10.5,10.5,0,1,1,11.9,10.276H35.693a10.451,10.451,0,0,1-9.1-10.276m-9.24-10.38V20.6a1.365,1.365,0,0,0,2.73,0V11.57h9.138a12.878,12.878,0,0,0-.133,20.656H16.088V11.57Z" transform="translate(-5.588 -3.682)" fill="#fff"/>
          <path id="Path_887443" data-name="Path 887443" d="M61.425,40.48a4.682,4.682,0,0,0-1.811-1.214,4.956,4.956,0,0,0,.76-2.627V4.878A4.9,4.9,0,0,0,55.44,0H7.56A4.9,4.9,0,0,0,2.625,4.878V36.743a4.817,4.817,0,0,0,.77,2.613A5.131,5.131,0,0,0,0,44.217a5.254,5.254,0,0,0,1.575,3.632A4.952,4.952,0,0,0,5.25,49.407h52.5A5.257,5.257,0,0,0,63,44.113a5.462,5.462,0,0,0-1.575-3.633M5.25,4.878A2.318,2.318,0,0,1,7.56,2.595H55.44a2.317,2.317,0,0,1,2.31,2.284V36.64a2.318,2.318,0,0,1-2.31,2.284H38.22a1.382,1.382,0,0,0-1.365,1.349v1.454h-10.5v-1.35a1.382,1.382,0,0,0-1.365-1.349H8.067a1.319,1.319,0,0,0-.507-.1A2.318,2.318,0,0,1,5.25,36.64Zm52.5,41.933H5.25a2.545,2.545,0,0,1-1.889-.726,2.963,2.963,0,0,1-.735-1.868A2.585,2.585,0,0,1,5.25,41.622H23.625v1.349a1.383,1.383,0,0,0,1.366,1.35H38.01a1.382,1.382,0,0,0,1.365-1.35V41.622H57.75a2.548,2.548,0,0,1,1.89.727,2.963,2.963,0,0,1,.735,1.868,2.584,2.584,0,0,1-2.625,2.595" transform="translate(0 0)" fill="#fff"/>
          <path id="Path_887444" data-name="Path 887444" d="M49.961,33.153a1.316,1.316,0,0,0,1.365-1.35V28.378h3.465a1.381,1.381,0,0,0,1.365-1.349V22.981a1.382,1.382,0,0,0-1.365-1.349H51.326V18.206a1.382,1.382,0,0,0-1.365-1.349h-4.1A1.382,1.382,0,0,0,44.5,18.206v3.425H41.036a1.383,1.383,0,0,0-1.365,1.349v4.048a1.382,1.382,0,0,0,1.365,1.349H44.5V31.8a1.383,1.383,0,0,0,1.365,1.35Zm-7.56-7.37V24.331h3.465a1.383,1.383,0,0,0,1.365-1.35V19.555H48.7v3.425a1.383,1.383,0,0,0,1.365,1.35h3.465v1.452H50.066A1.383,1.383,0,0,0,48.7,27.133v3.426h-1.47V27.133a1.382,1.382,0,0,0-1.365-1.349Z" transform="translate(-16.466 -6.996)" fill="#fff"/>
        </g>
      </g>
    </g>
  </g>
</svg>
