<svg xmlns="http://www.w3.org/2000/svg" xmlns:xlink="http://www.w3.org/1999/xlink" width="247.625" height="421" viewBox="0 0 247.625 421">
  <defs>
    <clipPath id="clip-path">
      <path id="Trazado_194907" data-name="Trazado 194907" d="M0,139.241c0,47.447,39.179,85.908,87.511,85.908s87.511-38.461,87.511-85.908S135.841,53.333,87.511,53.333,0,91.8,0,139.241" transform="translate(0 -53.333)" fill="#befed9"/>
    </clipPath>
    <clipPath id="clip-path-2">
      <path id="Trazado_194907-2" data-name="Trazado 194907" d="M0,95.647A42.315,42.315,0,1,0,42.315,53.333,42.315,42.315,0,0,0,0,95.647" transform="translate(0 -53.333)" fill="#7f4fc7"/>
    </clipPath>
    <clipPath id="clip-path-3">
      <rect id="Rectángulo_46351" data-name="Rectángulo 46351" width="115.414" height="119.42" fill="none"/>
    </clipPath>
    <clipPath id="clip-path-4">
      <rect id="Rectangle_406736" data-name="Rectangle 406736" width="230.849" height="421" fill="none"/>
    </clipPath>
    <clipPath id="clip-path-6">
      <rect id="Rectangle_406708" data-name="Rectangle 406708" width="16.962" height="28.205" fill="none"/>
    </clipPath>
    <clipPath id="clip-path-7">
      <rect id="Rectangle_406711" data-name="Rectangle 406711" width="15.522" height="28.409" fill="none"/>
    </clipPath>
    <clipPath id="clip-path-8">
      <rect id="Rectangle_406714" data-name="Rectangle 406714" width="24.307" height="24.288" fill="none"/>
    </clipPath>
    <clipPath id="clip-path-9">
      <rect id="Rectangle_406717" data-name="Rectangle 406717" width="24.045" height="24.545" fill="none"/>
    </clipPath>
    <clipPath id="clip-path-10">
      <rect id="Rectangle_406720" data-name="Rectangle 406720" width="18.309" height="27.875" fill="none"/>
    </clipPath>
    <clipPath id="clip-path-11">
      <rect id="Rectangle_406723" data-name="Rectangle 406723" width="16.199" height="28.332" fill="none"/>
    </clipPath>
    <clipPath id="clip-path-12">
      <rect id="Rectangle_406725" data-name="Rectangle 406725" width="27.205" height="20.102" fill="none"/>
    </clipPath>
    <clipPath id="clip-path-13">
      <rect id="Rectangle_406728" data-name="Rectangle 406728" width="24.168" height="24.426" fill="none"/>
    </clipPath>
  </defs>
  <g id="conectada_01.375dd2a5" transform="translate(-2.443 -2.433)">
    <g id="Grupo_155444" data-name="Grupo 155444" transform="translate(2.443 22.364)">
      <g id="Grupo_155253" data-name="Grupo 155253" transform="translate(4.281 133.853)">
        <path id="Trazado_196478" data-name="Trazado 196478" d="M319.689,149.033q-.327.339-.648.683a52.147,52.147,0,0,0-14.068,37.632l21.849-.761a30.63,30.63,0,1,1,61.222-2.141l21.849-.761a52.492,52.492,0,0,0-90.2-34.646" transform="translate(-304.936 -133.025)" fill="#41cee2"/>
        <path id="Trazado_196479" data-name="Trazado 196479" d="M304.88,231.066A52.492,52.492,0,1,0,409.8,227.4l-21.85.761a30.629,30.629,0,0,1-61.221,2.141Z" transform="translate(-304.844 -176.744)" fill="#006543"/>
      </g>
      <g id="Grupo_154313" data-name="Grupo 154313" transform="translate(72.603 216.724)">
        <g id="Grupo_152768" data-name="Grupo 152768" clip-path="url(#clip-path)">
          <path id="Trazado_194826" data-name="Trazado 194826" d="M4.605,55.593a2.284,2.284,0,0,0-2.3-2.26,2.262,2.262,0,1,0,0,4.522,2.284,2.284,0,0,0,2.3-2.263" transform="translate(0.001 -53.333)" fill="#befed9"/>
          <path id="Trazado_194827" data-name="Trazado 194827" d="M12.879,55.589a2.3,2.3,0,1,0-2.3,2.263,2.3,2.3,0,0,0,2.3-2.263" transform="translate(13.028 -53.329)" fill="#befed9"/>
          <path id="Trazado_194828" data-name="Trazado 194828" d="M21.152,55.589a2.3,2.3,0,1,0-2.3,2.263,2.3,2.3,0,0,0,2.3-2.263" transform="translate(26.059 -53.329)" fill="#befed9"/>
          <path id="Trazado_194829" data-name="Trazado 194829" d="M29.425,55.589a2.3,2.3,0,1,0-2.3,2.263,2.3,2.3,0,0,0,2.3-2.263" transform="translate(39.088 -53.329)" fill="#befed9"/>
          <path id="Trazado_194830" data-name="Trazado 194830" d="M37.7,55.589a2.3,2.3,0,1,0-2.3,2.263,2.3,2.3,0,0,0,2.3-2.263" transform="translate(52.116 -53.329)" fill="#befed9"/>
          <path id="Trazado_194831" data-name="Trazado 194831" d="M45.966,55.589a2.3,2.3,0,1,0-2.3,2.263,2.3,2.3,0,0,0,2.3-2.263" transform="translate(65.146 -53.329)" fill="#befed9"/>
          <path id="Trazado_194832" data-name="Trazado 194832" d="M54.242,55.589a2.3,2.3,0,1,0-2.3,2.263,2.3,2.3,0,0,0,2.3-2.263" transform="translate(78.175 -53.329)" fill="#befed9"/>
          <path id="Trazado_194833" data-name="Trazado 194833" d="M62.515,55.589a2.3,2.3,0,1,0-2.3,2.263,2.3,2.3,0,0,0,2.3-2.263" transform="translate(91.204 -53.329)" fill="#befed9"/>
          <path id="Trazado_194834" data-name="Trazado 194834" d="M70.788,55.589a2.3,2.3,0,1,0-2.3,2.262,2.3,2.3,0,0,0,2.3-2.262" transform="translate(104.234 -53.329)" fill="#befed9"/>
          <path id="Trazado_194835" data-name="Trazado 194835" d="M4.609,63.866a2.284,2.284,0,0,0-2.3-2.26,2.26,2.26,0,0,0,0,4.52,2.284,2.284,0,0,0,2.3-2.26" transform="translate(-0.002 -40.693)" fill="#befed9"/>
          <path id="Trazado_194836" data-name="Trazado 194836" d="M12.879,63.862a2.3,2.3,0,1,0-2.3,2.26,2.3,2.3,0,0,0,2.3-2.26" transform="translate(13.028 -40.689)" fill="#befed9"/>
          <path id="Trazado_194837" data-name="Trazado 194837" d="M21.152,63.862a2.3,2.3,0,1,0-2.3,2.26,2.3,2.3,0,0,0,2.3-2.26" transform="translate(26.059 -40.689)" fill="#befed9"/>
          <path id="Trazado_194838" data-name="Trazado 194838" d="M29.425,63.862a2.3,2.3,0,1,0-2.3,2.26,2.3,2.3,0,0,0,2.3-2.26" transform="translate(39.088 -40.689)" fill="#befed9"/>
          <path id="Trazado_194839" data-name="Trazado 194839" d="M37.7,63.862a2.3,2.3,0,1,0-2.3,2.26,2.3,2.3,0,0,0,2.3-2.26" transform="translate(52.116 -40.689)" fill="#befed9"/>
          <path id="Trazado_194840" data-name="Trazado 194840" d="M45.966,63.862a2.3,2.3,0,1,0-2.3,2.26,2.3,2.3,0,0,0,2.3-2.26" transform="translate(65.146 -40.689)" fill="#befed9"/>
          <path id="Trazado_194841" data-name="Trazado 194841" d="M54.242,63.862a2.3,2.3,0,1,0-2.3,2.26,2.3,2.3,0,0,0,2.3-2.26" transform="translate(78.175 -40.689)" fill="#befed9"/>
          <path id="Trazado_194842" data-name="Trazado 194842" d="M62.515,63.862a2.3,2.3,0,1,0-2.3,2.26,2.3,2.3,0,0,0,2.3-2.26" transform="translate(91.204 -40.689)" fill="#befed9"/>
          <path id="Trazado_194843" data-name="Trazado 194843" d="M70.788,63.862a2.3,2.3,0,1,0-2.3,2.26,2.3,2.3,0,0,0,2.3-2.26" transform="translate(104.234 -40.689)" fill="#befed9"/>
          <path id="Trazado_194844" data-name="Trazado 194844" d="M4.609,72.139a2.284,2.284,0,0,0-2.3-2.26,2.26,2.26,0,0,0,0,4.52,2.284,2.284,0,0,0,2.3-2.26" transform="translate(-0.002 -28.054)" fill="#befed9"/>
          <path id="Trazado_194845" data-name="Trazado 194845" d="M12.879,72.135a2.3,2.3,0,1,0-2.3,2.26,2.3,2.3,0,0,0,2.3-2.26" transform="translate(13.028 -28.049)" fill="#befed9"/>
          <path id="Trazado_194846" data-name="Trazado 194846" d="M21.152,72.135a2.3,2.3,0,1,0-2.3,2.26,2.3,2.3,0,0,0,2.3-2.26" transform="translate(26.059 -28.049)" fill="#befed9"/>
          <path id="Trazado_194847" data-name="Trazado 194847" d="M29.425,72.135a2.3,2.3,0,1,0-2.3,2.26,2.3,2.3,0,0,0,2.3-2.26" transform="translate(39.088 -28.049)" fill="#befed9"/>
          <path id="Trazado_194848" data-name="Trazado 194848" d="M37.7,72.135a2.3,2.3,0,1,0-2.3,2.26,2.3,2.3,0,0,0,2.3-2.26" transform="translate(52.116 -28.049)" fill="#befed9"/>
          <path id="Trazado_194849" data-name="Trazado 194849" d="M45.966,72.135a2.3,2.3,0,1,0-2.3,2.26,2.3,2.3,0,0,0,2.3-2.26" transform="translate(65.146 -28.049)" fill="#befed9"/>
          <path id="Trazado_194850" data-name="Trazado 194850" d="M54.242,72.135a2.3,2.3,0,1,0-2.3,2.26,2.3,2.3,0,0,0,2.3-2.26" transform="translate(78.175 -28.049)" fill="#befed9"/>
          <path id="Trazado_194851" data-name="Trazado 194851" d="M62.515,72.135a2.3,2.3,0,1,0-2.3,2.26,2.3,2.3,0,0,0,2.3-2.26" transform="translate(91.204 -28.049)" fill="#befed9"/>
          <path id="Trazado_194852" data-name="Trazado 194852" d="M70.788,72.135a2.3,2.3,0,1,0-2.3,2.26,2.3,2.3,0,0,0,2.3-2.26" transform="translate(104.234 -28.049)" fill="#befed9"/>
          <path id="Trazado_194853" data-name="Trazado 194853" d="M4.609,80.411a2.284,2.284,0,0,0-2.3-2.26,2.26,2.26,0,0,0,0,4.52,2.284,2.284,0,0,0,2.3-2.26" transform="translate(-0.002 -15.416)" fill="#befed9"/>
          <path id="Trazado_194854" data-name="Trazado 194854" d="M12.879,80.407a2.3,2.3,0,1,0-2.3,2.259,2.3,2.3,0,0,0,2.3-2.259" transform="translate(13.028 -15.411)" fill="#befed9"/>
          <path id="Trazado_194855" data-name="Trazado 194855" d="M21.152,80.407a2.3,2.3,0,1,0-2.3,2.259,2.3,2.3,0,0,0,2.3-2.259" transform="translate(26.059 -15.411)" fill="#befed9"/>
          <path id="Trazado_194856" data-name="Trazado 194856" d="M29.425,80.407a2.3,2.3,0,1,0-2.3,2.259,2.3,2.3,0,0,0,2.3-2.259" transform="translate(39.088 -15.411)" fill="#befed9"/>
          <path id="Trazado_194857" data-name="Trazado 194857" d="M37.7,80.407a2.3,2.3,0,1,0-2.3,2.259,2.3,2.3,0,0,0,2.3-2.259" transform="translate(52.116 -15.411)" fill="#befed9"/>
          <path id="Trazado_194858" data-name="Trazado 194858" d="M45.966,80.407a2.3,2.3,0,1,0-2.3,2.259,2.3,2.3,0,0,0,2.3-2.259" transform="translate(65.146 -15.411)" fill="#befed9"/>
          <path id="Trazado_194859" data-name="Trazado 194859" d="M54.242,80.407a2.3,2.3,0,1,0-2.3,2.259,2.3,2.3,0,0,0,2.3-2.259" transform="translate(78.175 -15.411)" fill="#befed9"/>
          <path id="Trazado_194860" data-name="Trazado 194860" d="M62.515,80.407a2.3,2.3,0,1,0-2.3,2.259,2.3,2.3,0,0,0,2.3-2.259" transform="translate(91.204 -15.411)" fill="#befed9"/>
          <path id="Trazado_194861" data-name="Trazado 194861" d="M70.788,80.407a2.3,2.3,0,1,0-2.3,2.259,2.3,2.3,0,0,0,2.3-2.259" transform="translate(104.234 -15.411)" fill="#befed9"/>
          <path id="Trazado_194862" data-name="Trazado 194862" d="M4.605,88.685a2.284,2.284,0,0,0-2.3-2.26,2.262,2.262,0,1,0,0,4.522,2.284,2.284,0,0,0,2.3-2.262" transform="translate(0.001 -2.776)" fill="#befed9"/>
          <path id="Trazado_194863" data-name="Trazado 194863" d="M12.879,88.681a2.3,2.3,0,1,0-2.3,2.262,2.3,2.3,0,0,0,2.3-2.262" transform="translate(13.028 -2.771)" fill="#befed9"/>
          <path id="Trazado_194864" data-name="Trazado 194864" d="M21.152,88.681a2.3,2.3,0,1,0-2.3,2.262,2.3,2.3,0,0,0,2.3-2.262" transform="translate(26.059 -2.771)" fill="#befed9"/>
          <path id="Trazado_194865" data-name="Trazado 194865" d="M29.425,88.681a2.3,2.3,0,1,0-2.3,2.262,2.3,2.3,0,0,0,2.3-2.262" transform="translate(39.088 -2.771)" fill="#befed9"/>
          <path id="Trazado_194866" data-name="Trazado 194866" d="M37.7,88.681a2.3,2.3,0,1,0-2.3,2.262,2.3,2.3,0,0,0,2.3-2.262" transform="translate(52.116 -2.771)" fill="#befed9"/>
          <path id="Trazado_194867" data-name="Trazado 194867" d="M45.966,88.681a2.3,2.3,0,1,0-2.3,2.262,2.3,2.3,0,0,0,2.3-2.262" transform="translate(65.146 -2.771)" fill="#befed9"/>
          <path id="Trazado_194868" data-name="Trazado 194868" d="M54.242,88.681a2.3,2.3,0,1,0-2.3,2.262,2.3,2.3,0,0,0,2.3-2.262" transform="translate(78.175 -2.771)" fill="#befed9"/>
          <path id="Trazado_194869" data-name="Trazado 194869" d="M62.515,88.681a2.3,2.3,0,1,0-2.3,2.262,2.3,2.3,0,0,0,2.3-2.262" transform="translate(91.204 -2.771)" fill="#befed9"/>
          <path id="Trazado_194870" data-name="Trazado 194870" d="M70.788,88.681a2.3,2.3,0,1,0-2.3,2.261,2.3,2.3,0,0,0,2.3-2.261" transform="translate(104.234 -2.771)" fill="#befed9"/>
          <path id="Trazado_194871" data-name="Trazado 194871" d="M4.609,96.957a2.284,2.284,0,0,0-2.3-2.257,2.26,2.26,0,0,0,0,4.52,2.284,2.284,0,0,0,2.3-2.26" transform="translate(-0.002 9.864)" fill="#befed9"/>
          <path id="Trazado_194872" data-name="Trazado 194872" d="M12.879,96.953a2.3,2.3,0,1,0-2.3,2.26,2.3,2.3,0,0,0,2.3-2.26" transform="translate(13.028 9.869)" fill="#befed9"/>
          <path id="Trazado_194873" data-name="Trazado 194873" d="M21.152,96.953a2.3,2.3,0,1,0-2.3,2.26,2.3,2.3,0,0,0,2.3-2.26" transform="translate(26.059 9.869)" fill="#befed9"/>
          <path id="Trazado_194874" data-name="Trazado 194874" d="M29.425,96.953a2.3,2.3,0,1,0-2.3,2.26,2.3,2.3,0,0,0,2.3-2.26" transform="translate(39.088 9.869)" fill="#befed9"/>
          <path id="Trazado_194875" data-name="Trazado 194875" d="M37.7,96.953a2.3,2.3,0,1,0-2.3,2.26,2.3,2.3,0,0,0,2.3-2.26" transform="translate(52.116 9.869)" fill="#befed9"/>
          <path id="Trazado_194876" data-name="Trazado 194876" d="M45.966,96.953a2.3,2.3,0,1,0-2.3,2.26,2.3,2.3,0,0,0,2.3-2.26" transform="translate(65.146 9.869)" fill="#befed9"/>
          <path id="Trazado_194877" data-name="Trazado 194877" d="M54.242,96.953a2.3,2.3,0,1,0-2.3,2.26,2.3,2.3,0,0,0,2.3-2.26" transform="translate(78.175 9.869)" fill="#befed9"/>
          <path id="Trazado_194878" data-name="Trazado 194878" d="M62.515,96.953a2.3,2.3,0,1,0-2.3,2.26,2.3,2.3,0,0,0,2.3-2.26" transform="translate(91.204 9.869)" fill="#befed9"/>
          <path id="Trazado_194879" data-name="Trazado 194879" d="M70.788,96.953a2.3,2.3,0,1,0-2.3,2.26,2.3,2.3,0,0,0,2.3-2.26" transform="translate(104.234 9.869)" fill="#befed9"/>
          <path id="Trazado_194880" data-name="Trazado 194880" d="M4.609,105.229a2.284,2.284,0,0,0-2.3-2.26,2.26,2.26,0,1,0,0,4.52,2.284,2.284,0,0,0,2.3-2.26" transform="translate(-0.002 22.503)" fill="#befed9"/>
          <path id="Trazado_194881" data-name="Trazado 194881" d="M12.879,105.225a2.3,2.3,0,1,0-2.3,2.26,2.3,2.3,0,0,0,2.3-2.26" transform="translate(13.028 22.507)" fill="#befed9"/>
          <path id="Trazado_194882" data-name="Trazado 194882" d="M21.152,105.225a2.3,2.3,0,1,0-2.3,2.26,2.3,2.3,0,0,0,2.3-2.26" transform="translate(26.059 22.507)" fill="#befed9"/>
          <path id="Trazado_194883" data-name="Trazado 194883" d="M29.425,105.225a2.3,2.3,0,1,0-2.3,2.26,2.3,2.3,0,0,0,2.3-2.26" transform="translate(39.088 22.507)" fill="#befed9"/>
          <path id="Trazado_194884" data-name="Trazado 194884" d="M37.7,105.225a2.3,2.3,0,1,0-2.3,2.26,2.3,2.3,0,0,0,2.3-2.26" transform="translate(52.116 22.507)" fill="#befed9"/>
          <path id="Trazado_194885" data-name="Trazado 194885" d="M45.966,105.225a2.3,2.3,0,1,0-2.3,2.26,2.3,2.3,0,0,0,2.3-2.26" transform="translate(65.146 22.507)" fill="#befed9"/>
          <path id="Trazado_194886" data-name="Trazado 194886" d="M54.242,105.225a2.3,2.3,0,1,0-2.3,2.26,2.3,2.3,0,0,0,2.3-2.26" transform="translate(78.175 22.507)" fill="#befed9"/>
          <path id="Trazado_194887" data-name="Trazado 194887" d="M62.515,105.225a2.3,2.3,0,1,0-2.3,2.26,2.3,2.3,0,0,0,2.3-2.26" transform="translate(91.204 22.507)" fill="#befed9"/>
          <path id="Trazado_194888" data-name="Trazado 194888" d="M70.788,105.225a2.3,2.3,0,1,0-2.3,2.26,2.3,2.3,0,0,0,2.3-2.26" transform="translate(104.234 22.507)" fill="#befed9"/>
          <path id="Trazado_194889" data-name="Trazado 194889" d="M4.609,113.5a2.284,2.284,0,0,0-2.3-2.26,2.26,2.26,0,0,0,0,4.52,2.284,2.284,0,0,0,2.3-2.26" transform="translate(-0.002 35.142)" fill="#befed9"/>
          <path id="Trazado_194890" data-name="Trazado 194890" d="M12.879,113.5a2.3,2.3,0,1,0-2.3,2.26,2.3,2.3,0,0,0,2.3-2.26" transform="translate(13.028 35.146)" fill="#befed9"/>
          <path id="Trazado_194891" data-name="Trazado 194891" d="M21.152,113.5a2.3,2.3,0,1,0-2.3,2.26,2.3,2.3,0,0,0,2.3-2.26" transform="translate(26.059 35.146)" fill="#befed9"/>
          <path id="Trazado_194892" data-name="Trazado 194892" d="M29.425,113.5a2.3,2.3,0,1,0-2.3,2.26,2.3,2.3,0,0,0,2.3-2.26" transform="translate(39.088 35.146)" fill="#befed9"/>
          <path id="Trazado_194893" data-name="Trazado 194893" d="M37.7,113.5a2.3,2.3,0,1,0-2.3,2.26,2.3,2.3,0,0,0,2.3-2.26" transform="translate(52.116 35.146)" fill="#befed9"/>
          <path id="Trazado_194894" data-name="Trazado 194894" d="M45.966,113.5a2.3,2.3,0,1,0-2.3,2.26,2.3,2.3,0,0,0,2.3-2.26" transform="translate(65.146 35.146)" fill="#befed9"/>
          <path id="Trazado_194895" data-name="Trazado 194895" d="M54.242,113.5a2.3,2.3,0,1,0-2.3,2.26,2.3,2.3,0,0,0,2.3-2.26" transform="translate(78.175 35.146)" fill="#befed9"/>
          <path id="Trazado_194896" data-name="Trazado 194896" d="M62.515,113.5a2.3,2.3,0,1,0-2.3,2.26,2.3,2.3,0,0,0,2.3-2.26" transform="translate(91.204 35.146)" fill="#befed9"/>
          <path id="Trazado_194897" data-name="Trazado 194897" d="M70.788,113.5a2.3,2.3,0,1,0-2.3,2.26,2.3,2.3,0,0,0,2.3-2.26" transform="translate(104.234 35.146)" fill="#befed9"/>
          <path id="Trazado_194898" data-name="Trazado 194898" d="M4.609,121.774a2.284,2.284,0,0,0-2.3-2.26,2.26,2.26,0,0,0,0,4.52,2.284,2.284,0,0,0,2.3-2.26" transform="translate(-0.002 47.78)" fill="#befed9"/>
          <path id="Trazado_194899" data-name="Trazado 194899" d="M12.879,121.77a2.3,2.3,0,1,0-2.3,2.26,2.3,2.3,0,0,0,2.3-2.26" transform="translate(13.028 47.784)" fill="#befed9"/>
          <path id="Trazado_194900" data-name="Trazado 194900" d="M21.152,121.77a2.3,2.3,0,1,0-2.3,2.26,2.3,2.3,0,0,0,2.3-2.26" transform="translate(26.059 47.784)" fill="#befed9"/>
          <path id="Trazado_194901" data-name="Trazado 194901" d="M29.425,121.77a2.3,2.3,0,1,0-2.3,2.26,2.3,2.3,0,0,0,2.3-2.26" transform="translate(39.088 47.784)" fill="#befed9"/>
          <path id="Trazado_194902" data-name="Trazado 194902" d="M37.7,121.77a2.3,2.3,0,1,0-2.3,2.26,2.3,2.3,0,0,0,2.3-2.26" transform="translate(52.116 47.784)" fill="#befed9"/>
          <path id="Trazado_194903" data-name="Trazado 194903" d="M45.966,121.77a2.3,2.3,0,1,0-2.3,2.26,2.3,2.3,0,0,0,2.3-2.26" transform="translate(65.146 47.784)" fill="#befed9"/>
          <path id="Trazado_194904" data-name="Trazado 194904" d="M54.242,121.77a2.3,2.3,0,1,0-2.3,2.26,2.3,2.3,0,0,0,2.3-2.26" transform="translate(78.175 47.784)" fill="#befed9"/>
          <path id="Trazado_194905" data-name="Trazado 194905" d="M62.515,121.77a2.3,2.3,0,1,0-2.3,2.26,2.3,2.3,0,0,0,2.3-2.26" transform="translate(91.204 47.784)" fill="#befed9"/>
          <path id="Trazado_194906" data-name="Trazado 194906" d="M70.788,121.77a2.3,2.3,0,1,0-2.3,2.26,2.3,2.3,0,0,0,2.3-2.26" transform="translate(104.234 47.784)" fill="#befed9"/>
        </g>
      </g>
      <g id="Grupo_154805" data-name="Grupo 154805" transform="translate(147.708 0)">
        <g id="Grupo_152768-2" data-name="Grupo 152768" transform="translate(0)" clip-path="url(#clip-path-2)">
          <path id="Trazado_194826-2" data-name="Trazado 194826" d="M2.228,54.443a1.113,1.113,0,1,0-1.113,1.114,1.113,1.113,0,0,0,1.113-1.114" transform="translate(0 -53.333)" fill="#7f4fc7"/>
          <path id="Trazado_194827-2" data-name="Trazado 194827" d="M10.5,54.443a1.113,1.113,0,1,0-1.113,1.114A1.113,1.113,0,0,0,10.5,54.443" transform="translate(2.028 -53.333)" fill="#7f4fc7"/>
          <path id="Trazado_194828-2" data-name="Trazado 194828" d="M18.773,54.443a1.113,1.113,0,1,0-1.113,1.114,1.113,1.113,0,0,0,1.113-1.114" transform="translate(4.056 -53.333)" fill="#7f4fc7"/>
          <path id="Trazado_194829-2" data-name="Trazado 194829" d="M27.046,54.443a1.113,1.113,0,1,0-1.113,1.114,1.113,1.113,0,0,0,1.113-1.114" transform="translate(6.083 -53.333)" fill="#7f4fc7"/>
          <path id="Trazado_194830-2" data-name="Trazado 194830" d="M35.318,54.443A1.113,1.113,0,1,0,34.2,55.558a1.113,1.113,0,0,0,1.113-1.114" transform="translate(8.111 -53.333)" fill="#7f4fc7"/>
          <path id="Trazado_194831-2" data-name="Trazado 194831" d="M43.587,54.443a1.113,1.113,0,1,0-1.113,1.114,1.113,1.113,0,0,0,1.113-1.114" transform="translate(10.139 -53.333)" fill="#7f4fc7"/>
          <path id="Trazado_194832-2" data-name="Trazado 194832" d="M51.863,54.443a1.113,1.113,0,1,0-1.113,1.114,1.113,1.113,0,0,0,1.113-1.114" transform="translate(12.167 -53.333)" fill="#7f4fc7"/>
          <path id="Trazado_194833-2" data-name="Trazado 194833" d="M60.136,54.443a1.113,1.113,0,1,0-1.113,1.114,1.113,1.113,0,0,0,1.113-1.114" transform="translate(14.194 -53.333)" fill="#7f4fc7"/>
          <path id="Trazado_194834-2" data-name="Trazado 194834" d="M68.409,54.443A1.113,1.113,0,1,0,67.3,55.558a1.113,1.113,0,0,0,1.113-1.114" transform="translate(16.222 -53.333)" fill="#7f4fc7"/>
          <path id="Trazado_194835-2" data-name="Trazado 194835" d="M2.228,62.719a1.112,1.112,0,1,0-.326.788,1.113,1.113,0,0,0,.326-.788" transform="translate(0 -51.305)" fill="#7f4fc7"/>
          <path id="Trazado_194836-2" data-name="Trazado 194836" d="M10.5,62.719a1.112,1.112,0,1,0-.326.788,1.113,1.113,0,0,0,.326-.788" transform="translate(2.028 -51.305)" fill="#7f4fc7"/>
          <path id="Trazado_194837-2" data-name="Trazado 194837" d="M18.773,62.719a1.112,1.112,0,1,0-.326.788,1.113,1.113,0,0,0,.326-.788" transform="translate(4.056 -51.305)" fill="#7f4fc7"/>
          <path id="Trazado_194838-2" data-name="Trazado 194838" d="M27.046,62.719a1.112,1.112,0,1,0-.326.788,1.113,1.113,0,0,0,.326-.788" transform="translate(6.083 -51.305)" fill="#7f4fc7"/>
          <path id="Trazado_194839-2" data-name="Trazado 194839" d="M35.318,62.719a1.112,1.112,0,1,0-.326.788,1.113,1.113,0,0,0,.326-.788" transform="translate(8.111 -51.305)" fill="#7f4fc7"/>
          <path id="Trazado_194840-2" data-name="Trazado 194840" d="M43.587,62.719a1.112,1.112,0,1,0-.326.788,1.113,1.113,0,0,0,.326-.788" transform="translate(10.139 -51.305)" fill="#7f4fc7"/>
          <path id="Trazado_194841-2" data-name="Trazado 194841" d="M51.863,62.719a1.112,1.112,0,1,0-.326.788,1.113,1.113,0,0,0,.326-.788" transform="translate(12.167 -51.305)" fill="#7f4fc7"/>
          <path id="Trazado_194842-2" data-name="Trazado 194842" d="M60.136,62.719a1.113,1.113,0,1,0-1.113,1.113,1.113,1.113,0,0,0,1.113-1.113" transform="translate(14.194 -51.305)" fill="#7f4fc7"/>
          <path id="Trazado_194843-2" data-name="Trazado 194843" d="M68.409,62.719a1.112,1.112,0,1,0-.326.788,1.113,1.113,0,0,0,.326-.788" transform="translate(16.222 -51.305)" fill="#7f4fc7"/>
          <path id="Trazado_194844-2" data-name="Trazado 194844" d="M2.228,70.992a1.112,1.112,0,1,0-.326.788,1.113,1.113,0,0,0,.326-.788" transform="translate(0 -49.277)" fill="#7f4fc7"/>
          <path id="Trazado_194845-2" data-name="Trazado 194845" d="M10.5,70.992a1.112,1.112,0,1,0-.326.788,1.113,1.113,0,0,0,.326-.788" transform="translate(2.028 -49.277)" fill="#7f4fc7"/>
          <path id="Trazado_194846-2" data-name="Trazado 194846" d="M18.773,70.992a1.112,1.112,0,1,0-.326.788,1.113,1.113,0,0,0,.326-.788" transform="translate(4.056 -49.277)" fill="#7f4fc7"/>
          <path id="Trazado_194847-2" data-name="Trazado 194847" d="M27.046,70.992a1.112,1.112,0,1,0-.326.788,1.113,1.113,0,0,0,.326-.788" transform="translate(6.083 -49.277)" fill="#7f4fc7"/>
          <path id="Trazado_194848-2" data-name="Trazado 194848" d="M35.318,70.992a1.112,1.112,0,1,0-.326.788,1.113,1.113,0,0,0,.326-.788" transform="translate(8.111 -49.277)" fill="#7f4fc7"/>
          <path id="Trazado_194849-2" data-name="Trazado 194849" d="M43.587,70.992a1.112,1.112,0,1,0-.326.788,1.113,1.113,0,0,0,.326-.788" transform="translate(10.139 -49.277)" fill="#7f4fc7"/>
          <path id="Trazado_194850-2" data-name="Trazado 194850" d="M51.863,70.992a1.112,1.112,0,1,0-.326.788,1.113,1.113,0,0,0,.326-.788" transform="translate(12.167 -49.277)" fill="#7f4fc7"/>
          <path id="Trazado_194851-2" data-name="Trazado 194851" d="M60.136,70.992a1.113,1.113,0,1,0-1.113,1.113,1.113,1.113,0,0,0,1.113-1.113" transform="translate(14.194 -49.277)" fill="#7f4fc7"/>
          <path id="Trazado_194852-2" data-name="Trazado 194852" d="M68.409,70.992a1.112,1.112,0,1,0-.326.788,1.113,1.113,0,0,0,.326-.788" transform="translate(16.222 -49.277)" fill="#7f4fc7"/>
          <path id="Trazado_194853-2" data-name="Trazado 194853" d="M2.228,79.264a1.112,1.112,0,1,0-.326.788,1.113,1.113,0,0,0,.326-.788" transform="translate(0 -47.25)" fill="#7f4fc7"/>
          <path id="Trazado_194854-2" data-name="Trazado 194854" d="M10.5,79.264a1.112,1.112,0,1,0-.326.788,1.113,1.113,0,0,0,.326-.788" transform="translate(2.028 -47.25)" fill="#7f4fc7"/>
          <path id="Trazado_194855-2" data-name="Trazado 194855" d="M18.773,79.264a1.112,1.112,0,1,0-.326.788,1.113,1.113,0,0,0,.326-.788" transform="translate(4.056 -47.25)" fill="#7f4fc7"/>
          <path id="Trazado_194856-2" data-name="Trazado 194856" d="M27.046,79.264a1.112,1.112,0,1,0-.326.788,1.113,1.113,0,0,0,.326-.788" transform="translate(6.083 -47.25)" fill="#7f4fc7"/>
          <path id="Trazado_194857-2" data-name="Trazado 194857" d="M35.318,79.264a1.112,1.112,0,1,0-.326.788,1.113,1.113,0,0,0,.326-.788" transform="translate(8.111 -47.25)" fill="#7f4fc7"/>
          <path id="Trazado_194858-2" data-name="Trazado 194858" d="M43.587,79.264a1.112,1.112,0,1,0-.326.788,1.113,1.113,0,0,0,.326-.788" transform="translate(10.139 -47.25)" fill="#7f4fc7"/>
          <path id="Trazado_194859-2" data-name="Trazado 194859" d="M51.863,79.264a1.112,1.112,0,1,0-.326.788,1.113,1.113,0,0,0,.326-.788" transform="translate(12.167 -47.25)" fill="#7f4fc7"/>
          <path id="Trazado_194860-2" data-name="Trazado 194860" d="M60.136,79.264a1.113,1.113,0,1,0-1.113,1.113,1.113,1.113,0,0,0,1.113-1.113" transform="translate(14.194 -47.25)" fill="#7f4fc7"/>
          <path id="Trazado_194861-2" data-name="Trazado 194861" d="M68.409,79.264a1.112,1.112,0,1,0-.326.788,1.113,1.113,0,0,0,.326-.788" transform="translate(16.222 -47.25)" fill="#7f4fc7"/>
          <path id="Trazado_194862-2" data-name="Trazado 194862" d="M2.228,87.537a1.112,1.112,0,1,0-.325.788,1.113,1.113,0,0,0,.325-.788" transform="translate(0 -45.222)" fill="#7f4fc7"/>
          <path id="Trazado_194863-2" data-name="Trazado 194863" d="M10.5,87.537a1.112,1.112,0,1,0-.325.788,1.113,1.113,0,0,0,.325-.788" transform="translate(2.028 -45.222)" fill="#7f4fc7"/>
          <path id="Trazado_194864-2" data-name="Trazado 194864" d="M18.773,87.537a1.112,1.112,0,1,0-.325.788,1.113,1.113,0,0,0,.325-.788" transform="translate(4.056 -45.222)" fill="#7f4fc7"/>
          <path id="Trazado_194865-2" data-name="Trazado 194865" d="M27.046,87.537a1.112,1.112,0,1,0-.325.788,1.113,1.113,0,0,0,.325-.788" transform="translate(6.083 -45.222)" fill="#7f4fc7"/>
          <path id="Trazado_194866-2" data-name="Trazado 194866" d="M35.318,87.537a1.112,1.112,0,1,0-.325.788,1.113,1.113,0,0,0,.325-.788" transform="translate(8.111 -45.222)" fill="#7f4fc7"/>
          <path id="Trazado_194867-2" data-name="Trazado 194867" d="M43.587,87.537a1.112,1.112,0,1,0-.325.788,1.113,1.113,0,0,0,.325-.788" transform="translate(10.139 -45.222)" fill="#7f4fc7"/>
          <path id="Trazado_194868-2" data-name="Trazado 194868" d="M51.863,87.537a1.112,1.112,0,1,0-.325.788,1.113,1.113,0,0,0,.325-.788" transform="translate(12.167 -45.222)" fill="#7f4fc7"/>
          <path id="Trazado_194869-2" data-name="Trazado 194869" d="M60.136,87.537a1.113,1.113,0,1,0-1.113,1.114,1.113,1.113,0,0,0,1.113-1.114" transform="translate(14.194 -45.222)" fill="#7f4fc7"/>
          <path id="Trazado_194870-2" data-name="Trazado 194870" d="M68.409,87.537a1.112,1.112,0,1,0-.325.788,1.113,1.113,0,0,0,.325-.788" transform="translate(16.222 -45.222)" fill="#7f4fc7"/>
          <path id="Trazado_194871-2" data-name="Trazado 194871" d="M2.228,95.81A1.112,1.112,0,1,0,1.9,96.6a1.113,1.113,0,0,0,.326-.788" transform="translate(0 -43.194)" fill="#7f4fc7"/>
          <path id="Trazado_194872-2" data-name="Trazado 194872" d="M10.5,95.81a1.112,1.112,0,1,0-.326.788,1.113,1.113,0,0,0,.326-.788" transform="translate(2.028 -43.194)" fill="#7f4fc7"/>
          <path id="Trazado_194873-2" data-name="Trazado 194873" d="M18.773,95.81a1.112,1.112,0,1,0-.326.788,1.113,1.113,0,0,0,.326-.788" transform="translate(4.056 -43.194)" fill="#7f4fc7"/>
          <path id="Trazado_194874-2" data-name="Trazado 194874" d="M27.046,95.81a1.112,1.112,0,1,0-.326.788,1.113,1.113,0,0,0,.326-.788" transform="translate(6.083 -43.194)" fill="#7f4fc7"/>
          <path id="Trazado_194875-2" data-name="Trazado 194875" d="M35.318,95.81a1.112,1.112,0,1,0-.326.788,1.113,1.113,0,0,0,.326-.788" transform="translate(8.111 -43.194)" fill="#7f4fc7"/>
          <path id="Trazado_194876-2" data-name="Trazado 194876" d="M43.587,95.81a1.112,1.112,0,1,0-.326.788,1.113,1.113,0,0,0,.326-.788" transform="translate(10.139 -43.194)" fill="#7f4fc7"/>
          <path id="Trazado_194877-2" data-name="Trazado 194877" d="M51.863,95.81a1.112,1.112,0,1,0-.326.788,1.113,1.113,0,0,0,.326-.788" transform="translate(12.167 -43.194)" fill="#7f4fc7"/>
          <path id="Trazado_194878-2" data-name="Trazado 194878" d="M60.136,95.81a1.113,1.113,0,1,0-1.113,1.113,1.113,1.113,0,0,0,1.113-1.113" transform="translate(14.194 -43.194)" fill="#7f4fc7"/>
          <path id="Trazado_194879-2" data-name="Trazado 194879" d="M68.409,95.81a1.112,1.112,0,1,0-.326.788,1.113,1.113,0,0,0,.326-.788" transform="translate(16.222 -43.194)" fill="#7f4fc7"/>
          <path id="Trazado_194880-2" data-name="Trazado 194880" d="M2.228,104.082a1.112,1.112,0,1,0-.326.788,1.113,1.113,0,0,0,.326-.788" transform="translate(0 -41.166)" fill="#7f4fc7"/>
          <path id="Trazado_194881-2" data-name="Trazado 194881" d="M10.5,104.082a1.112,1.112,0,1,0-.326.788,1.113,1.113,0,0,0,.326-.788" transform="translate(2.028 -41.166)" fill="#7f4fc7"/>
          <path id="Trazado_194882-2" data-name="Trazado 194882" d="M18.773,104.082a1.112,1.112,0,1,0-.326.788,1.113,1.113,0,0,0,.326-.788" transform="translate(4.056 -41.166)" fill="#7f4fc7"/>
          <path id="Trazado_194883-2" data-name="Trazado 194883" d="M27.046,104.082a1.112,1.112,0,1,0-.326.788,1.113,1.113,0,0,0,.326-.788" transform="translate(6.083 -41.166)" fill="#7f4fc7"/>
          <path id="Trazado_194884-2" data-name="Trazado 194884" d="M35.318,104.082a1.112,1.112,0,1,0-.326.788,1.113,1.113,0,0,0,.326-.788" transform="translate(8.111 -41.166)" fill="#7f4fc7"/>
          <path id="Trazado_194885-2" data-name="Trazado 194885" d="M43.587,104.082a1.112,1.112,0,1,0-.326.788,1.113,1.113,0,0,0,.326-.788" transform="translate(10.139 -41.166)" fill="#7f4fc7"/>
          <path id="Trazado_194886-2" data-name="Trazado 194886" d="M51.863,104.082a1.112,1.112,0,1,0-.326.788,1.113,1.113,0,0,0,.326-.788" transform="translate(12.167 -41.166)" fill="#7f4fc7"/>
          <path id="Trazado_194887-2" data-name="Trazado 194887" d="M60.136,104.082a1.113,1.113,0,1,0-1.113,1.113,1.113,1.113,0,0,0,1.113-1.113" transform="translate(14.194 -41.166)" fill="#7f4fc7"/>
          <path id="Trazado_194888-2" data-name="Trazado 194888" d="M68.409,104.082a1.112,1.112,0,1,0-.326.788,1.113,1.113,0,0,0,.326-.788" transform="translate(16.222 -41.166)" fill="#7f4fc7"/>
          <path id="Trazado_194889-2" data-name="Trazado 194889" d="M2.228,112.355a1.112,1.112,0,1,0-.326.788,1.113,1.113,0,0,0,.326-.788" transform="translate(0 -39.138)" fill="#7f4fc7"/>
          <path id="Trazado_194890-2" data-name="Trazado 194890" d="M10.5,112.355a1.112,1.112,0,1,0-.326.788,1.113,1.113,0,0,0,.326-.788" transform="translate(2.028 -39.138)" fill="#7f4fc7"/>
          <path id="Trazado_194891-2" data-name="Trazado 194891" d="M18.773,112.355a1.112,1.112,0,1,0-.326.788,1.113,1.113,0,0,0,.326-.788" transform="translate(4.056 -39.138)" fill="#7f4fc7"/>
          <path id="Trazado_194892-2" data-name="Trazado 194892" d="M27.046,112.355a1.112,1.112,0,1,0-.326.788,1.113,1.113,0,0,0,.326-.788" transform="translate(6.083 -39.138)" fill="#7f4fc7"/>
          <path id="Trazado_194893-2" data-name="Trazado 194893" d="M35.318,112.355a1.112,1.112,0,1,0-.326.788,1.113,1.113,0,0,0,.326-.788" transform="translate(8.111 -39.138)" fill="#7f4fc7"/>
          <path id="Trazado_194894-2" data-name="Trazado 194894" d="M43.587,112.355a1.112,1.112,0,1,0-.326.788,1.113,1.113,0,0,0,.326-.788" transform="translate(10.139 -39.138)" fill="#7f4fc7"/>
          <path id="Trazado_194895-2" data-name="Trazado 194895" d="M51.863,112.355a1.112,1.112,0,1,0-.326.788,1.113,1.113,0,0,0,.326-.788" transform="translate(12.167 -39.138)" fill="#7f4fc7"/>
          <path id="Trazado_194896-2" data-name="Trazado 194896" d="M60.136,112.355a1.113,1.113,0,1,0-1.113,1.113,1.113,1.113,0,0,0,1.113-1.113" transform="translate(14.194 -39.138)" fill="#7f4fc7"/>
          <path id="Trazado_194897-2" data-name="Trazado 194897" d="M68.409,112.355a1.112,1.112,0,1,0-.326.788,1.113,1.113,0,0,0,.326-.788" transform="translate(16.222 -39.138)" fill="#7f4fc7"/>
          <path id="Trazado_194898-2" data-name="Trazado 194898" d="M2.228,120.627a1.112,1.112,0,1,0-.326.788,1.113,1.113,0,0,0,.326-.788" transform="translate(0 -37.111)" fill="#7f4fc7"/>
          <path id="Trazado_194899-2" data-name="Trazado 194899" d="M10.5,120.627a1.112,1.112,0,1,0-.326.788,1.113,1.113,0,0,0,.326-.788" transform="translate(2.028 -37.111)" fill="#7f4fc7"/>
          <path id="Trazado_194900-2" data-name="Trazado 194900" d="M18.773,120.627a1.112,1.112,0,1,0-.326.788,1.113,1.113,0,0,0,.326-.788" transform="translate(4.056 -37.111)" fill="#7f4fc7"/>
          <path id="Trazado_194901-2" data-name="Trazado 194901" d="M27.046,120.627a1.112,1.112,0,1,0-.326.788,1.113,1.113,0,0,0,.326-.788" transform="translate(6.083 -37.111)" fill="#7f4fc7"/>
          <path id="Trazado_194902-2" data-name="Trazado 194902" d="M35.318,120.627a1.112,1.112,0,1,0-.326.788,1.113,1.113,0,0,0,.326-.788" transform="translate(8.111 -37.111)" fill="#7f4fc7"/>
          <path id="Trazado_194903-2" data-name="Trazado 194903" d="M43.587,120.627a1.112,1.112,0,1,0-.326.788,1.113,1.113,0,0,0,.326-.788" transform="translate(10.139 -37.111)" fill="#7f4fc7"/>
          <path id="Trazado_194904-2" data-name="Trazado 194904" d="M51.863,120.627a1.112,1.112,0,1,0-.326.788,1.113,1.113,0,0,0,.326-.788" transform="translate(12.167 -37.111)" fill="#7f4fc7"/>
          <path id="Trazado_194905-2" data-name="Trazado 194905" d="M60.136,120.627a1.113,1.113,0,1,0-1.113,1.113,1.113,1.113,0,0,0,1.113-1.113" transform="translate(14.194 -37.111)" fill="#7f4fc7"/>
          <path id="Trazado_194906-2" data-name="Trazado 194906" d="M68.409,120.627a1.112,1.112,0,1,0-.326.788,1.113,1.113,0,0,0,.326-.788" transform="translate(16.222 -37.111)" fill="#7f4fc7"/>
        </g>
      </g>
      <g id="Grupo_155254" data-name="Grupo 155254" transform="translate(28.76 316.217)">
        <g id="Grupo_154318" data-name="Grupo 154318">
          <g id="Grupo_154315" data-name="Grupo 154315" transform="translate(32.747 9.551)">
            <path id="Trazado_195058" data-name="Trazado 195058" d="M14.017,225.789H54.543a1.523,1.523,0,0,0,0-3.038H14.017a1.523,1.523,0,1,0,0,3.038" transform="translate(-12.394 -222.747)" fill="#12263f"/>
            <path id="Trazado_195059" data-name="Trazado 195059" d="M83.974,225.789H94.206a1.523,1.523,0,0,0,0-3.038H83.974a1.523,1.523,0,1,0,0,3.038" transform="translate(-35.06 -222.747)" fill="#12263f"/>
            <path id="Trazado_195064" data-name="Trazado 195064" d="M112.811,232.612H84.346a1.067,1.067,0,1,0,0,2.134h28.469a1.067,1.067,0,1,0,0-2.134" transform="translate(-35.33 -225.943)" fill="#12263f"/>
            <path id="Trazado_195065" data-name="Trazado 195065" d="M73.867,232.612H66.681a1.067,1.067,0,1,0,0,2.134h7.186a1.067,1.067,0,1,0,0-2.134" transform="translate(-29.607 -225.943)" fill="#12263f"/>
          </g>
          <g id="Grupo_154316" data-name="Grupo 154316">
            <path id="Trazado_195062" data-name="Trazado 195062" d="M161.607,1.333H113.762c-.991,0-1.793.476-1.793,1.067s.8,1.068,1.793,1.068h47.845c.991,0,1.794-.476,1.794-1.068s-.8-1.067-1.794-1.067" transform="translate(-80.777 -1.333)" fill="#12263f"/>
            <path id="Trazado_195063" data-name="Trazado 195063" d="M115.873,1.333H97.1c-1.541,0-2.787.476-2.787,1.067S95.556,3.467,97.1,3.467h18.777c1.541,0,2.787-.476,2.787-1.068s-1.247-1.067-2.787-1.067" transform="translate(-94.309 -1.333)" fill="#12263f"/>
          </g>
        </g>
      </g>
      <g id="Grupo_154801" data-name="Grupo 154801" transform="translate(0 281.648)">
        <g id="Grupo_154721" data-name="Grupo 154721" clip-path="url(#clip-path-3)">
          <line id="Línea_1878" data-name="Línea 1878" x1="21.605" y2="101.839" transform="translate(61.14 29.463)" fill="none" stroke="#1e0b4a" stroke-linecap="round" stroke-linejoin="round" stroke-width="1.052"/>
          <path id="Trazado_196481" data-name="Trazado 196481" d="M238.009,274.732a8.116,8.116,0,1,1-8.116-8.116,8.116,8.116,0,0,1,8.116,8.116" transform="translate(-147.148 -245.268)" fill="#2bc897"/>
          <path id="Trazado_196482" data-name="Trazado 196482" d="M250.969,334.8c-8.993,25.883-37.317,39.553-37.317,39.553s-13.743-28.29-4.749-54.171,37.317-39.552,37.317-39.552,13.743,28.289,4.749,54.17" transform="translate(-144.709 -243.048)" fill="#12263f"/>
          <path id="Trazado_196483" data-name="Trazado 196483" d="M294.477,324.773c4.17,39.347-24.428,74.631-24.428,74.631s-35.357-28.508-39.526-67.855,24.429-74.631,24.429-74.631,35.356,28.508,39.525,67.855" transform="translate(-213.683 -246.805)" fill="#2bc897"/>
          <path id="Trazado_196484" data-name="Trazado 196484" d="M301.225,323.107A14.827,14.827,0,1,1,286.4,308.28a14.827,14.827,0,0,1,14.827,14.827" transform="translate(-268.053 -238.666)" fill="#12263f"/>
          <line id="Línea_1879" data-name="Línea 1879" x2="14.585" y2="137.648" transform="translate(41.781 14.95)" fill="none" stroke="#1e0b4a" stroke-linecap="round" stroke-linejoin="round" stroke-width="1.052"/>
          <line id="Línea_1880" data-name="Línea 1880" y1="17.929" x2="27.876" transform="translate(50.522 79.509)" fill="none" stroke="#1e0b4a" stroke-linecap="round" stroke-linejoin="round" stroke-width="1.052"/>
          <line id="Línea_1881" data-name="Línea 1881" x1="23.957" y1="12.551" transform="translate(22.858 49.911)" fill="none" stroke="#1e0b4a" stroke-linecap="round" stroke-linejoin="round" stroke-width="1.052"/>
          <line id="Línea_1882" data-name="Línea 1882" x2="26.068" y2="53.467" transform="translate(18.345 84.441)" fill="none" stroke="#1e0b4a" stroke-linecap="round" stroke-linejoin="round" stroke-width="1.052"/>
        </g>
      </g>
      <g id="Grupo_155255" data-name="Grupo 155255" transform="translate(0.001 23.371)">
        <g id="Grupo_154317" data-name="Grupo 154317">
          <g id="Grupo_154315-2" data-name="Grupo 154315" transform="translate(47.652 8.224)">
            <path id="Trazado_195058-2" data-name="Trazado 195058" d="M14.7,227.158H73.5a2.2,2.2,0,1,0,0-4.407H14.7a2.2,2.2,0,1,0,0,4.407" transform="translate(-12.5 -222.751)" fill="#006543"/>
            <path id="Trazado_195059-2" data-name="Trazado 195059" d="M84.665,227.158H99.51a2.2,2.2,0,1,0,0-4.407H84.665a2.2,2.2,0,1,0,0,4.407" transform="translate(-13.851 -222.751)" fill="#006543"/>
            <path id="Trazado_195064-2" data-name="Trazado 195064" d="M126.12,232.612h-41.3a1.548,1.548,0,1,0,0,3.1h41.3a1.548,1.548,0,0,0,0-3.1" transform="translate(-13.866 -222.941)" fill="#006543"/>
            <path id="Trazado_195065-2" data-name="Trazado 195065" d="M77.591,232.612H67.161a1.548,1.548,0,1,0,0,3.1H77.591a1.548,1.548,0,0,0,0-3.1" transform="translate(-13.525 -222.941)" fill="#006543"/>
          </g>
          <g id="Grupo_154316-2" data-name="Grupo 154316">
            <path id="Trazado_195062-2" data-name="Trazado 195062" d="M183.977,1.333h-69.41c-1.437,0-2.6.694-2.6,1.547s1.164,1.548,2.6,1.548h69.408c1.437,0,2.6-.694,2.6-1.548s-1.166-1.547-2.6-1.547" transform="translate(-66.719 -1.333)" fill="#006543"/>
            <path id="Trazado_195063-2" data-name="Trazado 195063" d="M125.591,1.333H98.352c-2.234,0-4.043.694-4.043,1.547s1.808,1.548,4.043,1.548h27.239c2.234,0,4.043-.694,4.043-1.548s-1.808-1.547-4.043-1.547" transform="translate(-94.309 -1.333)" fill="#006543"/>
          </g>
        </g>
      </g>
      <g id="Grupo_155256" data-name="Grupo 155256" transform="translate(199.334 109.836)">
        <rect id="Rectángulo_45220" data-name="Rectángulo 45220" width="106.857" height="25.376" transform="translate(48.291) rotate(90)" fill="#005865"/>
        <rect id="Rectángulo_45221" data-name="Rectángulo 45221" width="3.287" height="3.287" transform="translate(0 23.055) rotate(-90)" fill="#41cee2"/>
        <rect id="Rectángulo_45222" data-name="Rectángulo 45222" width="3.287" height="3.287" transform="translate(0 30.038) rotate(-90)" fill="#41cee2"/>
        <rect id="Rectángulo_45223" data-name="Rectángulo 45223" width="3.287" height="3.287" transform="translate(0 37.022) rotate(-90)" fill="#41cee2"/>
        <rect id="Rectángulo_45224" data-name="Rectángulo 45224" width="3.286" height="3.287" transform="translate(0 44.005) rotate(-90)" fill="#41cee2"/>
        <rect id="Rectángulo_45225" data-name="Rectángulo 45225" width="3.287" height="3.287" transform="translate(0 50.989) rotate(-90)" fill="#41cee2"/>
        <rect id="Rectángulo_45226" data-name="Rectángulo 45226" width="3.286" height="3.287" transform="translate(0 57.972) rotate(-90)" fill="#41cee2"/>
        <rect id="Rectángulo_45227" data-name="Rectángulo 45227" width="3.287" height="3.287" transform="translate(0 64.955) rotate(-90)" fill="#41cee2"/>
        <rect id="Rectángulo_45228" data-name="Rectángulo 45228" width="3.286" height="3.287" transform="translate(0 71.939) rotate(-90)" fill="#41cee2"/>
        <rect id="Rectángulo_45229" data-name="Rectángulo 45229" width="3.287" height="3.287" transform="translate(0 78.923) rotate(-90)" fill="#41cee2"/>
        <rect id="Rectángulo_46135" data-name="Rectángulo 46135" width="3.287" height="3.287" transform="translate(0 99.873) rotate(-90)" fill="#41cee2"/>
        <rect id="Rectángulo_46159" data-name="Rectángulo 46159" width="3.287" height="3.287" transform="translate(0 120.824) rotate(-90)" fill="#41cee2"/>
        <rect id="Rectángulo_45230" data-name="Rectángulo 45230" width="3.287" height="3.287" transform="translate(0 85.906) rotate(-90)" fill="#41cee2"/>
        <rect id="Rectángulo_46125" data-name="Rectángulo 46125" width="3.287" height="3.287" transform="translate(0 106.857) rotate(-90)" fill="#41cee2"/>
        <rect id="Rectángulo_46160" data-name="Rectángulo 46160" width="3.287" height="3.287" transform="translate(0 127.807) rotate(-90)" fill="#41cee2"/>
        <rect id="Rectángulo_46168" data-name="Rectángulo 46168" width="3.287" height="3.287" transform="translate(0 141.773) rotate(-90)" fill="#41cee2"/>
        <rect id="Rectángulo_45231" data-name="Rectángulo 45231" width="3.287" height="3.287" transform="translate(0 92.889) rotate(-90)" fill="#41cee2"/>
        <rect id="Rectángulo_46123" data-name="Rectángulo 46123" width="3.287" height="3.287" transform="translate(0 113.84) rotate(-90)" fill="#41cee2"/>
        <rect id="Rectángulo_46161" data-name="Rectángulo 46161" width="3.287" height="3.287" transform="translate(0 134.79) rotate(-90)" fill="#41cee2"/>
        <rect id="Rectángulo_46162" data-name="Rectángulo 46162" width="3.287" height="3.287" transform="translate(0 148.757) rotate(-90)" fill="#41cee2"/>
        <rect id="Rectángulo_45232" data-name="Rectángulo 45232" width="3.287" height="3.287" transform="translate(6.984 23.055) rotate(-90)" fill="#41cee2"/>
        <rect id="Rectángulo_45233" data-name="Rectángulo 45233" width="3.287" height="3.287" transform="translate(6.984 30.038) rotate(-90)" fill="#41cee2"/>
        <rect id="Rectángulo_45234" data-name="Rectángulo 45234" width="3.287" height="3.287" transform="translate(6.984 37.022) rotate(-90)" fill="#41cee2"/>
        <rect id="Rectángulo_45235" data-name="Rectángulo 45235" width="3.286" height="3.287" transform="translate(6.984 44.005) rotate(-90)" fill="#41cee2"/>
        <rect id="Rectángulo_45236" data-name="Rectángulo 45236" width="3.287" height="3.287" transform="translate(6.984 50.989) rotate(-90)" fill="#41cee2"/>
        <rect id="Rectángulo_45237" data-name="Rectángulo 45237" width="3.286" height="3.287" transform="translate(6.984 57.972) rotate(-90)" fill="#41cee2"/>
        <rect id="Rectángulo_45238" data-name="Rectángulo 45238" width="3.287" height="3.287" transform="translate(6.984 64.955) rotate(-90)" fill="#41cee2"/>
        <rect id="Rectángulo_45239" data-name="Rectángulo 45239" width="3.286" height="3.287" transform="translate(6.984 71.939) rotate(-90)" fill="#41cee2"/>
        <rect id="Rectángulo_45240" data-name="Rectángulo 45240" width="3.287" height="3.287" transform="translate(6.984 78.923) rotate(-90)" fill="#41cee2"/>
        <rect id="Rectángulo_46136" data-name="Rectángulo 46136" width="3.287" height="3.287" transform="translate(6.984 99.873) rotate(-90)" fill="#41cee2"/>
        <rect id="Rectángulo_46156" data-name="Rectángulo 46156" width="3.287" height="3.287" transform="translate(6.984 120.824) rotate(-90)" fill="#41cee2"/>
        <rect id="Rectángulo_45241" data-name="Rectángulo 45241" width="3.287" height="3.287" transform="translate(6.984 85.906) rotate(-90)" fill="#41cee2"/>
        <rect id="Rectángulo_46126" data-name="Rectángulo 46126" width="3.287" height="3.287" transform="translate(6.984 106.857) rotate(-90)" fill="#41cee2"/>
        <rect id="Rectángulo_46157" data-name="Rectángulo 46157" width="3.287" height="3.287" transform="translate(6.984 127.807) rotate(-90)" fill="#41cee2"/>
        <rect id="Rectángulo_46169" data-name="Rectángulo 46169" width="3.287" height="3.287" transform="translate(6.984 141.773) rotate(-90)" fill="#41cee2"/>
        <rect id="Rectángulo_45242" data-name="Rectángulo 45242" width="3.287" height="3.287" transform="translate(6.984 92.889) rotate(-90)" fill="#41cee2"/>
        <rect id="Rectángulo_46124" data-name="Rectángulo 46124" width="3.287" height="3.287" transform="translate(6.984 113.84) rotate(-90)" fill="#41cee2"/>
        <rect id="Rectángulo_46158" data-name="Rectángulo 46158" width="3.287" height="3.287" transform="translate(6.984 134.79) rotate(-90)" fill="#41cee2"/>
        <rect id="Rectángulo_46163" data-name="Rectángulo 46163" width="3.287" height="3.287" transform="translate(6.984 148.757) rotate(-90)" fill="#41cee2"/>
        <rect id="Rectángulo_45243" data-name="Rectángulo 45243" width="3.287" height="3.287" transform="translate(12.856 23.055) rotate(-90)" fill="#41cee2"/>
        <rect id="Rectángulo_45244" data-name="Rectángulo 45244" width="3.287" height="3.287" transform="translate(12.856 30.038) rotate(-90)" fill="#41cee2"/>
        <rect id="Rectángulo_45245" data-name="Rectángulo 45245" width="3.287" height="3.287" transform="translate(12.856 37.022) rotate(-90)" fill="#41cee2"/>
        <rect id="Rectángulo_45246" data-name="Rectángulo 45246" width="3.286" height="3.287" transform="translate(12.856 44.005) rotate(-90)" fill="#41cee2"/>
        <rect id="Rectángulo_45247" data-name="Rectángulo 45247" width="3.287" height="3.287" transform="translate(12.856 50.989) rotate(-90)" fill="#41cee2"/>
        <rect id="Rectángulo_45248" data-name="Rectángulo 45248" width="3.286" height="3.287" transform="translate(12.856 57.972) rotate(-90)" fill="#41cee2"/>
        <rect id="Rectángulo_45249" data-name="Rectángulo 45249" width="3.287" height="3.287" transform="translate(12.856 64.955) rotate(-90)" fill="#41cee2"/>
        <rect id="Rectángulo_45250" data-name="Rectángulo 45250" width="3.286" height="3.287" transform="translate(12.856 71.939) rotate(-90)" fill="#41cee2"/>
        <rect id="Rectángulo_45251" data-name="Rectángulo 45251" width="3.287" height="3.287" transform="translate(12.856 78.923) rotate(-90)" fill="#41cee2"/>
        <rect id="Rectángulo_46137" data-name="Rectángulo 46137" width="3.287" height="3.287" transform="translate(12.856 99.873) rotate(-90)" fill="#41cee2"/>
        <rect id="Rectángulo_46146" data-name="Rectángulo 46146" width="3.287" height="3.287" transform="translate(12.856 120.824) rotate(-90)" fill="#41cee2"/>
        <rect id="Rectángulo_45252" data-name="Rectángulo 45252" width="3.287" height="3.287" transform="translate(12.856 85.906) rotate(-90)" fill="#41cee2"/>
        <rect id="Rectángulo_46127" data-name="Rectángulo 46127" width="3.287" height="3.287" transform="translate(12.856 106.857) rotate(-90)" fill="#41cee2"/>
        <rect id="Rectángulo_46147" data-name="Rectángulo 46147" width="3.287" height="3.287" transform="translate(12.856 127.807) rotate(-90)" fill="#41cee2"/>
        <rect id="Rectángulo_46170" data-name="Rectángulo 46170" width="3.287" height="3.287" transform="translate(12.856 141.773) rotate(-90)" fill="#41cee2"/>
        <rect id="Rectángulo_45253" data-name="Rectángulo 45253" width="3.287" height="3.287" transform="translate(12.856 92.889) rotate(-90)" fill="#41cee2"/>
        <rect id="Rectángulo_46128" data-name="Rectángulo 46128" width="3.287" height="3.287" transform="translate(12.856 113.84) rotate(-90)" fill="#41cee2"/>
        <rect id="Rectángulo_46148" data-name="Rectángulo 46148" width="3.287" height="3.287" transform="translate(12.856 134.79) rotate(-90)" fill="#41cee2"/>
        <rect id="Rectángulo_46164" data-name="Rectángulo 46164" width="3.287" height="3.287" transform="translate(12.856 148.757) rotate(-90)" fill="#41cee2"/>
        <rect id="Rectángulo_45221-2" data-name="Rectángulo 45221" width="3.287" height="3.287" transform="translate(18.747 23.055) rotate(-90)" fill="#41cee2"/>
        <rect id="Rectángulo_45222-2" data-name="Rectángulo 45222" width="3.287" height="3.287" transform="translate(18.747 30.038) rotate(-90)" fill="#41cee2"/>
        <rect id="Rectángulo_45223-2" data-name="Rectángulo 45223" width="3.287" height="3.287" transform="translate(18.747 37.022) rotate(-90)" fill="#41cee2"/>
        <rect id="Rectángulo_45224-2" data-name="Rectángulo 45224" width="3.286" height="3.287" transform="translate(18.747 44.005) rotate(-90)" fill="#41cee2"/>
        <rect id="Rectángulo_45225-2" data-name="Rectángulo 45225" width="3.287" height="3.287" transform="translate(18.747 50.989) rotate(-90)" fill="#41cee2"/>
        <rect id="Rectángulo_45226-2" data-name="Rectángulo 45226" width="3.286" height="3.287" transform="translate(18.747 57.972) rotate(-90)" fill="#41cee2"/>
        <rect id="Rectángulo_45227-2" data-name="Rectángulo 45227" width="3.287" height="3.287" transform="translate(18.747 64.955) rotate(-90)" fill="#41cee2"/>
        <rect id="Rectángulo_45228-2" data-name="Rectángulo 45228" width="3.286" height="3.287" transform="translate(18.747 71.939) rotate(-90)" fill="#41cee2"/>
        <rect id="Rectángulo_45229-2" data-name="Rectángulo 45229" width="3.287" height="3.287" transform="translate(18.747 78.923) rotate(-90)" fill="#41cee2"/>
        <rect id="Rectángulo_46138" data-name="Rectángulo 46138" width="3.287" height="3.287" transform="translate(18.747 99.873) rotate(-90)" fill="#41cee2"/>
        <rect id="Rectángulo_46149" data-name="Rectángulo 46149" width="3.287" height="3.287" transform="translate(18.747 120.824) rotate(-90)" fill="#41cee2"/>
        <rect id="Rectángulo_45230-2" data-name="Rectángulo 45230" width="3.287" height="3.287" transform="translate(18.747 85.906) rotate(-90)" fill="#41cee2"/>
        <rect id="Rectángulo_46129" data-name="Rectángulo 46129" width="3.287" height="3.287" transform="translate(18.747 106.857) rotate(-90)" fill="#41cee2"/>
        <rect id="Rectángulo_46150" data-name="Rectángulo 46150" width="3.287" height="3.287" transform="translate(18.747 127.807) rotate(-90)" fill="#41cee2"/>
        <rect id="Rectángulo_46171" data-name="Rectángulo 46171" width="3.287" height="3.287" transform="translate(18.747 141.773) rotate(-90)" fill="#41cee2"/>
        <rect id="Rectángulo_45231-2" data-name="Rectángulo 45231" width="3.287" height="3.287" transform="translate(18.747 92.889) rotate(-90)" fill="#41cee2"/>
        <rect id="Rectángulo_46130" data-name="Rectángulo 46130" width="3.287" height="3.287" transform="translate(18.747 113.84) rotate(-90)" fill="#41cee2"/>
        <rect id="Rectángulo_46151" data-name="Rectángulo 46151" width="3.287" height="3.287" transform="translate(18.747 134.79) rotate(-90)" fill="#41cee2"/>
        <rect id="Rectángulo_46165" data-name="Rectángulo 46165" width="3.287" height="3.287" transform="translate(18.747 148.757) rotate(-90)" fill="#41cee2"/>
        <rect id="Rectángulo_45232-2" data-name="Rectángulo 45232" width="3.287" height="3.287" transform="translate(25.175 23.055) rotate(-90)" fill="#41cee2"/>
        <rect id="Rectángulo_45233-2" data-name="Rectángulo 45233" width="3.287" height="3.287" transform="translate(25.175 30.038) rotate(-90)" fill="#41cee2"/>
        <rect id="Rectángulo_45234-2" data-name="Rectángulo 45234" width="3.287" height="3.287" transform="translate(25.175 37.022) rotate(-90)" fill="#41cee2"/>
        <rect id="Rectángulo_45235-2" data-name="Rectángulo 45235" width="3.286" height="3.287" transform="translate(25.175 44.005) rotate(-90)" fill="#41cee2"/>
        <rect id="Rectángulo_45236-2" data-name="Rectángulo 45236" width="3.287" height="3.287" transform="translate(25.175 50.989) rotate(-90)" fill="#41cee2"/>
        <rect id="Rectángulo_45237-2" data-name="Rectángulo 45237" width="3.286" height="3.287" transform="translate(25.175 57.972) rotate(-90)" fill="#41cee2"/>
        <rect id="Rectángulo_45238-2" data-name="Rectángulo 45238" width="3.287" height="3.287" transform="translate(25.175 64.955) rotate(-90)" fill="#41cee2"/>
        <rect id="Rectángulo_45239-2" data-name="Rectángulo 45239" width="3.286" height="3.287" transform="translate(25.175 71.939) rotate(-90)" fill="#41cee2"/>
        <rect id="Rectángulo_45240-2" data-name="Rectángulo 45240" width="3.287" height="3.287" transform="translate(25.175 78.923) rotate(-90)" fill="#41cee2"/>
        <rect id="Rectángulo_46139" data-name="Rectángulo 46139" width="3.287" height="3.287" transform="translate(25.175 99.873) rotate(-90)" fill="#41cee2"/>
        <rect id="Rectángulo_46152" data-name="Rectángulo 46152" width="3.287" height="3.287" transform="translate(25.175 120.824) rotate(-90)" fill="#41cee2"/>
        <rect id="Rectángulo_45241-2" data-name="Rectángulo 45241" width="3.287" height="3.287" transform="translate(25.175 85.906) rotate(-90)" fill="#41cee2"/>
        <rect id="Rectángulo_46131" data-name="Rectángulo 46131" width="3.287" height="3.287" transform="translate(25.175 106.857) rotate(-90)" fill="#41cee2"/>
        <rect id="Rectángulo_46153" data-name="Rectángulo 46153" width="3.287" height="3.287" transform="translate(25.175 127.807) rotate(-90)" fill="#41cee2"/>
        <rect id="Rectángulo_46172" data-name="Rectángulo 46172" width="3.287" height="3.287" transform="translate(25.175 141.773) rotate(-90)" fill="#41cee2"/>
        <rect id="Rectángulo_45242-2" data-name="Rectángulo 45242" width="3.287" height="3.287" transform="translate(25.175 92.889) rotate(-90)" fill="#41cee2"/>
        <rect id="Rectángulo_46132" data-name="Rectángulo 46132" width="3.287" height="3.287" transform="translate(25.175 113.84) rotate(-90)" fill="#41cee2"/>
        <rect id="Rectángulo_46154" data-name="Rectángulo 46154" width="3.287" height="3.287" transform="translate(25.175 134.79) rotate(-90)" fill="#41cee2"/>
        <rect id="Rectángulo_46166" data-name="Rectángulo 46166" width="3.287" height="3.287" transform="translate(25.175 148.757) rotate(-90)" fill="#41cee2"/>
        <rect id="Rectángulo_45243-2" data-name="Rectángulo 45243" width="3.287" height="3.287" transform="translate(31.603 23.055) rotate(-90)" fill="#41cee2"/>
        <rect id="Rectángulo_45244-2" data-name="Rectángulo 45244" width="3.287" height="3.287" transform="translate(31.603 30.038) rotate(-90)" fill="#41cee2"/>
        <rect id="Rectángulo_45245-2" data-name="Rectángulo 45245" width="3.287" height="3.287" transform="translate(31.603 37.022) rotate(-90)" fill="#41cee2"/>
        <rect id="Rectángulo_45246-2" data-name="Rectángulo 45246" width="3.286" height="3.287" transform="translate(31.603 44.005) rotate(-90)" fill="#41cee2"/>
        <rect id="Rectángulo_45247-2" data-name="Rectángulo 45247" width="3.287" height="3.287" transform="translate(31.603 50.989) rotate(-90)" fill="#41cee2"/>
        <rect id="Rectángulo_45248-2" data-name="Rectángulo 45248" width="3.286" height="3.287" transform="translate(31.603 57.972) rotate(-90)" fill="#41cee2"/>
        <rect id="Rectángulo_45249-2" data-name="Rectángulo 45249" width="3.287" height="3.287" transform="translate(31.603 64.955) rotate(-90)" fill="#41cee2"/>
        <rect id="Rectángulo_45250-2" data-name="Rectángulo 45250" width="3.286" height="3.287" transform="translate(31.603 71.939) rotate(-90)" fill="#41cee2"/>
        <rect id="Rectángulo_45251-2" data-name="Rectángulo 45251" width="3.287" height="3.287" transform="translate(31.603 78.923) rotate(-90)" fill="#41cee2"/>
        <rect id="Rectángulo_46140" data-name="Rectángulo 46140" width="3.287" height="3.287" transform="translate(31.603 99.873) rotate(-90)" fill="#41cee2"/>
        <rect id="Rectángulo_46144" data-name="Rectángulo 46144" width="3.287" height="3.287" transform="translate(31.603 120.824) rotate(-90)" fill="#41cee2"/>
        <rect id="Rectángulo_45252-2" data-name="Rectángulo 45252" width="3.287" height="3.287" transform="translate(31.603 85.906) rotate(-90)" fill="#41cee2"/>
        <rect id="Rectángulo_46133" data-name="Rectángulo 46133" width="3.287" height="3.287" transform="translate(31.603 106.857) rotate(-90)" fill="#41cee2"/>
        <rect id="Rectángulo_46145" data-name="Rectángulo 46145" width="3.287" height="3.287" transform="translate(31.603 127.807) rotate(-90)" fill="#41cee2"/>
        <rect id="Rectángulo_46173" data-name="Rectángulo 46173" width="3.287" height="3.287" transform="translate(31.603 141.773) rotate(-90)" fill="#41cee2"/>
        <rect id="Rectángulo_45253-2" data-name="Rectángulo 45253" width="3.287" height="3.287" transform="translate(31.603 92.889) rotate(-90)" fill="#41cee2"/>
        <rect id="Rectángulo_46134" data-name="Rectángulo 46134" width="3.287" height="3.287" transform="translate(31.603 113.84) rotate(-90)" fill="#41cee2"/>
        <rect id="Rectángulo_46155" data-name="Rectángulo 46155" width="3.287" height="3.287" transform="translate(31.603 134.79) rotate(-90)" fill="#41cee2"/>
        <rect id="Rectángulo_46167" data-name="Rectángulo 46167" width="3.287" height="3.287" transform="translate(31.603 148.757) rotate(-90)" fill="#41cee2"/>
      </g>
    </g>
    <g id="Group_1112342" data-name="Group 1112342" transform="translate(5.074 2.433)">
      <g id="Group_1112341" data-name="Group 1112341" clip-path="url(#clip-path-4)">
        <g id="Group_1112340" data-name="Group 1112340" transform="translate(0 0)">
          <g id="Group_1112339" data-name="Group 1112339" clip-path="url(#clip-path-4)">
            <path id="Path_887300" data-name="Path 887300" d="M385.19,18.071S377.07,14.1,369.56,16.239a10.617,10.617,0,0,0-7.641,9.666l-.235,4.416,23.249-8.5s3.5,1.892,3.244,1.36-2.987-5.112-2.987-5.112" transform="translate(-240.276 -10.367)" fill="#fe9f73"/>
            <path id="Path_887301" data-name="Path 887301" d="M360.469,33.147l-.99,18.624s-.631,6.639,5.147,7.78l-1.559,8.82a6.939,6.939,0,0,0,4.342,7.715,18.2,18.2,0,0,0,5.453,1.141c6.654.354,10.524-4.445,11.211-6.911s-.342-14.476-.342-14.476l.514-5.848.449-22.739Z" transform="translate(-238.797 -18.106)" fill="#fe9f73"/>
            <path id="Path_887302" data-name="Path 887302" d="M394.756,67.862a.278.278,0,0,0,.225-.459c-.036-.042-3.642-4.145-7.276-1.523a.278.278,0,1,0,.325.45c3.22-2.323,6.4,1.281,6.531,1.435a.277.277,0,0,0,.2.1" transform="translate(-257.486 -43.185)" fill="#21111d"/>
            <path id="Path_887303" data-name="Path 887303" d="M366.682,62.7a.278.278,0,0,0,.208-.477c-.107-.1-2.631-2.5-4.379-1.16a.277.277,0,1,0,.338.44c1.37-1.053,3.633,1.1,3.655,1.12a.275.275,0,0,0,.178.077" transform="translate(-240.753 -40.295)" fill="#21111d"/>
            <path id="Path_887304" data-name="Path 887304" d="M392.056,74.4a.833.833,0,1,0,.876-.787.833.833,0,0,0-.876.787" transform="translate(-260.452 -48.904)"/>
            <path id="Path_887305" data-name="Path 887305" d="M365.849,70.525a.833.833,0,1,0,.876-.787.833.833,0,0,0-.876.787" transform="translate(-243.042 -46.328)"/>
            <path id="Path_887306" data-name="Path 887306" d="M426.064,22.085s7.061.036,8.52,6.292-1.759,9.352-1.918,11.185.428,14.284-8.217,12.9l-1.26-20.58,3.459-7.983Z" transform="translate(-281.135 -14.672)" fill="#21111d"/>
            <path id="Path_887307" data-name="Path 887307" d="M412.554,66.826A5,5,0,1,0,417.81,62.1a5,5,0,0,0-5.256,4.725" transform="translate(-274.065 -41.251)" fill="#fe9f73"/>
            <path id="Path_887308" data-name="Path 887308" d="M424.462,75.26a2.083,2.083,0,0,0,2.04-1.454,1.956,1.956,0,0,0-.666-2.322,2.348,2.348,0,0,0-2.625-.048,2.252,2.252,0,0,1,1.073-1.175,3.135,3.135,0,0,1,2.222-.026.139.139,0,0,0,.1-.258,3.366,3.366,0,0,0-2.443.033,2.7,2.7,0,0,0-1.37,1.75l-.146.476.372-.332a2.175,2.175,0,0,1,2.657-.193,1.7,1.7,0,0,1,.563,2,1.79,1.79,0,0,1-1.762,1.269l-.029,0a.139.139,0,0,0-.016.277l.029,0" transform="translate(-280.776 -46.341)" fill="#f07162"/>
            <path id="Path_887309" data-name="Path 887309" d="M386.376,108.768s-.983,11.117-14.949,11.44l1.15-6.505s8.925,2.292,13.8-4.935" transform="translate(-246.748 -72.258)" fill="#f07162"/>
            <path id="Path_887310" data-name="Path 887310" d="M376.515,76.4a.139.139,0,0,0,.058-.268l-2.73-1.067,1.226-6.493a.139.139,0,0,0-.111-.162.137.137,0,0,0-.162.111l-1.268,6.72,2.945,1.15a.13.13,0,0,0,.043.009" transform="translate(-248.143 -45.442)" fill="#f07162"/>
            <path id="Path_887311" data-name="Path 887311" d="M425.578,98.382l-.468-9.439-2.344.134-.5,9.4Z" transform="translate(-280.522 -59.087)" fill="#fe9f73"/>
            <path id="Path_887312" data-name="Path 887312" d="M423.616,21.1s1.426,3.983-1.6,10.339,7-2.058,7-2.058-.157-9.547-5.4-8.281" transform="translate(-279.98 -13.939)" fill="#21111d"/>
            <path id="Path_887313" data-name="Path 887313" d="M378.985,17.5s-21.127-2.382-22.169-7.417,3.949-4.9,3.949-4.9S360.206-1.924,366.5.507s18.166,2.788,21.186,8.9-8.7,8.092-8.7,8.092" transform="translate(-236.946 -0.001)" fill="#21111d"/>
            <path id="Path_887314" data-name="Path 887314" d="M418.563,49.89l-1.119,3.82-.861-1.2s-1.516-5.649-.124-8.251,6.2,1.5,6.2,1.5Z" transform="translate(-276.273 -28.825)" fill="#21111d"/>
            <path id="Path_887315" data-name="Path 887315" d="M371.129,98.181c.09-.018,5.824-.212,5.824-.212s-.7,2.379-2.826,2.457-3-2.245-3-2.245" transform="translate(-246.55 -65.084)" fill="#fbfdfc"/>
            <path id="Path_887316" data-name="Path 887316" d="M449.654,1184.386l22.633.311.324-21.345-22.544-2.817Z" transform="translate(-298.717 -770.973)" fill="#fe9f73"/>
            <path id="Path_887317" data-name="Path 887317" d="M297.041,1184.386l22.633.311.325-21.345-22.544-2.817Z" transform="translate(-197.332 -770.973)" fill="#fe9f73"/>
            <path id="Path_887318" data-name="Path 887318" d="M270.386,590.788c3.457,4.443,4.352.063,4.352.063,2.1,2.194,3.169,1.779,3.694,1.052a2.08,2.08,0,0,0,.266-1.851c-.635-1.985-2.593-8.037-4.041-11.751.339-2.557,4.617-1.474,6.765-.19,1.106.662,2.992.818,1.26-2.085-1.414-2.372-6.32-6.105-6.32-6.105l2.249-14.226-19.849.928s-.769,16.349-.9,18.812,2.17,10.876,4.186,13.5c3.656,4.758,4.03,1.928,4.03,1.928,4.261,4.586,4.31-.075,4.31-.075" transform="translate(-171.299 -369.164)" fill="#fe9f73"/>
            <path id="Path_887319" data-name="Path 887319" d="M299.394,643.851a.3.3,0,0,1,.577-.1,36.508,36.508,0,0,0,2.618,5.312.3.3,0,0,1-.509.3,36.368,36.368,0,0,1-2.67-5.424.3.3,0,0,1-.016-.091" transform="translate(-198.895 -427.527)" fill="#f07162"/>
            <path id="Path_887320" data-name="Path 887320" d="M288.209,644.046a.3.3,0,0,1,.587-.064,18.4,18.4,0,0,0,2.009,5.144.3.3,0,0,1-.507.308,18.66,18.66,0,0,1-2.084-5.334.326.326,0,0,1-.006-.054" transform="translate(-191.464 -427.656)" fill="#f07162"/>
            <path id="Path_887321" data-name="Path 887321" d="M275.489,646.229a.3.3,0,0,1,.585-.073,15.835,15.835,0,0,0,1.964,4.484.3.3,0,1,1-.493.329,16.181,16.181,0,0,1-2.048-4.678.289.289,0,0,1-.008-.063" transform="translate(-183.014 -429.107)" fill="#f07162"/>
            <path id="Path_887322" data-name="Path 887322" d="M255.1,576.733l.353,6.917s3.607,2.41,10.238,2.229l-1.667-9.146Z" transform="translate(-169.469 -383.139)" fill="#7fc6a6"/>
            <path id="Path_887323" data-name="Path 887323" d="M321.89,473.619s-3,141.582-13.338,223.294c0,0-13.768,4.332-31.077-3.764l-.735-208.676-2.5-31.263Z" transform="translate(-182.185 -301.079)" fill="#33192c"/>
            <path id="Path_887324" data-name="Path 887324" d="M402.516,456.187S408.569,595.758,401.8,678c0,0-12.861,8.1-30.5,1.09L349.97,478.564l-9.056-53.654Z" transform="translate(-226.478 -282.279)" fill="#49263e"/>
            <path id="Path_887325" data-name="Path 887325" d="M443.524,811.271a44.8,44.8,0,0,0,17.673-3.825l.215-.105.043-.235c5.8-31.37,2.1-185.961,2.059-187.519a.476.476,0,0,0-.476-.465h-.012a.477.477,0,0,0-.465.488c.038,1.553,3.716,155.26-2,187.081-1.931.878-16.479,7.07-29.878.984a.476.476,0,0,0-.394.867,31.818,31.818,0,0,0,13.234,2.73" transform="translate(-285.667 -411.298)"/>
            <path id="Path_887326" data-name="Path 887326" d="M302.645,776.371a46.78,46.78,0,0,0,10.013-1.075.476.476,0,1,0-.2-.93,48.073,48.073,0,0,1-30.5-3.587l-.733-196.321c0-.263-.477-.825-.477-1.088,0-6.8,0,.613,0,.613a.476.476,0,0,0-.475.478L281,771.348l.243.136a48.362,48.362,0,0,0,21.4,4.887" transform="translate(-186.188 -378.998)"/>
            <path id="Path_887327" data-name="Path 887327" d="M256.4,156.557s-11.294,4.609-13.176,13.548-11.97,53.114-8.582,63.737L256.4,297.6Z" transform="translate(-155.417 -104.005)" fill="#fff"/>
            <path id="Path_887328" data-name="Path 887328" d="M370.035,209.952l-7.517,85.094s-44.638,9.837-79.287-8.352c0,0,5.541-132.046,6.632-137.4,1.285-6.3,35.844-6.818,50.268-5.273,0,0,22.348-.56,34.3,6.038Z" transform="translate(-188.157 -95.191)" fill="#7fc6a6"/>
            <path id="Path_887329" data-name="Path 887329" d="M460.657,185.145V390.152s-28.518,4.808-42.353,0c0,0,.083-242.772,5.73-246.862.7.015,14.91.253,25.06,1.358s11.562,40.5,11.562,40.5" transform="translate(-277.89 -95.191)" fill="#fff"/>
            <path id="Path_887330" data-name="Path 887330" d="M297.9,143.29s-3.8,229.515-6.625,247.047a115.153,115.153,0,0,1-28.345-4.728s5.852-233.139,9.642-236.424,25.328-5.9,25.328-5.9" transform="translate(-174.669 -95.191)" fill="#fff"/>
            <path id="Path_887331" data-name="Path 887331" d="M388.541,143.559s-17.919-.422-20.924.141c0,0,2.36,7.058,2.748,7.34s11.993,2.647,11.993,2.647,3.96-2.329,4.136-3.123,2.047-7.006,2.047-7.006" transform="translate(-244.217 -95.27)" fill="#7fc6a6"/>
            <path id="Path_887332" data-name="Path 887332" d="M543.532,343.052a.477.477,0,0,0,.477-.476V320.046a.476.476,0,0,0-.953,0v22.529a.476.476,0,0,0,.476.476" transform="translate(-360.766 -212.299)"/>
            <path id="Path_887333" data-name="Path 887333" d="M418.321,350.695h0a.473.473,0,0,0,.475-.471c-.235-96.851,2.455-130.51,2.482-130.839a.471.471,0,0,0-.436-.506.482.482,0,0,0-.513.43c-.028.329-2.721,34.014-2.485,130.918a.473.473,0,0,0,.476.468" transform="translate(-277.575 -145.407)"/>
            <path id="Path_887334" data-name="Path 887334" d="M271.033,325.663h.01a.468.468,0,0,0,.466-.47c-.93-41.573,6.638-131.471,6.714-132.375a.476.476,0,0,0-.949-.075c-.077.9-7.648,90.85-6.718,132.47a.468.468,0,0,0,.476.45" transform="translate(-179.685 -127.764)"/>
            <path id="Path_887335" data-name="Path 887335" d="M305.654,170.057a.477.477,0,0,0,.476-.466l.629-27.84-.526.041c-.97.076-23.833,1.948-30.584,9.8a.476.476,0,1,0,.722.622c5.948-6.916,25.907-9.091,29.411-9.423l-.606,26.78a.478.478,0,0,0,.466.487Z" transform="translate(-183.044 -94.17)"/>
            <path id="Path_887336" data-name="Path 887336" d="M522.75,169.1a.323.323,0,0,1-.259-.129,18.99,18.99,0,0,0-8.282-5.877.323.323,0,0,1,.2-.616,19.282,19.282,0,0,1,8.6,6.1.324.324,0,0,1-.258.518" transform="translate(-341.453 -107.929)" fill="#21111d"/>
            <path id="Path_887337" data-name="Path 887337" d="M520.934,178.024a.322.322,0,0,1-.259-.129,18.983,18.983,0,0,0-8.282-5.877.324.324,0,0,1,.2-.616,19.282,19.282,0,0,1,8.6,6.1.324.324,0,0,1-.258.518" transform="translate(-340.247 -113.857)" fill="#21111d"/>
            <path id="Path_887338" data-name="Path 887338" d="M498.159,1075.434a.476.476,0,0,0,.476-.47l.836-55.991a.477.477,0,0,0-.47-.483h-.007a.476.476,0,0,0-.476.47l-.836,55.991a.476.476,0,0,0,.47.483Z" transform="translate(-330.623 -676.609)"/>
            <path id="Path_887339" data-name="Path 887339" d="M344.274,1073.984a.477.477,0,0,0,.475-.449l3.138-54.544a.477.477,0,0,0-.448-.5.468.468,0,0,0-.5.448L343.8,1073.48a.477.477,0,0,0,.448.5h.028" transform="translate(-228.393 -676.606)"/>
            <path id="Path_887340" data-name="Path 887340" d="M424.376,1223.067H404.829l-7.925-8.856-14.5,8.856h-3.122a2.292,2.292,0,0,0-2.265,1.83,2.269,2.269,0,0,0,2.183,2.734h45.451a.613.613,0,0,0,.6-.62v-3.038a.9.9,0,0,0-.883-.906" transform="translate(-250.437 -806.631)" fill="#fec786"/>
            <path id="Path_887341" data-name="Path 887341" d="M428.709,1217.681v-8.231s-3.292-4.546-8.3-2.226c0,0-7.581,5.517-14.265-1.159l-16.6,7.552s-4.55,1.56-5.783,4.064Z" transform="translate(-254.942 -801.22)" fill="#7fc6a6"/>
            <rect id="Rectangle_406707" data-name="Rectangle 406707" width="0.333" height="8.19" transform="translate(173.601 408.23)"/>
            <path id="Path_887342" data-name="Path 887342" d="M470.644,1211.556a7.669,7.669,0,0,1-1.031-.058l.049-.337a11.547,11.547,0,0,0,7.682-2.061l.189.281a12.056,12.056,0,0,1-6.889,2.175" transform="translate(-311.976 -803.236)"/>
            <path id="Path_887343" data-name="Path 887343" d="M505.263,1232.627l-.186-.283,2.12-1.467.186.283Z" transform="translate(-335.535 -817.703)"/>
            <path id="Path_887344" data-name="Path 887344" d="M500.734,1231.393l-.186-.283,2.12-1.466.186.283Z" transform="translate(-332.527 -816.884)"/>
            <path id="Path_887345" data-name="Path 887345" d="M377.329,1244.454a2.475,2.475,0,0,1-.845-1.87,2.425,2.425,0,0,1,2.391-2.453h44.941a1.3,1.3,0,0,1,1.282,1.315v2.276h-.333v-2.276a.963.963,0,0,0-.949-.974H378.875a2.088,2.088,0,0,0-2.058,2.111,2.132,2.132,0,0,0,.727,1.611Z" transform="translate(-250.108 -823.851)"/>
            <path id="Path_887346" data-name="Path 887346" d="M383.46,1217.436l-.3-.146c.037-.081.948-1.995,4.345-3.481,3.338-1.46,18.021-8.141,18.169-8.208l.135.312c-.148.068-14.833,6.749-18.173,8.21-3.269,1.43-4.166,3.294-4.174,3.313" transform="translate(-254.542 -800.911)"/>
            <path id="Path_887347" data-name="Path 887347" d="M164.854,443.076l37.668-74.268a14.175,14.175,0,0,0-6.23-19.054L58.575,279.905a14.175,14.175,0,0,0-19.054,6.23L1.853,360.4a14.176,14.176,0,0,0,6.23,19.054L145.8,449.306a14.175,14.175,0,0,0,19.054-6.23" transform="translate(-0.211 -184.928)" fill="#fdeacf"/>
            <path id="Path_887348" data-name="Path 887348" d="M1.452,452.47l18.3-36.079,163,82.672-18.3,36.078A13.963,13.963,0,0,1,145.6,541L7.861,471.143A13.963,13.963,0,0,1,1.452,452.47" transform="translate(0 -276.619)" fill="#fecc86"/>
            <path id="Path_887349" data-name="Path 887349" d="M161.414,347.545a14.233,14.233,0,0,0-10.089-16.42c-.378-.107-.762-.2-1.154-.277s-.783-.135-1.174-.178a14.232,14.232,0,0,0-5.434,27.841c.378.107.761.2,1.154.277s.783.135,1.174.178a14.232,14.232,0,0,0,15.522-11.421" transform="translate(-88.494 -219.615)" fill="#dcf4ff"/>
            <g id="Group_1112317" data-name="Group 1112317" transform="translate(56.224 111.233)" style="mix-blend-mode: multiply;isolation: isolate">
              <g id="Group_1112316" data-name="Group 1112316">
                <g id="Group_1112315" data-name="Group 1112315" clip-path="url(#clip-path-6)">
                  <path id="Path_887350" data-name="Path 887350" d="M167.5,359.312l5.453-27.939a14.233,14.233,0,1,1-5.453,27.939" transform="translate(-167.496 -331.373)" fill="#dcf4ff"/>
                </g>
              </g>
            </g>
            <path id="Path_887351" data-name="Path 887351" d="M166.384,359.138l5.434-27.84c-.378-.107-.762-.2-1.155-.277s-.783-.135-1.174-.178l-5.434,27.84c.378.107.762.2,1.154.277s.783.135,1.174.178" transform="translate(-108.987 -219.788)" fill="#83d0e5"/>
            <path id="Path_887352" data-name="Path 887352" d="M144.407,358.643l.057-.291c-.375-.073-.759-.165-1.142-.274a14.084,14.084,0,0,1,5.377-27.551c.4.044.786.1,1.162.176s.759.165,1.142.274l.081-.285c-.392-.111-.784-.2-1.167-.28s-.782-.135-1.186-.18a14.381,14.381,0,0,0-5.49,28.131c.391.111.784.2,1.166.28" transform="translate(-88.211 -219.325)"/>
            <rect id="Rectangle_406709" data-name="Rectangle 406709" width="15.142" height="0.297" transform="translate(58.252 134.201) rotate(-78.956)"/>
            <rect id="Rectangle_406710" data-name="Rectangle 406710" width="23.015" height="0.297" transform="translate(55.343 136.719) rotate(-78.956)"/>
            <path id="Path_887353" data-name="Path 887353" d="M203.882,378.963a15.063,15.063,0,0,0,1.594-6.833h-.3a14.1,14.1,0,0,1-6.261,12l.146.258a13.832,13.832,0,0,0,4.818-5.426" transform="translate(-132.146 -247.214)"/>
            <path id="Path_887354" data-name="Path 887354" d="M83.746,499.758a14.232,14.232,0,0,0-11.711-15.3c-.387-.068-.778-.121-1.177-.158s-.793-.054-1.186-.057a14.232,14.232,0,0,0-2.566,28.249c.387.068.778.121,1.177.157s.793.054,1.186.057a14.233,14.233,0,0,0,14.277-12.945" transform="translate(-36.761 -321.691)" fill="#dcf4ff"/>
            <g id="Group_1112320" data-name="Group 1112320" transform="translate(31.522 162.604)" style="mix-blend-mode: multiply;isolation: isolate">
              <g id="Group_1112319" data-name="Group 1112319">
                <g id="Group_1112318" data-name="Group 1112318" clip-path="url(#clip-path-7)">
                  <path id="Path_887355" data-name="Path 887355" d="M93.906,512.759l2.575-28.35a14.233,14.233,0,0,1-2.575,28.35" transform="translate(-93.906 -484.409)" fill="#dcf4ff"/>
                </g>
              </g>
            </g>
            <path id="Path_887356" data-name="Path 887356" d="M92.762,512.7l2.566-28.249c-.387-.068-.778-.121-1.177-.157s-.793-.054-1.186-.057L90.4,512.488c.387.068.778.121,1.177.157s.793.054,1.186.057" transform="translate(-60.055 -321.692)" fill="#83d0e5"/>
            <path id="Path_887357" data-name="Path 887357" d="M67.98,512.5l.027-.3c-.385-.035-.766-.086-1.164-.156a14.084,14.084,0,0,1,2.539-27.955c.4,0,.793.022,1.174.056s.766.086,1.165.156l.051-.292c-.4-.07-.8-.124-1.189-.159s-.792-.054-1.2-.057a14.381,14.381,0,0,0-2.592,28.544c.4.07.8.124,1.189.159" transform="translate(-36.471 -321.398)"/>
            <rect id="Rectangle_406712" data-name="Rectangle 406712" width="15.142" height="0.297" transform="matrix(0.09, -0.996, 0.996, 0.09, 33.032, 185.801)"/>
            <rect id="Rectangle_406713" data-name="Rectangle 406713" width="23.015" height="0.296" transform="translate(30.395 188.602) rotate(-84.81)"/>
            <path id="Path_887358" data-name="Path 887358" d="M128.293,529.719a14.856,14.856,0,0,0,1.486-8.3l-.3.029a14.116,14.116,0,0,1-5,12.578l.172.242a13.483,13.483,0,0,0,3.642-4.545" transform="translate(-82.695 -346.389)"/>
            <path id="Path_887359" data-name="Path 887359" d="M263.878,408.81a14.232,14.232,0,0,0,.82-19.254c-.254-.3-.52-.592-.8-.875s-.574-.55-.874-.8a14.232,14.232,0,0,0-20.075,20.039c.253.3.519.592.8.875s.574.55.873.8a14.233,14.233,0,0,0,19.255-.786" transform="translate(-159.166 -255.436)" fill="#dcf4ff"/>
            <g id="Group_1112323" data-name="Group 1112323" transform="translate(84.584 133.245)" style="mix-blend-mode: multiply;isolation: isolate">
              <g id="Group_1112322" data-name="Group 1112322">
                <g id="Group_1112321" data-name="Group 1112321" clip-path="url(#clip-path-8)">
                  <path id="Path_887360" data-name="Path 887360" d="M251.981,417.06l20.147-20.111a14.233,14.233,0,1,1-20.147,20.111" transform="translate(-251.981 -396.949)" fill="#dcf4ff"/>
                </g>
              </g>
            </g>
            <path id="Path_887361" data-name="Path 887361" d="M251.266,416.272l20.075-20.039c-.253-.3-.519-.592-.8-.875s-.574-.55-.874-.8L249.59,414.593c.253.3.52.592.8.875s.574.55.874.8" transform="translate(-165.809 -262.112)" fill="#83d0e5"/>
            <path id="Path_887362" data-name="Path 887362" d="M264.567,389.218c-.262-.31-.535-.608-.81-.884s-.573-.549-.883-.812a14.381,14.381,0,0,0-20.285,20.249c.262.31.534.608.81.884l.21-.209c-.27-.271-.537-.562-.794-.866a14.084,14.084,0,0,1,19.866-19.831c.3.257.594.525.865.8s.537.562.794.866Z" transform="translate(-158.921 -255.193)"/>
            <rect id="Rectangle_406715" data-name="Rectangle 406715" width="15.142" height="0.296" transform="matrix(0.708, -0.707, 0.707, 0.708, 89.046, 150.37)"/>
            <rect id="Rectangle_406716" data-name="Rectangle 406716" width="23.015" height="0.296" transform="translate(85.22 150.824) rotate(-44.909)"/>
            <path id="Path_887363" data-name="Path 887363" d="M293.891,449.822l-.245-.167a14.1,14.1,0,0,1-11.9,6.448l-.023.3a14.417,14.417,0,0,0,12.172-6.577" transform="translate(-187.153 -298.717)"/>
            <path id="Path_887364" data-name="Path 887364" d="M186.256,562.2a14.232,14.232,0,0,0,.325-19.268c-.261-.293-.534-.578-.824-.854s-.588-.535-.894-.781a14.232,14.232,0,0,0-19.553,20.549c.261.293.534.578.824.854s.588.535.894.781a14.232,14.232,0,0,0,19.228-1.281" transform="translate(-107.429 -357.508)" fill="#dcf4ff"/>
            <g id="Group_1112326" data-name="Group 1112326" transform="translate(58.704 184.565)" style="mix-blend-mode: multiply;isolation: isolate">
              <g id="Group_1112325" data-name="Group 1112325">
                <g id="Group_1112324" data-name="Group 1112324" clip-path="url(#clip-path-9)">
                  <path id="Path_887365" data-name="Path 887365" d="M174.884,570.457l19.623-20.623a14.233,14.233,0,1,1-19.623,20.623" transform="translate(-174.884 -549.834)" fill="#dcf4ff"/>
                </g>
              </g>
            </g>
            <path id="Path_887366" data-name="Path 887366" d="M174.146,569.692,193.7,549.142c-.261-.293-.534-.578-.824-.854s-.588-.535-.894-.781l-19.553,20.55c.261.293.535.578.825.854s.588.535.894.781" transform="translate(-114.548 -363.723)" fill="#83d0e5"/>
            <path id="Path_887367" data-name="Path 887367" d="M186.448,542.585c-.27-.3-.55-.594-.833-.863s-.587-.534-.9-.789A14.38,14.38,0,0,0,164.955,561.7c.27.3.55.593.833.863l.2-.215c-.277-.264-.551-.548-.816-.845a14.084,14.084,0,0,1,19.349-20.335c.311.249.608.51.885.773s.551.548.816.845Z" transform="translate(-107.186 -357.264)"/>
            <rect id="Rectangle_406718" data-name="Rectangle 406718" width="15.142" height="0.296" transform="matrix(0.69, -0.724, 0.724, 0.69, 63.083, 202.083)"/>
            <rect id="Rectangle_406719" data-name="Rectangle 406719" width="23.015" height="0.296" transform="matrix(0.69, -0.724, 0.724, 0.69, 59.275, 202.639)"/>
            <path id="Path_887368" data-name="Path 887368" d="M216.943,602.548l-.249-.16a14.1,14.1,0,0,1-11.734,6.752l-.015.3a14.414,14.414,0,0,0,12-6.887" transform="translate(-136.15 -400.182)"/>
            <path id="Path_887369" data-name="Path 887369" d="M373.824,456.718a14.233,14.233,0,0,0-8.444-17.323c-.366-.143-.738-.273-1.122-.388s-.767-.21-1.151-.291a14.232,14.232,0,0,0-8.116,27.18c.366.143.739.273,1.122.388s.766.21,1.151.291a14.232,14.232,0,0,0,16.56-9.857" transform="translate(-229.823 -291.247)" fill="#dcf4ff"/>
            <g id="Group_1112329" data-name="Group 1112329" transform="translate(126.291 147.76)" style="mix-blend-mode: multiply;isolation: isolate">
              <g id="Group_1112328" data-name="Group 1112328">
                <g id="Group_1112327" data-name="Group 1112327" clip-path="url(#clip-path-10)">
                  <path id="Path_887370" data-name="Path 887370" d="M376.229,467.466l8.145-27.276a14.233,14.233,0,1,1-8.145,27.276" transform="translate(-376.229 -440.19)" fill="#dcf4ff"/>
                </g>
              </g>
            </g>
            <path id="Path_887371" data-name="Path 887371" d="M375.16,467.182,383.276,440c-.366-.143-.738-.273-1.122-.388s-.766-.211-1.151-.291l-8.116,27.18c.366.143.738.273,1.122.388s.767.21,1.151.291" transform="translate(-247.718 -291.854)" fill="#83d0e5"/>
            <path id="Path_887372" data-name="Path 887372" d="M355.8,466.141l.085-.284c-.366-.11-.739-.239-1.11-.384a14.084,14.084,0,0,1,8.031-26.9c.4.083.77.178,1.139.288s.739.238,1.11.384l.108-.276c-.379-.148-.761-.28-1.134-.391s-.758-.209-1.163-.294a14.38,14.38,0,0,0-8.2,27.463c.379.148.761.28,1.134.392" transform="translate(-229.551 -290.963)"/>
            <rect id="Rectangle_406721" data-name="Rectangle 406721" width="15.142" height="0.297" transform="translate(128.793 170.286) rotate(-73.375)"/>
            <rect id="Rectangle_406722" data-name="Rectangle 406722" width="23.015" height="0.297" transform="translate(125.653 172.509) rotate(-73.374)"/>
            <path id="Path_887373" data-name="Path 887373" d="M414.293,489.5a15.343,15.343,0,0,0,1.559-5.431l-.3-.03a14.115,14.115,0,0,1-7.4,11.337l.12.271a14.022,14.022,0,0,0,6.015-6.147" transform="translate(-271.149 -321.562)"/>
            <path id="Path_887374" data-name="Path 887374" d="M296.409,604.335a14.232,14.232,0,0,0-14.879-12.247c-.392.021-.785.058-1.182.113s-.784.128-1.168.214a14.232,14.232,0,0,0,3.914,28.094c.392-.022.785-.059,1.182-.114s.785-.127,1.168-.214a14.233,14.233,0,0,0,10.965-15.848" transform="translate(-178.09 -393.325)" fill="#dcf4ff"/>
            <g id="Group_1112332" data-name="Group 1112332" transform="translate(102.258 198.739)" style="mix-blend-mode: multiply;isolation: isolate">
              <g id="Group_1112331" data-name="Group 1112331">
                <g id="Group_1112330" data-name="Group 1112330" clip-path="url(#clip-path-11)">
                  <path id="Path_887375" data-name="Path 887375" d="M308.562,620.392,304.634,592.2a14.233,14.233,0,1,1,3.928,28.194" transform="translate(-304.634 -592.06)" fill="#dcf4ff"/>
                </g>
              </g>
            </g>
            <path id="Path_887376" data-name="Path 887376" d="M307.418,620.226,303.5,592.132c-.392.022-.785.058-1.182.114s-.785.127-1.168.214l3.914,28.094c.392-.022.785-.058,1.182-.114s.785-.127,1.168-.213" transform="translate(-200.065 -393.368)" fill="#83d0e5"/>
            <path id="Path_887377" data-name="Path 887377" d="M284.009,620.294l-.041-.294c-.378.053-.771.091-1.17.113a14.084,14.084,0,0,1-3.873-27.8c.4-.089.774-.158,1.156-.211s.771-.09,1.169-.113l-.016-.3c-.406.022-.808.061-1.194.115s-.782.126-1.18.216a14.381,14.381,0,0,0,3.955,28.387c.406-.023.808-.061,1.194-.115" transform="translate(-177.803 -393.076)"/>
            <path id="Path_887378" data-name="Path 887378" d="M313.391,630.691l-2.089-15-.293.041,2.089,15Z" transform="translate(-206.61 -409.021)"/>
            <rect id="Rectangle_406724" data-name="Rectangle 406724" width="0.296" height="23.015" transform="matrix(0.99, -0.138, 0.138, 0.99, 101.379, 202.242)"/>
            <path id="Path_887379" data-name="Path 887379" d="M345.447,631.27a14.649,14.649,0,0,0,.716-11.543l-.281.1a14.115,14.115,0,0,1-2.019,13.386l.223.2a11.286,11.286,0,0,0,1.361-2.135" transform="translate(-228.438 -411.701)"/>
            <path id="Path_887380" data-name="Path 887380" d="M472.425,519.528a14.232,14.232,0,0,0,7.546-17.732c-.132-.37-.278-.737-.443-1.1s-.344-.717-.535-1.06a14.232,14.232,0,0,0-25.845,11.689c.132.37.278.737.443,1.1s.344.717.535,1.06a14.232,14.232,0,0,0,18.3,6.043" transform="translate(-300.49 -327.063)" fill="#dcf4ff"/>
            <g id="Group_1112335" data-name="Group 1112335" transform="translate(153.101 173.631)" style="mix-blend-mode: multiply;isolation: isolate">
              <g id="Group_1112334" data-name="Group 1112334">
                <g id="Group_1112333" data-name="Group 1112333" clip-path="url(#clip-path-12)">
                  <path id="Path_887381" data-name="Path 887381" d="M456.1,528.992l25.937-11.731A14.233,14.233,0,1,1,456.1,528.992" transform="translate(-456.099 -517.261)" fill="#dcf4ff"/>
                </g>
              </g>
            </g>
            <path id="Path_887382" data-name="Path 887382" d="M455.757,527.954,481.6,516.264c-.132-.37-.278-.737-.443-1.1s-.344-.717-.535-1.06L454.78,525.792c.132.37.278.737.443,1.1s.344.717.535,1.06" transform="translate(-302.122 -341.532)" fill="#83d0e5"/>
            <path id="Path_887383" data-name="Path 887383" d="M479.838,501.489c-.136-.384-.287-.758-.447-1.113s-.339-.708-.54-1.071a14.38,14.38,0,0,0-26.114,11.811c.136.384.287.758.447,1.113l.27-.122c-.157-.347-.3-.714-.438-1.09a14.084,14.084,0,0,1,25.576-11.568c.2.356.371.7.529,1.049s.3.714.438,1.09Z" transform="translate(-300.218 -326.806)"/>
            <rect id="Rectangle_406726" data-name="Rectangle 406726" width="15.142" height="0.296" transform="translate(158.328 184.136) rotate(-24.332)"/>
            <rect id="Rectangle_406727" data-name="Rectangle 406727" width="23.015" height="0.296" transform="translate(154.594 183.228) rotate(-24.36)"/>
            <path id="Path_887384" data-name="Path 887384" d="M493.107,568.684l-.171-.242a14.1,14.1,0,0,1-13.412,1.844l-.126.269a14.416,14.416,0,0,0,13.708-1.87" transform="translate(-318.477 -377.631)"/>
            <path id="Path_887385" data-name="Path 887385" d="M398.88,670.149a14.232,14.232,0,0,0,.556-19.263c-.257-.3-.527-.585-.814-.864s-.581-.542-.884-.792a14.232,14.232,0,0,0-19.8,20.313c.258.3.528.585.814.864s.581.542.885.792a14.233,14.233,0,0,0,19.243-1.05" transform="translate(-248.76 -429.143)" fill="#dcf4ff"/>
            <g id="Group_1112338" data-name="Group 1112338" transform="translate(129.993 220.88)" style="mix-blend-mode: multiply;isolation: isolate">
              <g id="Group_1112337" data-name="Group 1112337">
                <g id="Group_1112336" data-name="Group 1112336" clip-path="url(#clip-path-13)">
                  <path id="Path_887386" data-name="Path 887386" d="M387.26,678.4l19.869-20.385A14.233,14.233,0,1,1,387.26,678.4" transform="translate(-387.26 -658.018)" fill="#dcf4ff"/>
                </g>
              </g>
            </g>
            <path id="Path_887387" data-name="Path 887387" d="M386.534,677.628l19.8-20.313c-.258-.3-.528-.585-.814-.864s-.582-.542-.885-.792l-19.8,20.313c.257.3.527.584.814.864s.581.542.885.792" transform="translate(-255.656 -435.571)" fill="#83d0e5"/>
            <path id="Path_887388" data-name="Path 887388" d="M399.306,650.545c-.267-.307-.543-.6-.822-.873s-.575-.537-.894-.8a14.38,14.38,0,0,0-20,20.525c.266.307.543.6.822.873l.207-.212c-.273-.266-.544-.554-.806-.855A14.084,14.084,0,0,1,397.4,649.1c.313.258.6.514.875.783s.544.554.806.855Z" transform="translate(-248.518 -428.898)"/>
            <rect id="Rectangle_406729" data-name="Rectangle 406729" width="15.142" height="0.297" transform="translate(134.414 238.217) rotate(-45.737)"/>
            <rect id="Rectangle_406730" data-name="Rectangle 406730" width="23.015" height="0.297" transform="translate(130.602 238.73) rotate(-45.737)"/>
            <path id="Path_887389" data-name="Path 887389" d="M429.253,710.81l-.248-.164a14.1,14.1,0,0,1-11.814,6.61l-.019.3a14.415,14.415,0,0,0,12.08-6.743" transform="translate(-277.138 -472.101)"/>
            <path id="Path_887390" data-name="Path 887390" d="M306.9,392.869c4.068-8.025,7.857-15.525,10.2-20.213,2.4-4.81,2.919-9.171,1.538-12.962a14.474,14.474,0,0,0-7.243-7.74L173.609,282.117l-.268.529,137.8,69.845a14.139,14.139,0,0,1,6.94,7.413c1.32,3.631.81,7.832-1.514,12.488-7.256,14.533-28.444,56.107-28.657,56.525l.528.27c.144-.284,9.917-19.459,18.462-36.317" transform="translate(-115.155 -187.418)"/>
            <rect id="Rectangle_406731" data-name="Rectangle 406731" width="0.593" height="89.431" transform="matrix(0.452, -0.892, 0.892, 0.452, 7.648, 194.938)"/>
            <rect id="Rectangle_406732" data-name="Rectangle 406732" width="0.593" height="2.965" transform="translate(25.497 143.018) rotate(-63.116)"/>
            <path id="Path_887391" data-name="Path 887391" d="M226.53,501.334l.268-.529,5.289,2.681-.268.529Zm-10.578-5.362.268-.529,5.289,2.681-.268.529Zm-10.578-5.361.268-.529,5.289,2.681-.268.529ZM194.8,485.25l.268-.529,5.289,2.681-.268.529Zm-10.578-5.361.268-.529,5.289,2.681-.268.529Zm-10.578-5.362.268-.529,5.289,2.681-.268.529Zm-10.578-5.361.268-.529,5.289,2.681-.268.529ZM152.484,463.8l.268-.529,5.289,2.681-.268.529Zm-10.578-5.362.268-.529,5.289,2.681-.268.529Zm-10.578-5.361.268-.529,5.289,2.681-.268.529Zm-10.578-5.361.268-.529,5.289,2.681-.268.529Zm-10.578-5.362.268-.529,5.289,2.681-.268.529ZM99.594,437l.268-.529,5.289,2.681-.268.529Z" transform="translate(-66.163 -289.956)"/>
            <rect id="Rectangle_406733" data-name="Rectangle 406733" width="0.593" height="2.965" transform="translate(170.945 216.739) rotate(-63.117)"/>
            <path id="Path_887392" data-name="Path 887392" d="M271.041,1223.067H251.494l-7.925-8.856-14.5,8.856h-3.122a2.292,2.292,0,0,0-2.265,1.83,2.269,2.269,0,0,0,2.183,2.734H271.32a.612.612,0,0,0,.6-.62v-3.038a.9.9,0,0,0-.883-.906" transform="translate(-148.572 -806.631)" fill="#fec786"/>
            <path id="Path_887393" data-name="Path 887393" d="M275.374,1217.681v-8.231s-3.292-4.546-8.3-2.226c0,0-7.581,5.517-14.264-1.159l-16.6,7.552s-4.55,1.56-5.783,4.064Z" transform="translate(-153.078 -801.22)" fill="#7fc6a6"/>
            <rect id="Rectangle_406734" data-name="Rectangle 406734" width="0.333" height="8.19" transform="translate(122.13 408.23)"/>
            <path id="Path_887394" data-name="Path 887394" d="M317.309,1211.556a7.67,7.67,0,0,1-1.031-.058l.049-.337a11.547,11.547,0,0,0,7.682-2.061l.189.281a12.056,12.056,0,0,1-6.889,2.175" transform="translate(-210.111 -803.236)"/>
            <path id="Path_887395" data-name="Path 887395" d="M351.928,1232.627l-.186-.283,2.12-1.467.186.283Z" transform="translate(-233.671 -817.703)"/>
            <path id="Path_887396" data-name="Path 887396" d="M347.4,1231.393l-.186-.283,2.119-1.466.186.283Z" transform="translate(-230.663 -816.884)"/>
            <path id="Path_887397" data-name="Path 887397" d="M223.993,1244.454a2.475,2.475,0,0,1-.845-1.87,2.425,2.425,0,0,1,2.391-2.453H270.48a1.3,1.3,0,0,1,1.282,1.315v2.276h-.333v-2.276a.963.963,0,0,0-.949-.974H225.539a2.088,2.088,0,0,0-2.058,2.111,2.133,2.133,0,0,0,.727,1.611Z" transform="translate(-148.243 -823.851)"/>
            <path id="Path_887398" data-name="Path 887398" d="M230.124,1217.436l-.3-.146c.037-.081.947-1.995,4.344-3.481,3.338-1.46,18.021-8.141,18.169-8.208l.135.312c-.148.068-14.833,6.749-18.173,8.21-3.269,1.43-4.166,3.294-4.174,3.313" transform="translate(-152.677 -800.911)"/>
            <path id="Path_887399" data-name="Path 887399" d="M450.361,577.127c-5.581.742-3.147-3.007-3.147-3.007-3.037.091-3.507-.954-3.371-1.841a2.081,2.081,0,0,1,1.109-1.505c1.844-.97,7.485-3.911,11.122-5.542,1.552-2.06-2.258-4.289-4.689-4.879-1.253-.3-2.706-1.515.563-2.37,2.672-.7,8.787.08,8.787.08l8.374-11.718,13.5,14.582s-10.918,12.193-12.55,14.042-9.175,6.231-12.45,6.687c-5.943.827-4.225-1.452-4.225-1.452-6.254.281-3.02-3.076-3.02-3.076" transform="translate(-294.842 -362.951)" fill="#fe9f73"/>
            <path id="Path_887400" data-name="Path 887400" d="M459.2,622.839a.3.3,0,0,0-.34-.477,36.47,36.47,0,0,1-5.592,1.95.3.3,0,0,0,.149.574,36.352,36.352,0,0,0,5.707-1.995.292.292,0,0,0,.075-.053" transform="translate(-300.968 -413.43)" fill="#f07162"/>
            <path id="Path_887401" data-name="Path 887401" d="M468.055,630.821a.3.3,0,0,0-.374-.457,18.4,18.4,0,0,1-5.039,2.258.3.3,0,1,0,.145.575,18.658,18.658,0,0,0,5.226-2.341.3.3,0,0,0,.042-.035" transform="translate(-307.196 -418.734)" fill="#f07162"/>
            <path id="Path_887402" data-name="Path 887402" d="M476.561,641.3a.3.3,0,0,0-.366-.462,15.845,15.845,0,0,1-4.545,1.819.3.3,0,0,0,.121.58,16.182,16.182,0,0,0,4.741-1.9.3.3,0,0,0,.049-.039" transform="translate(-313.172 -425.694)" fill="#f07162"/>
            <path id="Path_887403" data-name="Path 887403" d="M517.427,567.91,513.76,572s-13.671-11.788-14.659-13.341c.235-.235,4.112-5.908,4.112-5.908Z" transform="translate(-331.565 -367.209)" fill="#7fc6a6"/>
            <path id="Path_887404" data-name="Path 887404" d="M651.618,382.537c-2.913-14.77,3.466-24.1,8.231-29.023a63.617,63.617,0,0,1,3.316,14.234c.666,6.373-2.764,14.8-8.029,23.6a22.738,22.738,0,0,1-3.518-8.809" transform="translate(-432.399 -234.849)" fill="#fec786"/>
            <path id="Path_887405" data-name="Path 887405" d="M480.431,146.273s23.281-2.126,34.9,17.125c10.612,17.587,30.87,42.3,33.412,66.627,2.054,19.665-34.854,58.869-44.493,68.241l-17.065-18.195s27.162-43.085,29.276-48.4c1.922-4.832-37.817-57.258-37.817-57.258Z" transform="translate(-317.973 -97.127)" fill="#fff"/>
            <path id="Path_887406" data-name="Path 887406" d="M550.425,324.178a.476.476,0,0,0,0-.953c-2.9,0-7.877-2.872-8.862-3.458-1.58-6.452-23.942-37.962-24.9-39.316a.477.477,0,1,0-.777.552c.237.333,23.727,33.431,24.791,39.152l.039.208.18.111c.245.151,6.051,3.7,9.534,3.7" transform="translate(-342.655 -186.178)"/>
            <path id="Path_887407" data-name="Path 887407" d="M544.348,197.6a.476.476,0,0,0,.4-.735l-25.621-39.625c-13.1-14.01-29.14-12.151-29.3-12.131a.477.477,0,0,0-.413.532.484.484,0,0,0,.532.413c.157-.019,15.706-1.8,28.455,11.805l25.546,39.523a.476.476,0,0,0,.4.218" transform="translate(-325.128 -96.337)"/>
            <path id="Path_887408" data-name="Path 887408" d="M519.949,465.654a.476.476,0,0,0,.359-.79c-3.893-4.465-14.968-16.013-16.818-17.939,9.49-14.582,29.145-48.053,29.149-48.994a.477.477,0,0,0-.474-.478h0a.477.477,0,0,0-.467.383c-.555,1.475-18.982,33.222-29.21,48.886l-.207.318.263.273c.128.134,12.831,13.341,17.049,18.178a.475.475,0,0,0,.359.163" transform="translate(-333.676 -264.038)"/>
            <path id="Path_887409" data-name="Path 887409" d="M127.461,633.658a2.372,2.372,0,0,0,2.636-.049l3.827-6.9a2.1,2.1,0,0,0-1.139-2.673c-1.239-.717-2.7-.54-3.2.36l-3.811,6.867a3.693,3.693,0,0,0,1.684,2.392" transform="translate(-83.557 -414.271)" fill="#fe9f73"/>
            <path id="Path_887410" data-name="Path 887410" d="M139.384,639.81c1.353.721,2.778.624,2.908.4l4.323-7.33a2.068,2.068,0,0,0-1.081-2.678c-1.227-.733-2.7-.581-3.22.307l-4.433,7.517a2.674,2.674,0,0,0,1.5,1.779" transform="translate(-91.598 -418.353)" fill="#fe9f73"/>
            <path id="Path_887411" data-name="Path 887411" d="M153.6,646.011a3.288,3.288,0,0,0,2.711.4l4.139-6.768a1.91,1.91,0,0,0-.973-2.5c-1.136-.693-2.511-.565-3.013.255l-4.244,6.94a2.468,2.468,0,0,0,1.38,1.666" transform="translate(-101.122 -422.977)" fill="#fe9f73"/>
            <path id="Path_887412" data-name="Path 887412" d="M129.332,633.672a.469.469,0,0,1-.531.023c-.227-.118-.336-.345-.245-.508l4.159-7.409a1.705,1.705,0,0,0-.919-2.179,2.514,2.514,0,0,0-1.52-.347,1.343,1.343,0,0,0-1.076.64l-3.772,6.8a.433.433,0,0,1-.575.083c-.227-.117-.337-.344-.246-.508l3.772-6.8a2,2,0,0,1,1.575-.936,3.671,3.671,0,0,1,2.223.507c1.323.765,1.92,2.156,1.36,3.166l-4.159,7.41a.256.256,0,0,1-.045.058" transform="translate(-82.759 -413.551)" fill="#f07162"/>
            <path id="Path_887413" data-name="Path 887413" d="M115.005,624.847a3.379,3.379,0,0,0,2.906.388l4.247-7.358a2.059,2.059,0,0,0-1.031-2.646c-1.244-.772-2.753-.622-3.277.287l-3.963,6.867c-.441.763.34,2.032,1.118,2.462" transform="translate(-75.573 -408.383)" fill="#fe9f73"/>
            <path id="Path_887414" data-name="Path 887414" d="M117.766,624.765a.474.474,0,0,1-.533.017c-.225-.12-.332-.347-.238-.509l4.286-7.343a1.689,1.689,0,0,0-.889-2.181,2.522,2.522,0,0,0-1.52-.362,1.358,1.358,0,0,0-1.089.626L113.9,621.75a.436.436,0,0,1-.577.076c-.226-.119-.333-.347-.24-.508l3.887-6.736a2.017,2.017,0,0,1,1.594-.916,3.683,3.683,0,0,1,2.222.528c1.315.776,1.893,2.169,1.315,3.169l-4.286,7.344a.251.251,0,0,1-.046.057" transform="translate(-75.099 -407.663)" fill="#f07162"/>
            <path id="Path_887415" data-name="Path 887415" d="M141.7,639.41a.474.474,0,0,1-.543.016c-.224-.122-.325-.35-.228-.51l4.351-7.069c.409-.694.076-1.552-.814-2.084a2.524,2.524,0,0,0-1.518-.37,1.366,1.366,0,0,0-1.1.618l-4.433,7.517a.435.435,0,0,1-.579.073c-.225-.12-.331-.348-.236-.509l4.433-7.517a2.025,2.025,0,0,1,1.6-.905,3.7,3.7,0,0,1,2.22.54c1.305.78,1.823,2.073,1.231,3.076l-4.353,7.073a.277.277,0,0,1-.04.049" transform="translate(-90.723 -417.633)" fill="#f07162"/>
            <path id="Path_887416" data-name="Path 887416" d="M155.063,645.341a.473.473,0,0,1-.542.017c-.224-.122-.327-.35-.229-.51l4.139-6.768a1.524,1.524,0,0,0-.769-2,2.323,2.323,0,0,0-1.39-.351,1.262,1.262,0,0,0-1.015.555l-4.244,6.94a.441.441,0,0,1-.582.066c-.224-.122-.326-.35-.229-.509l4.244-6.94a1.93,1.93,0,0,1,1.529-.835,3.493,3.493,0,0,1,2.091.529c1.228.748,1.745,2.062,1.176,2.992l-4.139,6.768a.246.246,0,0,1-.04.05" transform="translate(-99.758 -421.842)" fill="#f07162"/>
          </g>
        </g>
      </g>
    </g>
  </g>
</svg>
