<svg xmlns="http://www.w3.org/2000/svg" xmlns:xlink="http://www.w3.org/1999/xlink" width="107" height="107" viewBox="0 0 107 107">
  <defs>
    <clipPath id="clip-path">
      <rect id="Rectangle_406738" data-name="Rectangle 406738" width="60.289" height="60.022" fill="#fff"/>
    </clipPath>
  </defs>
  <g id="Group_1112756" data-name="Group 1112756" transform="translate(-285 -5989.9)">
    <g id="Grupo_156312" data-name="Grupo 156312" transform="translate(-3.668 1541.464)">
      <path id="Elipse_5845" data-name="Elipse 5845" d="M53.5,0A53.5,53.5,0,1,1,0,53.5,53.5,53.5,0,0,1,53.5,0Z" transform="translate(288.668 4448.437)" fill="#006543"/>
    </g>
    <g id="Group_1111831" data-name="Group 1111831" transform="translate(-101.527 -28.313)">
      <path id="Path_873216" data-name="Path 873216" d="M0,0H63.184V63.186H0Z" transform="translate(408.527 6040.213)" fill="none"/>
      <g id="Group_1112346" data-name="Group 1112346" transform="translate(410.238 6041.813)">
        <g id="Group_1112345" data-name="Group 1112345" clip-path="url(#clip-path)">
          <path id="Path_887436" data-name="Path 887436" d="M73.725,16.1c-.018-1.017-.125-1.99,1.11-2.1,1.858-.171,6.163.468,7.537-.462a6.053,6.053,0,0,0,.863-.842c.479-.6.7-1.713,1.572-1.713.9,0,1.039,1.175,1.508,1.777a3.6,3.6,0,0,0,2.044,1.234c1.826.25,3.787-.849,3.465,2.11l.527-.22c1.05-4.7.162-9.438-4.028-12.212-6.2-4.1-14.82-.164-15.5,7.269a11.335,11.335,0,0,1-.116,2.507,1.023,1.023,0,0,1-1.866-.166,11.836,11.836,0,0,1,1.779-7.657,11.973,11.973,0,0,1,20.3,0c2.105,3.352,2.145,6.871,1.384,10.669.309.63.924.867,1.21,1.554a4.749,4.749,0,0,1-2.25,5.538c-.469.238-1.771.487-1.97.653-.093.077-.873,1.724-1.153,2.125-.256.366-1.194,1.309-1.272,1.481-.386.853.158,4.29-.1,5.541-.6,2.91-4.54,4.018-7.1,3.75-1.856-.194-4.616-1.89-4.925-3.86-.187-1.189.28-4.645-.076-5.431-.078-.173-1.016-1.115-1.272-1.481-.28-.4-1.061-2.047-1.154-2.125-.2-.166-1.5-.415-1.97-.653-3.642-1.846-3.381-8.15,1.446-7.283m7.934-.131c-1.763.237-4.017-.176-5.835,0v6.1a7.621,7.621,0,0,0,1.506,3.345,7,7,0,0,0,10.887,0c2.264-2.751,1.313-6.159,1.507-9.443a5.507,5.507,0,0,1-4.936-1.826,6.682,6.682,0,0,1-3.129,1.826m-7.933,5.442c-.114-.979.084-2.144,0-3.147a1.25,1.25,0,0,0-1.767.2c-.72.99.614,3.336,1.9,3.275.049-.147-.124-.271-.131-.327m18.1-3.147v3.278c0,.028-.2.148-.131.2,1.269.064,2.611-2.293,1.9-3.274a1.25,1.25,0,0,0-1.767-.2M86.708,29.084a8.886,8.886,0,0,1-7.868,0v3.868a4.343,4.343,0,0,0,.849.986,4.994,4.994,0,0,0,6.1.064,4.728,4.728,0,0,0,.916-1.051Z" transform="translate(-60.642 0)" fill="#fff"/>
          <path id="Path_887437" data-name="Path 887437" d="M201.789,70.655a10.956,10.956,0,0,0-9.391-9.95c-.747-.108-2.295.253-2.515-.767-.492-2.279,3.927-1.059,5.027-.7A13.328,13.328,0,0,1,203.879,70.6a3.18,3.18,0,0,0,3.943-2.63L207.8,53.692l-.2-.2a11,11,0,0,1-9.747-9.921,55.9,55.9,0,0,1,.029-8.49,3.3,3.3,0,0,1,3.9-2.456c-.011-.675-.064-1.764.75-1.942a1.036,1.036,0,0,1,1.35.955,26.172,26.172,0,0,1,0,3.812c-.2,2.182-2.634,1.087-2.1-.86-.774-.039-1.767-.071-1.936.884.161,4.51-1,9.278,2.131,13.018,4.822,5.756,14.93,3,15.766-4.431.315-2.8-.1-6.1-.031-8.944-.465-.673-1.185-.53-1.9-.527-.027.737.251,1.821-.731,1.962-.645.093-1.087-.082-1.2-.746a26.525,26.525,0,0,1,0-4.4,1.034,1.034,0,0,1,1.515-.651c.63.29.382,1.305.424,1.87,2.091-.267,3.88.734,4.07,2.945.233,2.71.221,8.489-.728,10.951a11.117,11.117,0,0,1-8.292,6.919c-.3.069-.824-.078-.932.248l-.013,13.624c-.185,2.863-1.63,4.831-4.545,5.289l-13.6.01c-1.627,5.288-9.437,2.862-7.7-2.294a3.974,3.974,0,0,1,7.61.333Zm-14.326-1.018c-2.287.361-2.009,4.087.48,4.022,2.705-.07,2.428-4.481-.48-4.022" transform="translate(-159.726 -26.622)" fill="#fff"/>
          <path id="Path_887438" data-name="Path 887438" d="M2.2,263.647H6.987l.2-.2v-3.278c0-.237.781-.622,1.1-.589.29.029.865.464.865.72v9.244H35.114V260.3c0-.828,1.967-.974,1.967-.131v3.278l.2.2h4.786v-3.081a3.178,3.178,0,0,1,.4-.784,1.068,1.068,0,0,1,1.694.66c-.249,3.2.36,6.964.011,10.092a1.073,1.073,0,0,1-.886,1.081L1.1,271.637a1.087,1.087,0,0,1-1-1.1c.6-9.091-2.842-20.714,7.319-25.6,1.416-.681,4.32-1.588,5.856-1.341a1.012,1.012,0,0,1,.048,2c-.718.188-1.648.109-2.491.263-3.783.687-8.63,5.057-8.63,9.072Zm4.983,1.967H2.2v3.934H7.184Zm34.879,0H37.08v3.934h4.983Z" transform="translate(0 -211.615)" fill="#fff"/>
        </g>
      </g>
    </g>
  </g>
</svg>
